<svg id="icon-twitter" xmlns="http://www.w3.org/2000/svg" viewBox="0 0 30 30">
  <title>icon-twitter</title>
  <path d="M21.8548,10.8038a5.55,5.55,0,0,1-1.5945.4372,2.7853,2.7853,0,0,0,1.2207-1.5362,5.5623,5.5623,0,0,1-1.7632.6737,2.7791,2.7791,0,0,0-4.7308,2.5329A7.8816,7.8816,0,0,1,9.2647,10.01a2.78,2.78,0,0,0,.859,3.7075A2.761,2.761,0,0,1,8.8664,13.37l0,.0349a2.7786,2.7786,0,0,0,2.2272,2.7229,2.7828,2.7828,0,0,1-1.2538.0477,2.7792,2.7792,0,0,0,2.5935,1.9284,5.6008,5.6008,0,0,1-4.11,1.15A7.8951,7.8951,0,0,0,20.4776,12.6q0-.1806-.0081-.3592A5.6393,5.6393,0,0,0,21.8548,10.8038Z" fill="#fff"/>
</svg>
