<svg id="icon-youtube" xmlns="http://www.w3.org/2000/svg" viewBox="0 0 30 30">
  <title>icon-youtube</title>
  <path d="M22.3223,10.4951c-.4414-.7807-.9131-.9277-1.87-.9869S17.0894,9.42,15,9.42h0c-2.0893,0-4.4941.0293-5.4521.0884s-1.4287.2061-1.87.9869S7,12.6294,7,14.9976H7v.0049H7c0,2.3682.2363,3.7222.6777,4.5024s.9131.9278,1.87.9868S12.9107,20.58,15,20.58h0c2.0893,0,4.4947-.03,5.4521-.0884s1.4287-.2061,1.87-.9868S23,17.3706,23,15.0024v-.0049C23,12.6294,22.7636,11.2754,22.3223,10.4951Zm-8.915,7.4375V12.0674L17.95,15Z" fill="#fff" fill-rule="evenodd"/>
</svg>
