<svg id="icon-investment" xmlns="http://www.w3.org/2000/svg" viewBox="0 0 40 40">
  <title>icon-investment</title>
  <path d="M29.4063,13.6875a.9616.9616,0,0,1,.4375.375A1.0466,1.0466,0,0,1,30,14.625v9.9063a.9484.9484,0,0,1-.2969.7188A.9891.9891,0,0,1,29,25.5313a1.0841,1.0841,0,0,1-.3437-.0625,9.9023,9.9023,0,0,0-2.875-.4062,17.2256,17.2256,0,0,0-2.9062.2813q-.9375.1875-2.875.6719t-2.875.6719A15.6025,15.6025,0,0,1,14.2188,27a9.3673,9.3673,0,0,1-3.625-.6875.9567.9567,0,0,1-.4375-.375A1.0382,1.0382,0,0,1,10,25.375V15.4688a.945.945,0,0,1,.2969-.7187A.9858.9858,0,0,1,11,14.4688a1.0889,1.0889,0,0,1,.3438.0625,9.8927,9.8927,0,0,0,2.875.4063,17.2441,17.2441,0,0,0,2.9063-.2812q.9375-.1875,2.875-.6719t2.875-.6719A15.5857,15.5857,0,0,1,25.7813,13,9.3708,9.3708,0,0,1,29.4063,13.6875ZM20,23a2.2345,2.2345,0,0,0,1.7656-.875,3.4417,3.4417,0,0,0,0-4.25,2.2189,2.2189,0,0,0-3.5312,0,3.4417,3.4417,0,0,0,0,4.25A2.2331,2.2331,0,0,0,20,23Z" fill="#159E9D"/>
</svg>
