<svg id="icon-production" xmlns="http://www.w3.org/2000/svg" viewBox="0 0 40 40">
  <title>icon-production</title>
  <path d="M23.13,21.4961a.6725.6725,0,0,1,.3438.3906.6373.6373,0,0,1-.0312.5156A7.3668,7.3668,0,0,1,22.13,24.4649a.83.83,0,0,1-.4531.2344.7022.7022,0,0,1-.4844-.0781l-.9062-.5312a5.7282,5.7282,0,0,1-1.7187,1v1.0625a.7072.7072,0,0,1-.1875.4688.68.68,0,0,1-.4375.25,6.5154,6.5154,0,0,1-2.375,0,.6435.6435,0,0,1-.4531-.25.74.74,0,0,1-.1719-.4687V25.09a5.2474,5.2474,0,0,1-1.7187-1l-.9062.5313a.8136.8136,0,0,1-.5156.0781.68.68,0,0,1-.4219-.2344,7.7683,7.7683,0,0,1-1.3125-2.0625.6334.6334,0,0,1-.0312-.5156.6692.6692,0,0,1,.3438-.3906l1.0313-.5312a5.2145,5.2145,0,0,1,0-1.9687L10.38,18.4649a.8077.8077,0,0,1-.3437-.4062.6.6,0,0,1,.0313-.5A7.7683,7.7683,0,0,1,11.38,15.4961a.6337.6337,0,0,1,.4219-.2656.7118.7118,0,0,1,.5156.1094l.9063.5a5.2115,5.2115,0,0,1,1.7188-.9687V13.8086a.7228.7228,0,0,1,.1719-.4844.6632.6632,0,0,1,.4531-.2344,7.0029,7.0029,0,0,1,2.375-.0312.88.88,0,0,1,.4375.2656.69.69,0,0,1,.1875.4844v1.0625a6.0986,6.0986,0,0,1,1.7188.9688l.9063-.5a.6153.6153,0,0,1,.4844-.1094.76.76,0,0,1,.4531.2656,7.2183,7.2183,0,0,1,1.3125,2.0625.7518.7518,0,0,1,.0156.5.7367.7367,0,0,1-.3281.4063l-1.0625.5313a5.2145,5.2145,0,0,1,0,1.9688ZM19.0047,19.84a2.265,2.265,0,0,0-.6562-1.4531,2.2034,2.2034,0,0,0-1.4687-.6719,2.5,2.5,0,0,0-1.7812.625,2.5616,2.5616,0,0,0-.5937,1.7813,2.1948,2.1948,0,0,0,2.0938,2.0938,2.6718,2.6718,0,0,0,1.8125-.5937A2.5663,2.5663,0,0,0,19.0047,19.84Zm6.75-1.4062a.3371.3371,0,0,1-.2031.1719.4713.4713,0,0,1-.2656.0156,3.4212,3.4212,0,0,1-1-.5937.327.327,0,0,1-.1406-.2344.4609.4609,0,0,1,.0469-.2656l.25-.4375a3.099,3.099,0,0,1-.5-.8437h-.5a.3925.3925,0,0,1-.2656-.0937.3113.3113,0,0,1-.1094-.25,3.0613,3.0613,0,0,1-.0312-1.1562.4165.4165,0,0,1,.1406-.2187.3925.3925,0,0,1,.2656-.0937h.5a3.6285,3.6285,0,0,1,.5-.875l-.25-.4375a.4609.4609,0,0,1-.0469-.2656.327.327,0,0,1,.1406-.2344,3.8564,3.8564,0,0,1,1-.5625.3337.3337,0,0,1,.2656-.0156.3371.3371,0,0,1,.2031.1719l.25.4688a2.69,2.69,0,0,1,1,0l.25-.4687a.3582.3582,0,0,1,.4688-.1562,2.96,2.96,0,0,1,1,.5625.3335.3335,0,0,1,.1406.2344.4772.4772,0,0,1-.0469.2656l-.25.4375a3.6613,3.6613,0,0,1,.5.875h.5a.396.396,0,0,1,.2656.0938.2835.2835,0,0,1,.1094.2188,2.715,2.715,0,0,1,0,1.1563.3143.3143,0,0,1-.1094.25.396.396,0,0,1-.2656.0938h-.5a3.1239,3.1239,0,0,1-.5.8438l.25.4375a.4772.4772,0,0,1,.0469.2656.3335.3335,0,0,1-.1406.2344,3.434,3.434,0,0,1-1,.5938.4709.4709,0,0,1-.2656-.0156.3345.3345,0,0,1-.2031-.1719l-.25-.4375a2.69,2.69,0,0,1-1,0Zm0,9.3438a.3371.3371,0,0,1-.2031.1719.4713.4713,0,0,1-.2656.0156,3.4212,3.4212,0,0,1-1-.5937.327.327,0,0,1-.1406-.2344.4609.4609,0,0,1,.0469-.2656l.25-.4375a3.099,3.099,0,0,1-.5-.8437h-.5a.3925.3925,0,0,1-.2656-.0937.3113.3113,0,0,1-.1094-.25,3.0613,3.0613,0,0,1-.0312-1.1562.4165.4165,0,0,1,.1406-.2187.3925.3925,0,0,1,.2656-.0937h.5a3.6285,3.6285,0,0,1,.5-.875l-.25-.4375a.4609.4609,0,0,1-.0469-.2656.327.327,0,0,1,.1406-.2344,2.951,2.951,0,0,1,1-.5625.3337.3337,0,0,1,.2656-.0156.3371.3371,0,0,1,.2031.1719l.25.4375a3.2152,3.2152,0,0,1,1,.0313l.25-.4687a.3582.3582,0,0,1,.4688-.1562,2.96,2.96,0,0,1,1,.5625.3335.3335,0,0,1,.1406.2344.4772.4772,0,0,1-.0469.2656l-.25.4375a3.6613,3.6613,0,0,1,.5.875h.5a.396.396,0,0,1,.2656.0938.2835.2835,0,0,1,.1094.2188,2.715,2.715,0,0,1,0,1.1563.3143.3143,0,0,1-.1094.25.396.396,0,0,1-.2656.0938h-.5a3.1239,3.1239,0,0,1-.5.8438l.25.4375a.4772.4772,0,0,1,.0469.2656.3335.3335,0,0,1-.1406.2344,3.434,3.434,0,0,1-1,.5938.4709.4709,0,0,1-.2656-.0156.3345.3345,0,0,1-.2031-.1719l-.25-.4375a2.69,2.69,0,0,1-1,0ZM26.8328,16.418a1.052,1.052,0,0,0,.75-.75,1.2939,1.2939,0,0,0-.2656-1.1719,1.1844,1.1844,0,0,0-1.1406-.25,1.0878,1.0878,0,0,0-.75.7656,1.1084,1.1084,0,0,0,1.4063,1.4062Zm0,9.3281a1.09,1.09,0,0,0,.75-.75,1.27,1.27,0,0,0-.2656-1.1562,1.1844,1.1844,0,0,0-1.1406-.25,1.0878,1.0878,0,0,0-.75.7656,1.2178,1.2178,0,0,0,.2656,1.1406A1.1839,1.1839,0,0,0,26.8328,25.7461Z" fill="#2F2F2F"/>
</svg>
