<svg id="icon-btn_edit" xmlns="http://www.w3.org/2000/svg" viewBox="0 0 24 24">
  <title>icon-btn_edit</title>
  <path d="M12.7706,7.7295a.339.339,0,0,1,.2461-.1094.2591.2591,0,0,1,.2188.1094l3.0352,3.0352a.26.26,0,0,1,.1094.2188.3408.3408,0,0,1-.1094.2461L9.1065,18.3935l-3.3359.6016a.6767.6767,0,0,1-.7656-.7656l.6016-3.3359ZM7.4112,16.5888V15.2763H6.4268l-.3281,1.75.875.875,1.75-.3281v-.9844Zm.9844-2.2969a.3965.3965,0,0,0,.5469,0l4.2109-4.2109a.3867.3867,0,0,0-.5469-.5469L8.3956,13.7451a.3965.3965,0,0,0,0,.5469ZM18.6221,8.8779a1.32,1.32,0,0,0,0-1.8594L16.9815,5.3779a1.32,1.32,0,0,0-1.8594,0L13.8643,6.6357a.3408.3408,0,0,0-.1094.2461.26.26,0,0,0,.1094.2188l3.0352,3.0352a.2591.2591,0,0,0,.2188.1094.339.339,0,0,0,.2461-.1094Z" fill="#fff"/>
</svg>
