<svg id="icon-info" xmlns="http://www.w3.org/2000/svg" viewBox="0 0 20 20">
  <title>icon-info</title>
  <path d="M12.7139,15.125l-.1826.748q-.8218.3223-1.3115.4932a3.4721,3.4721,0,0,1-1.1377.1709,2.2642,2.2642,0,0,1-1.5479-.4863,1.568,1.568,0,0,1-.5518-1.2324,4.4309,4.4309,0,0,1,.041-.5937c.0283-.2021.0723-.43.1328-.6846l.6855-2.4238q.0923-.3486.1543-.66a2.95,2.95,0,0,0,.0625-.5684A.881.881,0,0,0,8.8672,9.24a1.0814,1.0814,0,0,0-.7324-.1826,1.89,1.89,0,0,0-.5449.083c-.1865.0557-.3457.1074-.4785.1582l.1826-.748c.4482-.1816.8779-.3389,1.2881-.4687a3.8588,3.8588,0,0,1,1.1631-.1953,2.219,2.219,0,0,1,1.5254.4775,1.5881,1.5881,0,0,1,.5361,1.2412q0,.1582-.0381.5566a3.7341,3.7341,0,0,1-.1367.73l-.6826,2.415a6.7682,6.7682,0,0,0-.15.6641,3.5686,3.5686,0,0,0-.0664.5645.8085.8085,0,0,0,.2158.6553,1.204,1.204,0,0,0,.7461.1748,2.1559,2.1559,0,0,0,.5635-.0869A3.0843,3.0843,0,0,0,12.7139,15.125ZM12.8887,4.99a1.4176,1.4176,0,0,1-.4775,1.0752,1.7151,1.7151,0,0,1-2.3037,0,1.4457,1.4457,0,0,1,0-2.1543,1.7041,1.7041,0,0,1,2.3037,0A1.43,1.43,0,0,1,12.8887,4.99Z" fill="#fff"/>
</svg>
