<svg id="illu-countries-mob" xmlns="http://www.w3.org/2000/svg" xmlns:xlink="http://www.w3.org/1999/xlink" viewBox="0 0 230 150">
  <defs>
    <clipPath id="clip-path">
      <circle cx="115" cy="75" r="60" fill="none"/>
    </clipPath>
  </defs>
  <title>illu-countries-mob</title>
  <g id="illu-countries">
    <g>
      <circle cx="115" cy="75" r="60" fill="#ceebea"/>
      <g clip-path="url(#clip-path)">
        <g id="admin0">
          <path id="FO" d="M102.9475,36.6253h.1547l-.0928.1547-.2785-.1547Z" fill="#149e9d"/>
          <path id="US" d="M31.4168,41.2042l.34-.4641.2785.3095-.4331.8663-.4331-.0309ZM11.8016,42.3489l-.7425.4331-.495.0619.4331-.3095Zm10.1478-2.8463.8353-.2785-.7116.7116-1.4851.4022.0619-.2785Zm19.3986,23.73.0619-.3095-.1547-.0928-.3095-.9284-.2785-.8972-.0619-.0619-.0928-.0619-.5878-.2166-.7425.7116L38.44,60.819l-.0619-.65-.7735-.9284-1.0825-.03-.1237.3712-1.8253-.0309-2.1347-.8663.1237-.1856-1.6088.1547.0309-.4331-.4641-.5878-1.2378-.5569-.2475-1.98.1237-.5569-.34-.8663.1547-1.0828.6189-.7425.2785-1.0519.526-.526,1.64-2.4442.1856-1.0828,1.1757.0619.4022-.6807H50.1658l1.33.34.526.3712,1.0831.031-1.9182.8972.99-.0928-.0619.2785,1.5774-.65.2785.6807,1.5158-.1856.1856.2475L55.92,47.98l-.0619.1237.2166.3095-1.1757-.1237-.0928.5878.5878-.3712.526.34-.2166.8353.2785.3095-.0928.65-.1547.2785-.1237.0928-.0619-.0928-.2475.2475-.0309.0309h0l-.4022.4331,1.0519.1237,1.8568-.7732.2475-.2475-.0619-.0619v-.0928l.0309-.0309.0309-.0928,1.4541-.0309.5878-.6809.2166-.0928.0928-.0928.4022-.2785.3712-.0928h0l1.9491-.0619.99-.68,1.021-1.1757.7735.3095-.34.99.0619.0928h.1238l-.0928.2785.1547.0619.0309.3095-1.1757.5569-.1547-.1856-1.2377.7732-.5569.7116.526.495-2.3514.526.8044-.0309-1.2687.464-1.5779,1.8253-.1856-.99-.5876,1.7947h.3095l-.0932.99-.7113.8044-.3712-.0309-.7116.6189L54.25,59.0252l-.5878.99-.0309.7425.34,2.2895-.4022,1.2063-.495.0619L52.3007,62.49l.2785-1.0519-.7116-.9284-.6807.3712-.65-.6807-.99.1856-.7425-.1237L47.32,61.3142l-.4641-.526-.495.1547L45.2157,60.85l-2.32,1.2063-.2785,1.64-.7116-.0928ZM33.6444,46.1232l-.0619.0309.0309-.0309Zm-1.5158-6.59-.65.3712-.5569.3712.2475-.6807.9591-.0619.0619-.1547h-.8972l-.2785-.5878-1.7017-.7425-.7116.0928-.8044-.34.2785-.2475H26.9309l-.6189.7425-.68-.1546-.9284.4022-.99.0619,1.5779-1.1757L22.29,38.8217l.4022.0619-1.2376.6189-1.2994.34-1.98.8972-1.4851.34-3.9291,1.0522L15.6072,41.05l.8353.0619.2785-.34,2.4442-.9284,1.4232-.9284-1.4541.34-.1856-.4641-1.1757.3712.7735-.6807.1856-.4331-.9591.2166-.2785-.3712-1.0828.3712-.3712-.2785,1.021-.0619,1.0828-.4022-.2785-.4641,2.5989-1.2063.3712.1547,1.7944-.4641.8044-.8044-1.4541.34-1.4232-.1237.65-.4641-.6807-.2475,2.5679-.6189.0928.34,1.5158-.1237.2785-.526-.8973-.0621.2475-.3095-.5569-.495.6807-.34.99-.0309,1.5158-.5878,2.537-.6189.9284-.0309.8972-.2785.65.3095,1.1138-.0309-.2166.2475,1.5469-.0309,1.6707.34.7425-.0928.7116.3095L35.81,33.0359l-3.6817,3.2486-1.7017,1.64.8044.1547.1237.8353,1.7017-.65.1856.99-.1856,1.2994.4331.495-.3712.4331-.4022.1856-.4331.1856-.2475-.1547.2785-.7116-.526-.6807.8044-.34.0309-.5569-.7116.6189Z" fill="#72c5c4"/>
          <path id="FR" d="M112.4148,50.919l.0619.4022-.1856.5569-.4331-.65ZM217.3284,99.5548l.5879-.0309-1.0209,1.1138-.9284-1.0519-.0309-.5569.9284.99ZM64.3979,69.7607l.0619-.0619v.0619Zm46.7793-19.6771-.0309.0309h-.0309l-.0309.0309-.7425.4641-1.33-.34-.5569.4331.0928.4022-.4331.0619-.3095-.0928h-.0309l-.1547-.0309.0309-.0928-.1856.0309-.8972-.0928-1.0828-.495.1856-.1547.2785-1.8873-1.0519-1.1137-1.1138-.4022v-.4022l.9284-.2166.2785.2785.65-.1856-.2166-.7425,1.0209.34,1.0519-.6807v-.495l.5569-.1545.9591.8044.99.34.0928.0619h.2166l1.1138.3712-.3095,1.021-.8663.7735.0928.2166.0309-.0619h.0309l.2785-.0309-.0309.2166.1547.1547-.2166.5878ZM69.8737,79.5065l.1856-.3095.65.2475.8353.8044v.2785l-.8972,1.4232-1.1138-.1237.4331-.8663-.3095-1.1138Z" fill="#a1d8d8"/>
          <path id="CN" d="M180.3255,69.0491l-.526.6189-.65-.2785-.0928-.5569.6189-.5878.8044.0309Zm-27.5046-16.15h0l.0928-.0619.7116-.4022.1856.2475.526-.495.7735-.0619,1.0209-.8663.0928-.7116-.99-1.4541,1.2063-.3712-.0619-1.2376,1.1447.2785.3712-.1856-.2785-1.021.7116-.495.0928-.0309L158.5752,46l.3095.4641,1.7325.6807.7735.8044.3712,1.021,1.4541.1547,1.5779.5878,1.1447,1.1757,3.3414.1547,1.5469.5569h.9284l.7735-.4022,1.6088-.1237,1.0209-.9284-.6189-.5569v-.4641l1.2063.2475.3095-.526.65-.0619.1856-.65,1.7326-.4331-1.2992-.8041h-.495l-.0309.1547-.9591.0309-.4022-.3095-.0928-1.2685.8044.2475.4022-.65.0309-1.2994-.7732-.4641.1856-.3712,1.2063-.2166,1.7635.4331.9284.5878.8353.8044,1.485,1.1448.8353.0928,1.4541.8353.4331.4641.8663-.0309.7735-.495.5569.495.2166,1.0828-.0309.8972-.2785-.1547-.34.0309-.4331.3712.5569.5878.2475,1.1138-1.2994.4022.34.4641-1.0828-.2166-.0309.5878-.7116.5878-.7735.3095-.7116.6807-.1547-.495.1856-.8044-.8663-.3095-.6189.7116-.0619.5569-.7735.0619.5569.7425h.4641l.7426.8044.5879-.5569,1.3613.3095-.8972.7735-.4331.6807v.65l.8044.34.8663,1.2376.8353.5569.3712.8044-.5569.2785.6807.4331.3095,1.2685-.3095-.0309-.1856.8972-.4641.9284.34.34-1.5779,1.5469-.2166.4641-1.1138.0928-.2785.4641-.526-.65.0619.7116-.9591.2475-1.0519.65-.1547.526-.2475-.9284-.9284-.3095-.2475.3095-.8972-.4022-.2785-.7116-.8353-.34-.8044.65-1.0209-.1856-.1856.2785-.3712.1237.2475.8353-.4022-.3095-.6189.0928-.2475-.4641-.5569-.0928.1238-.6807-.4331-.0928-.2785-.7116-.6189.1856-.1237-.9284.526-.65-.2785-1.2685-.8972-.7425-.0928.2475-.99-.8972-.495.2475-.495-.2166-1.051,1.0832-.6189.1237L165.63,61.84l-.7116.8044-.1547-.526-.4331.0928-1.0828-.1856-.34.1856L161.4526,61.16l-.34.0619-1.1447-.8972-.6807.1237-1.6707-.8972-.4331-.8972.6807-.1547-.5878-.5878-.0928-.6807-.4641-.1856-.495-.6807h-.2471l-.4331-.1237-.6807-.65-1.0209-.4333-.1237-.0619.3095-.0928-.3712-1.021-.6189-.0309-.3095-.6807.1547-.0928Zm31.4957-.0309Zm-31.4957,0h0v.0309h0Z" fill="#a1d8d8"/>
          <path id="PT" d="M101.8646,55.0339l-.99.1237.1547-.8972-.4331-.4022.5569-1.5469v-.8663h1.3613l.2166.2785-.4641.4331v.7425h0l-.4331.2166.3712.495Z" fill="#149e9d"/>
          <path id="EC" d="M44.9372,83.8379l1.0828.3712-.1856.1547L45.1228,83.9ZM52.115,86.22l.3712-.5569-.7735-.2475-.0309-.9591L52.27,83.59l-.0309-.526.8666-.5569.9284.6189.7735.1547.7116.4331-.1861,1.0827-.7425.8044-1.1447.65-.4331,1.2063-.99-.7116Z" fill="#149e9d"/>
          <path id="MV" d="M156.41,79.5683l-.1547-.0619.0619-.1547.1237.1237Z" fill="#149e9d"/>
          <path id="GB" d="M71.823,123.3158l-.34.2166-.0616-.7115,1.3923.0619-.1237.5569Zm56.4325-66.5495-.0309.0309-.0309-.0309h-.0619v-.0309l-.0309-.0309.0619.0309.0928-.0309h-.0619Zm-.5258.2788-.0619-.0309h-.1237l.0619-.0309ZM102.4834,41.6373l.6189-.1547.34.4641-.4331.4022-1.0833-.2475Zm3.1867-.3712.2166.7116.65.3712.2166.7425.8353.4331-.6189.7425.4022.2785-1.5469.4022-1.2685-.0309-.2166.3095h-.9589l.7735-.7425h.65l-1.2994-.495.65-.3095.0309-.6807.5569-.1237.2166-.5878-.3095-.495h-.99l.3095-.4331-.65.1237.0928-.8044-.7426-1.2685.4641-.2166.0311.8047.6807-.8972.8663-.0309,1.1447-.8972L104.34,39.5957l1.2685.34-.8048.99Z" fill="#149e9d"/>
          <path id="GR" d="M122.9649,54.26l.2785.3712-.5879.2166.4022-.1547Zm.7735,2.1966-.4331.2785-.8972.0619-.8044-.2785.0309-.2475Zm-4.053-4.053.0619-.0619-.0928.0619-.0309-.0619v-.0309l.0309-.0309h.0619l.4641-.1856.6189-.1856.99-.1547.4641.2166.65-.34.2166.2166-.3095.526-.5569.6189.2166-.7425-1.1138.1547.4641.3712-1.1447.0309.5569.6807-.34.3095.7735.3712.2785.5878-.7116-.34-.2785.34.3712.8663-.99-.2475-.4022-.8353-.1547-.9284-.6807-.526.3712-.2475Z" fill="#149e9d"/>
          <path id="DK" d="M113.4358,41.7611l-.6189-.526.6189-.34.2785.3712Zm-1.5158.0928-.34-.0928-.0928.0309-.3712-1.2063,1.2994-.8663-.0309.8663.4022,1.021-.3095.2166-.34-.4022Z" fill="#149e9d"/>
          <path id="GL" d="M79.929,31.1491l.7425.0928.4022.4641-.8353.1856-.5569-.3095ZM91.16,23.8168l2.537-.0928,2.6607.1547,1.6088.2785-.495.1547-3.032.0928,2.1039.0619-.8353.2471,2.1657-.3095-.0309.2785-.8663.2785,1.7635-.34,1.3923-.0928,1.7635.1856-1.9182.526-1.5779.0619-.1856.8353-.65-.0309-.2785.4331.2785.34.9284.0928-1.021.1547-.6189.4022h.8043l.1237.526.8663.2166-1.021.4641-.8972.0928.2475.4022-.8353.1237-.7425-.2166-1.052.2166,1.052.1237.7735,1.5469-.9284.0928-.8663-.6189-.0619.6189,1.3613.1856-2.1039.9284-1.6088.3095-1.33.0928-1.67,1.1137-1.7325.5569-.3712-.0928L85.6531,34.8l-.2475.7425-1.1142.8044-.6189,1.1447-1.021.7735-.6189-.2785-.1856-.5569-1.1757.0928-.495-1.4232-.6807-.8353.2785-.5569-.526-.7735.9284-.5569-.8044-.0928,1.2376-1.021.6189.0619.4641-.7116L80.455,31.149l.2785-.6807-.65.0309.1238-.8663.495-.9591-.65-.4331.1237-.4022-1.98-.3712-2.3823.1856-.8353-.5569,1.1447-.4022-1.2376-.2475.34-.2166,2.2276-.2785.8972-.0309.8353-.495-.8663-.1547L81.414,24.59l3.0939-.3095,1.8873.1856-.4641-.2475,2.32.2166-.8044-.34,1.2685-.1856,2.4132.0309Z" fill="#149e9d"/>
          <path id="PR" d="M62.8817,69.668l-1.1757.1856V69.42l1.021.0928Z" fill="#149e9d"/>
          <path id="VI" d="M63.2839,69.9773h.1238l-.2475.0619.0309-.0619Z" fill="#149e9d"/>
          <path id="CA" d="M61.1491,49.1864l-.3712.0928-.4022.2785-.3712.1547.0619.0309-1.9182.3095-.1238.4022-.0309.0928-.0309.0309v.0928l.0619.0619-1.578.1855-.9591.4641-.2166-.1856h0l.0309-.0309h.3712l-.0619-.1547.1237-.0928.1547-.2785.495-.2166.8044-1.0828h.8665l-.3095-.8972-.4641-.1547-.2785.4331-.8972-.2785,1.1138-.1547-1.3612-.1857L55.92,47.98l-.2475.0619L55.89,46.897l-.6807.1856.0619-.8044-1.1757.0619-.99.5259-1.0828-.0309-.526-.3712-1.33-.34H33.7992l-.0309-.0619-.1237.0619h-.0309l-.4022-.2785L33.3351,46l-.1237.5569-.7425-.1237-.5878-.526-.526-.99.4331-.2475.495.2166-.2785-.4331.526-1.2376-.4641.495.1856-.8044-.4641-.0309.6189-.5569.0309-.4331.2785-.2166.7735-.6189-.4331-.495.1856-1.2994-.1856-.99-1.7017.65-.1237-.8353-.8044-.1547,1.7017-1.64L35.81,33.0361l1.7325-1.4232,1.021.0309v.3095l.9284.1237,1.3923-.495.2785.1856,2.4132-.5569-.7735.3712,1.98-.3712.1547.6189,1.5779-.34,2.7537.65.8044.0928-1.0519.5878,1.7325.0309,1.2685-.34.2475.65.6807-.8972,1.1447-.1547.3712.5569,1.2685.2166L57.406,32.82l.1238-.3712,1.3613.0309-.7116.5569.3712.0928.4331-.495,1.2063-.3095-.4331-.1237.5567-.4641-.7116-.2785.6807-.8972,1.33-.4331.3712.4022-.3095.3095.2475,1.2685-.2475.4022,1.1447-.6189-.34,1.3612.65-.1547.0928-.4641h.526l.8972-.4331.1237-.6807,1.3613.0619.1856.6807-.65.1856.1547.5878-.34.3095-1.2685.4331-.2166-.4331-.0928.9284-.65-.65L61.706,34.46l-.8972-.4022.1238.4022.8972.0619-.99.7115-1.0519.0309-.8663.7424-1.3613.4022-.3095.3712-.8663.34L55.1782,38.172l-.3715.8665.7116-.0309-.2166.9284-.34.3712,1.0519-.2475,1.021.3095.3712.5878,1.33.5569,1.2376.1237-.5569,1.2994.5878.4331-.8353-.1859.526,1.2063.3095.1547,1.1447-.9284-.0309-.4641.3712-.8663-.2166-.34,1.0828-.34-.4332-.7111.2475-.3095.5878.8044.7735-.4331.526-.99-.0309-.4022-.65-.6189,1.3613-.8043-.2475-.5569.6189-.65.2166-.6189,1.5779.3095.5878-.2166.8663.5569-.1856.1547,1.1139.4337-.6807.9284.8353.8663,1.4851-.7116.6807-.8353.8353,2.3823L72.04,40.4l.6807,1.2063,1.2063.34-.8353.4635-.8972.1856-.2475.3712,1.8253-.6807.7116.4641-.0928.8044-1.021.7735-1.1447.2475-.99.65-3.7127-.0619-.8042.712-1.1447.4022-.8044.7735-1.1138.7734-1.1447.4022-.0928.0928,1.7945-.7117,1.2063-.8972,1.9491-.7425,1.0828.1856-.1547.4022-.7735.3095.1547,1.2685.34-.34.9591.3095.5878.7735-1.8563.7116-.0309-.1856-1.3609.9591-.526-1.3613-.1547-.0619.0928-.2785-.1238-.0309-.0619-.0619.34-.99-.7735-.3095-1.0209,1.1759-.99.6807-1.9491.0619Zm-28.68-4.2077.1856.0928.4641.6189.0619-.526Zm36.3221.4331,1.1757.4331-.2785.2166-.7116-.2165Zm.2166-12.9324-.0619.495-1.0828.2166L68.42,32.51ZM63.81,27.8077l.2475.3095-.4331.3712-.8972.0928-.2785-.2785Zm-5.7237-1.4231-.526-.0928,1.5158-.1856-.2166.4022-.7116.3095-.9591.0928-.2475-.2785ZM69.5336,47.454l.3095-.3095.4641.6189-.2166.4331.4022.1856-.8972.4022-.1856-.4331.5569-.5878Zm-38.89-4.4245-.3095-.0619.4022-.6807.7425.0309ZM59.2309,31.706l-.0619.495-.495.1856-1.6707-.3713,1.2376-.1856.526-.3712Zm9.7148-2.2276.0619-.4331,1.2063.0309.4331.526-1.3613.0619ZM64.5524,25.58l.1237.495.7735.2166-1.0519.526-.34-.4641Zm-2.5679.8044.4022-.5878,1.2376.4022-.2785.4022ZM74.2672,32.696l1.2685.8661-.7735.2785.0309.3712-1.4541.4022-.1237-.5878-.8044-.3712-.3095.9591.7425.3095.1856.7116-.495.4641H71.4211l-.2785-.495-.2475.3712.7116.6189-.1238.2166-1.2376-.2475-1.33-.65-.4331-1.021-1.1447.0309-1.1447.4331.0928-.65.5878-.34,1.0519.1547.9591-.1547-.2166-.4641,1.5469-.7735.0309-.5878-1.6088-.3095.1547-.9591-1.1449.8045.4331-.6189-.7116.1856L64.8,31.3345l-.7425.0309-.4641-.2785.0619-.9284L64.8,29.385l.9591-.34h1.3923l-1.3613.5569-.3095.526,1.4851-.8663,1.7017-.1856.1237.7735.3712.1237.8663-.3095.99.1547.65.5878.65.0309.2475.3712.9284.2166.1856.9284-.99.34Zm-18.78-5.9093-.495.495-1.5158.1237-.34.34-.6189.1856-1.0519-.34,2.7845-.7116Zm19.5533,20.234-.3095.7735-.4022.1237.0309-.6189-1.4231.3714.2785-.495-2.1037-.2166.5569-.526,1.8253-2.042.8353-.1856-.2475.5569-.526.495-.0309.495.8663-.1237.5569.3095-.4331.495h.5569l-.6807.65ZM63.3149,36.254l-1.1447.3712.3712-.4641-.2166-.4022-.6807.1856.0928-.65.8972-1.1139h.4331l.2166.3095,1.4541.99-.5569.2475-1.0519-.4641-.526.3712.2166.526Zm-5.3215-5.1668-1.0519.6189-.2475-.2475-.8044.1856.6807.3095-1.1138.2164-1.2376-.2475-1.5779.2785-2.1657.1547.1547-.4641L49.578,31.83l.0619-.526,2.1966-.0619-.34-.3095-1.7017.0928-.2166-.2785.65-.2475-.5569-.1547,1.7325-.8044,1.64-.2785,1.1138.4022.7425-.1547.495.526,1.0519-.9284.526.3712.0309-.4022.8663.0619-1.0209.5572-.495,1.2063.8044.4022Zm1.7325-2.104,1.2994-.0309.1547.34-.6189.9284-1.3923.3712-.34-.5878-.65-.3095Zm2.6607.8353-1.0828.3095.2166-.495.7116-.6189,1.2376-.2475,1.2685.1856-1.3922.65-1.1138.0309ZM46.67,30.128l2.3823-1.0828v-.3714l1.64-.1237,1.8253.2785.2475.3712-1.7017.3712-1.485.4022-.7425.4641-1.485.2475v-.3712Zm14.0772-1.8561.6807-.3712-1.3613.0928-.3712-.34.4334-.6807.4641.7735,1.2376-.495,1.1447.1547-1.1447.8663Zm-1.7635-.5878-.7735.5569H57.0036l-2.506.4022-.4331-.1547,2.042-.34-2.3823.1547-.65-.1547,2.4442-.8972.65.7116.99.0309v-.4951l1.1447-.3095-.495.4641Zm6.8994-.4022.7116.6807,2.1966-.1856,1.6707.2166-.1856.3712-1.33.2475-.7425-.0619-2.97.0309-.8044-.1547.6189-.6807-.1238-.2785L63.81,27.56l-.1238-.4641Zm4.4552-1.4541-2.4442.5878L66.44,26.3536l-.2785-.3712,1.021-.2475-1.2063.0928-.1238-.4331.65-.2785,2.1347-.2475.99.7736Zm.4022,1.98-.2785-.3712-2.042.0928-2.0729-.1547.4022-.0619-.1547-.5569.7116.34.9591-.1547-.1856-.3095h1.2685l-.8353-.1856.8353-.3712,1.0828-.0619-.1237-.7116h1.114L74.02,25.147l-.526-.1237-1.2994.1237H70.3693l-1.021-.2166.0309-.4022,3.5576-.2166,1.485-.2785,2.4751.0309.6189-.1237,3.0939.0928,1.0519.34-3.4961.6807-1.6707.495-1.8873.2166-.1237.34-2.3823.7735-1.1138.0309,1.0519.2166Z" fill="#a1d8d8"/>
          <path id="CL" d="M61.1182,116.1071l.2166.7735-.4641-.1237-.1238-.9591Zm.0928,1.4541.2475-.2785.2475.495.0928.8663Zm.4332,2.6913.2166-.0309.8663,1.6088-.34.6189V121.8l-.4331-.1856-.3712-.8044Zm5.3215,3.5579.65,1.5779h0l.0309.0619-.1547.0309,1.2063.0619-.0928.4022-1.4232-.0928-.1856-.2785v-.0619l-.34.0309-1.2685-.65h.7735l-.1237-.8044.4022-.4022ZM59.54,97.6985l.2785-.0619.2475-.5569.4641,1.0828.4022.3712-.1547.7735.4641.65.34,1.1757.4331.0309.0309.8972-.7425.5878.4022,1.64-.3095.1547-.526,1.7325-.0309,1.6707.5878,1.021.3712,1.0519-.2166.7116.1856.6807-.34.34.1547.9591.4022.7735-.2785.1856.0619,1.2994.4641,1.0209-.0309.6807.526.6807-.0309.6189.6189.4641-.1856.34.3095.7116-.1856.9284.2785.3095-.4331.8972.6189.8972.495-.0619.1856.6807.4641.3095h1.1445l.9591.2475-.4331-.0928-.7425.4022.1547.7735-1.4851-.526-1.7944-2.1347.1547-.0928-.3712-1.2063-.5569-.5569.2785-.526-.7735-.3712.3095-.5569.4331.4022-.1856-1.0519.3095-.3712-.4641-.2475-.0309-1.5469-.4331-.4331-.4331.1856-.3095-.5878.0928-1.052-.6807-1.3619.2166-1.7017.1856-.34.0309-2.1347-.4641-1.6088-.1237-1.021.2166-.99.0309-1.7325-.2783-1.7327.1856-1.2994Z" fill="#149e9d"/>
          <path id="CV" d="M90.6337,71.8646l.1547.1547v.1547l-.1856-.0928Z" fill="#149e9d"/>
          <path id="DM" d="M65.3878,71.648l.0928.1547-.1237.1547-.0309-.2166Z" fill="#149e9d"/>
          <path id="SC" d="M137.9705,90.7991v.0619l-.1547.0309.1238-.0619Z" fill="#149e9d"/>
          <path id="JM" d="M54.8376,69.4514l.8044.4022-1.0519.0619-.2475-.4641Z" fill="#149e9d"/>
          <path id="OM" d="M143.6939,64.2536h-.0309v-.0619h.0928Zm-.1856-.65.1547-.2475v.5878l-.0928-.0309Zm-2.2276,5.4452,1.9182-.7735.3095-1.5158-.34-.5569.2475-1.7017.3712-.0619.5878.8044,1.1138.3095.7735.99-1.2376,1.9182.1547.5569-.7735.34-.1547.495-.5878.0619-.2475.65-1.2685.2785-.2785-.495Z" fill="#149e9d"/>
          <path id="VC" d="M65.3878,73.5972l-.0619-.1237.0928-.1238v.1547Z" fill="#149e9d"/>
          <path id="BD" d="M167.95,67.44l-.7426-1.33-.65.5878-.8353.0928v-.0619l-.0309-.0928-.495-1.1757.0309-.495-.495-.2785.526-.4022-.6807-.5569.1856-.4331.99.4022.4331.6189,1.1138-.0309.34.1856-.7426,1.021.3712.526.2785-.6189.495,1.3613.1237.495Z" fill="#149e9d"/>
          <path id="LC" d="M65.5734,73.1022l-.0619-.1238.0928-.1856.0309.1237Z" fill="#149e9d"/>
          <path id="NO" d="M115.7252,26.4155h.5878l.9284.2166-1.485.2166Zm5.9093,5.1049-.34.2785-.4331.2166-.0309-.4022-.65-.2475-.8663.2166-.4022.7425-1.2376-.1237-.4638-.34-.4641.1547-.2475.4331-.9284-.1237-.8972.7425.1856.2475-.8663.6189.0309.526-.3712.495.1856.4022-.65.0309-.3095.4641.4641,2.1966-.526.8044-.4641-.3095-1.0828.8044-1.0828.1237-.6189-.4641-.3095-1.0828.2166-.8972-.34-.1856,1.1757-.7735,1.0519-.3712.6807-.6189.65-.2475.1547-.8353,1.4232-1.3923.3712-.1856-1.5469.1856,1.1138-.495.5569-.0619-.0309.3095.4641-.2475.495-.8044,1.7944-.0928-.0928-.2785.8663.0928.7116-.3712-.1547.6807.6189-.5569h.8972l1.33.4331ZM111.1154,26.013V25.58l1.3613.0928.2475-.1237.9284.4641-.2166-.5878,1.7325.526.65.0928-1.021.2166-.7118,1.083-1.1447-.34-.4641-.495Zm6.4972-.3095-2.63.0928-.4641-.2166.5878-.4641.8972.34,1.8253-.0928.1856.7116Z" fill="#a1d8d8"/>
          <path id="KN" d="M64.6762,70.41l-.1547-.1237.0309-.0309.0619.0619Z" fill="#149e9d"/>
          <path id="BH" d="M139.7958,63.48l.0928.0309V63.82l-.0928-.1547Z" fill="#149e9d"/>
          <path id="ID" d="M187.658,90.7991l.495.5878-.2475.1547-.7426-.7116Zm12.7468-.8972-.7732.1856.3095-.5878.526-.2166Zm-10.8286-2.1039-.0928-.526.4641-.2785-.2166.99Zm.8044-3.032,1.8873.2475-.34.2166-1.3613-.0309Zm-10.9216,1.0213-.6807.2166-.34-.2166-.4022-.8972.4641-.0619.34,1.021Zm17.2638,2.1347.8353.0928.2785.2785-.4641.65.0309-.7116Zm-10.6737,2.1347.99-.0619-.4022.4331-.99.1856-.7735-.2166.4022-.4641Zm4.61.6189h.0928l.2475-.1547v.1856l.0619.2166-.4641.495-.7116.1547.495-.7735.1237.1237Zm-4.1769-10.2411-.2166.0619.0618-.0619Zm15.686,5.1979-.1547,2.8464-.1856,2.1347-.6189-.7735-.7116.1547.1547-.5569-.7426-1.7944-1.2063-.5569-.495-.0309-1.052-.7425-.495.4641-.0928-.99.3095-.3095-.7426-.2475-.1547-.3712-.9284-.5569,1.5469-.4022.8663.2785.0619,1.0828.5569.9284.65-.2785.34-.5569.526-.1237.4641-.4641,1.3613.6807Zm-23.6682.495-.2475,1.8253-.7735.2166-2.011-2.0729-.526-.8044-.34-1.0521-.65-.8044-.6189.1856.5569,1.3613-.2475-.0619-.3712-1.2994.5569-.1856-.4331-1.2994-.8044-.0619.4331.8044-.1856.3095-.4331-.65.34-1.1138L171.23,79.9088l-.0309-.6189.6807.34.7426-.0309.5569.8044,1.021.7735.8353.99.8972.526,1.2376.1547-.4641.3712.2785.4022-.2785.5569.6807.2475.3095.9591.526.0928Zm11.9424,4.053-2.8154.2475.2166-.4331,1.3923.2475.4641-.3095,1.4541-.0309.6189-.4022,1.0519-.0928.7116-.3095-.3095.8044-.495-.4022-.8972.1856Zm-7.24-.1856-1.1138.0619-1.5469-.495-.7116.0619-1.1757-.3095-.6807-.4641.4022-.7116,1.5469.2785.1547.4022,1.2685.1238.1856-.3712,1.1447.34.1547-.8044.0928,1.0209.3095.4641.4641-.1237.2785.3712.8044.1856-.0928.3712-.65-.0309Zm10.7358-3.8983-.65.4022-.4641-.0928-.34.1856-.4641-.526.99.0928.34-.2785,1.052-.1237.7116.2785.1547.4331Zm-5.043,1.1138.0928-.4331-.4641-.4331.1547-.5878-.4641.3712-.0928,1.6088-.7116.0309.2166-.8353-.495-1.2994.3712-.495.495-2.0729.5879-.495.495.2475,1.5779.1547.7735-.7116.1238.2785-.65.7735-2.6608-.0619-.2785.5569.4641.8972h.2785l.4022-.7116.3712.2166.8044-.0928-1.2685.99.5879.9284.2166.99Zm4.7336-4.1149.7116.5878-.9591-.4331-.2785,1.2685.0928-.7116-.2166-1.1138.7735-1.0828-.4641,1.3923.4022-.5569Zm-7.3944-2.6607-.0928.65.526.8044-.1547.2785.7735.65-.8353.2475-.2166.9591-.6189.7425-.1237,1.4851-1.2376.5878-.2166-.65-.8353-.1237-.8353.2785-.0619-.5878-.9591.1856L181.13,84.488l-.65.4022.4331-.5878-.3095-.2785-.1856-1.0209.526-.99v.3712l.6189.5878,1.0519-.2166.5879-.34.4331.2785.5878-.1856.6189-1.2063.2166-1.0519Z" fill="#72c5c4"/>
          <path id="MU" d="M145.0243,99.06l-.0619.2785-.1856.0309.1238-.3712Z" fill="#149e9d"/>
          <path id="RU" d="M197.7747,47.7323l-.5569.9284-1.0209.4022.8972-.5878ZM130.3284,24.59l-.1856.2785.9591.1547-2.042.34.1237-.495Zm41.4271,4.3624,1.6707.2166.2166.2166L172.127,29.2Zm-39.6327-4.3-.1856.3712,1.7944-.0619-2.5989.4022Zm19.4605,1.3923.4022.3095-2.1966.1547.0309-.65Zm-24.9676-.9284,1.5158-.0309-1.2063.3095-.8044-.0928ZM187.07,51.0116l-.2475-1.1138-.5569-.5878.4331-.3712.5569.5878.0619-.4641.0309-.8972-.2166-1.0828-.5569-.495-.7735.495-.8663.0309-.4331-.4641-1.4541-.8353-.8353-.0928-1.4854-1.1443-.8353-.8044-.9284-.5878L177.2,42.7515l-1.2063.2166-.1856.3712.7735.4641-.0309,1.2994-.4022.65-.8044-.2475-1.6088-.34-.4022.526-1.1757.34-1.3923-.1547-.6189-.4641L168.383,45.01l-.8353.2785-1.0209-.3712-.34-.526-2.2895-.5878-.1547.8353.495.34-.2475.5878-1.7325-.2166-.4022-.4022-1.2376-.2166L158.5755,46l-.1547.0309-.0928.0309-.6189-.4022-.7735.0309-1.5776-1.0523-1.0828.1856-.65-.4022-.2475.34-2.0729-1.7944-1.0209-.495-.0619-.3712-1.1138.6189-.5569-.2475-1.3613-.1237-.5878-.8663-1.4232.0928.0309.1547-1.4851.4641-2.2895.3095.8353.5569-.6807.34-.0928.5878.8972.34.1237.4641-.8972.1856-.8044-.3712-1.2376-.0309-.3712.4022-1.5778-.7118-1.64-.0928-.8663.7735v.5569l-.65-.4641-.2475.4641v1.0519l.495.4641.5569.0309.99,1.0828-.8663.4641-.3712.8353.6807.6807.0619.526.8663.8972-.4022.4641-.9284-.495-1.1138-.65-.526.1547-.7735-.4641-1.7944-.1547-.7116-.5878-1.6088-.8353.5569-.1237.0309-.8353.8044-.4022-.65-.0619.2475-.5569h.5569l-.0928-1.2376-1.6707-.6807-1.0209.0619-.495-.65-.526-.0309-.4022-.8044-1.1447.1856-.4022-.6807.7735-.3095-.6189-.2785-.7425-1.2994-1.6088-.4022-.4022-.495-.2475-.495.0619-.1856.0309-.1547.3095.1237-.4022-.8044.0619-.1237.0309-.0928.0619-.0309h0l.0619-.0309-.0619-.0619-.0619-.0309.8972-.4641-1.1447-.2785,1.5158-1.3613.1237-.2785-.99-.5569.2475-.1856-.65-.6807v-.7427l-.5569-.495.34-.5569-.7735-.34.0309-.526.4331-.2166.34-.2785,2.63.4022,2.8464.9591.2785.5878-1.1757.495-3.2486-.5569,1.2063.526.495.9284.9591-.3095,1.4232.4331.4022-.1856-.495-.526.99-.6189,1.1757.4331-.0309-.526-.4641-.34-.0309-.7116-.5569-.2166,1.33.0928.5569.4022-.7425.34.526.2785.9284-.0619.34-.495-.6494-.99h.9284l.3095.7116,1.8253-.5569-.34.495.7425.0619.495-.3095.7116.0619.6189-.3095.6189.4331.34-.495-1.485-.6189.0928-.2475.8663.34,1.9491.2475,1.6707.4331.8972.4641.1547-.526-1.2685-.2785-.34-.8663-.4331-.34.526-.34.0309-.9591.5878-.0619,1.0828.4641.0309.7425.5569.2475.8972,1.4232.7116.2785-.2785,1.2063-1.2376.0309,1.64.2475.7426-.9591-.5569-.65.8353-.1856,1.1757.4641-.526-.4331-1.2063-.2166-.6807.1237-.495-.4331.0619-.495-1.021-.5878.6189-.4022-.4641-.495.6807-.3712,1.2376-1.4232,1.0209,1.021.8353.0619v-.2785l1.5158-.5569,1.7635-.2475.495-.7735.495.7116,1.7944-.34-.2166-.34,1.1138-.34,2.1347.5569,2.5679.1856,1.0828.6807L156.38,29.3848l1.7944-.3095-.0928-.526.6189.0309.6807.65.8663-.1547,1.5158.0619.5569.2785,2.1658.1237-.2475-.6189.65.2166,1.4232.0619,1.021.2785.526.5878,1.4232.7116.6807.1237-.2475-.7116.8972.2785.9591-.1237,2.0729.0928-1.1138-.6189.7116-.1856,2.011.1547,1.0209.4331.0309-.3095,4.1149.9284,1.1757-.1547,2.5989.1856.3095.5569,1.0828.2785,1.1138-.1237,1.7326.1237.1547-.34.7426.495,1.1138.3095.4022-.1856-1.1447-.4331-.0619-.2475,1.6707.1856,1.2376-.0309.1547-1.0519.1547,1.1447,2.506.495,3.8983,2.5989-.495.2785-1.1447-.1547,1.4541.4331,2.2585,1.0519-.0309.2166-1.052-.1547-1.0828.7116-.5577.8049-1.3923-.1237-.495.5569-.4022-.4641-.2785.4641-.8663-.1547.6189.6807.5569-.1237.0309.8972.5569.1856.4641.6807.7735.4331-.65.0311.99.8972-.65.495.4331.6807-.3095.2785.4331.6807-.2475,1.2994-.4022-.0619.4331-.526-3.4033-2.8464-1.1757-1.3613v-.7422L194,39.2553l-.0309-1.4232.34-.65-.8663-.9284-.5569.1237.4641.495-.495.8663-1.0209-.959-1.4232.0928-.1856.99.2166.6189-.99.4641-.6807-.4331-.9591-.2166-.65.2785-2.1966-.0309-.6807.2166-.0619.8972-.4331.6189.0618.6189-.6189.8972,1.1447.2166,1.2376.7116v-.526l.6189.0309,1.5469.7116,1.1757,2.042.4022.34.6189,1.2063-.1856.495.1238,1.1757-.4022,1.9182-.8977.7731-1.1138-.4641-.2166.7735-.0619-.0928Zm-69.2415-8.91.34-.1856-.4331.1856h0l.1237-.3095.526-.2785h.0619l.0928.2475.0619-.2475.8972.2785.0309.3712-.0309.0309Zm28.68-16.676-.3712.0619-1.0828.0309-.6189-.65.6189.1237,1.0209-.1856,1.2994.2785v.2475l-.6189.0619,1.9182.0928.34.3712-.4022.2166-1.33-.1237-.9284-.2785Zm-13.3037,2.2585,2.0729-.1856.9591-.3712,1.0828.2166-.5879.2785-2.4442.5878-1.485,1.7325.7116.65.9284.34-1.1447.0928-1.0209-.1854-.34-.3095-.8353-.2785.1547-.5878.6807-.34-.4331-.2785.9591-.4641-.4022-.0928Zm57.5771,18.5943-1.1447-1.7635-.7116-.4331-.9591-1.2063.3712-.2166.6189.4022.7735.9284,2.2276,1.9491-.6807-.0928.5879,1.2994,1.0828.8353-.99-.0619-.526-1.021ZM13.8746,34.6452l3.8983-2.5989.9591,1.021-.8353.7425.8663-.4331h1.1447l.1237.6189-1.7017.3712-.7116.4331-1.0519.3712-.6189-.495.34-.3095-1.2063-.0309.2785-.3712Zm159.18-6.4972-.34-.8353h.34l.0619.7116,2.2276.1547-.8972.2166Zm-.8044.1856-1.7635.1237-2.1967-.4331.5569-.4641,1.3613.2785-.2475-.2475,2.506.3712Z" fill="#149e9d"/>
          <path id="TT" d="M65.4805,75.2988l-.0928.526-.3095-.0928-.1237-.34Z" fill="#149e9d"/>
          <path id="BR" d="M72.04,84.1782l.3712-.4641,1.3613.1238-.3095.8972-1.1757.2785Zm.0928,25.2152.1856-.5878-.0619-.1237-1.7944-1.3613-.2475.1547-.65-.7426-.495.0619.99-1.485,1.1757-.8353-.1856-1.1757-.4641-.0309v-.0309l-.0309-.0928.1856-.5569-.0619-.495-.7735-.0619-.2166-1.021-.5569-.4331H68.0794L68.11,99.71l-.2785-.5878.2785-1.5469-.6189-.6807-.0928-.7426-1.1447-.0309-.34-1.8873-.9284-.2166-.8967-.6806-.8972-.1547-.7427-.99-.0928-1.1447-.7735.1856-1.0828.8353-.8663-.0309-.7116.0309V90.8615l-.4331.4022-.65.0309-1.33-1.8873.5569-.8663.1237-.99,1.4232-.7425.5569.0619.34-2.3514-.4641-.7735v-.5878l.6189-.0309L59.2,82.8172v-.495l1.1447-.0309.5569-.2785.3095.6807.8972.4331.9591-.7116.526-.65-.4331-.0309-.0928-.8663-.3095-.3095,2.1039-.2166.5569-.7116.526.0928-.0928.4331.3712.4331-.34.9591.1856.65.6189.526,1.1757-.65.4022.0619.3712-.4641.8972.1547,1.1138.1237.8972-1.4232.4022.1237.2785,1.33.495.3712.0619,1.2685-.8972.1237-.0928.8353.4331.4331.9591.0928.9591-1.0519,1.1138.2785.5878.6189.2166-.2785.65,1.0828.2475-.4022,1.3923.495,1.1138-.0309,1.021.65.8972.9284,1.0828.1547.5569,1.5774-.3095,1.5469-1.0519,1.2063-.8972,1.6707-.4022.2475-.0309,1.0828.1856.9284-.1238,1.3923-.3095.4022v.8972l-.8044,1.64.0928.34-.6807.7735-1.4851-.0309-1.6707,1.0519-.5878.5569-.3712.7735.2475,1.2063-.1237.7116-.6189.7116-.2166.7735-.6189-.2166-.0619.6807-.4022.526-.0928,1.021-.4331.495-.0928-.0619Z" fill="#a1d8d8"/>
          <path id="BS" d="M56.1061,64.13l-.8661.526-.1239.6494-.2475-.6189.6807-.3095.1856-.65Zm.6807.9591.0309.5569h0l-.1547-.5569Zm.1238.7735h-.0619l-.0309-.2166h0Zm0,0,1.3923.5878-1.33-.3712-.0619-.1856h0Zm-.1238-.7735h0l.495.0309Z" fill="#149e9d"/>
          <path id="NG" d="M112.3838,79.94l-1.6088.4022-.4022-.2785-.495-1.0519-.3095-.2785h-1.1756l.0619-2.0729.7116-1.1757-.1547-.8353.34-1.3613.9284-.3095.9591.6807.5878-.2785,1.2376.4022.3095-.34.8972-.0928.7116.2475.7425-.495.3095.4641.4331.7116-.0619.526-.4022.1547-1.1761,2.2585-.2166.9284-.3712.526-.495-.526-1.1757.99Z" fill="#149e9d"/>
          <path id="GD" d="M65.0474,74.3706h-.0928l.0309-.0928.0928-.0309Z" fill="#149e9d"/>
          <path id="AG" d="M65.233,70.4723l.0309.0619-.0928.0309-.0309-.0619Z" fill="#149e9d"/>
          <path id="BB" d="M66.5016,73.5972l-.0619-.0309.0309-.1856.0928.1856Z" fill="#149e9d"/>
          <path id="IT" d="M112.3221,53.4869h-.588l.1856-.526-.2166-.7115.7116-.2785.2785.5569-.1237.99Zm3.8364,1.8563h-.4022l-1.33-.7735.1856-.3095.6807.1547,1.1447-.2166Zm-4.9811-5.26-.5879-1.0519.2166-.5878.65-.2475,1.1138-.0928.2785-.3712.99-.1547.99.4022-.1856.1856.2475.526-.8972.1856.1547.8972.7735.495.34.7116,1.2063.8353,1.33.6189.34.4022-.9284-.3095-.3095.4641.4331.3095-.5878,1.1447.0309-.65-.3712-.9284-1.2994-.8972-.4331.0309-1.6088-1.4541-.2163-.495-.9284-.4331Zm3.032-.0928V49.929l-.0309.0309-.0309.0309Z" fill="#a1d8d8"/>
          <path id="MT" d="M115.6632,55.9621l.1547.0619.0309.0928-.0928-.0309Z" fill="#149e9d"/>
          <path id="CY" d="M128.3173,56.7045l.0619.0619h-.1237l-.0619-.0619Zm-.1856.0619-.0619.1237-.34.1547-.1238-.0619-.0619.0309-.34-.3095.1856-.0928h.5569Z" fill="#149e9d"/>
          <path id="KM" d="M135.8664,92.7789l-.1547-.1237.0309-.2475.0619-.0619Z" fill="#149e9d"/>
          <path id="SM" d="M114.2092,49.9909h-.0618l.0309-.0309.0309-.0309Z" fill="#149e9d"/>
          <path id="AM" d="M134.9074,52.466V52.435h.0619l-.0309.0309Zm-.2166-.2785h0l-.0309-.0309h.0309Zm-.0928.8972-.7425-.2475-.2785-.7425.4331-.0928.526-.0619.3095.495.34.4641h-.0928l-.0309-.0309.0309.0309h.0928l.4641.4331.1547.3712-.0928-.0309-.1237.0619-.3095-.526Zm-.0309-.9591v-.0309h-.0309v.0309Z" fill="#149e9d"/>
          <path id="AZ" d="M134.5669,52.1256h-.0309v-.0309h.0309Zm.6189.7735h.0619l-.4022-.4641-.3095-.495.9591.1856-.1856-.6189.9284.495.4022-.4641.8353.8972-.1238,1.64-.5878-.3095-.1547-.6807-.8044.6189-.1547-.3712Zm-.2785-.4331h.0309l.0309-.0309h-.0619Zm-.2166-.2785v-.0309H134.66Zm-.0619.9591-.0309-.0619.6807.1237.3095.526-.4641-.1237Zm.4641-.2475h0l-.0309-.0309Z" fill="#149e9d"/>
          <path id="TJ" d="M150.5314,52.1874H150.5l-.0619-.0309h.0309Zm-.1547-.0309.495.5878-.0619.0619-.0928.0619h0l-.0309.0309h-.0309V52.868h-.7426l.0928.3712,1.33-.0928.5878.34.8044-.2166.3095.6807.6189.0309.3712,1.021-1.0828-.1856-.7426.5878-.4022-.9284-.7426-.34-.1237.6189-.4641.34-.9591-.0619.1856-.8044-.34-.5878-.495-.1856.7116-.5878h0l.0619.0928h0l-.0309-.0928h.0928l.0619-.5569Z" fill="#149e9d"/>
          <path id="GA" d="M114.1164,86.6533l-1.2685-1.6088-.3712-.9591.3712-.1547.0619-.7735.3095-.3095h1.052l-.0309-.8972.0309-.0928,1.33.0928-.0309.7425.6807-.0928.1237.3095-.4022.8663.4331.3095-.2785,1.4541-1.1138-.4641v.34h-.5878l.1856,1.0519Z" fill="#149e9d"/>
          <path id="UZ" d="M151.46,52.93h-.0309l-.0309-.0309.0619-.0309Zm-.3712-.0619.0309.0619-.1237.0309-.0928-.1547Zm-8.8794-1.5776-.1856-.1237-.1237.3095.0928.495-.65-.0619L140.6,49.1868l1.4851-.4641-.0928.526.1856-.4641.495.2475-.0619.34.5569.4022-.0619-.4641,1.5158.99,1.7325-.1547.7116.6189.9284,1.2376h.8044l.526.4641.0928-.5878.99-.65-.34.495.8972.34.1238-.2475,1.0209.495-.7735.495-.4641-.0619-.495-.5878-.9284,1.0519-.5878.2475.495.1856.34.5878-.1856.8044h-.34l-.495-.1237-.0928-.526-.65-.1547-2.32-1.33-.495-.7425-1.2376-.2785-.34-.6807-.8972-.3712Zm8.3225.8968-.0619-.0309h-.0309l.0619.0309Z" fill="#149e9d"/>
          <path id="LS" d="M124.2024,106.3614l1.1138-.8044.4641.5878-.9591,1.021Z" fill="#149e9d"/>
          <path id="IN" d="M165.1964,65.46l.526,1.2994v.0309h0l-1.2063.2785-.0309.6807-.34.526-.6189.0619-.7736,1.2687-.9591.8044-.0619.495-1.2994.65-.0928.526.3095,1.2994-.2475,1.021.0928,1.33-.3095-.0309-.2475.8044-.495.2475-.4641.6807-.6807-.65-.8044-2.1347-.526-.8972-.4331-1.2994-.7116-1.1757-.8353-2.9087.1238-.526-.526-1.3923-.0619.8972-.7116.3712-.65-.34-.8353-.8663.8044-.2166-1.0828-.4641-.3712-.526.4022-.2785.7735.0309.65-.4022-.7735-1.3923-.495-.2166.495-.9591.2785.2475.65-.1856.526-.8044.1856-.7116.5569-.8972-.1237-.4641.4641-.34-1.021-.7735-.3712-.9284.2785-.3095.99.2166.6807-.4641.4022-.3095.495.6807.4641.1856.0928.6807.5878.5878-.6807.1547.4331.8972,1.6707.8972-.34.3095-.0619.7116,1.98,1.0519,1.2063.1237.9591.5878.99.1547.526-.2785-.2166-.8972.4331-.0928.1547.526.7116.4641,1.4541-.1856-.4331-.6189.6189-.1237,1.0519-1.0828.495.2166.495-.2475.99.8981-.2475.65-.9588.6807.0928.5569-.34,1.4538-.5569-.1237.0928,1.2376-.34.34-.495-1.3613-.2785.6189-.3712-.526.7426-1.021-.34-.1856-1.1138.0309-.4331-.6189-.99-.4022-.1856.4331.6807.5569-.526.4022.495.2785Z" fill="#149e9d"/>
          <path id="KG" d="M152.8208,52.8681v.0309h0l.0619.2785-.1547.0928-.8044.2166-.5878-.34-1.33.0928-.0928-.3712.9591-.1237.4641.0619.7735-.495-1.0209-.495-.1238.2475-.8972-.34.34-.495.4022-.4331,1.1447.3095.1856-.6189.7116.3095,2.011-.0309,1.2685.495-1.0209.8663-.7735.0619-.526.495-.1856-.2475-.8044.4641h0ZM151.46,52.93v-.0619l-.0619.0309.0309.0309Zm-.3712-.0619-.1856-.0619.0928.1547.1237-.0309Z" fill="#149e9d"/>
          <path id="ES" d="M102.2668,52.8991h0v-.7425l.4641-.4331-.2166-.2785H101.153l-.2475-.8972.8353-.4331.3712.1237,3.3726.1547,1.0828.495.8972.0928.0619.1237.0928-.0619.1547.0309h0l.0309-.0309v.0309h0l.3095.0928.4331-.0619.0309.34-.7116.495-.6807.1856-.8044,1.1138.34.5569-.4641.34-.1237.5569-.6189.2166-.2475.4641-1.5158.0309-.5881.4643h0l-.495-.1547-.2166-.495-.5878-.1856.34-1.4232-.3712-.495.4331-.2166Zm.8663,3.1248.0619.0309-.0309.0309v-.0309Zm1.5779.526-.0309-.0619h0l.0309.0309Zm-7.6421,5.5074.495-.7425-.1238.6189-.3712.1237Zm-.0309,0Zm0,0-.526.1856-1.2993-.1859.8353-.3712.4641.4331Z" fill="#a1d8d8"/>
          <path id="MA" d="M104.711,56.55v-.0309l.0309.1237.4022.0309.3095.2785.0309,1.1447.4022.5569-.1237.34-.8044-.0309-.7425.3712v.7116l-1.3923.8353-1.2063.1856-.7116.526-.0309.7735-.0619.4331-.6189.1856H99.08l-.4331.65-.2785.9284-1.0828,1.0828-.1547.8353-.4331.6806H95.2747l.9591-1.98.495-.526.3095-1.1138.5878-.4022.4641-.9591.9591-.3095.6189-.526.65-1.0828-.124-.7427.4022-.8972.495-.526,1.1138-.6189.5878-1.33.34-.1237.0309.0309v.0309l.6189.5569.8972-.1547h0Z" fill="#149e9d"/>
          <path id="CO" d="M53.1053,82.5076l.0928-.5569.5569-.34.495-.8663-.1547-1.4232.1238-.7425-.34-.526.5257-.526-.1237-.5569.2785.0928.9284-.7116.1238-.8663.99-.5878.5569.0619,1.2376-.8972.0928.4641-.4331.1547-.7116.9284-.0928.8663.3712.7735.1547.9284,1.33.0928.4641.65,1.2994-.0619-.2785,1.2994.3712.8353-.3712.4022.4331.4022.1856.8972-.3095-.6807-.5569.2785L59.2,82.3224v.495l.4641.3095-.6189.0309v.5878l.4641.7735-.34,2.3514-.526-.34.4331-.8353-.5878-.3712-.99.1856-.5569-.1856-.3095-.7425-1.1137-.8669-.7116-.4331-.7735-.1547Z" fill="#149e9d"/>
          <path id="TZ" d="M130.1427,92.5011v-.0619l-.0309-.0619h0l-.0928-.0309v-.0619h0l-.0309-.0309-.1237-.99-.1237-.1856-.0619-.0619h0l-.0309-.0309-.0309-.0619h-.0309l-.0928.0309v.1237l-.34-.0928-.34-.1237-.6189-.2785-.5569-.3712-.7735-2.042-.1856-1.1138.7735-.9284-.1547-.65.1856-.6189-.2475-.4022.2475-.0619h.65v.0309l.0309-.0309h0l-.1237,1.0519,1.0519.0928.4331-.2166-.1856-.4022.34-.495,2.4132,1.5469.0928.4641.9284.7735.4641.4331-.3712.3712.1547.526-.1856,1.7635.2785.8663.4022.495-2.011.9591Z" fill="#149e9d"/>
          <path id="AR" d="M67.6153,125.3888l.0928.0619h-.0619Zm0,0-.65-1.5779.99.9284,1.9491.7426-.99.0928Zm1.4541-18.5943-.1547,1.33.0619.4022.0309,1.4232,1.1138.8972-.1237.34.6189.7735-.3712.99-.8353.4331-1.9491.4022.1856.0928.1237,1.1138-.8663.2166-.7425-.34.1547.9284.4022.34.4022-.2475.2785.495-.8664.68.1238,1.1138-.34-.1237-.5569.9284.7116.65.495.0309.2475.7426-.6807.7422.0619.7116-.4641.2475v.495l.8353.99-.9591-.2475H64.8618l-.4641-.3095-.1856-.6807-.495.0619-.6189-.8972.4331-.8972-.2785-.3095.1856-.9284-.3095-.7116.1856-.34-.6189-.4641.0309-.6189-.526-.6807.0309-.6807-.4641-1.0209-.0619-1.2994.2785-.1856-.4022-.7735-.1547-.9591.34-.34-.1856-.6807.2166-.7116-.3712-1.0519-.5878-1.021.0309-1.6707.526-1.7325.3095-.1547-.4022-1.64.7425-.5878-.0309-.8972.5569-.8044,1.1447.3095.2166.526.1856-.6807.8663.1856,1.2376,1.2063.65.1547,1.7635,1.1138-.526,1.4232,1.8873.0928.5569-.6189.0309-.8044.4641.0309.1856,1.1757-1.1755.8362Z" fill="#72c5c4"/>
          <path id="SA" d="M138.2484,61.7167l.4022.7116.8972.7116.0619.7116.526.7735.1238.1238.1547-.0309.0619.0928.0309-.0928h.0309l-.0619.2475.1856.0309.7426,1.021,1.7635.1856.34.5569-.3095,1.5158-1.9182.7735-1.8873.2785-.6189.3712-.4331.8044-1.5469-.2785-1.33.0928-.2166.7425-.3712-.8353-.7735-.9591-.2166-.6189-.9284-.7425-.4022-.65-.0619-.9591-.4641-.9284-.65-.3712-.2475-.7116-1.6088-2.2585h-.3095l.1547-.9591.7425.1237,1.1447-.99-.7425-.7425,1.3613-.495.8663.1547,1.1447.65,1.8563,1.4232,1.2063.0928.6189.0619Z" fill="#149e9d"/>
          <path id="QA" d="M140.5072,64.7179l-.0309-.0309-.0619.0309-.1547.0309-.1238-.1238-.0928-.5878.495-.2785v.9591Z" fill="#149e9d"/>
          <path id="NL" d="M64.46,69.7607ZM108.5165,44.36h.526l-.2475.1237Zm.5569,0-.2475-.1856.5569-1.1757.4331-.1856.8972.1547-.0619.7425-.3712.3095-.1856.8044-.5879-.5567Z" fill="#149e9d"/>
          <path id="YE" d="M141.2807,69.0491l.5878,1.2994.2785.495-.3712.1547-.1547.6189-1.7325.6807-.5569.526h-.4642l-.8663.495-.5878.0309-1.2376.5878-.495-.4641-.4331-1.7944V71.06l.2166-.7425,1.33-.0928,1.5469.2785.4331-.8044.6189-.3712Z" fill="#149e9d"/>
          <path id="AE" d="M143.663,63.9443l.0619.0619.0619.4331-.3712.0619-.2475,1.7017-1.7635-.1856-.7426-1.021,1.7017.0928,1.1447-1.4851.0619.3095Zm.0309.3095.0619-.0619h-.0928v.0619Z" fill="#149e9d"/>
          <path id="KE" d="M133.1129,87.21l-.9284-.7735-.0928-.4641-2.4132-1.5469.1237-.6189-.1547-.3712.65-1.0828-.0309-.6189-.6807-1.3613.99-.6189.34.3095.6189.1547.8663.6189.99.1856.8044-.6807.7735.2166-.6189.8972.0309,2.8464.3712.6189-.9284.8353Z" fill="#149e9d"/>
          <path id="TR" d="M122.81,52.3731l.3095-.526-.2166-.2166.4022-.2785.6189.0928.7425.526-.9591.1856-.495.4022,1.5469.0309-.0309-.6189,1.2685.1237,1.1757-.7116,1.6707.2166,1.052.526,1.6707.0928.7735-.4331.7735-.0619.4641.3712.2785.7425.7425.2475.0309.0619-.4641.1856.34,1.0828.4331.65-1.33-.1547-.1856.1856-.1237-.1547-1.4851.4331-1.98-.0619-.3712.7116-.0625-.7732-.8972.1237-1.052.5569-.526-.4022-.8663-.2475-.1547.495-.4331.0928-.9592-.7117L123.8,54.91l-.0309-.495-.65-.2166.4641-.495-.9284-.9284.65-.3095Z" fill="#149e9d"/>
          <path id="MY" d="M186.4821,80.4347h-.1547l.0309-.0309-.1238.0309-1.1757-.1856-.2166,1.0519-.6189,1.2063-.5878.1856-.4331-.2785-.5879.34-1.0519.2166-.6189-.5878v-.3712l.9284.4022.1856-.9284,1.1447-.2785.6189-1.1138.4022.4331.2475-.65.0309-.0309v.0619l.2475.4022-.1547-.4641,1.2376-1.7325.1238.4022,1.3923,1.1138-.7426.2475.3095.4022-.495.0928Zm-12.128-1.7635.65.1547.0619.4641.6189-.4641.99,1.1138.0309,1.4232.5879,1.2063-.6189-.1237-1.021-.65-.8353-1.1447Z" fill="#149e9d"/>
          <path id="VN" d="M174.3233,66.4194l.1856-.2785,1.0209.1856.8044-.65.8353.34.2785.7116.8972.4022-1.1138,1.1447-.1547.7735.8353,1.1447,1.6707,1.6088.7116,1.9182-.1856,1.1757-1.1138.7425-.3095-.1547-.1856.8044-1.0828.4641-.0928-.9591-.2475-.1856.8353-.4331,1.1138-1.021-.2166-1.8253.0309-.4331-.9284-1.33-1.4232-1.3613-.65-.4022.65-.5878-.68-.6808-.6189.0619-.1856-.526Z" fill="#149e9d"/>
          <path id="IR" d="M137.3516,54.0748l.2166.526,1.98.8972,1.2994-.1856-.1237-.4022.8353-.5878,1.0828-.1237,1.1138.4331,1.1447.8353.5569.0619.1856.7425-.0309,1.98.3712,1.1757.5878.0928.1547.4022-.495.7735.8353,1.021.5878.2166.4022,1.2376-.7735.3095-.0619.8044-1.1447-.1238-1.7325-.34-.4641-1.0519-1.2685.495-.7116-.1547-.9284-.7116-.7116-.2166-1.0825-1.7327-.7735-.1547-.2166.3095-.6807-.7737.0309-.5878-.34-.495-.8044-.4331-.6807-.7735.4022-1.4232-.6807-.1547-.495-.8972-.4331-.65-.34-1.0828.4641-.1856.495.4641.4641.1237.1237-.0619.0928.0309.8044-.6189.1547.6807Z" fill="#149e9d"/>
          <path id="HT" d="M58.55,69.42h-.0309v-.0309h0Zm-.0619-.0928V69.42H58.55l.1237.1547-.0928.1856-.1547-.1544-1.2994.0619-.0618-.3714.9284.1547.0619-.7425-.4331-.2785,1.1138.0619-.0309.7116Z" fill="#149e9d"/>
          <path id="DO" d="M58.5193,69.3895l-.0309-.0619.2166-.1237.0309-.7116.526-.1856.6807.2166.1856.4331.8044.34-.4022.1856H59.3547l-.5569.6189-.2167-.3406.0928-.1856L58.55,69.42h0Z" fill="#149e9d"/>
          <path id="GW" d="M96.4505,75.206l-.6189-.495-.526-.5569,1.0519-.2785.9591.0309v.7116l-.65.1856Z" fill="#149e9d"/>
          <path id="HR" d="M117.9838,51.1047l-.4331-.3095-.1237-.0309.1547.0309.3712.1856v.0619Zm-3.1557-2.3514,1.0519.0309.1237-.5569.526-.2166.526.4022h.9591l.1238.6189v.2475l-.2166-.2166-1.7635-.0928-.0309.3712,1.2685,1.3613-.5878-.1237-.99-.8044-.5569-.9284.1237.6189Z" fill="#149e9d"/>
          <path id="TH" d="M175.6847,78.8259l-.6189.4641-.0619-.4641-.65-.1547-.8972-1.2376-.495-.3712L173.24,75.67l.495-1.1138-.4331-.9591-.0309-.495-.7116-.8353.2785-1.0519-1.1757-1.7944.2475-.99.34.0928.99-.495.34.5878h.5259l.1238,1.6088.5569-.5878.6189.1547.65-.2475.6807.7425.0309.65.65.6189-.1547,1.0519-1.3923.0309-.4331.5569.5259,1.4851-.8044-.7735-.5569.0309-.0928-.65-.65.1547.1238.8044-.4331,1.8873.526.4022.4331,1.33Z" fill="#149e9d"/>
          <path id="EE" d="M121.82,38.4816l.0619.0309.0619.0619-.0309.0309H121.82l-.0309.1237-.0619.1237-.4022.1237.495.5569-.0309.1547-.0619.1856-1.2063-.3712-.526.1237-1.3615-.7425,1.8873-.526Z" fill="#149e9d"/>
          <path id="CD" d="M126.3684,86.1893l-.0928,1.33.2785,1.2376.6807,1.1757-1.1138.2166-.4022.4641.1237.2166.1237.3095-.2785,1.2685.4641.7116.495-.1547-.0309.9591-.4022.0309-.5569-.7735-.4641-.1237-.2785-.5569-.34.34-.8972-.2785-.0309-.34-.6807.1547-.2166-.4022-1.1757.2785-.0309-.99-.2475-.4022.0309-1.64-1.5469-.2166-.1237.7735-1.1757.0619-.4022-.6189-.2475-1.0519-2.32-.0619-.526.1547-.1237-.2166.1547-.526.4331-.34.2166.1856.65-.4641.3095.4331.9591-1.1757V85.261l1.021-1.2376.2166-2.0729.3712-.99-.0619-.65.8044-.6189.5878.526,1.2994.1856.2785-.495.3712.1237,1.4232-.526,1.2685.2166.6189.6189.99-.2166.7116.8044-.0928.8044.4022.2166-.526.526-.0309.1856-.34.34-.1856.6807-.2475.4022.2166-.0928-.0619.34.0309.3712-.1547.0928-.0928.1238-.2166.2166-.0309.4022v.1237l.0928.0619.1547.2475Z" fill="#149e9d"/>
          <path id="KW" d="M138.2484,61.7167l-.6807-.3712-.6189-.0619.3095-.6807h.5569l.1547.495Z" fill="#149e9d"/>
          <path id="DE" d="M111.4866,41.7921l.0928-.0309.34.0928,1.2063.65.9591-.5569.6189.526-.0309.0309h.0309l-.2166.0309.2475.1237.3095.8044.1856,1.2685-1.2994.34-.0619.495.8974.7425-.5878.4641.0309.34-1.0519.2166-.7735-.1237-.4022-.1856.0928.0928-.4331.0619h-.526l.3095-1.021-1.1142-.3714.0928-.2475-.2166-.2475.1237-.1547-.2166-.3095.1856-.8044.3712-.3095.0619-.7425.0619-.34.9284-.1237Zm.5878,5.3215v.0309h0Z" fill="#149e9d"/>
          <path id="CZ" d="M114.7663,46.3091l-.8972-.7425.0619-.495,1.2994-.34.9591.2166,1.33.495.1856.3095-.4022.3095-.65.3712-1.2063-.2785Z" fill="#149e9d"/>
          <path id="IE" d="M102.4834,41.6373l-.5569.4641,1.0828.2475.1238.8353-.2475.5878-.6189.0309-1.4232.495-.3095-.3095.8663-1.021-.4022.0309-.1237-.8044.7735.0619.2475-.6807Z" fill="#a1d8d8"/>
          <path id="MM" d="M167.95,67.44l.2166-.1856-.1237-.495.34-.34-.0928-1.2376.5569.1237.34-1.4541-.0928-.5569.9591-.6807.2472-.65.0928-.2475.8972.7425.2785,1.2685-.526.65.1237.9284.6189-.1856.2785.7116.4331.0928-.1238.6807.5569.0928.2475.4641.6189-.0928-.2475.1856-.3095.7735-.99.495-.34-.0928-.2475.99,1.1757,1.7944-.2785,1.0519.7116.8353.0309.495.4331.9591L173.24,75.67l-.3095-2.1657-.495-.526-.4022-1.8563-.3712-.5569-1.0828.99-.8353-.2475.1238-1.1447-.4331-.99-.495-.4022Z" fill="#149e9d"/>
          <path id="GQ" d="M113.2189,82.8479l-.3095-.1238.3095-.8972.1238.1237h.8972l.0309.8972Z" fill="#149e9d"/>
          <path id="UG" d="M128.1626,84.3948Zm-.0309,0h-.65l-.2475.0619-.34.3095-.2475-.0619-.0309-.3712.0619-.34.1856-.2475-.1547-.0619.1856-.6807.34-.34.65-.495-.0928-.2166-.4022-.2166.0928-.8044.65-.2475.2475.2475.8972-.1856.3095-.3712.6807,1.3613.0309.6189-.65,1.0828-.526-.0309-.8972.3095Z" fill="#a1d8d8"/>
          <path id="KZ" d="M142.0851,48.7223l-1.4851.4641.7426,2.7226-.2785.0619-1.0209-.8044-.99.4331v-.7425l-.495-.0619-1.33-1.3616.526-.5569.6807-.0619.2166-.4331-.1856-.6807-1.1447-.1547-1.052.5878-.99-1.0828-.5569-.0309-.495-.4641V45.5047l.2475-.4641.65.4641v-.5569l.8663-.7735,1.64.0928,1.5779.7116.3712-.4022,1.2376.0309.8044.3712.8972-.1856-.1237-.4641-.8972-.34.0928-.5878.6807-.34-.8353-.5569,2.2895-.3095L145.21,41.73l-.0309-.1547,1.4232-.0928.5878.8663,1.3613.1237.5569.2475,1.1138-.6189.0619.3712,1.0209.495,2.0729,1.7944.2475-.34.65.4022,1.0828-.1856,1.5779,1.0519.7735-.0309.6189.4022-.7116.495.2785,1.021-.3712.1856-1.1447-.2785.0619,1.2376-1.2063.3712.99,1.4541-.0928.7116-1.2685-.495-2.011.0309-.7116-.3095-.1856.6189-1.1447-.3095-.4022.4331-.9907.65-.0928.5878-.526-.4641h-.8044l-.9284-1.2376-.7116-.6189-1.7325.1547-1.5158-.99-.34-.8663-.3712.1547-.0619-.0928-.0619.1237Z" fill="#72c5c4"/>
          <path id="MR" d="M100.8745,62.6757l2.0729,1.4232.4331.34h-1.1448l.65,7.2706-3.4961.0619-.6807-.0928-.3712.5878-1.3613-1.4232-1.3613.1547-.1237.495.3712-1.6707L95.5529,68.74l.2475-.65-.4641-.7116-.1237.3095.0928-.4331h2.63V65.9553l.6807-.34.0619-1.9491h2.1657Z" fill="#149e9d"/>
          <path id="DZ" d="M103.3807,64.4393l-.4331-.34-2.0729-1.4232v-.3095l.0309-.7735.7116-.526,1.2063-.1856,1.3923-.8353v-.7115l.7425-.3712.8044.0309.1237-.34-.4022-.5569-.0309-1.1447-.3095-.2785,2.1039-1.0828,1.1757-.2475,1.1757-.0928.3095.2166,1.3613-.34.7735.0928-.1856,1.7944-.4641.5878.5569,1.0519.4641.34.3712,1.4232.2166.8353.0309,2.011-.2785.3095.4331.9591,1.0209.4331.2785.5878-2.9392,2.042-1.1136,1.0829-1.0519.2475H108.64l.0928-.495-.8972-.34-.495-.6807Z" fill="#149e9d"/>
          <path id="PE" d="M60.0353,95.5326l-.4331.2785.65.2785.0309-.0309.0619.0309-.0619.1856.0309.0619-.3712.5569.1237.1856-.2475.5569-.2785.0619-.8044-.8044-2.63-1.4851-.8353-.959V93.893l-1.0519-1.6088L53.167,89.9328,52.4554,88.85l-.7735-.5569L51.5272,86.87l.5878-.65-.0928.526.99.7116.4331-1.2063,1.1447-.65.7425-.8046.1856-1.0828,1.1138.8663.3095.7425.5569.1856.99-.1856.5878.3712-.4331.8353.526.34-.5569-.0619-1.4232.7425-.1238.99-.5569.8663,1.33,1.8873.65-.0309.4331-.4022v1.2063l.7116-.0309.6807,1.1757-.2166.8972.1856.4022Z" fill="#72c5c4"/>
          <path id="AO" d="M114.8589,88.0456V87.829l-.1547-.34.526-.495.2166.1856-.4331.34Zm-.4021,8.8176V95.7494l.3712-.8044.1547-1.021.7735-.8972L115.88,91.82l-.526-1.2063.2785-.5878-.7425-1.7017.6189-.2166,2.32.0619.2475,1.0519.4022.6189,1.1757-.0619.1237-.7735,1.5469.2166-.0309,1.64.2475.4022.0309.99,1.1757-.2785v1.64h-1.3613l-.0619,2.4132.8972,1.1447-1.7325.3095-1.3613-.2166-.2166-.2785h-3.0013l-.526-.34Z" fill="#a1d8d8"/>
          <path id="MZ" d="M130.0189,93.9858l-.0619-.99.1856-.495,1.7017.1237,2.011-.9591.1547,3.31-.6807,1.2376L131.38,97.3579l-1.5469,1.5158-.1856.4331.495,1.2994-.3712,1.9182-1.5158.7116-.2785.3095.2166.6807-.3712.0309-.1547-.0309v-.4325l-.0619-.2475.1238-1.1757-.4022-1.5469.8044-.8353.4331-.99-.1237-.4331.2166-.8353V96.43l-1.7017-.8044-.0928-.495,2.042-.7425.2785.4641.4641-.1856.1237.7116-.2475.4331.6807.9591-.0928-.4331.4641-.4022.0928-1.0519Z" fill="#149e9d"/>
          <path id="VE" d="M66.0065,77.0623l-.99,2.011.4022.5569-.5569.7116-2.1039.2166.3095.3095.0928.8663.4331.0309-.526.65-.9591.7116-.8972-.4331-.1857-.8975-.4331-.4022.3712-.4022-.3712-.8353.2785-1.2994-1.2994.0619-.4641-.65-1.33-.0928-.1547-.9284-.3712-.7735.0928-.8663.7116-.9284.4331-.1547-.4022.1856.1854.6812-.4022.6807.3712.5878.3712-.526-.34-.8043,1.145-.5571.7116.0619.5876.7427,1.2994-.0619.495-.3095.3712.5569.4641-.3095.9284-.0928.2166.8044.4641-.1547.5569.4641-.2166.4022Z" fill="#149e9d"/>
          <path id="GY" d="M65.4187,79.63l-.4022-.5569.99-2.011.5878.4022L67.8629,78.95l-.0619.4641-.5878,1.021,1.0519,1.7017-.4022-.0619-1.1757.65-.6189-.526-.1856-.65.3405-.9591-.3712-.4331.0928-.4331Z" fill="#149e9d"/>
          <path id="MW" d="M130.0189,92.2842l-.0309-.0309h0Zm-.2785-1.2063-.0619-.0619h0Zm-.1238-.1547Zm-.8044-.0619.34.1237.34.0928.2166,1.5158-.1856.526.1547.7735.5878.8044-.2475-.7116.65.8972-.0928,1.0519-.4641.4022.0928.4331-.6807-.9591.2475-.4331-.1237-.7116-.4641.1856-.2785-.4641-.2475-.2475.3712-.8972-.0309-1.2685.3095-.2166Z" fill="#149e9d"/>
          <path id="TM" d="M141.8995,51.4759l.526.1856-.2166-.3712.4331-.4641.8972.3712.34.6807,1.2376.2785.495.7425,2.32,1.33.65.1547.0928.526-.8972.0928-.1856.7425-1.2063.8972-.7426-.3712-.1856-.7425-.5569-.0619-1.1451-.8355-1.1138-.4331-1.0828.1237-.8353.5878-.2166-1.2063-.5878-.495.1547-.34-.5878-.1547v-.5262l.5569.2475.5569-.3712-.6807-.7116-.8663.2475.99-.4331,1.0209.8044.2785-.0619.65.0619Z" fill="#149e9d"/>
          <path id="ZM" d="M125.8422,90.83l.4331-.5569-.1547-.1238,1.1138-.2166.3095.4331.0928-.1547.5569.3712.6189.2785.495.8972-.3095.2166.0309,1.2685-.3712.8972.2475.2475-2.042.7425.0928.495-1.021.3095-.0928.3712-.4331.2475-.4022.2166-.3712.65-.2166.0928-.9591-.2166-.6807-.2475-.5569.1237-.8972-1.1447.0619-2.4132h1.3613v-1.64l.2166.4022.6807-.1547.0309.34.8972.2785.34-.34.2785.5569.4641.1237.5569.7735.4022-.0309.0309-.9591-.495.1547-.4641-.7116.2785-1.2685Z" fill="#149e9d"/>
          <path id="NC" d="M128.2555,56.7045l-.0928.0309-.0619-.0309-.1856-.1237-.4331.0309h0l1.1447-.4022-.3095.495h-.0618Z" fill="#149e9d"/>
          <path id="ZA" d="M127.6676,104.2266l.1547.0309.3712-.0309-.4331,1.33-.8353.7735-.6189.99-1.0828,1.0828-1.2063.9591-1.4851.495-1.4541-.1237-.4641.2475-1.4541.34-.7116-.7116-.3712-.7735.2785-.1547V107.97l-.526-1.0519-.4641-1.3613.2785-.3712.3095.495,1.1138.1856.5878-.4022.1237-2.8464.526,1.0828-.1238.5878.6189-.0309.7425-.6807.2166-.526,1.1757.4022.495-.1547.2166-.6807.6807-.3712.1237-.4641.8353-.7426.7735-.3712.6189.0928.65.0619.4022,1.5469-.1238,1.1757-.3095-.1547-.4641.495.1856.6189.526.0928Zm-3.4652,2.1347.6189.8044.9591-1.021-.4641-.5878Z" fill="#a1d8d8"/>
          <path id="LT" d="M118.6025,41.5137l-.1238-.3095-.0928-.2785.5569-.2475,2.042.1856.5569.3712-.4641.99-1.0828.2475-.0309-.1547-.4331-.1547-.0309-.3712Zm-.2166,0,.0928-.1856-.0309.1856Z" fill="#149e9d"/>
          <path id="ET" d="M134.7526,74.9585l-.0619.0619.0619.0928.1237.0928.65-.0309-.1547.2785.526.9284.4331.34,2.011.7735h.6807l-2.011,2.3514-.65-.0309-1.3923.7425-.7735-.2166-.8044.6807-.99-.1856-.8663-.6189-.6189-.1547-.8353-1.5469-.7116-.7735-.4331-.0928.0619-.495h.526l.0619-.8044.3095-1.0828.1856.1237.495-1.4232.3095-.0928.2475-1.2063.8972-.4641,2.011.5878,1.0828,1.2685-.4022.7116Z" fill="#149e9d"/>
          <path id="GH" d="M107.3717,78.95l-2.2276,1.021-.6807-.2475v-.0309l.0928.0309.0928-.0619-.2475-1.2994.495-1.0519-.1237-.9591-.0619-1.1757,1.7635-.0928.34.6807.1237,2.5989Z" fill="#149e9d"/>
          <path id="SI" d="M114.828,48.7533l-.0309-.0309.0928-.0309-.2475-.526.1856-.1856.526.1237.8972-.3712h.0928l.1856.2785-.526.2166-.1237.5569Z" fill="#149e9d"/>
          <path id="BA" d="M117.4268,50.7643l-.0619-.0619h.0309l-1.2685-1.3613.0309-.3712,1.7635.0928.2166.2166h.2166v.99l-.4331.4022.0309.3095-.3712-.1856Z" fill="#149e9d"/>
          <path id="JO" d="M129.5549,59.7366l.0619-.0619-.0928-.0309v-.0309l.0309-.0309h.0619l-.0309-.34-.0619-.6807.1237-.0619.7116.3095,1.1755-.8042.2475.6807.0928.2785-1.3613.495.7425.7425-1.1447.99-.7425-.1237.0309-.1237-.0309-.0309.0619-.65Z" fill="#149e9d"/>
          <path id="SY" d="M131.5347,58.0042l-1.1757.8044-.7116-.3095.0619-.1547-.0928-.3712.4331-.6189-.4331-.34-.1237-.5878-.0309-.4022.3712-.7116,1.98.0619,1.4851-.4331.1237.1547-.5569.4641.0928,1.3613Z" fill="#149e9d"/>
          <path id="MC" d="M111.1463,50.1146l-.0309.0309h-.0311l.0309-.0309Z" fill="#149e9d"/>
          <path id="AL" d="M119.6235,52.2494h0l-.0309-.0309Zm-1.0828-.8972v-.1856l.1856-.2475.2166.0928.3095.2475.0619.2475-.0309.4022.1237.1856.0309.1237h.1547v.0309l.0309.0309h0l-.0309.0619.0309-.0309v.0309l.0309.0619h.0309l-.2166.4331-.3712.2475-.495-.65-.0309-.8972-.0309-.0928Z" fill="#149e9d"/>
          <path id="UY" d="M72.2562,108.6821l-.2475.3712.1237.34.0309.0619.0928.0619-.1547.526-.65.4022h-.8044l-1.1447-.34-.4331-.4331-.0928-1.1447-.0619-.4022.1547-1.33.495-.0619.65.7426.2475-.1547Z" fill="#149e9d"/>
          <path id="CNM" d="M127.3889,56.6117Zm.0928,0Zm.6189.0928.0309.0309v.0309l-.1856-.1547h-.4641l.4331-.0309Z" fill="#149e9d"/>
          <path id="MN" d="M176.7985,47.0517l.1856-.0928-.1238-.0619h.4641l1.2994.8044-1.7326.4331-.1856.65-.65.0619-.3095.526-1.2063-.2475v.4641l.6189.5569-1.0209.9284-1.6088.1237-.7735.4022h-.9284L169.28,51.043l-3.3414-.1547-1.1447-1.1757-1.5779-.5878-1.4541-.1547-.3712-1.021-.7735-.8044-1.7325-.6807L158.5755,46l2.042-1.2685,1.2376.2166.4022.4022,1.7325.2166.2475-.5878-.495-.34.1547-.8353,2.2895.5878.34.526,1.0209.3712.8353-.2785,1.7635.4022.6189.4641,1.3923.1547,1.1757-.34.4022-.526,1.6088.34.0928,1.2685.4022.3095Z" fill="#149e9d"/>
          <path id="RW" d="M126.2444,85.7252l-.0928-.0619V85.54l.34-.34-.0928-.2785.0928-.1238.1547-.0928.2475.0619.34-.3095.2475.4022-.1856.6189-.4331.1856Z" fill="#149e9d"/>
          <path id="BO" d="M60.2519,96.09l-.0309-.1237.1237.1237-.0619-.0309Zm-.1856.99-.1237-.1856.3712-.5569.2785-.1856-.5569-.6189.2475-1.021-.1856-.4022.2166-.8972-.6807-1.1757.8663.0309,1.0828-.8353.7735-.1856.0928,1.1447.7425.99.8972.1547.8969.6806.9284.2166.34,1.8873,1.1447.0309.0928.7426.6189.6807-.2785,1.5469-.6807-.6807-1.7325.2785L65.14,99.4,64.9853,100.7l-.8663-.1856-.1856.6807-.2166-.526-1.1447-.3095-.5569.8044-.4331-.0309-.34-1.1757-.4641-.65.1547-.7735-.4022-.3712Z" fill="#149e9d"/>
          <path id="CM" d="M115.6015,81.9507l-1.33-.0928-.0309.0928h-.8972l-.1238-.1237-.1237-1.1757-.7116-.7116.1856-.8044,1.1757-.99.495.526.3712-.526.2166-.9284,1.1757-2.2585.4022-.1547.0619-.526-.4331-.7113h.1856l-.0309.1547.1547-.0619.4331,1.1138-.0309.5569.4331.6189h-1.0209l-.1547.2785.8353.8972.2166.7116-.7425,1.1447.5569,1.7635.6189.7116.0619.4641v.3712L116.468,81.92Zm.65-8.3843Z" fill="#a1d8d8"/>
          <path id="CG" d="M115.4468,87.1793l-.2166-.1856-.526.495-.1237-.34-.4641-.495.495-.1856-.1856-1.0519h.5878v-.34l1.1138.4641.2785-1.4541-.4331-.3095.4022-.8663-.1237-.3095-.6807.0928.0309-.7425.8663-.0309,1.0828.3712V81.92l.2475-.9591.6189-.1856.7735.1856-.3712.99-.2166,2.0729-1.021,1.2376v.8972l-.9591,1.1757-.3095-.4331-.65.4641Z" fill="#149e9d"/>
          <path id="EH" d="M95.2126,67.6878l-.0309-.0928.0928-.4331h1.4232l.4331-.6807.1547-.8353,1.0828-1.0828.2785-.9284.4331-.65h1.1138l.6189-.1856.0619-.4331v.3095l-.0309.99H98.6779l-.0619,1.9491-.6807.34v1.2994h-2.63Z" fill="#149e9d"/>
          <path id="RS" d="M118.1384,49.2793v-.2475l-.1238-.6189.3712-.1547.4022.0309.8353.7116-.0309.2785.8353.4641-.1547.34.4331.4331-.34.65h-.2475l-.2166.0619.0928-.3095-.6494-.4329-.2475.3095-.4641-.2475-.2785-.2785v-.99Z" fill="#149e9d"/>
          <path id="ME" d="M118.355,50.2693l.2785.2785.4641.2475-.1856.0928.0309.1237-.2166-.0928-.1856.2475v.0309h-.1547l.1547.1547v.0928l.0309.0928-.4022-.34-.1856-.0928-.0309-.0619v-.0617l-.0309-.3095Z" fill="#149e9d"/>
          <path id="BJ" d="M108.3927,78.733l-.526.0619-.1856.0619L107.65,76.66l-.1856-.7116-.3712-.2785.0928-.495.3712-.3712.6189-.3095.3095-.4022.526.5569.1547.8353-.7116,1.1757Z" fill="#149e9d"/>
          <path id="TG" d="M107.6811,78.8568l-.1237.0309-.1856.0619-.4331-.5878-.1239-2.5989-.34-.6808.4331.0928h.2785l-.0928.495.3712.2785.1856.7116Z" fill="#149e9d"/>
          <path id="LA" d="M173.24,68.0282l.3095-.7735.2475-.1856.4022.3095-.2475-.8353.3712-.1237.6807.65.1856.526.6189-.0619.6807.6807-.65.5878.65.4022,1.4232,1.3613.9284,1.33-.0309.4331-.4331.3095-1.1138-.0309.1547-1.0519-.65-.6189-.0309-.65-.6807-.7425-.65.2475-.6189-.1547-.5569.5878-.1238-1.6088h-.5259Z" fill="#72c5c4"/>
          <path id="AF" d="M154.0275,55.0029l-.3095.0928.1237.0619-1.2063.1547-.7426.6189.4641.6807-.1547.8663h-.6807l.3095.5569-.4331.1856v.8972l-.7116.0619-1.0209.7116.0309.8353-1.2994.34-1.0519-.0309-1.1138-.34.495-.7735-.1547-.4022-.5878-.0928-.3712-1.1757.0309-1.98.7426.3712,1.2063-.8972.1856-.7425.8972-.0928.495.1237h.34l.9591.0619.4641-.34.1237-.6189.7426.34.4022.9284.7426-.5878Z" fill="#149e9d"/>
          <path id="UA" d="M119.7473,46.5567l.0928-.1856.0928-.3095.0309-.34.7425-.7425-.3712-.7425,1.2063-.2785,2.1347.4022,1.2994-.526,1.1447-.1856.4022.8044.526.0309.495.65,1.0209-.0619,1.6707.6807.0928,1.2376h-.5569l-.2475.5569-1.33.34-.5879.3712.6189.7735-.9284.6189-.8044-.99.495-.2475-1.2685-.2166-.3712-.2785-.7735,1.0519-.526-.0309-.3712-.1547.34-.7425.6807.0619-.65-1.1447-.9591-.4331-.65.1547-.7735.2785-1.4232-.0309-.1856-.1237Z" fill="#149e9d"/>
          <path id="SK" d="M119.9326,46.0616l-.0928.3095-.0928.1856-.99-.0928-.3095.3095-1.2063.2785-.4331-.1856-.2166-.2785.0619-.1547.65-.3712.4022-.3095,1.7635.0928Z" fill="#149e9d"/>
          <path id="JK" d="M156.2241,56.3643l-.4022.3095-.2785-.4331.4331.1237Z" fill="#149e9d"/>
          <path id="PK" d="M155.5435,56.24l.2785.4331-.6807.4641-.99-.2166-.2785.3095.3712.9284,1.021.7735-.4641.34.1237.4641-.5569.8972-.1856.7116-.526.8044-.65.1856-.2785-.2475-.495.9591.495.2166.7735,1.3923-.65.4022-.7735-.0309-.4022.2785-.5569-.1547-.1856-.495-.6807-.5878-1.7944.2166h-1.2376l.0619-.8044.7735-.3095-.4022-1.2376-.5878-.2166-.8353-1.021,1.1138.34,1.0519.0309,1.2994-.34-.0309-.8353,1.0209-.7116.7116-.0619v-.8974l.4331-.1856-.3095-.5569h.6807l.1547-.8663-.4641-.6807.7426-.6189,1.2063-.1547,1.0209.4331Z" fill="#149e9d"/>
          <path id="BG" d="M124.0787,50.1146l-.4641.9591.3095.3712-.6189-.0928-.4022.2785-.65.34-.4641-.2166-.99.1547L120.83,51.6l-.4641-.4331.34-.65-.4331-.4331.1547-.34.4331.2785,1.2685.1547.9591-.3712Z" fill="#149e9d"/>
          <path id="LI" d="M112.291,47.4229l.0619.1237-.0309.0309H112.26Z" fill="#149e9d"/>
          <path id="AT" d="M112.3221,47.5776l.0309-.0309-.0619-.1237.0619-.0928-.0619-.0928h.0928v-.0309l.7735.1237,1.0519-.2166-.0309-.34.5878-.4641.6807-.1547,1.2063.2785-.0619.1547.2166.2785-.34.1856-.2166.6807-.8973.3714-.526-.1237-.99-.4023-.99.1547h-.1856Z" fill="#149e9d"/>
          <path id="SZ" d="M127.6057,103.546l.0619.2475v.4331l-.1237.3712-.526-.0928-.1856-.6189.4641-.495Z" fill="#149e9d"/>
          <path id="HU" d="M118.0147,48.413h-.9591l-.526-.4022-.1856-.2785h-.0928l.2166-.6807.34-.1856.4331.1856,1.2063-.2785.3095-.3095.99.0928.3095.2475.1856.1237-.495.34-.4019.8973-.5569.1237-.4022-.0309Z" fill="#149e9d"/>
          <path id="NE" d="M109.0115,74.6491l-.526-.5569-.3095.4022-.1234-.5569-.8044-.3095-.5569-1.1757.0309-.2785.7425-.2785,1.4541-.0619.4641-.8044V68.9254l1.0519-.2475,1.1138-1.0828,2.9392-2.042,1.021.2785.495.4331.495-.3095.1547,1.1757.5569.8663-.1547.34-.1238,2.2895-.7119.8973-.6189,1.0519.1237.526-.7425.495-.7116-.2475-.8972.0928-.3095.34-1.2372-.4023-.5878.2785-.9591-.6807-.9284.3095Z" fill="#149e9d"/>
          <path id="LU" d="M110.3109,45.7832h-.2166l-.0928-.0619-.0619-.2475.2475-.1856.2166.2475Z" fill="#149e9d"/>
          <path id="AD" d="M107.4646,50.9811l.1856-.0309-.0309.0928-.0928.0619Z" fill="#149e9d"/>
          <path id="CI" d="M104.4635,79.7231l-.0928-.0309h.0928Zm-3.0011.5569.0619-1.1447-.7735-.495.0928-.8353.1856-.7116.3712.0928-.2785-.8044.0619-.5569h.6807l.495-.4331.495.2166.5569.5878.99-.1855.3712.34.1237.9591-.495,1.0519.2475,1.2994-2.042.0928Z" fill="#149e9d"/>
          <path id="LR" d="M100.8437,77.8048l-.0928.8353.7735.495-.0619,1.1447-1.1757-.6189L98.8017,78.3l.5878-.65.2475-.5569.526.1237.2475.8975Z" fill="#149e9d"/>
          <path id="SL" d="M99.637,77.0932,99.39,77.65l-.5878.65-.99-.495-.2166-1.1138.526-.6189.8663-.1237Z" fill="#149e9d"/>
          <path id="BE" d="M110.1874,45.2881l-.2475.1856.0619.2475-.99-.34-.9591-.8041.34-.1856.1237-.0309.2785.1237.2475-.1237.0309.0309V44.36l.4331-.0928.5879.5569.2166.3095Z" fill="#149e9d"/>
          <path id="IQ" d="M138.1868,60.6028l-.2785-.0619-.0928.0619h-.5569l-.3095.6807-1.2063-.0928-1.8563-1.4232-1.1447-.65-.8663-.1547-.0928-.2785-.2478-.68,1.4232-1.0828-.0928-1.3613.5569-.4641.1856-.1856,1.33.1547.495.8972.6807.1547-.4022,1.4232.6807.7735.8044.4331.34.495-.0309.5878Z" fill="#72c5c4"/>
          <path id="GE" d="M134.536,51.94l-.526.0619-.4331.0928-.4641-.3712-.7735.0619-.1856-.8353-1.0519-.5569,1.7944.1547.7735.4641.526-.1547,1.1138.65.1856.6189Z" fill="#149e9d"/>
          <path id="GM" d="M95.3056,73.5972l-.0619-.2166.1856-.1856,1.1447-.1547-.65.495Z" fill="#149e9d"/>
          <path id="CH" d="M112.0745,47.1135h0v.0309h0l.1856.1237.0309-.0309.0619.0928-.0619.0928-.0309.1547h.0619l.34.1547h.1856l-.2785.3712-1.1138.0928-.65.2475-.1547-.1547.0309-.2166-.1237-.0928-.1547.1237-.0619.0619-.0928-.2166.8663-.7735h.526Z" fill="#149e9d"/>
          <path id="TD" d="M116.344,73.659l.1856-.0619-.2785-.0309h0l-.0619-.0309.0309.0309h-.1856l-.3095-.4641-.1237-.526.6189-1.0519.7116-.8972.1238-2.2895.1547-.34-.5569-.8663-.1547-1.1757.65-.34,5.4143,3.032.0928,2.9082h-.5883l-.34,1.2063-.3095.2785.1238.8044.4641,1.3923-.2785-.0619-1.33,1.4232-.9284.0928-.3095.7425-1.2376.4022-.1547-.2475-.7116.2475-.2166-.7116-.8353-.8972.1547-.2785h1.021l-.4331-.6189.0309-.5569Z" fill="#149e9d"/>
          <path id="KV" d="M119.3141,51.5068l-.0619-.2475-.3095-.2475-.0309-.1237.1856-.0928.2475-.3095.65.4331-.0928.3095-.2785.0309Z" fill="#149e9d"/>
          <path id="LB" d="M129.1836,58.2206l.2475-.6189.1856-.5878.4331.34-.4331.6189-.1856.2475Z" fill="#149e9d"/>
          <path id="SX" d="M139.0222,77.4955h-.6807l-2.011-.7735-.4331-.34-.526-.9284.1547-.2785.2166-.3712.7116.8044.99-.34.4641.1547.65-.4022,1.0209-.0309.0619,1.3613Z" fill="#149e9d"/>
          <path id="SO" d="M139.0222,77.4955l.6189-1.1447-.0619-1.3613,1.5779-.4641-.2475,1.8253-.9284,1.8873-.2166.6807-.7116,1.2685-1.2685,1.5779-.99.65-1.33,1.4232-.7116,1.0828-.3712-.6189-.0309-2.8464.6189-.8972,1.3923-.7425.65.0309Z" fill="#149e9d"/>
          <path id="DJ" d="M135.5263,75.1751l-.65.0309-.1237-.0928.0619-.0928-.0619-.0619-.0309-.1856.4022-.7116.2166.0619.2785-.2475.1856.5569-.0619.3712Z" fill="#149e9d"/>
          <path id="ER" d="M135.6189,73.8758l-.2785.2475-.2166-.0619-1.0828-1.2685-2.011-.5878-.8972.4641-.0928-.6807.3095-1.4851.8044-.34.2166-.3712.8663,2.2276.99.3712Z" fill="#149e9d"/>
          <path id="BI" d="M126.6776,87.0556l-.1856-.4331-.1238-.4331.0309-.2166-.1547-.2475.6189-.0619.4331-.1856.1547.65Z" fill="#149e9d"/>
          <path id="SR" d="M67.801,79.4137l.2166-.4022,1.98.1238-.1238.3712-.2166.34.3095,1.1138-.4331.8663-.8972-.1547-.3712.4641-1.0519-1.7017Z" fill="#149e9d"/>
          <path id="IL" d="M128.75,59.5819l.34-.7425.0928-.6189h.2475l.1856-.2475.0928.3712-.0619.1547-.1237.0619.0619.6807-.0619.1856.0309.1547-.0309.0309v.0619l.0309.0619-.1237.526-.0619.65-.0309.0619h0l-.0619-.1856Z" fill="#149e9d"/>
          <path id="SN" d="M97.3166,73.9065l-.9591-.0309-1.0519.2785-.0309-.3712.0309-.1856.6189-.0619.65-.495L95.43,73.195l-.4333-.8665.495-.8353.1237-.495,1.3613-.1547,1.3613,1.4232.0928.8353.4643.99-.65.0928Z" fill="#149e9d"/>
          <path id="GN" d="M97.3166,73.9065l.9284.2785.65-.0928.4641.4022L100.38,74.03l.5569.8663.2475.9284-.0619.5569.2785.8044-.3712-.0928-.1856.7116-.4331.3095-.2478-.8977-.526-.1237-.65-1.1447-.8663.1237-.526.6189-.1856-.5569-.9591-.9284.2166-.4022.65-.1856Z" fill="#149e9d"/>
          <path id="PL" d="M117.7363,42.1014l-.1237.1237.2166-.1237,1.6707.0928.0309-.0309.4331.1547.0309.1547.3712.9284-.3712.2785.34.5569.3712.7425-.7425.7425-.0309.34-.4641-.2166-1.7635-.0928-.1856-.3095-1.33-.495-.9591-.2166-.1856-1.2685-.3095-.8044.2166-.1237-.2475-.0309h-.0309l.0309-.0309,2.2585-.65Z" fill="#a1d8d8"/>
          <path id="MK" d="M120.3661,51.1665l.4641.4331-.0309.3095-.6189.1856-.4641.1856-.0928-.1237V52.25l-.0309-.0309h-.1237l.0619-.1547-.1238.0309-.1237-.1856.0309-.4022.3095-.2475.2785-.0309.2166-.0619Z" fill="#149e9d"/>
          <path id="PY" d="M70.6783,102.0918v.2166l-.1238.8353.0309.0928v.0309l-.0309.8044-.5569.6189-1.8873-.0928.526-1.4232-1.7635-1.1138-.65-.1547L64.9855,100.7l.1547-1.2994.2785-.6807,1.7325-.2785.6807.6807.2785.5878-.0309.8663h1.0519l.5569.4331.2166,1.021Z" fill="#149e9d"/>
          <path id="BY" d="M119.9948,42.4727l1.0828-.2475.4641-.99.5569-.0928.2785-.2785,1.6088.4022.7425,1.2994.6189.2785-.7735.3095.4022.6807-1.2994.526-2.1347-.4022-1.2063.2785-.34-.5569.3712-.2785Z" fill="#149e9d"/>
          <path id="LV" d="M122.3768,40.8639l-.2785.2785-.5569.0928-.5569-.3712-2.042-.1856-.5569.2475.2166-1.0828.4641-.1237.7116.5569.2166-.65.526-.1237,1.2063.3712.2475.495Z" fill="#149e9d"/>
          <path id="BF" d="M107.1861,75.1751h-.2785l-.4331-.0928-1.7635.0928.0619,1.1757-.3713-.34-.99.1856-.5568-.5879.2475-1.1447.4022-.1547.3095-.9591.5878.0619.2785-.5569.4641-.0928.959-.7113.6189.1238-.0309.2785.5569,1.1757.8044.3095.1237.5569-.6189.3095Z" fill="#149e9d"/>
          <path id="SS" d="M129.5858,80.3728l-.3095.3712-.8972.1856-.2475-.2475-.65.2475-.7116-.8044-.99.2166-.6189-.6189-.6807-.7735-.0619-.4331-.6807-.526-.8353-1.0519.2785-.1547.3095-1.0519.526-.1238.4949.712.8972-.0619.65.2166.7735-.7425.8353.3712.7735-.9591-.2475-.7425.7735-.1547v1.0519l.495.526.1238.526-.0619.8044h-.526l-.0619.495.4331.0928.7116.7735.8353,1.5469-.34-.3095Z" fill="#149e9d"/>
          <path id="CF" d="M122.903,76.9386l.8353,1.0519.6807.526.0619.4331.6807.7735-1.2685-.2166-1.4232.526-.3712-.1237-.2785.495-1.2994-.1856-.5878-.526-.8044.6189.0619.65-.7735-.1856-.6189.1856-.2475.9591-.0619-.4641-.6189-.7116-.5569-1.7635.7429-1.145.7116-.2475.1547.2475,1.2376-.4022.3095-.7425.9284-.0928,1.33-1.4232.2785.0619.526.8044-.0928.8353Z" fill="#149e9d"/>
          <path id="NA" d="M122.2224,97.1725l.5569-.1237.6807.2475-1.1447.495-.1547-.34-1.5779.2475-.0619,2.7845-.6807.0309-.0619,2.1039-.1237,2.8464-.5878.4022-1.1138-.1856-.3095-.495-.2785.3712-.7425-.9591-.4022-2.1039-.0928-1.7635-1.64-3.1867-.0309-.6807.9284-.2166.526.34h3.0011l.2166.2785,1.3613.2166Z" fill="#149e9d"/>
          <path id="RO" d="M123.6765,48.7842l.3712.1547.526.0309-.4641.4331-.0309.7116-.99-.3095-.9591.3712-1.2685-.1547-.4331-.2785-.8353-.4641.0309-.2785-.8353-.7116.5569-.1237.4022-.8972.495-.34,1.4232.0309.7735-.2785.2166.0619.9284,1.1757Z" fill="#149e9d"/>
          <path id="ZW" d="M123.46,97.2963l.9591.2166.2166-.0928.7735-.8663h0l.4331-.2475.0928-.3712,1.021-.3095,1.7017.8044v1.2994l-.2166.8353.1237.4331-.4331.99-.8044.8353-.65-.0619-.6189-.0928-.8663-.4641-.1856-.8353-1.0209-.7735Z" fill="#149e9d"/>
          <path id="SD" d="M131.0709,66.7288l.3095.8972-.0309.6189.2785,1.021.7425.526-.2166.3712-.8044.34-.3095,1.4851.0928.6807-.2475,1.2063-.3095.0928-.495,1.4232-.1856-.1237-.3095,1.0828-.1238-.526-.495-.526V74.2469l-.7735.1547.2475.7425-.7735.9591-.8353-.3712-.7732.7425-.65-.2166-.8972.0619-.495-.7116-.526.1238-.3095,1.0519-.2785.1547-.4641-.0619.0928-.8353-.526-.8044-.4641-1.3923-.1238-.8044.3095-.2785.34-1.2063h.5878l-.0928-2.9082V68.276h.65l-.0619-1.5469h7.92Z" fill="#a1d8d8"/>
          <path id="TN" d="M113.9926,58.1587l.0619.526-.9284.8044.1237.4022-.4641.526-.3712-1.4232-.4641-.34-.5567-1.0519.4641-.5878.1856-1.7944.7116-.3095.9591,1.64-.6807,1.021.65.0928Z" fill="#149e9d"/>
          <path id="LY" d="M112.786,60.4172l.4641-.526-.1237-.4022.9284-.8044-.0619-.526,1.2063.2166,1.1757.3712.6189.8663.8663.1547,1.1138.6189.4331-.1856.0619-.9591.3712-.6189.6807-.2785.9591.2166v.2475l1.2685.2785.1237.2166-.2166,1.1447.2166.7735.2785,5.5074.0619,1.5469h-.65v.3712l-5.4144-3.0324-.65.34-.495.3095-.495-.4331-1.021-.2785-.2785-.5878-1.0209-.4331-.4331-.9591.2785-.3095-.0309-2.011Z" fill="#72c5c4"/>
          <path id="ML" d="M102.8547,75.6082l-.495-.2166-.495.4331h-.6807l-.2475-.9284L100.38,74.03l-1.0209.4641-.4638-.402-.4641-.99-.0928-.8353.3712-.5878.6807.0928,3.4961-.0619-.65-7.2706h1.1447l3.96,2.97.495.6807.8972.34-.0928.495h.7428v2.1038l-.4641.8044-1.4541.0619-.7425.2785-.6189-.1238-.9591.7116-.4641.0928-.2785.5569-.5878-.0619-.3095.9591-.4022.1547Z" fill="#72c5c4"/>
          <path id="BT" d="M164.918,62.6448l.7116-.8044,1.0209.4641.4331.6189-1.4541.1856Z" fill="#149e9d"/>
          <path id="BW" d="M123.46,97.2963l.526,1.2994,1.0209.7735.1856.8353.8663.4641-.7735.3712-.8353.7426-.1237.4641-.6807.3712-.2166.6807-.495.1547-1.1757-.4022-.2166.526-.7425.6807-.6189.0309.1238-.5878-.526-1.0828.0619-2.1039.6807-.0309.0619-2.7845,1.5779-.2475.1547.34Z" fill="#a1d8d8"/>
          <path id="MD" d="M123.6765,48.7842l-.0928-.8663-.9284-1.1757-.2166-.0619.65-.1547.9591.4331.65,1.1447-.6807-.0619Z" fill="#149e9d"/>
          <path id="CU" d="M57.0961,68.2138l-2.32.1856.495-.495-.8972-.0928-.1238-.8044-1.0828-.34-.7425.0309-.7425-.495-1.2376.6807.1238-.4331.8353-.495,1.8873-.1237,1.4541.5878.6807.7117,1.3923.65Z" fill="#149e9d"/>
          <path id="FI" d="M121.5727,37.7391l-2.1039.4022-1.3923-.3712-.2787-1.8563.495-.0928,1.0519-1.0519.2166-.4331-.65-.2166-.526-1.3923-1.64-.7116.4641-.1547.4641.34,1.2376.1237.4022-.7425.8663-.2166.65.2475.0309.4022-.0309.526.7735.34-.34.5569.5569.495v.7425l.65.6807-.2475.1856.99.5569-.1237.2785Z" fill="#149e9d"/>
          <path id="SE" d="M118.9119,34.1192l-.9284.0309-.5879,1.2994-1.3923.9591-.2166,1.021,1.1447.7735-.2475.5569-.8353.34-.1856.526.34.4022.7735-.34.0309.4641-.7425-.0619-.2475.7116-.9591.0619-.2785.5569h-.68l-.1237-.8972-1.021-1.2376.0619-.4331.526-.8044-.4641-2.1966.3095-.4641.65-.0309-.1856-.4022.3712-.495-.0309-.526.8663-.6189-.1856-.2475.8972-.7425.9284.1237.2475-.4331,1.64.7116Z" fill="#149e9d"/>
          <path id="MG" d="M139.9812,96.3372l-1.9182,5.6-.4022.8663-1.33.4641-.6807-.4331-.0928-1.2063-.3095-.9284.2475-.7116.7116-1.021-.2166-1.9491.3712-.9591,1.2376-.3712.8663-.495.5569-1.2685h.34l.4022-1.1138.4331.8353.2475,1.8253-.1856.4022-.3712-.3095Z" fill="#149e9d"/>
          <path id="IS" d="M95.8316,34.4286l.526-.495,1.2376.0928.7735-.3712.7425.3095.495.5878-.5878.526-2.2895.6807-.8973-.2167-1.1138-.0619.5878-.4022-.2785-.7735-1.0209.0309,1.1138-.65.5879.34Z" fill="#149e9d"/>
          <path id="LK" d="M160.5247,77.4336l.1856-1.33.4022.34.8044,1.33v.7735l-.7735.526-.34-.1547Z" fill="#149e9d"/>
          <path id="EG" d="M129.3383,60.9741l-.3095,1.3613-.7116-.65-.5569-1.0828.1238.7735.65,1.021,1.5469,2.8155.1547.8044.8353.7116h-7.92l-.2785-5.5074-.2166-.7735.2166-1.1447,1.4232.2475,1.1447.4022.8044-.526.7735.0619.4022.2785,1.33-.1856.526,1.2063Z" fill="#149e9d"/>
          <path id="NP" d="M164.33,62.2117l.2166.8972-.526.2785-.99-.1547-.9591-.5878-1.2063-.1237-1.98-1.0519.0619-.7116.34-.3095.6807-.1237,1.1447.8972.34-.0619,1.4541,1.0519.34-.1856Z" fill="#149e9d"/>
        </g>
      </g>
    </g>
  </g>
</svg>
