<svg xmlns="http://www.w3.org/2000/svg" xmlns:xlink="http://www.w3.org/1999/xlink" width="481" height="238" viewBox="0 0 481 238">
  <defs>
    <clipPath id="clip-path">
      <circle cx="240.3155" cy="118.7294" r="95" fill="#ceebea"/>
    </clipPath>
    <filter id="blurbloc" x="-50%" y="-50%" width="200%" height="200%">
      <feGaussianBlur in="SourceGraphic" stdDeviation="3" />
    </filter>
  </defs>
  <title>illu-countries-blur</title>
  <g style="isolation: isolate">
    <g id="illu-blur" filter="url(#blurbloc)">
      <g id="illu-blur">
        <circle cx="240.6845" cy="119.2706" r="95" fill="#149e9d"/>
        <g opacity="0.5" style="mix-blend-mode: multiply">
          <circle cx="240.3155" cy="118.7294" r="95" fill="#ceebea"/>
          <g clip-path="url(#clip-path)">
            <g id="admin0" style="mix-blend-mode: multiply">
              <path id="FO" d="M221.2324,57.9694h.2449l-.147.2449-.4409-.2449Z" fill="#149e9d"/>
              <path id="US" d="M107.9756,65.2194l.5389-.7348.4409.49-.6858,1.3716-.6858-.049ZM76.9182,67.0319l-1.1757.6858-.7838.098.6858-.49Zm16.0676-4.5068,1.3226-.4409L93.1817,63.211l-2.3514.6368.098-.4409ZM123.7,100.0978l.098-.49-.2449-.147-.49-1.47-.4409-1.4206-.098-.098-.147-.098-.9307-.3429-1.1757,1.1267-1.1757-.8818-.098-1.0287-1.2247-1.47-1.7145-.049-.1959.5878-2.89-.049-3.38-1.3716.1959-.2939-2.5473.2449.049-.6858-.7348-.9307-1.9595-.8818-.3919-3.1351.1959-.8818-.5389-1.3716.2449-1.7145.98-1.1757.4409-1.6655.8328-.8328,2.5963-3.87.2939-1.7145,1.8615.098.6368-1.0777h25.9138l2.1064.5389.8328.5878,1.7145.049-3.0372,1.4206,1.5676-.147-.098.4409,2.4983-1.0287.4409,1.0777,2.4-.2939.2939.3919.3919-.098-.098.1959.3429.49-1.8615-.1959-.147.9307.9307-.5878.8328.5389-.3429,1.3226.4409.49-.147,1.0287-.2449.4409-.1959.147-.098-.147-.3919.3919-.049.049h0l-.6368.6858,1.6655.1959,2.9392-1.2247.3919-.3919-.098-.098v-.147l.049-.049.049-.147,2.3024-.049.9307-1.0777.3429-.147.147-.147.6368-.4409.5878-.147h0l3.0861-.098,1.5676-1.0777,1.6166-1.8615,1.2247.49-.5389,1.5676.098.147h.196l-.147.4409.2449.098.049.49-1.8615.8818-.2449-.2939-1.9595,1.2247-.8818,1.1267.8328.7838-3.723.8328,1.2736-.049-2.0084.7348-2.4983,2.89-.2939-1.5676-.9307,2.8412h.49l-.147,1.5676L149.3692,90.3l-.5878-.049-1.1267.98-3.527,2.2044-.9307,1.5676-.049,1.1757.5389,3.625-.6368,1.91-.7838.098-1.2247-2.89.4409-1.6655-1.1267-1.47-1.0777.5878-1.0287-1.0777-1.5676.2939-1.1757-.1959-2.3513,1.6655-.7348-.8328-.7838.2449-1.8125-.147-3.674,1.91-.4409,2.5963-1.1267-.147Zm-12.1976-27.09-.098.049.049-.049Zm-2.4-10.4341-1.0287.5878-.8818.5878.3919-1.0777,1.5186-.098.098-.2449H107.78l-.4409-.9307-2.6943-1.1757-1.1267.147-1.2736-.5389.4409-.3919h-1.8125l-.98,1.1757L98.8152,60.37l-1.47.6368-1.5676.098,2.4983-1.8615-4.7517,2.2044.6368.098-1.9595.98-2.0574.5389-3.1351,1.4206-2.3514.5389L78.4368,66.689l4.5068-1.7145,1.3226.098.4409-.5389,3.87-1.47,2.2534-1.47-2.3024.5389-.2939-.7348-1.8615.5878,1.2247-1.0777.2939-.6858-1.5186.3429-.4409-.5878-1.7145.5878-.5878-.4409,1.6166-.098L86.96,59.39l-.4409-.7348,4.1149-1.91.5878.2449,2.8412-.7348,1.2736-1.2736-2.3024.5389-2.2534-.1959,1.0287-.7348-1.0777-.3919,4.0659-.98.147.5389,2.4-.1959.4409-.8328-1.4206-.098.3919-.49-.8818-.7838,1.0777-.5389,1.5676-.049,2.4-.9307,4.0169-.98,1.47-.049,1.4206-.4409,1.0287.49,1.7635-.049-.3429.3919,2.4493-.049,2.6453.5389,1.1757-.147,1.1267.49-2.7432,2.2534-5.8294,5.1436-2.6943,2.5963,1.2737.2449.1959,1.3226,2.6943-1.0287.2939,1.5676-.2939,2.0574.6858.7838-.5878.6858-.6368.2939-.6858.2939-.3919-.2449.4409-1.1267-.8328-1.0777,1.2736-.5389.049-.8818-1.1267.98Z" fill="#72c5c4"/>
              <path id="FR" d="M236.2222,80.6012l.098.6368-.2939.8818L235.34,81.091Zm166.1131,77.0067.9308-.049-1.6165,1.7635-1.47-1.6655-.049-.8818,1.47,1.5676Zm-242.14-47.174.098-.098v.098Zm74.0676-31.1554-.049.049h-.049l-.049.049-1.1757.7348-2.1064-.5389-.8818.6858.147.6368-.6858.098-.49-.147h-.049l-.2449-.049.049-.147-.2939.049-1.4206-.147-1.7145-.7838.2939-.2449.4409-2.9882-1.6655-1.7635-1.7635-.6368v-.6368l1.47-.3429.4409.4409,1.0287-.2939-.3429-1.1757,1.6165.5389,1.6655-1.0777v-.7838l.8818-.2449,1.5186,1.2736,1.5676.5389.147.098h.3429l1.7635.5878-.49,1.6166-1.3716,1.2247.147.3429.049-.098h.049l.4409-.049-.049.3429.2449.2449-.3429.9307Zm-65.397,46.5861.2939-.49,1.0287.3919,1.3226,1.2736v.4409l-1.4206,2.2534-1.7635-.1959.6858-1.3716-.49-1.7635Z" fill="#a1d8d8"/>
              <path id="CN" d="M343.7475,109.3072l-.8328.98-1.0287-.4409-.147-.8818.98-.9307,1.2737.049Zm-43.549-25.5709h0l.147-.098,1.1267-.6368.2939.3919.8328-.7838,1.2247-.098L305.44,81.14l.147-1.1267L304.02,77.7109l1.91-.5878-.098-1.9595,1.8125.4409.5878-.2939-.4409-1.6166,1.1267-.7838.147-.049.2449-.049.49.7348,2.7432,1.0777,1.2247,1.2737.5878,1.6166,2.3024.2449,2.4983.9307,1.8125,1.8615,5.2905.2449,2.4493.8818h1.47l1.2247-.6368,2.5473-.1959,1.6165-1.47-.98-.8818V77.76l1.91.3919.49-.8328,1.0287-.098.2939-1.0287,2.7433-.6858-2.0574-1.2736h-.7838l-.049.2449-1.5186.049-.6368-.49-.147-2.0084,1.2737.3919.6368-1.0287.049-2.0574-1.2247-.7348.2939-.5878,1.91-.3429,2.7922.6858,1.47.9307,1.3226,1.2736,2.3513,1.8125,1.3226.147,2.3024,1.3226.6858.7348,1.3716-.049,1.2247-.7838.8818.7838.3429,1.7145-.049,1.4206-.4409-.2449-.5389.049-.6858.5878.8818.9307.3919,1.7635-2.0574.6368.5389.7348-1.7145-.3429-.049.9307-1.1267.9307-1.2247.49-1.1267,1.0777-.2449-.7838.2939-1.2736-1.3716-.49-.98,1.1267-.098.8818-1.2247.098.8818,1.1757h.7348l1.1757,1.2736.9308-.8818,2.1554.49-1.4206,1.2247-.6858,1.0777v1.0287l1.2736.5389,1.3716,1.9595,1.3226.8818.5878,1.2736-.8818.4409,1.0777.6858.49,2.0084-.49-.049-.2939,1.4206-.7348,1.47.5389.5388-2.4983,2.4493-.3429.7348-1.7635.147-.4409.7348-.8328-1.0287.098,1.1267-1.5186.3919-1.6655,1.0287-.2449.8328-.3919-1.47-1.47-.49-.3919.49-1.4206-.6368-.4409-1.1267-1.3226-.5388-1.2736,1.0287-1.6165-.2939-.2939.4409-.5878.1959.3919,1.3226-.6368-.49-.98.147-.3919-.7348-.8818-.147.196-1.0777-.6858-.147-.4409-1.1267-.98.2939-.1959-1.47.8328-1.0287-.4409-2.0084-1.4206-1.1757-.147.3919-1.5676-1.4206-.7838.3919-.7838-.3429-1.6655,1.7145-.98.1959-1.6165-.7348-1.1267,1.2737-.2449-.8328-.6858.147-1.7145-.2939-.5389.2939-2.3024-1.6655-.5389.098-1.8125-1.4206-1.0777.1959-2.6453-1.4206-.6858-1.4206,1.0777-.2449-.9307-.9307-.147-1.0777-.7348-.2939-.7838-1.0777h-.3919l-.6858-.1959-1.0777-1.0287-1.6165-.6858-.1959-.098.49-.147-.5878-1.6166-.98-.049-.49-1.0777.2449-.147Zm49.8682-.049h0v0Zm-49.8682,0h0v.049h0Z" fill="#a1d8d8"/>
              <path id="PT" d="M219.5178,87.1163l-1.5676.1959.2449-1.4206-.6858-.6368.8818-2.4493V81.4339h2.1554l.3429.4409-.7348.6858v1.1757h0l-.6858.3429.5878.7838Zm.6368-3.38Zm0,0Z" fill="#149e9d"/>
              <path id="EC" d="M129.3827,132.7228l1.7145.5878-.2939.2449-1.1267-.7348Zm11.3649,3.772.5878-.8818-1.2247-.3919-.049-1.5186.9307-1.3716-.049-.8328,1.3716-.8818,1.47.98,1.2247.2449,1.1267.6858-.2939,1.7145-1.1757,1.2737-1.8125,1.0287-.6858,1.91-1.5676-1.1267Z" fill="#149e9d"/>
              <path id="PH" d="M358.9333,120.1822l.4409-1.1267.5389,1.6655-1.2737.6858-.7838-.98.7348-1.4206Zm-1.8125-2.5963,1.3716.8328-.5388.98-.6368.2939Zm-2.0574-1.8125,1.0287.2449.3919.3919-.147,1.1267Zm4.8007,2.6453.5878-.3429-.9307-.98,1.3716.3919.3429,1.3716-.7348-.147-.7348.7838Zm1.5676,7.201-1.5186-1.0777-.049-1.4206-1.47-.1959-.3429,1.4206-1.47,1.3226v-.5878l1.0777-.8328.196-1.5676,1.1757-.8818.5878.6858.8818-1.1267.7838.049-.049-1.1757.9307,1.3716.4409,1.91-.3429,1.2247-.5388-1.2737-.3919.7838Zm-2.2534-9.9932-.5389,1.91-.4409-1.5186-.49.2939-1.1267-.9307-.2449.3919-1.6166-1.3716-.5878-1.91.6368.2449-.2939-2.8412,1.47.2449-.1959-.6368.6368.5389.49,1.5676-.8818,2.1064.5388,1.4206.7838-.1959Zm-4.5068,3.0372-.098-.147.2939-.6858Zm0,0,.4409.98-1.1757.7348-.196.6858-1.1757,1.0287,1.91-2.7432Z" fill="#72c5c4"/>
              <path id="MV" d="M305.881,125.9626l-.2449-.098.098-.2449.1959.1959Z" fill="#149e9d"/>
              <path id="GB" d="M171.952,195.2295l-.5389.3429-.098-1.1267,2.2044.098-.1959.8818ZM261.3033,89.86l-.049.049-.049-.049h-.098v-.049l-.049-.049.098.049.147-.049h-.098Zm-.147-.049ZM221.5753,88.439ZM260.4705,90.3l-.098-.049h-.1959l.098-.049Zm-39.973-24.3953.98-.2449.5389.7348-.6858.6368-1.7145-.3919Zm5.0456-.5878.3429,1.1267,1.0287.5878.3429,1.1757,1.3226.6858-.98,1.1757.6368.4409-2.4493.6368-2.0084-.049-.3429.49h-1.5186l1.2247-1.1757h1.0287l-2.0574-.7838,1.0287-.49.049-1.0777.8818-.1959.3429-.9307-.49-.7838H222.359l.49-.6858L221.82,65.66l.147-1.2736-1.1757-2.0084.7348-.3429.049,1.2736,1.0777-1.4206,1.3716-.049,1.8125-1.4206-2.4,2.2534,2.0084.5389-1.2737,1.5676Z" fill="#149e9d"/>
              <path id="GR" d="M252.9266,85.8917l.4409.5878-.9308.3429.6368-.2449Zm1.2247,3.478-.6858.4409-1.4206.098-1.2737-.4409.049-.3919Zm-6.4172-6.4172.098-.098-.147.098-.049-.098v-.049l.049-.049h.098l.7348-.2939.98-.2939,1.5676-.2449.7348.3429,1.0287-.5389.3429.3429-.49.8328-.8818.98.3429-1.1757-1.7635.2449.7348.5878-1.8125.049.8818,1.0777-.5389.49,1.2247.5878.4409.9307-1.1267-.5389-.4409.5389.5878,1.3716-1.5676-.3919-.6368-1.3226-.2449-1.47-1.0777-.8328.5878-.3919Z" fill="#149e9d"/>
              <path id="DK" d="M237.8388,66.1012l-.98-.8328.98-.5389.4409.5878Zm-2.4.147-.5389-.147-.147.049-.5878-1.91,2.0574-1.3716-.049,1.3716.6368,1.6166-.49.3429-.5389-.6368Z" fill="#149e9d"/>
              <path id="GL" d="M184.7864,49.2988l1.1757.147.6368.7348-1.3226.2939-.8818-.49Zm17.7821-11.61,4.0169-.147,4.2128.2449,2.5473.4409-.7838.2449-4.8007.147,3.3311.098L209.77,39.11l3.4291-.49-.049.4409-1.3716.4409,2.7922-.5389,2.2044-.147,2.7922.2939-3.0372.8328-2.4983.098-.2939,1.3226-1.0287-.049L212.2678,42l.4409.5389,1.47.147-1.6166.2449-.98.6368h1.2737l.1959.8328,1.3716.3429-1.6166.7348-1.4206.147.3919.6368-1.3226.1959-1.1757-.3429-1.6656.3429,1.6656.1959,1.2247,2.4493-1.47.147-1.3716-.98-.098.98,2.1554.2939-3.3311,1.47-2.5473.49-2.1064.147L199.09,53.4137l-2.7432.8818-.5878-.147-1.91.9307-.3919,1.1757-1.7635,1.2736-.98,1.8125-1.6166,1.2247-.98-.4409-.2939-.8818-1.8615.147-.7838-2.2534-1.0777-1.3226.4409-.8818-.8328-1.2247,1.47-.8818-1.2737-.147,1.9595-1.6166.98.098.7348-1.1267-1.9595-.7348.4409-1.0777-1.0287.049.196-1.3716.7838-1.5186-1.0287-.6858.1959-.6368-3.1351-.5878-3.772.2939-1.3226-.8818,1.8125-.6368-1.9595-.3919.5389-.3429,3.527-.4409,1.4206-.049,1.3226-.7838-1.3716-.2449,4.8986-1.0777,4.8986-.49,2.9882.2939-.7348-.3919,3.674.3429L196.69,38.13l2.0084-.2939,3.8209.049Z" fill="#149e9d"/>
              <path id="PR" d="M157.7949,110.287l-1.8615.2939v-.6858l1.6166.147Z" fill="#149e9d"/>
              <path id="VI" d="M158.4317,110.7768h.196l-.3919.098.049-.098Z" fill="#149e9d"/>
              <path id="CA" d="M155.0516,77.8579l-.5878.147-.6368.4409-.5878.2449.098.049-3.0372.49-.196.6368-.049.147-.049.049v.147l.098.098-2.4983.2939-1.5186.7348-.3429-.2939h0l.049-.049h.5878l-.098-.2449.1959-.147.2449-.4409.7838-.3429,1.2736-1.7145h1.3716l-.49-1.4206-.7348-.2449-.4409.6858-1.4206-.4409,1.7635-.2449-2.1554-.2939.098-.1959-.3919.098.3429-1.8125-1.0777.2939.098-1.2736-1.8615.098-1.5676.8328-1.7145-.049-.8328-.5878-2.1064-.5389H111.7476l-.049-.098-.1959.098h-.049l-.6368-.4409.1959.2449-.1959.8818-1.1757-.1959-.9307-.8328-.8328-1.5676.6858-.3919.7838.3429-.4409-.6858.8328-1.9595-.7348.7838.2939-1.2736-.7348-.049.98-.8818.049-.6858.4409-.3429,1.2247-.98-.6858-.7838.2939-2.0574-.2939-1.5676-2.6943,1.0287-.1959-1.3226-1.2737-.2449,2.6943-2.5963,5.8294-5.1436,2.7432-2.2534,1.6166.049v.49l1.47.1959,2.2044-.7838.4409.2939,3.8209-.8818-1.2247.5878,3.1351-.5878.2449.98,2.4983-.5389,4.36,1.0287,1.2736.147-1.6655.9307,2.7432.049,2.0084-.5389.3919,1.0287,1.0777-1.4206,1.8125-.2449.5878.8818,2.0084.3429,2.6453-.098.196-.5878,2.1554.049-1.1267.8818.5878.147.6858-.7838,1.91-.49-.6858-.1959.8818-.7348-1.1267-.4409L153.68,48.368l2.1064-.6858.5878.6368-.49.49.3919,2.0084-.3919.6368,1.8125-.98L157.158,52.63l1.0287-.2449.147-.7348h.8328l1.4206-.6858.1959-1.0777,2.1554.098.2939,1.0777-1.0287.2939.2449.9307-.5389.49-2.0084.6858-.3429-.6858-.147,1.47-1.0287-1.0287L155.9334,54.54l-1.4206-.6368.196.6368,1.4206.098-1.5676,1.1267-1.6655.049L151.5246,56.99l-2.1554.6368-.49.5878-1.3716.5389-1.91,1.6655-.5878,1.3716,1.1267-.049-.3429,1.47-.5389.5878,1.6655-.3919,1.6166.49.5878.9307,2.1064.8818,1.9595.1959-.8818,2.0574.9307.6858-1.3226-.2939.8328,1.91.49.2449,1.8125-1.47-.049-.7348.5878-1.3716-.3429-.5389,1.7145-.5389-.6858-1.1267.3919-.49.9307,1.2736,1.2247-.6858.8328-1.5676-.049-.6368-1.0287-.98,2.1554-1.2736-.3919-.8818.98-1.0287.3429-.98,2.4983.49.9307-.3429,1.3716.8818-.2939.2449,1.7635.6858-1.0777,1.47L168.18,62.28l2.3514-1.1267,1.0777-1.3226,1.3226,3.772-.6368.3429,1.0777,1.91,1.91.5389L173.96,67.13l-1.4206.2939-.3919.5878,2.89-1.0777,1.1267.7348-.147,1.2736-1.6166,1.2247-1.8125.3919-1.5676,1.0287-5.8784-.098-1.2737,1.1267-1.8125.6368-1.2737,1.2247L159.02,75.7025l-1.8125.6368-.147.147,2.8412-1.1267,1.91-1.4206,3.0861-1.1757,1.7145.2939-.2449.6368-1.2247.49.2449,2.0084.5388-.5389,1.5186.49.9307,1.2247-2.9392,1.1267-.049-.2939-2.1554,1.5186L162.4,77.564l-.2449-.098.147-.4409-.196-.049-.098-.098.5389-1.5676-1.2247-.49-1.6166,1.8615L158.1378,77.76l-3.0861.098Zm-45.41-6.6622.2939.147.7348.98.098-.8328Zm57.51.6858,1.8615.6858-.4409.3429-1.1267-.3429Zm.3429-20.4763-.098.7838-1.7145.3429.8818-1.0777Zm-8.23-7.397.3919.49-.6858.5878-1.4206.147-.4409-.4409Zm-9.0625-2.2534-.8328-.147,2.4-.2939-.3429.6368-1.1267.49-1.5186.147-.3919-.4409Zm18.125,33.36.49-.49.7348.98-.3429.6858.6368.2939-1.4206.6368-.2939-.6858.8818-.9307ZM106.751,68.11l-.49-.098.6368-1.0777,1.1757.049Zm45.2635-17.9291-.098.7838-.7838.2939-2.6453-.5878,1.9595-.2939.8328-.5878Zm15.3818-3.527.098-.6858,1.91.049.6858.8328-2.1554.098ZM160.44,40.4812l.1959.7838,1.2247.3429-1.6655.8328-.5389-.7348Zm-4.0659,1.2736.6368-.9307,1.9595.6368-.4409.6368Zm19.4476,9.9932L177.83,53.12l-1.2247.4409.049.5878-2.3024.6368-.1959-.9307-1.2737-.5878-.49,1.5186,1.1757.49.2939,1.1267-.7838.7348h-1.7635l-.4409-.7838-.3919.5878,1.1267.98-.196.3429-1.9595-.3919-2.1064-1.0287-.6858-1.6166-1.8125.049-1.8125.6858.147-1.0287.9307-.5389,1.6655.2449,1.5186-.2449-.3429-.7348,2.4493-1.2247.049-.9307-2.5473-.49.2449-1.5186-1.8125,1.2736.6858-.98-1.1267.2939-4.0659-.49-1.1757.049-.7348-.4409.098-1.47,1.8125-1.2247,1.5186-.5389h2.2044l-2.1554.8818-.49.8328,2.3514-1.3716,2.6943-.2939.1959,1.2247.5878.1959,1.3716-.49,1.5676.2449,1.0287.9307,1.0287.049.3919.5878,1.47.3429.2939,1.47-1.5676.5389Zm-29.7348-9.3564-.7838.7838-2.4.1959-.5388.5389-.98.2939-1.6655-.5389,4.4088-1.1267Zm30.9595,32.0372-.49,1.2247-.6368.1959.049-.98-2.2534.5878.4409-.7838-3.3311-.3429.8818-.8328,2.89-3.2331,1.3226-.2939-.3919.8818-.8328.7838-.049.7838,1.3716-.1959.8818.49-.6858.7838h.8818l-1.0777,1.0287ZM158.4807,57.3816l-1.8125.5878.5878-.7348-.3429-.6368-1.0777.2939.147-1.0287,1.4206-1.7635h.6858l.3429.49,2.3024,1.5676-.8818.3919-1.6655-.7348-.8328.5878.3429.8328Zm-8.4257-8.1807-1.6655.98-.3919-.3919-1.2737.2939,1.0777.49-1.7635.3429-1.9595-.3919-2.4983.4409-3.4291.2449.2449-.7348-1.6655-.098.098-.8328,3.478-.098-.5388-.49-2.6943.147-.3429-.4409,1.0287-.3919-.8818-.2449,2.7432-1.2736,2.5963-.4409,1.7635.6368,1.1757-.2449.7838.8328,1.6655-1.47.8328.5878.049-.6368,1.3716.098-1.6165.8818-.7838,1.91,1.2737.6368Zm2.7432-3.3311,2.0574-.049.2449.5389-.98,1.47-2.2044.5878-.5389-.9307-1.0287-.49Zm4.2128,1.3226-1.7145.49.3429-.7838,1.1267-.98,1.9595-.3919,2.0084.2939L158.53,46.8495l-1.7635.049Zm-24.8851.49,3.772-1.7145V45.38l2.5963-.1959,2.89.4409.3919.5878L139.082,46.8l-2.3513.6368-1.1757.7348-2.3513.3919v-.5878Zm22.2888-2.9392,1.0777-.5878-2.1554.147-.5878-.5389.6858-1.0777L154.17,43.91l1.9595-.7838,1.8125.2449-1.8125,1.3716Zm-2.7922-.9307-1.2247.8818h-1.91l-3.9679.6368-.6858-.2449,3.2331-.5389-3.772.2449-1.0287-.2449,3.87-1.4206,1.0287,1.1267,1.5676.049v-.7838l1.8125-.49-.7838.7348Zm10.924-.6368,1.1267,1.0777,3.478-.2939,2.6453.3429-.2939.5878-2.1064.3919-1.1757-.098-4.7027.049-1.2736-.2449.98-1.0777-.196-.4409-1.7635.147-.196-.7348Zm7.054-2.3024-3.87.9307-2.3024-.098-.4409-.5878,1.6166-.3919-1.91.147-.196-.6858,1.0287-.4409,3.38-.3919,1.5676,1.2247Zm.6368,3.1351-.4409-.5878-3.2331.147-3.2821-.2449.6368-.098-.2449-.8818,1.1267.5389,1.5186-.2449-.2939-.49h2.0084l-1.3226-.2939,1.3226-.5878,1.7145-.098-.1959-1.1267h1.7635l4.1149-.2449-.8328-.1959-2.0574.1959h-2.89l-1.6166-.3429.049-.6368,5.6334-.3429,2.3513-.4409,3.9189.049.98-.1959,4.8986.147,1.6655.5389-5.5355,1.0777-2.6453.7838-2.9882.3429-.1959.5389-3.772,1.2247-1.7635.049,1.6655.3429Z" fill="#a1d8d8"/>
              <path id="CL" d="M155.0026,183.8157l.3429,1.2247-.7348-.1959-.196-1.5186Zm.147,2.3024.3919-.4409.3919.7838.147,1.3716Zm.6858,4.2618.3429-.049,1.3716,2.5473-.5389.98v-1.0287l-.6858-.2939-.5878-1.2737Zm8.4257,5.6334,1.0287,2.4983h0l.049.098-.2449.049,1.91.098-.147.6368-2.2534-.147-.2939-.4409v-.098l-.5388.049-2.0084-1.0287h1.2247l-.1959-1.2737.6368-.6368Zm-11.7568-41.3446.4409-.098.3919-.8818.7348,1.7145.6368.5878-.2449,1.2247.7348,1.0287.5388,1.8615.6858.049.049,1.4206-1.1757.9307.6368,2.5963-.49.2449-.8328,2.7432-.049,2.6453.9307,1.6166.5878,1.6655-.3429,1.1267.2939,1.0777-.5389.5389.2449,1.5186.6368,1.2247-.4409.2939.098,2.0574.7348,1.6165-.049,1.0777.8328,1.0777-.049.98.98.7348-.2939.5389.49,1.1267-.2939,1.47.4409.49-.6858,1.4206.98,1.4206.7838-.098.2939,1.0777.7348.49h1.8125l1.5186.3919-.6858-.147L162.4,196.16l.2449,1.2247-2.3514-.8328-2.8412-3.38.2449-.147-.5878-1.91-.8818-.8818.4409-.8328-1.2247-.5878.49-.8818.6858.6368-.2939-1.6655.49-.5878-.7348-.3919-.049-2.4493-.6858-.6858-.6858.2939-.49-.9307.147-1.6656-1.0777-2.1554.3429-2.6943.2939-.5389.049-3.38-.7348-2.5473-.1959-1.6166.3429-1.5676.049-2.7432-.4409-2.7432.2939-2.0574Z" fill="#149e9d"/>
              <path id="CV" d="M201.7357,113.765l.2449.2449v.2449l-.2939-.147Z" fill="#149e9d"/>
              <path id="DM" d="M161.7628,113.4221l.147.2449-.1959.2449-.049-.3429Z" fill="#149e9d"/>
              <path id="SC" d="M276.685,143.7447v.098l-.2449.049.196-.098Z" fill="#149e9d"/>
              <path id="JM" d="M145.0584,109.9441l1.2736.6368-1.6655.098-.3919-.7348Z" fill="#149e9d"/>
              <path id="OM" d="M285.7475,101.7143h-.049v-.098h.147Zm-.2939-1.0287.2449-.3919v.9307l-.147-.049Zm-3.527,8.6216,3.0372-1.2247.49-2.4-.5389-.8818.3919-2.6943.5878-.098.9307,1.2736,1.7635.49,1.2247,1.5676-1.9595,3.0372.2449.8818-1.2247.5389-.2449.7838-.9307.098-.3919,1.0287-2.0084.4409-.4409-.7838Z" fill="#149e9d"/>
              <path id="VC" d="M161.7628,116.5082l-.098-.1959.147-.196v.2449Z" fill="#149e9d"/>
              <path id="BD" d="M324.1529,106.76l-1.1757-2.1064-1.0287.9307-1.3226.147v-.098l-.049-.147-.7838-1.8615.049-.7838-.7838-.4409.8328-.6368-1.0777-.8818.2939-.6858,1.5676.6368.6858.98,1.7635-.049.5389.2939-1.1757,1.6166.5878.8328.4409-.98.7838,2.1554.1959.7838Z" fill="#149e9d"/>
              <path id="SB" d="M397.1918,143.4508l.5389.2449,1.5186-.8818.49,1.2737-1.1757-.5389.196.9307-.8818-.196Zm-3.2331-2.4493.7348-.5878,1.3226,1.0777-1.0777.2939.6858.2939.6858,1.0287-1.7145-.8818Z" fill="#149e9d"/>
              <path id="LC" d="M162.0567,115.7245l-.098-.196.147-.2939.049.1959Z" fill="#149e9d"/>
              <path id="NO" d="M241.4638,41.8039h.9307l1.47.3429-2.3513.3429Zm9.3564,8.0828-.5389.4409-.6858.3429-.049-.6368-1.0287-.3919-1.3716.3429-.6368,1.1757-1.9595-.1959-.7348-.5389-.7348.2449-.3919.6858-1.47-.1959-1.4206,1.1757.2939.3919-1.3716.98.049.8328-.5878.7838.2939.6368-1.0287.049-.49.7348.7348,3.478-.8328,1.2736-.7348-.49L234.41,62.28l-1.7145.1959-.98-.7348-.49-1.7145.3429-1.4206-.5389-.2939,1.8615-1.2247,1.6655-.5878,1.0777-.98,1.0287-.3919.2449-1.3226,2.2534-2.2044.5878-.2939-2.4493.2939,1.7635-.7838.8818-.098-.049.49.7348-.3919.7838-1.2736,2.8412-.147-.147-.4409,1.3716.147,1.1267-.5878-.2449,1.0777.98-.8818h1.4206l2.1064.6858Zm-16.6554-8.72v-.6858l2.1554.147.3919-.1959,1.47.7348-.3429-.9307,2.7432.8328,1.0287.147-1.6166.3429-1.1267,1.7145-1.8125-.5389-.7348-.7838Zm10.2872-.49-4.1639.147-.7348-.3429.9307-.7348,1.4206.5389,2.89-.147.2939,1.1267Z" fill="#a1d8d8"/>
              <path id="KN" d="M160.6361,111.4626l-.2449-.1959.049-.049.098.098Z" fill="#149e9d"/>
              <path id="BH" d="M279.5753,100.49l.147.049v.49l-.147-.2449Z" fill="#149e9d"/>
              <path id="ID" d="M355.3573,143.7447l.7838.9307-.3919.2449-1.1757-1.1267Zm20.1824-1.4206-1.2247.2939.49-.9307.8328-.3429Zm-17.1453-3.3311-.147-.8328.7348-.4409-.3429,1.5676Zm1.2737-4.8007,2.9882.3919-.5388.3429-2.1554-.049Zm-17.2922,1.6166-1.0777.3429-.5389-.3429-.6368-1.4206.7348-.098.5389,1.6166Zm27.3344,3.38,1.3226.147.4409.4409-.7348,1.0287.049-1.1267Zm-16.9,3.38,1.5676-.098-.6368.6858-1.5675.2939-1.2247-.3429.6368-.7348Zm7.299.98h.147l.3919-.2449v.2939l.098.3429-.7348.7838-1.1267.2449.7838-1.2247.1959.1959Zm-6.6132-16.2145-.3429.098.0979-.098Zm24.8361,8.23-.2449,4.5068-.2939,3.38-.98-1.2247-1.1267.2449.2449-.8818-1.1757-2.8412-1.91-.8818-.7838-.049-1.6656-1.1757-.7838.7348-.147-1.5676.49-.49-1.1757-.3919-.2449-.5878-1.47-.8818,2.4493-.6368,1.3716.4409.098,1.7145.8818,1.47,1.0287-.4409.5388-.8818.8328-.1959.7348-.7348,2.1554,1.0777Zm-37.4747.7838-.3919,2.89-1.2247.3429-3.1841-3.2821-.8328-1.2737-.5388-1.6655-1.0287-1.2737-.98.2939.8818,2.1554-.3919-.098-.5878-2.0574.8818-.2939-.6858-2.0574-1.2736-.098.6858,1.2736-.2939.49-.6858-1.0287.5389-1.7635-2.4-2.4-.049-.98,1.0777.5388,1.1757-.049.8818,1.2736,1.6166,1.2247,1.3226,1.5676,1.4206.8328,1.9595.2449-.7348.5878.4409.6368-.4409.8818,1.0777.3919.49,1.5186.8328.147Zm18.9088,6.4172-4.4578.3919.3429-.6858,2.2044.3919.7348-.49,2.3024-.049.98-.6368,1.6655-.147,1.1267-.49-.49,1.2736-.7838-.6368-1.4206.2939Zm-11.4628-.2939-1.7635.098-2.4493-.7838-1.1267.098-1.8615-.49-1.0777-.7348.6368-1.1267,2.4493.4409.2449.6368,2.0084.196.2939-.5878,1.8125.5388.2449-1.2736.147,1.6165.49.7348.7348-.1959.4409.5878,1.2736.2939-.147.5878-1.0287-.049Zm16.9983-6.1723-1.0287.6368-.7348-.147-.5388.2939-.7348-.8328,1.5676.147.5388-.4409,1.6656-.1959,1.1267.4409.2449.6858Zm-7.9848,1.7635.147-.6858-.7348-.6858.2449-.9307-.7348.5878-.147,2.5473-1.1267.049.3429-1.3226-.7838-2.0574.5878-.7838.7838-3.2821.9308-.7838.7838.3919,2.4983.2449,1.2247-1.1267.196.4409-1.0287,1.2247-4.2129-.098-.4409.8818.7348,1.4206h.4409l.6368-1.1267.5878.3429,1.2737-.147-2.0085,1.5676.9308,1.47.3429,1.5676Zm7.4949-6.5152,1.1267.9307-1.5186-.6858-.4409,2.0084.147-1.1267-.3429-1.7635,1.2247-1.7145-.7348,2.2044.6368-.8818Zm-11.7078-4.2128-.147,1.0287.8328,1.2737-.2449.4409,1.2247,1.0287-1.3226.3919-.3429,1.5186-.98,1.1757-.1959,2.3514-1.9595.9307-.3429-1.0287-1.3226-.1959-1.3226.4409-.098-.9307-1.5186.2939-.3429-2.3024-1.0287.6368.6858-.9307-.49-.4409-.2939-1.6165.8328-1.5676v.5878l.98.9307,1.6655-.3429.9308-.5389.6858.4409.9307-.2939.98-1.91.3429-1.6655Z" fill="#72c5c4"/>
              <path id="MU" d="M287.854,156.8241l-.098.4409-.2939.049.196-.5878Z" fill="#149e9d"/>
              <path id="RU" d="M371.3759,75.5555l-.8818,1.47-1.6165.6368,1.4206-.9307ZM264.5854,38.9137l-.2939.4409,1.5186.2449-3.2331.5389.1959-.7838Zm65.5929,6.9071,2.6453.3429.3429.3429-2.4-.2939Zm-62.7517-6.8091-.2939.5878,2.8412-.098-4.1149.6368Zm30.8125,2.2044.6368.49-3.478.2449.049-1.0287Zm-39.5321-1.47,2.4-.049-1.91.49-1.2737-.147Zm95.72,41.0017-.3919-1.7635-.8818-.9307.6858-.5878.8818.9307.098-.7348.049-1.4206-.3429-1.7145-.8818-.7838-1.2247.7838-1.3716.049-.6858-.7348-2.3024-1.3226-1.3226-.147-2.3513-1.8125-1.3226-1.2736-1.47-.9307L338.8,67.6687l-1.91.3429-.2939.5878,1.2247.7348-.049,2.0574-.6368,1.0287-1.2737-.3919-2.5473-.5389-.6368.8328-1.8615.5389-2.2044-.2449-.98-.7348-2.7922-.6368-1.3226.4409L321.9,71.0978l-.5389-.8328-3.625-.9307-.2449,1.3226.7838.5389-.3919.9307-2.7432-.3429-.6368-.6368-1.9595-.3429L309.31,72.8123l-.2449.049-.147.049-.98-.6368-1.2247.049-2.4983-1.6655-1.7145.2939-1.0287-.6368-.3919.5389-3.2821-2.8412-1.6165-.7838-.098-.5878-1.7635.98-.8818-.3919-2.1554-.1959-.9307-1.3716-2.2534.147.049.2449-2.3514.7348-3.625.49,1.3226.8818-1.0777.5389-.147.9307,1.4206.5389.1959.7348-1.4206.2939-1.2737-.5878-1.9595-.049-.5878.6368-2.4983-1.1267-2.5963-.147-1.3716,1.2247v.8818l-1.0287-.7348-.3919.7348v1.6655l.7838.7348.8818.049,1.5676,1.7145-1.3716.7348-.5878,1.3226,1.0777,1.0777.098.8328,1.3716,1.4206-.6368.7348-1.47-.7838-1.7635-1.0287-.8328.2449-1.2247-.7348-2.8412-.2449-1.1267-.9307-2.5473-1.3226.8818-.1959.049-1.3226L264.34,75.36l-1.0287-.098.3919-.8818h.8818l-.147-1.9595-2.6453-1.0777-1.6165.098-.7838-1.0287-.8328-.049-.6368-1.2736-1.8125.2939-.6368-1.0777,1.2247-.49-.98-.4409-1.1757-2.0574-2.5473-.6368-.6368-.7838-.3919-.7838.098-.2939.049-.2449.49.1959-.6368-1.2736.098-.1959.049-.147.098-.049h0l.098-.049-.098-.098-.098-.049,1.4206-.7348-1.8125-.4409,2.4-2.1554.1959-.4409-1.5676-.8818.3919-.2939-1.0287-1.0777V53.7076l-.8818-.7838.5389-.8818-1.2247-.5389.049-.8328.6858-.3429.5389-.4409,4.1639.6368,4.5068,1.5186.4409.9307-1.8615.7838-5.1436-.8818,1.91.8328.7838,1.47,1.5186-.49,2.2534.6858.6368-.2939-.7838-.8328,1.5676-.98,1.8615.6858-.049-.8328-.7348-.5389-.049-1.1267-.8818-.3429,2.1064.147.8818.6368-1.1757.5389.8328.4409,1.47-.098.5389-.7838-1.0287-1.5676h1.47l.49,1.1267,2.89-.8818-.5389.7838,1.1757.098.7838-.49,1.1267.098.98-.49.98.6858.5388-.7838-2.3513-.98.147-.3919,1.3716.5389,3.0861.3919,2.6453.6858,1.4206.7348.2449-.8328-2.0084-.4409-.5389-1.3716-.6858-.5389.8328-.5389.049-1.5186.9307-.098,1.7145.7348.049,1.1757.8818.3919,1.4206,2.2534,1.1267.4409-.4409,1.91-1.9595.049,2.5963.3919,1.1757-1.5186-.8818-1.0287,1.3226-.2939,1.8615.7348-.8328-.6858-1.91-.3429-1.0777.1959-.7838-.6858.098-.7838-1.6166-.9307.98-.6368-.7348-.7838,1.0777-.5878,1.9595-2.2534,1.6165,1.6166,1.3226.098v-.4409l2.4-.8818,2.7922-.3919.7838-1.2247.7838,1.1267,2.8412-.5389-.3429-.5389,1.7635-.5389,3.38.8818,4.0659.2939,1.7145,1.0777-2.9392,2.0084,2.8412-.49-.147-.8328.98.049,1.0777,1.0287,1.3716-.2449,2.4.098.8818.4409,3.4291.1959-.3919-.98,1.0287.3429,2.2534.098,1.6166.4409.8328.9307,2.2534,1.1267,1.0777.1959-.3919-1.1267,1.4206.4409,1.5186-.1959,3.2821.147-1.7635-.98,1.1267-.2939,3.1841.2449,1.6165.6858.049-.49,6.5152,1.47,1.8615-.2449,4.1149.2939.49.8818,1.7145.4409,1.7635-.1959,2.7433.1959.2449-.5389,1.1757.7838,1.7635.49.6368-.2939-1.8125-.6858-.098-.3919,2.6453.2939,1.9595-.049.2449-1.6655.2449,1.8125,3.9679.7838,6.1723,4.1149-.7838.4409L371.131,55.03l2.3024.6858,3.576,1.6655-.049.3429-1.6656-.2449L373.58,58.6062l-.8818,1.2736-2.2044-.1959-.7838.8818-.6368-.7348-.4409.7348-1.3716-.2449.98,1.0777.8818-.1959.049,1.4206.8818.2939.7348,1.0777,1.2247.6858-1.0287.049,1.5676,1.4206-1.0287.7838.6858,1.0777-.49.4409.6858,1.0777-.3919,2.0574-.6368-.098.6858-.8328L366.6732,66.15l-1.8615-2.1554V62.8191l.5878-.6858-.049-2.2534.5389-1.0287-1.3716-1.47-.8818.1959.7348.7838-.7838,1.3716-1.6165-1.5186-2.2534.147-.2939,1.5676.3429.98-1.5676.7348-1.0777-.6858-1.5186-.3429-1.0287.4409-3.478-.049-1.0777.3429L349.92,62.77l-.6858.98.0979.98-.98,1.4206,1.8125.3429,1.9595,1.1267V66.787l.98.049,2.4493,1.1267,1.8615,3.2331.6368.5389.98,1.91-.2939.7838.196,1.8615-.6368,3.0372-1.4206,1.2247-1.7635-.7348-.3429,1.2247-.098-.147ZM244.7949,66.64l.5388-.2939-.6858.2939h0l.1959-.49.8328-.4409h.098l.147.3919.098-.3919,1.4206.4409.049.5878-.049.049Zm45.41-26.4037-.5878.098-1.7145.049-.98-1.0287.98.1959,1.6165-.2939,2.0574.4409v.3919l-.98.098,3.0372.147.5389.5878-.6368.3429-2.1064-.1959-1.47-.4409Zm-21.0642,3.576,3.2821-.2939,1.5186-.5878,1.7145.3429-.9308.4409-3.87.9307-2.3513,2.7432,1.1267,1.0287,1.47.5389-1.8125.147-1.6166-.2939-.5389-.49-1.3226-.4409.2449-.9307,1.0777-.5389-.6858-.4409,1.5186-.7348-.6368-.147ZM360.305,73.2532l-1.8125-2.7922-1.1267-.6858-1.5186-1.91.5878-.3429.98.6368,1.2247,1.47,3.527,3.0861-1.0777-.147.9308,2.0574,1.7145,1.3226-1.5676-.098-.8328-1.6166ZM80.2,54.8343l6.1723-4.1149,1.5186,1.6166-1.3226,1.1757,1.3716-.6858h1.8125l.1959.98-2.6943.5878-1.1267.6858-1.6655.5878-.98-.7838.5389-.49-1.91-.049.4409-.5878ZM332.2357,44.5471l-.5389-1.3226h.5389l.098,1.1267,3.527.2449-1.4206.3429Zm-1.2737.2939-2.7922.1959-3.4781-.6858.8818-.7348,2.1554.4409-.3919-.3919,3.9679.5878Z" fill="#149e9d"/>
              <path id="TT" d="M161.91,119.2025l-.147.8328-.49-.147-.1959-.5389Z" fill="#149e9d"/>
              <path id="BR" d="M172.2949,133.2616l.5878-.7348,2.1554.196-.49,1.4206-1.8615.4409Zm.147,39.924.2939-.9307-.098-.1959-2.8412-2.1554-.3919.2449-1.0287-1.1757-.7838.098,1.5676-2.3513,1.8615-1.3226-.2939-1.8615-.7348-.049v-.049l-.049-.147.2939-.8818-.098-.7838-1.2247-.098-.3429-1.6166-.8818-.6858h-1.6655l.049-1.3716-.4409-.9307.4409-2.4493-.98-1.0777-.147-1.1757-1.8125-.049-.5389-2.9882-1.47-.3429-1.4206-1.0777-1.4206-.2449-1.1757-1.5676-.147-1.8125-1.2247.2939-1.7145,1.3226-1.3716-.049-1.1267.049v-1.91l-.6858.6368-1.0287.049-2.1064-2.9882.8818-1.3716.1959-1.5676,2.2534-1.1757.8818.098.5388-3.723-.7348-1.2247v-.9307l.98-.049-.7348-.49v-.7838l1.8125-.049.8818-.4409.49,1.0777,1.4206.6858,1.5186-1.1267.8328-1.0287-.6858-.049-.147-1.3716-.49-.49,3.3311-.3429.8818-1.1267.8328.147-.147.6858.5878.6858-.5388,1.5186.2939,1.0287.98.8328,1.8615-1.0287.6368.098.5878-.7348,1.4206.2449,1.7635.1959,1.4206-2.2534.6368.1959.4409,2.1064.7838.5878.098,2.0084-1.4206.1959-.147,1.3226.6858.6858,1.5186.147,1.5186-1.6655,1.7635.4409.9307.98.3429-.4409,1.0287,1.7145.3919-.6368,2.2044.7838,1.7635-.049,1.6166,1.0287,1.4206,1.47,1.7145.2449.8818,2.4983-.49,2.4493-1.6655,1.91-1.4206,2.6453-.6368.3919-.049,1.7145.2939,1.47-.196,2.2044-.49.6368v1.4206l-1.2736,2.5963.147.5389-1.0777,1.2247-2.3514-.049-2.6453,1.6655L176.9,162.8l-.5878,1.2247.3919,1.91-.1959,1.1267-.98,1.1267-.3429,1.2247-.98-.3429-.098,1.0777-.6368.8328-.147,1.6166-.6858.7838-.147-.098Z" fill="#a1d8d8"/>
              <path id="BS" d="M147.0668,101.5184l-1.3716.8328-.1959,1.0287-.3919-.98,1.0777-.49.2939-1.0287Zm1.0777,1.5186.049.8818h0l-.2449-.8818Zm.196,1.2247h-.098l-.049-.3429h0l.147.3429Zm0,0,2.2044.9307-2.1064-.5878-.098-.2939h0Zm-.196-1.2247h0l.7838.049-.7838-.049Z" fill="#149e9d"/>
              <path id="PW" d="M367.7509,128.7059h0v-.049h.049Z" fill="#149e9d"/>
              <path id="NG" d="M236.1732,126.55l-2.5473.6368-.6368-.4409-.7838-1.6655-.49-.4409H229.854l.098-3.2821,1.1267-1.8615-.2449-1.3226.5388-2.1554,1.47-.49,1.5186,1.0777.9307-.4409,1.9595.6368.49-.5389,1.4206-.147,1.1267.3919,1.1757-.7838.49.7348.6858,1.1267-.098.8328-.6368.2449-1.8615,3.576-.3429,1.47-.5878.8328-.7838-.8328-1.8615,1.5676Z" fill="#149e9d"/>
              <path id="GD" d="M161.2239,117.7329h-.147l.049-.147.147-.049Z" fill="#149e9d"/>
              <path id="AG" d="M161.5178,111.5606l.049.098-.147.049-.049-.098Z" fill="#149e9d"/>
              <path id="TW" d="M352.3691,103.6738l.5389-.1959.5878-1.5676.8328-.049v2.4l-.2939,1.47Z" fill="#149e9d"/>
              <path id="FJ" d="M416.0516,152.8562l1.8125-.6858-2.0574,1.4206.2939.7348-1.47.049Z" fill="#149e9d"/>
              <path id="BB" d="M163.5263,116.5082l-.098-.049.049-.2939.147.2939Z" fill="#149e9d"/>
              <path id="IT" d="M236.0753,84.667h-.9307l.2939-.8328-.3429-1.1267,1.1267-.4409.4409.8818-.1959,1.5676Zm6.0743,2.9392h-.6368l-2.1064-1.2247.2939-.49,1.0777.2449,1.8125-.3429Zm-7.8868-8.3277-.9308-1.6655.3429-.9307,1.0287-.3919,1.7635-.147.4409-.5878,1.5676-.2449,1.5676.6368-.2939.2939.3919.8328-1.4206.2939.2449,1.4206,1.2247.7838.5389,1.1267,1.91,1.3226,2.1064.98.5389.6368-1.47-.49-.49.7348.6858.49-.9307,1.8125.049-1.0287-.5878-1.47-2.0574-1.4206-.6858.049-2.5473-2.3024-.3429-.7838-1.47-.6858Zm4.8986,2.2044Zm-.098-2.3513v-.098l-.049.049-.049.049Z" fill="#a1d8d8"/>
              <path id="MT" d="M241.3658,88.5859l.2449.098.049.147-.147-.049Z" fill="#149e9d"/>
              <path id="PG" d="M392.881,138.993l1.1757,1.3226-.5878.2939-.5878-1.0287Zm-15.0878,4.4578.2939-3.38.2449-4.5068,3.723,1.47,1.3226,1.2736-.147.6858,1.2737.49.2939-.7838.6368,1.8125-.98.098.196.8328.9307.7348.3919,1.2736,1.4206.6368.8328-.2939.3919.98-.49.4409-2.9882-.49-.8818-.8328-.8818-1.6655-2.4493-.6368-.49,1.7145-.8818.4409Zm12.6875-6.5642-.6368-.5878h0l.5878.4409.049.147Zm0,0,.7838.6858-.2939.6858-.49-1.3716Zm-2.2044,3.1351-.9307.049-1.6165-.6858,3.1841-.4409.7348-.5878-.049-.8818.8818.1959-.3919,1.3226Zm1.5676-3.723-.7348-.49-.8818-.147-.5388-1.3716.3919,1.0287.8328.1959Z" fill="#149e9d"/>
              <path id="SG" d="M338.506,130.6163l.147.098-.147.147-.196-.049Z" fill="#149e9d"/>
              <path id="CY" d="M261.1563,89.8106Zm.2449-.049.098.098h-.1959l-.098-.098h.1959Zm-.2449.098Zm-.049,0-.098.1959-.5388.2449-.196-.098-.098.049-.5389-.49.2939-.147h.8818Z" fill="#149e9d"/>
              <path id="KM" d="M273.354,146.88l-.2449-.1959.049-.3919.098-.098Z" fill="#149e9d"/>
              <path id="SM" d="M239.0634,79.1316h-.098l.049-.049.049-.049Z" fill="#149e9d"/>
              <path id="AM" d="M271.8354,83.05v-.049h.098l-.049.049Zm-.3429-.4409h0l-.049-.049h.049Zm-.147,1.4206-1.1757-.3919-.4409-1.1757.6858-.147.8328-.098.49.7838.5388.7348h-.147l-.049-.049.049.049h.147l.7348.6858.2449.5878-.147-.049-.1959.098-.49-.8328Zm-.049-1.5186v-.049h-.049v.049Z" fill="#149e9d"/>
              <path id="AZ" d="M271.2965,82.5116h-.049v-.049h.049Zm.98,1.2247h.098l-.6368-.7348-.49-.7838,1.5186.2939-.2939-.98,1.47.7838.6368-.7348,1.3226,1.4206-.196,2.5963-.9307-.49L274.53,84.03l-1.2737.98-.2449-.5878Zm-.4409-.6858h.049l.049-.049h-.098Zm-.3429-.4409v-.049h-.049Zm-.098,1.5186-.049-.098,1.0777.1959.49.8328-.7348-.1959Zm.7348-.3919h0l-.049-.049Zm0,0Z" fill="#149e9d"/>
              <path id="TJ" d="M296.5736,82.61h-.049l-.098-.049h.049Zm-.2449-.049.7838.9307-.098.098-.147.098h0l-.049.049h-.049v-.049h-1.1757l.147.5878,2.1064-.147.9307.5389,1.2737-.3429.49,1.0777.98.049.5878,1.6166-1.7145-.2939-1.1757.9307-.6368-1.47-1.1757-.5389-.1959.98-.7348.5389-1.5186-.098.2939-1.2736-.5389-.9307-.7838-.2939,1.1267-.9307h0l.098.147h0l-.049-.147h.147l.098-.8818Z" fill="#149e9d"/>
              <path id="GA" d="M238.9165,137.1805l-2.0084-2.5473-.5878-1.5186.5878-.2449.098-1.2247.49-.49h1.6656l-.049-1.4206.049-.147,2.1064.147-.049,1.1757,1.0777-.147.1959.49-.6368,1.3716.6858.49-.4409,2.3024-1.7635-.7348v.5388h-.9307l.2939,1.6655Z" fill="#149e9d"/>
              <path id="UZ" d="M298.0431,83.7853h-.049l-.049-.049.098-.049Zm-.5878-.098.049.098-.1959.049-.147-.2449ZM283.3962,81.189l-.2939-.1959-.1959.49.147.7838-1.0287-.098-1.1757-4.3108,2.3514-.7348-.147.8328.2939-.7348.7838.3919-.098.5389.8818.6368-.098-.7348,2.4,1.5676,2.7432-.2449,1.1267.98,1.47,1.9595H293.83l.8328.7348.147-.9307,1.5676-1.0287-.5389.7838,1.4206.5389.196-.3919,1.6165.7838-1.2247.7838-.7348-.098-.7838-.9307-1.47,1.6655-.9307.3919.7838.2939.5389.9307-.2939,1.2736h-.5389l-.7838-.1959-.147-.8328-1.0287-.2449-3.674-2.1064-.7838-1.1757-1.9595-.4409-.5389-1.0777-1.4206-.5878ZM296.5736,82.61l-.098-.049h-.049l.098.049Zm-1.4206,1.2247Z" fill="#149e9d"/>
              <path id="LS" d="M254.8861,168.3849l1.7635-1.2737.7348.9307-1.5186,1.6166Z" fill="#149e9d"/>
              <path id="IN" d="M319.7931,103.6248l.8328,2.0574v.049h0l-1.91.4409-.049,1.0777-.5389.8328-.98.098-1.2247,2.0084-1.5186,1.2736-.098.7838-2.0574,1.0287-.147.8328.49,2.0574-.3919,1.6166.147,2.1064-.49-.049-.3919,1.2737-.7838.3919-.7348,1.0777-1.0777-1.0287-1.2737-3.38-.8328-1.4206-.6858-2.0574-1.1267-1.8615-1.3226-4.6047.196-.8328-.8328-2.2044-.098,1.4206-1.1267.5878-1.0287-.5388-1.3226-1.3716,1.2736-.3429-1.7145-.7348-.5878-.8328.6368-.4409,1.2247.049,1.0287-.6368-1.2247-2.2044-.7838-.3429.7838-1.5186.4409.3919,1.0287-.2939.8328-1.2736.2939-1.1267.8818-1.4206-.1959-.7348.7348-.5389-1.6166-1.2247-.5878-1.47.4409-.49,1.5676.3429,1.0777-.7348.6368-.49.7838,1.0777.7348.2939.147,1.0777.9307.9307-1.0777.2449.6858,1.4206,2.6453,1.4206-.5389.49-.098,1.1267,3.1351,1.6655,1.91.1959,1.5186.9307,1.5676.2449.8328-.4409-.3429-1.4206.6858-.147.2449.8328,1.1267.7348,2.3024-.2939-.6858-.98.98-.1959,1.6655-1.7145.7838.3429.7838-.3919,1.5676,1.4206-.3919,1.0287-1.5186,1.0777.147.8818-.5389,2.3024-.8818-.1959.147,1.9595-.5389.5389-.7838-2.1554-.4409.98-.5878-.8328,1.1757-1.6166-.5389-.2939-1.7635.049-.6858-.98-1.5676-.6368-.2939.6858,1.0777.8818-.8328.6368.7838.4409Z" fill="#149e9d"/>
              <path id="KP" d="M350.0668,83.6873l-.049-.049,1.1267-.9307.049-.9307,1.7145.3429-.5389-.7348,2.0574-.6368.2449.147.098.147-.49.8818.5388.8328-1.47,1.2247.2939.6858,1.2736.6858-1.0287.3919-.196.5878-2.2044-.8818.098-.9307Z" fill="#149e9d"/>
              <path id="KG" d="M300.1986,83.6873v.049h0l.098.4409-.2449.147-1.2737.3429-.9307-.5389-2.1064.147-.147-.5878,1.5186-.1959.7348.098,1.2247-.7838-1.6165-.7838-.196.3919-1.4206-.5389.5389-.7838.6368-.6858,1.8125.49.2939-.98,1.1267.49,3.1841-.049,2.0084.7838-1.6165,1.3716-1.2247.098-.8328.7838-.2939-.3919-1.2737.7348h0Zm-2.1554.098v-.098l-.098.049.049.049Zm-.5878-.098-.2939-.098.147.2449.1959-.049Z" fill="#149e9d"/>
              <path id="ES" d="M220.1547,83.7363h0V82.5606l.7348-.6858-.3429-.4409h-2.1554l-.3919-1.4206,1.3226-.6858.5878.1959,5.34.2449,1.7145.7838,1.4206.147.098.1959.147-.098.2449.049h0l.049-.049v.049h0l.49.147.6858-.098.049.5389-1.1267.7838-1.0777.2939L226.67,84.2751l.5388.8818-.7348.5389-.1959.8818-.98.3429-.3919.7348-2.4.049-.9308.7348h0l-.7838-.2449-.3429-.7838-.9307-.2939.5389-2.2534-.5878-.7838.6858-.3429Zm1.3716,4.9476.098.049-.049.049v-.049Zm2.4983.8328-.049-.098h0l.049.049Zm-12.1,8.72.7838-1.1757-.196.98-.5878.1959Zm-.049,0h0Zm0,0-.8328.2939-2.0574-.2939,1.3226-.5878.7348.6858Z" fill="#a1d8d8"/>
              <path id="MX" d="M122.3777,96.3748v.147l.2449.049.4409,1.4206.49,1.47.147.3429v.2939l.8818.5878,1.1267.147-.8818,1.7635-.5878,2.1554.3429,2.5473,1.1267,2.3024,1.3226.7348,2.7922-.5878,1.0777-.6858.9307-2.2534,2.4493-.6858,1.4206.49-.6858.8328-.98,2.7432-.4409-.2939-.6858.7348-.3429.098h-1.91l-.5878.6858.98,1.0777-1.47.3429-.7348,1.8615-1.5676-1.8615-.9307-.4409-1.9595.9307-2.2044-1.0777-2.3024-.8818-.6858-.7348-1.7145-.5388-1.3716-1.2247-.5389-1.2737.49-.2939-1.0287-.98,1.0287-.2449-.1959-1.2247-2.0574-3.1841-.98-.6368.2449-1.1267-.98-.8328L110.9638,97.11l-.3429-2.2044.2449-.3919-1.3226-.7348-.7348,1.91,1.2736,2.1064.7838,3.2331.5389.9307-.2449.5878.8818.49.147,1.0777-.5389.4409-.2939-.7838-1.5676-1.5186.1959-1.5186-2.0084-1.47-.5878-1.0777,1.1267.6368.3429-1.0287-1.2736-1.6166.049-1.2247-.3919-2.1064,2.5473-.2449-.1959.2939,3.38,1.3716,2.89.049.1959-.5878,1.7145.049,1.2247,1.47.098,1.0287,1.1757.8818,1.1757-1.1267Z" fill="#149e9d"/>
              <path id="MA" d="M224.0246,89.5167v-.049l.049.1959.6368.049.49.4409.049,1.8125.6368.8818-.1959.5389-1.2737-.049-1.1757.5878v1.1267l-2.2044,1.3226-1.91.2939-1.1267.8328-.049,1.2247-.098.6858-.98.2939h-1.7635l-.6858,1.0287-.4409,1.47-1.7145,1.7145-.2449,1.3226-.6858,1.0777h-2.2534l1.5186-3.1351.7838-.8328.49-1.7635.9307-.6368.7348-1.5186,1.5186-.49.98-.8328,1.0287-1.7145-.1959-1.1757.6368-1.4206.7838-.8328,1.7635-.98.9307-2.1064.5389-.1959.049.049v.049l.98.8818,1.4206-.2449h0Z" fill="#149e9d"/>
              <path id="CO" d="M142.3151,130.6163l.147-.8818.8818-.5388.7838-1.3716-.2449-2.2534.196-1.1757-.5389-.8328.8328-.8328-.1959-.8818.4409.147,1.47-1.1267.196-1.3716,1.5676-.9307.8818.098,1.9595-1.4206.147.7348-.6858.2449-1.1267,1.47-.147,1.3716.5878,1.2247.2449,1.47,2.1064.147.7348,1.0287,2.0574-.098-.4409,2.0574.5878,1.3226-.5878.6368.6858.6368.2939,1.4206-.49-1.0777-.8818.4409-1.8125.049v.7838l.7348.49-.98.049v.9307l.7348,1.2247-.5388,3.723-.8328-.5389.6858-1.3226-.9307-.5878-1.5676.2939-.8818-.2939-.49-1.1757-1.7635-1.3716-1.1267-.6858-1.2247-.2449Z" fill="#149e9d"/>
              <path id="TZ" d="M264.2915,146.439v-.098l-.049-.098h0l-.147-.049v-.098h0l-.049-.049-.1959-1.5676-.1959-.2939-.098-.098h0l-.049-.049-.049-.098h-.049l-.147.049v.1959l-.5389-.147-.5388-.1959-.98-.4409-.8818-.5878-1.2247-3.2331-.2939-1.7635,1.2247-1.47-.2449-1.0287.2939-.98-.3919-.6368.3919-.098h1.0287v.049l.049-.049h0L260.96,135.27l1.6655.147.6858-.3429-.2939-.6368.5389-.7838,3.8209,2.4493.147.7348,1.47,1.2247.7348.6858-.5878.5878.2449.8328-.2939,2.7922.4409,1.3716.6368.7838-3.1841,1.5186Z" fill="#149e9d"/>
              <path id="AR" d="M165.29,198.5116l.147.098h-.098Zm0,0-1.0287-2.4983,1.5676,1.47,3.0861,1.1757-1.5676.147Zm2.3024-29.4409-.2449,2.1064.098.6368.049,2.2534,1.7635,1.4206-.1959.5389.98,1.2247-.5878,1.5676-1.3226.6858-3.0861.6368.2939.147.1959,1.7635-1.3716.3429-1.1757-.5389.2449,1.47.6368.5389.6368-.3919.4409.7838-1.3716,1.0777.196,1.7635-.5389-.1959-.8818,1.47,1.1267,1.0287.7838.049.3919,1.1757L163.5753,191.8l.098,1.1267-.7348.3919v.7838l1.3226,1.5676-1.5186-.3919H160.93l-.7348-.49-.2939-1.0777-.7838.098-.98-1.4206.6858-1.4206-.4409-.49.2939-1.47-.49-1.1267.2939-.5389-.98-.7348.049-.98-.8328-1.0777.049-1.0777-.7348-1.6165-.098-2.0574.4409-.2939-.6368-1.2247-.2449-1.5186.5389-.5389-.2939-1.0777.3429-1.1267-.5878-1.6655-.9307-1.6166.049-2.6453.8328-2.7432.49-.2449-.6368-2.5963,1.1757-.9307-.049-1.4206.8818-1.2737,1.8125.49.3429.8328.2939-1.0777,1.3716.2939,1.9595,1.91,1.0287.2449,2.7922,1.7635-.8328,2.2534,2.9882.147.8818-.98.049-1.2737.7348.049.2939,1.8615-1.8615,1.3226Zm-11.5608,11.9527Z" fill="#72c5c4"/>
              <path id="SA" d="M277.1259,97.6974l.6368,1.1267,1.4206,1.1267.098,1.1267.8328,1.2247.196.196.2449-.049.098.147.049-.147h.049l-.098.3919.2939.049,1.1757,1.6166,2.7922.2939.5389.8818-.49,2.4-3.0372,1.2247-2.9882.4409-.98.5878-.6858,1.2736-2.4493-.4409-2.1064.147-.3429,1.1757-.5878-1.3226-1.2247-1.5186-.3429-.98-1.47-1.1757-.6368-1.0287-.098-1.5186-.7348-1.47-1.0287-.5878-.3919-1.1267-2.5473-3.576h-.49l.2449-1.5186,1.1757.1959,1.8125-1.5676-1.1757-1.1757,2.1554-.7838,1.3716.2449,1.8125,1.0287,2.9392,2.2534,1.91.147.98.098Z" fill="#149e9d"/>
              <path id="QA" d="M280.7019,102.4491l-.049-.049-.098.049-.2449.049-.196-.196-.147-.9307.7838-.4409v1.5186Z" fill="#149e9d"/>
              <path id="NL" d="M160.2932,110.4339h0ZM230.05,70.216h.8328l-.3919.1959Zm.8818,0-.3919-.2939.8818-1.8615.6858-.2939,1.4206.2449-.098,1.1757-.5878.49-.2939,1.2736-.9308-.8818Z" fill="#149e9d"/>
              <path id="YE" d="M281.9266,109.3072l.9307,2.0574.4409.7838-.5878.2449-.2449.98-2.7432,1.0777-.8818.8328h-.7348l-1.3716.7838-.9307.049-1.9595.9307-.7838-.7348-.6858-2.8412v-.98l.3429-1.1757,2.1064-.147,2.4493.4409.6858-1.2736.98-.5878Z" fill="#149e9d"/>
              <path id="AE" d="M285.6986,101.2245l.098.098.098.6858-.5878.098-.3919,2.6943-2.7922-.2939-1.1757-1.6166,2.6943.147,1.8125-2.3514.098.49Zm.049.49.098-.098h-.147v.098Z" fill="#149e9d"/>
              <path id="KE" d="M268.9942,138.0623l-1.47-1.2247-.147-.7348-3.8209-2.4493.1959-.98-.2449-.5878,1.0287-1.7145-.049-.98-1.0777-2.1554,1.5676-.98.5389.49.98.2449,1.3716.98,1.5676.2939,1.2737-1.0777,1.2247.3429-.98,1.4206.049,4.5068.5878.98-1.47,1.3226Z" fill="#149e9d"/>
              <path id="TR" d="M252.6817,82.9035l.49-.8328-.3429-.3429.6368-.4409.98.147,1.1757.8328-1.5186.2939-.7838.6368,2.4493.049-.049-.98,2.0084.1959,1.8615-1.1267,2.6453.3429,1.6656.8328,2.6453.147,1.2247-.6858,1.2247-.098.7348.5878.4409,1.1757,1.1757.3919.049.098-.7348.2939.5389,1.7145.6858,1.0287L269.778,86.92l-.2939.2939-.1959-.2449-2.3514.6858-3.1351-.098-.5878,1.1267-.098-1.2247-1.4206.1959-1.6656.8818-.8328-.6368-1.3716-.3919-.2449.7838-.6858.147-1.5186-1.1267-1.1267-.3919-.049-.7838-1.0287-.3429.7348-.7838-1.47-1.47,1.0287-.49Z" fill="#149e9d"/>
              <path id="MY" d="M353.4958,127.3342h-.2449l.049-.049-.196.049-1.8615-.2939-.3429,1.6655-.98,1.91-.9307.2939-.6858-.4409-.9308.5389-1.6655.3429-.98-.9307v-.5878l1.47.6368.2939-1.47,1.8125-.4409.98-1.7635.6368.6858.3919-1.0287.049-.049v.098l.3919.6368-.2449-.7348,1.9595-2.7432.196.6368,2.2044,1.7635-1.1757.3919.49.6368-.7838.147Zm-19.2027-2.7922,1.0287.2449.098.7348.98-.7348,1.5676,1.7635.049,2.2534.9308,1.91-.98-.1959-1.6166-1.0287-1.3226-1.8125Z" fill="#149e9d"/>
              <path id="VN" d="M334.2442,105.1434l.2939-.4409,1.6165.2939,1.2736-1.0287,1.3226.5388.4409,1.1267,1.4206.6368-1.7635,1.8125-.2449,1.2247,1.3226,1.8125,2.6453,2.5473,1.1267,3.0372-.2939,1.8615-1.7635,1.1757-.49-.2449-.2939,1.2736-1.7145.7348-.147-1.5186-.3919-.2939,1.3226-.6858L341.69,117.39l-.3429-2.89.049-.6858-1.47-2.1064-2.2534-2.1554-1.0287-.6368,1.0287-.9307-1.0777-1.0777-.98.098-.2939-.8328Z" fill="#149e9d"/>
              <path id="PA" d="M138.6412,120.7211l.49.7838,1.0777.147,1.6166-.9307,1.6655.4409.6858.6858.1959.8818-.8328.8328-.6368-1.6166-.5388-.49-1.5676,1.0777.49.7838-.9307.2939-.9307-1.1267-1.2247.147-.147-.3919h.049Z" fill="#149e9d"/>
              <path id="IR" d="M275.7053,85.5978l.3429.8328,3.1351,1.4206,2.0574-.2939-.1959-.6368,1.3226-.9307,1.7145-.1959,1.7635.6858,1.8125,1.3226.8818.098.2939,1.1757-.049,3.1351.5878,1.8615.9307.147.2449.6368-.7838,1.2247,1.3226,1.6166.9307.3429L292.6546,100l-1.2247.49-.098,1.2737-1.8125-.196-2.7432-.5388-.7348-1.6655-2.0084.7838-1.1267-.2449-1.47-1.1267-1.1267-.3429-1.7145-2.7432-1.2247-.2449-.3429.49L275.95,94.7093l.049-.9307-.5389-.7838-1.2736-.6858-1.0777-1.2247.6368-2.2534-1.0777-.2449-.7838-1.4206-.6858-1.0287-.5389-1.7145.7348-.2939.7838.7348.7348.1959.1959-.098.147.049,1.2737-.98.2449,1.0777Z" fill="#149e9d"/>
              <path id="HT" d="M150.9368,109.8951h-.049v-.049h0Zm-.098-.147v.147h.098l.1959.2449-.147.2939-.2449-.2449-2.0574.098-.098-.5878,1.47.2449.098-1.1757-.6858-.4409,1.7635.098-.049,1.1267Z" fill="#149e9d"/>
              <path id="DO" d="M150.8878,109.8461l-.049-.098.3429-.1959.049-1.1267.8328-.2939,1.0777.3429.2939.6858,1.2737.5389-.6368.2939H152.21l-.8818.98-.3429-.5388.147-.2939-.1959-.2449h0Z" fill="#149e9d"/>
              <path id="GW" d="M210.9452,119.0555l-.98-.7838-.8328-.8818,1.6655-.4409,1.5186.049v1.1267l-1.0287.2939Z" fill="#149e9d"/>
              <path id="HR" d="M245.04,80.8951l-.6858-.49-.1959-.049.2449.049.5878.2939v.098Zm-4.9966-3.723,1.6655.049.1959-.8818.8328-.3429.8328.6368h1.5186l.196.98v.3919l-.3429-.3429-2.7922-.147-.049.5878,2.0084,2.1554-.9307-.1959-1.5676-1.2737-.8818-1.47.1959.98Z" fill="#149e9d"/>
              <path id="TH" d="M336.4,124.787l-.98.7348-.098-.7348-1.0287-.2449-1.4206-1.9595-.7838-.5878.4409-2.2044.7838-1.7635-.6858-1.5186-.049-.7838-1.1267-1.3226.4409-1.6655-1.8615-2.8412.3919-1.5676.5388.147,1.5676-.7838.5389.9307h.8327l.196,2.5473.8818-.9307.98.2449,1.0287-.3919,1.0777,1.1757.049,1.0287,1.0287.98-.2449,1.6655-2.2044.049-.6858.8818.8327,2.3514-1.2736-1.2247-.8818.049-.147-1.0287-1.0287.2449.196,1.2737-.6858,2.9882.8328.6368.6858,2.1064Z" fill="#149e9d"/>
              <path id="EE" d="M251.1141,60.9086l.098.049.098.098-.049.049h-.147l-.049.1959-.098.1959-.6368.1959.7838.8818-.049.2449-.098.2939-1.91-.5878-.8328.1959-2.1554-1.1757,2.9882-.8328Z" fill="#149e9d"/>
              <path id="CD" d="M258.3151,136.4457l-.147,2.1064.4409,1.9595,1.0777,1.8615-1.7635.3429-.6368.7348.1959.3429.1959.49-.4409,2.0084.7348,1.1267.7838-.2449-.049,1.5186-.6368.049-.8818-1.2247-.7348-.1959-.4409-.8818-.5389.5388-1.4206-.4409-.049-.5389-1.0777.2449-.3429-.6368-1.8615.4409-.049-1.5676-.3919-.6368.049-2.5963-2.4493-.3429-.1959,1.2247-1.8615.098-.6368-.98-.3919-1.6655-3.674-.098-.8328.2449-.1959-.3429.2449-.8328.6858-.5388.3429.2939,1.0287-.7348.49.6858,1.5186-1.8615v-1.4206l1.6166-1.9595.3429-3.2821.5878-1.5676-.098-1.0287,1.2737-.98.9307.8328,2.0574.2939.4409-.7838.5878.1959,2.2534-.8328,2.0084.3429.98.98,1.5676-.3429,1.1267,1.2736-.147,1.2737.6368.3429-.8328.8328-.049.2939-.5389.5389-.2939,1.0777-.3919.6368.3429-.147-.098.5388.049.5878-.2449.147-.147.196-.3429.3429-.049.6368v.1959l.147.098.2449.3919Z" fill="#149e9d"/>
              <path id="KW" d="M277.1259,97.6974l-1.0777-.5878-.98-.098.49-1.0777h.8818l.2449.7838Z" fill="#149e9d"/>
              <path id="DE" d="M234.7526,66.15l.147-.049.5389.147,1.91,1.0287,1.5186-.8818.98.8328-.049.049h.049l-.3429.049.3919.1959.49,1.2736.2939,2.0084-2.0574.5389-.098.7838,1.4206,1.1757-.9307.7348.049.5389-1.6655.3429-1.2247-.1959-.6368-.2939.147.147-.6858.098h-.8328l.49-1.6166-1.7635-.5878.147-.3919-.3429-.3919.1959-.2449-.3429-.49.2939-1.2736.5878-.49.098-1.1757.098-.5389,1.47-.1959Zm.9307,8.4257v.049h0Z" fill="#149e9d"/>
              <path id="CZ" d="M239.9452,73.3022l-1.4206-1.1757.098-.7838,2.0574-.5389,1.5186.3429,2.1064.7838.2939.49-.6368.49-1.0287.5878-1.91-.4409Z" fill="#149e9d"/>
              <path id="IE" d="M220.4976,65.9052l-.8818.7348,1.7145.3919.196,1.3226-.3919.9307-.98.049-2.2534.7838-.49-.49,1.3716-1.6166-.6368.049L217.95,66.787l1.2247.098.3919-1.0777Z" fill="#a1d8d8"/>
              <path id="MM" d="M324.1529,106.76l.3429-.2939-.1959-.7838.5389-.5389-.147-1.9595.8818.1959.5389-2.3024-.147-.8818,1.5186-1.0777.3919-1.0287.147-.3919,1.4206,1.1757.4409,2.0084-.8328,1.0287.1959,1.47.98-.2939.4409,1.1267.6858.147-.196,1.0777.8818.147.3919.7348.98-.147-.3919.2939-.49,1.2247-1.5676.7838-.5388-.147-.3919,1.5676,1.8615,2.8412-.4409,1.6655,1.1267,1.3226.049.7838.6858,1.5186L332.53,119.79l-.49-3.4291-.7838-.8328-.6368-2.9392-.5878-.8818-1.7145,1.5676-1.3226-.3919.196-1.8125-.6858-1.5676-.7838-.6368Z" fill="#149e9d"/>
              <path id="GQ" d="M237.4959,131.1552l-.49-.196.49-1.4206.196.1959h1.4206l.049,1.4206Z" fill="#149e9d"/>
              <path id="UG" d="M261.1563,133.6045v0Zm-.049,0h-1.0287l-.3919.098-.5389.49-.3919-.098-.049-.5878.098-.5388.2939-.3919-.2449-.098.2939-1.0777.5389-.5389,1.0287-.7838-.147-.3429-.6368-.3429.147-1.2737,1.0287-.3919.3919.3919,1.4206-.2939.49-.5878,1.0777,2.1554.049.98-1.0287,1.7145-.8328-.049-1.4206.49Z" fill="#a1d8d8"/>
              <path id="KZ" d="M283.2,77.1231l-2.3514.7348,1.1757,4.3108-.4409.098-1.6165-1.2737-1.5676.6858V80.5032l-.7838-.098L275.5094,78.25l.8328-.8818,1.0777-.098.3429-.6858-.2939-1.0777-1.8125-.2449-1.6656.9307-1.5676-1.7145-.8818-.049-.7838-.7348V72.0285l.3919-.7348,1.0287.7348v-.8818l1.3716-1.2247,2.5963.147,2.4983,1.1267.5878-.6368,1.9595.049,1.2737.5878,1.4206-.2939-.1959-.7348-1.4206-.5389.147-.9307,1.0777-.5389-1.3226-.8818,3.625-.49,2.3514-.7348-.049-.2449,2.2534-.147.9307,1.3716,2.1554.1959.8818.3919,1.7635-.98.098.5878,1.6165.7838,3.2821,2.8412.3919-.5389,1.0287.6368,1.7145-.2939,2.4983,1.6655,1.2247-.049.98.6368-1.1267.7838.4409,1.6166-.5878.2939-1.8125-.4409.098,1.9595-1.91.5878,1.5676,2.3024L305.44,81.14l-2.0084-.7838-3.1841.049-1.1267-.49-.2939.98-1.8125-.49-.6368.6858L294.81,82.12l-.147.9307-.8328-.7348h-1.2736l-1.47-1.9595-1.1267-.98-2.7432.2449-2.4-1.5676-.5389-1.3716-.5878.2449-.098-.147-.098.1959Z" fill="#72c5c4"/>
              <path id="KR" d="M353.6918,86.3326l.196-.5878,1.0287-.3919,1.7635,1.6655,1.0777,2.1554-.3919.98-.8818-.2449-1.5676.7348V88.8309l-1.1757-1.1757.49-.3429Z" fill="#149e9d"/>
              <path id="TL" d="M359.6681,143.7447l.1959-.147.2449-.049-.2449.3919Zm.98-.4409.2449-.3919,2.3513-.2939-2.4983,1.3226-.098-.3429Z" fill="#149e9d"/>
              <path id="MR" d="M217.95,99.216l3.2821,2.2534.6858.5389h-1.8125l1.0287,11.5118-5.5355.098-1.0777-.147-.5878.9307-2.1554-2.2534-2.1554.2449-.1959.7838.5878-2.6453-.49-1.7145.3919-1.0287-.7348-1.1267-.1959.49.147-.6858h4.1639v-2.0574l1.0777-.5389.098-3.0861h3.4291Z" fill="#149e9d"/>
              <path id="DZ" d="M221.9182,102.0082l-.6858-.5389L217.95,99.216v-.49l.049-1.2247,1.1267-.8328,1.91-.2939,2.2044-1.3226V93.9255l1.1757-.5878,1.2737.049.1959-.5389-.6368-.8818-.049-1.8125-.49-.4409,3.3311-1.7145,1.8615-.3919,1.8615-.147.49.3429,2.1554-.5389,1.2247.147-.2939,2.8412-.7348.9307.8818,1.6655.7348.5389L236.81,95.64l.3429,1.3226.049,3.1841-.4409.49.6858,1.5186,1.6165.6858.4409.9307-4.6537,3.2331-1.7635,1.7145-1.6655.3919h-1.1757l.147-.7838-1.4206-.5389-.7838-1.0777Z" fill="#149e9d"/>
              <path id="PE" d="M153.2881,151.24l-.6858.4409,1.0287.4409.049-.049.098.049-.098.2939.049.098-.5878.8818.1959.2939-.3919.8818-.4409.098-1.2737-1.2737-4.1639-2.3514-1.3226-1.5186v-.8818l-1.6655-2.5473-1.6655-3.723-1.1267-1.7145-1.2247-.8818-.2449-2.2534.9307-1.0287-.147.8328,1.5676,1.1267.6858-1.91,1.8125-1.0287,1.1757-1.2737.2939-1.7145,1.7635,1.3716.49,1.1757.8818.2939,1.5676-.2939.9307.5878-.6858,1.3226.8328.5389-.8818-.098-2.2534,1.1757-.1959,1.5676-.8818,1.3716,2.1064,2.9882,1.0287-.049.6858-.6368v1.91l1.1267-.049,1.0777,1.8615-.3429,1.4206.2939.6368Z" fill="#72c5c4"/>
              <path id="AO" d="M240.0922,139.3849v-.3429l-.2449-.5388.8328-.7838.3429.2939-.6858.5388Zm-.6368,13.9611v-1.7635l.5878-1.2737.2449-1.6166,1.2247-1.4206.1959-1.91-.8328-1.91.4409-.9307-1.1757-2.6943.98-.3429,3.674.098.3919,1.6655.6368.98,1.8615-.098.1959-1.2247,2.4493.3429-.049,2.5963.3919.6368.049,1.5676,1.8615-.4409v2.5963h-2.1554l-.098,3.8209,1.4206,1.8125-2.7432.49-2.1554-.3429-.3429-.4409h-4.7517l-.8328-.5389Z" fill="#a1d8d8"/>
              <path id="MZ" d="M264.0955,148.79l-.098-1.5676.2939-.7838,2.6943.1959,3.1841-1.5186.2449,5.2416-1.0777,1.9595-3.0861,1.8125-2.4493,2.4-.2939.6858.7838,2.0574-.5878,3.0372-2.4,1.1267-.4409.49.3429,1.0777-.5878.049-.2449-.049v-.6858l-.098-.3919.196-1.8615-.6368-2.4493,1.2737-1.3226.6858-1.5676-.1959-.6858.3429-1.3226V152.66l-2.6943-1.2737-.147-.7838,3.2331-1.1757.4409.7348.7348-.2939.1959,1.1267-.3919.6858,1.0777,1.5186-.147-.6858.7348-.6368.147-1.6655Z" fill="#149e9d"/>
              <path id="CR" d="M137.6124,119.1045l.147.5389.8818,1.0777-.5389,1.5186h0l-.147-.3429-1.5186-1.2247-.49.098-.7348-.98.2449-.8818,1.4206.098Zm.5878,3.527-.147-.3919h.049Z" fill="#149e9d"/>
              <path id="SV" d="M133.4,116.0674l-1.0287.1959-1.3716-.5878v-.098l.8818-.7348,1.7145.7348Z" fill="#149e9d"/>
              <path id="GT" d="M132.5668,113.0792l.2939.196h.3919l-1.0777.7838-.2939.7838-.8818.7348v.098l-1.2736-.2449-.8818-.7348.7348-1.8615,1.47-.3429-.98-1.0777.5878-.6858h1.91l-.3429,2.3514Z" fill="#149e9d"/>
              <path id="BZ" d="M132.5668,110.7278l.3429-.098.6858-.7348-.147,1.8615-.8818,1.3226h-.3429Z" fill="#149e9d"/>
              <path id="VE" d="M162.7425,121.9947l-1.5676,3.1841.6368.8818-.8818,1.1267-3.3311.3429.49.49.147,1.3716.6858.049-.8328,1.0287-1.5186,1.1267L155.15,130.91l-.2939-1.4206-.6858-.6368.5878-.6368-.5878-1.3226.4409-2.0574-2.0574.098-.7348-1.0287-2.1064-.147-.2449-1.47-.5878-1.2247.147-1.3716,1.1267-1.47.6858-.2449-.6368.2939.2939,1.0777-.6368,1.0777.5878.9307.5878-.8328-.5389-1.2736,1.8125-.8818,1.1267.098.9307,1.1757,2.0574-.098.7838-.49.5878.8818.7348-.49,1.47-.147.3429,1.2737.7348-.2449.8818.7348-.3429.6368Z" fill="#149e9d"/>
              <path id="GY" d="M161.8118,126.0606l-.6368-.8818,1.5676-3.1841.9307.6368,2.0084,2.3514-.098.7348-.9307,1.6166,1.6655,2.6943-.6368-.098-1.8615,1.0287-.98-.8328-.2939-1.0287.5388-1.5186-.5878-.6858.147-.6858Z" fill="#149e9d"/>
              <path id="HN" d="M131.881,114.8427l.2939-.7838,1.0777-.7838,2.4983-.3429,1.7145.2449,1.1267.98-2.0574.3429-.8328.8818-1.0777.2449-.7348.98-.147-.3919-.3429-.147.1959-.49Z" fill="#149e9d"/>
              <path id="NI" d="M135.457,118.9086l-1.91-2.1554.3429-.147.7348-.98,1.0777-.2449.8328-.8818,2.0574-.3429-.6368,1.91-.3429,3.0372-.7348-.098Z" fill="#149e9d"/>
              <path id="MW" d="M264.2425,146.243Zm-.147-.147-.049-.049h0Zm-.4409-1.91-.098-.098h0Zm-.196-.2449h0Zm-1.2736-.098.5388.1959.5389.147.3429,2.4-.2939.8328.2449,1.2247.9307,1.2736-.3919-1.1267,1.0287,1.4206-.147,1.6655-.7348.6368.147.6858-1.0777-1.5186.3919-.6858-.1959-1.1267-.7348.2939-.4409-.7348-.3919-.3919.5878-1.4206-.049-2.0084.49-.3429Z" fill="#149e9d"/>
              <path id="TM" d="M282.9063,81.4829l.8328.2939-.3429-.5878.6858-.7348,1.4206.5878.5389,1.0777,1.9595.4409.7838,1.1757,3.674,2.1064,1.0287.2449.147.8328-1.4206.147L291.92,88.243l-1.91,1.4206-1.1757-.5878L288.54,87.9l-.8818-.098L285.8455,86.48l-1.7635-.6858-1.7145.1959-1.3226.9307-.3429-1.91-.9307-.7838.2449-.5389-.9307-.2449V82.61l.8818.3919.8818-.5878-1.0777-1.1267-1.3716.3919,1.5676-.6858,1.6165,1.2737.4409-.098,1.0287.098Z" fill="#149e9d"/>
              <path id="ZM" d="M257.4824,143.7937l.6858-.8818-.2449-.196,1.7635-.3429.49.6858.147-.2449.8818.5878.98.4409.7838,1.4206-.49.3429.049,2.0084-.5878,1.4206.3919.3919-3.2331,1.1757.147.7838-1.6166.49-.147.5878-.6858.3919-.6368.3429-.5878,1.0287-.3429.147-1.5186-.3429-1.0777-.3919-.8818.1959-1.4206-1.8125.098-3.8209h2.1554v-2.5963l.3429.6368,1.0777-.2449.049.5389,1.4206.4409.5389-.5388.4409.8818.7348.1959.8818,1.2247.6368-.049.049-1.5186-.7838.2449-.7348-1.1267.4409-2.0084Z" fill="#149e9d"/>
              <path id="NC" d="M261.3033,89.7616l-.147.049-.098-.049-.2939-.1959-.6858.049h0l1.8125-.6368-.49.7838h-.098Zm-1.3226-.147Z" fill="#149e9d"/>
              <path id="ZA" d="M260.3726,165.0049l.2449.049.5878-.049-.6858,2.1064-1.3226,1.2247-.98,1.5676-1.7145,1.7145-1.91,1.5186-2.3514.7838-2.3024-.1959-.7348.3919-2.3024.5389-1.1267-1.1267-.5878-1.2247.4409-.2449v-1.1267l-.8328-1.6655-.7348-2.1554.4409-.5878.49.7838,1.7635.2939.9307-.6368.1959-4.5068.8328,1.7145-.196.9307.98-.049,1.1757-1.0777.3429-.8328,1.8615.6368.7838-.2449.3429-1.0777,1.0777-.5878.1959-.7348,1.3226-1.1757,1.2247-.5878.98.147,1.0287.098.6368,2.4493-.196,1.8615-.49-.2449-.7348.7838.2939.98.8328.147Zm-5.4865,3.38.98,1.2737,1.5186-1.6166-.7348-.9307Z" fill="#a1d8d8"/>
              <path id="LT" d="M246.02,65.7093l-.196-.49-.147-.4409.8818-.3919,3.2331.2939.8818.5878-.7348,1.5676-1.7145.3919-.049-.2449-.6858-.2449-.049-.5878Zm-.3429,0,.147-.2939-.049.2939Z" fill="#149e9d"/>
              <path id="ET" d="M271.59,118.6636l-.098.098.098.147.1959.147,1.0287-.049-.2449.4409.8328,1.47.6858.5389,3.1841,1.2247h1.0777l-3.1841,3.723-1.0287-.049-2.2044,1.1757-1.2247-.3429-1.2737,1.0777-1.5676-.2939-1.3716-.98-.98-.2449-1.3226-2.4493-1.1267-1.2247-.6858-.147.098-.7838h.8328l.098-1.2736.49-1.7145.2939.1959.7838-2.2534.49-.147.3919-1.91,1.4206-.7348,3.1841.9307,1.7145,2.0084-.6368,1.1267Z" fill="#149e9d"/>
              <path id="GH" d="M228.2374,124.9829l-3.527,1.6166-1.0777-.3919v-.049l.147.049.147-.098-.3919-2.0574.7838-1.6655-.1959-1.5186-.098-1.8615,2.7922-.147.5389,1.0777.1959,4.1149Z" fill="#149e9d"/>
              <path id="SI" d="M240.0432,77.1721l-.049-.049.147-.049-.3919-.8328.2939-.2939.8328.1959,1.4206-.5878h.147l.2939.4409-.8328.3429-.1959.8818Z" fill="#149e9d"/>
              <path id="BA" d="M244.158,80.3562l-.098-.098h.049l-2.0084-2.1554.049-.5878,2.7922.147.3429.3429h.3429v1.5676l-.6858.6368.049.49-.5878-.2939Z" fill="#149e9d"/>
              <path id="JO" d="M263.3607,94.5623l.098-.098-.147-.049v-.049l.049-.049h.098l-.049-.5389-.098-1.0777.1959-.098,1.1267.49,1.8615-1.2736.3919,1.0777.147.4409-2.1554.7838,1.1757,1.1757-1.8125,1.5676-1.1757-.1959.049-.1959-.049-.049.098-1.0287Z" fill="#149e9d"/>
              <path id="SY" d="M266.4959,91.8191l-1.8615,1.2736-1.1267-.49.098-.2449-.147-.5878.6858-.98-.6858-.5389-.1959-.9307-.049-.6368.5878-1.1267,3.1351.098,2.3514-.6858.1959.2449-.8818.7348.147,2.1554Z" fill="#149e9d"/>
              <path id="MC" d="M234.2138,79.3275l-.049.049h-.049l.049-.049Z" fill="#149e9d"/>
              <path id="AL" d="M247.6361,82.7076h0l-.049-.049Zm-1.7145-1.4206V80.993l.2939-.3919.3429.147.49.3919.098.3919-.049.6368.1959.2939.049.1959h.2449v.049l.049.049h0l-.049.098.049-.049v.049l.049.098h.049l-.3429.6858-.5878.3919-.7838-1.0287-.049-1.4206-.049-.147Zm0-.2449Z" fill="#149e9d"/>
              <path id="UY" d="M172.6378,172.0589l-.3919.5878.1959.5389.049.098.147.098-.2449.8328-1.0287.6368H170.09l-1.8125-.5388-.6858-.6858-.147-1.8125-.098-.6368.2449-2.1064.7838-.098,1.0287,1.1757.3919-.2449Z" fill="#149e9d"/>
              <path id="CNM" d="M261.4013,89.7616Zm-1.47-.147h0Zm.147,0h0Zm.98.147.049.049v.049l-.2939-.2449h-.7348l.6858-.049Z" fill="#149e9d"/>
              <path id="MN" d="M338.1631,74.4778l.2939-.147-.196-.098h.7348l2.0574,1.2736-2.7433.6858-.2939,1.0287-1.0287.098-.49.8328-1.91-.3919v.7348l.98.8818-1.6165,1.47-2.5473.1959-1.2247.6368h-1.47l-2.4493-.8818-5.2905-.2449-1.8125-1.8615L316.658,77.76l-2.3024-.2449-.5878-1.6166-1.2247-1.2737L309.8,73.5471l-.49-.7348,3.2331-2.0084,1.9595.3429.6368.6368,2.7432.3429.3919-.9307-.7838-.5389.2449-1.3226,3.625.9307.5389.8328,1.6165.5878,1.3226-.4409,2.7922.6368.98.7348,2.2044.2449,1.8615-.5389.6368-.8328,2.5473.5389.147,2.0084.6368.49Z" fill="#149e9d"/>
              <path id="RW" d="M258.1192,135.7109l-.147-.098v-.1959l.5389-.5389-.147-.4409.147-.196.2449-.147.3919.098.5389-.49.3919.6368-.2939.98-.6858.2939Z" fill="#149e9d"/>
              <path id="BO" d="M153.631,152.1214l-.049-.1959.1959.1959-.098-.049Zm-.2939,1.5676-.1959-.2939.5878-.8818.4409-.2939-.8818-.98.3919-1.6166-.2939-.6368.3429-1.4206-1.0777-1.8615,1.3716.049,1.7145-1.3226,1.2247-.2939.147,1.8125,1.1757,1.5676,1.4206.2449,1.4206,1.0777,1.47.3429.5389,2.9882,1.8125.049.147,1.1757.98,1.0777-.4409,2.4493-1.0777-1.0777-2.7432.4409-.4409,1.0777-.2449,2.0574-1.3716-.2939-.2939,1.0777-.3429-.8328-1.8125-.49-.8818,1.2737-.6858-.049-.5388-1.8615-.7348-1.0287.2449-1.2247-.6368-.5878Z" fill="#149e9d"/>
              <path id="CM" d="M241.2678,129.7346l-2.1064-.147-.049.147h-1.4206l-.196-.1959-.1959-1.8615-1.1267-1.1267.2939-1.2736,1.8615-1.5676.7838.8328.5878-.8328.3429-1.47,1.8615-3.576.6368-.2449.098-.8328-.6858-1.1267h.2939l-.049.2449.2449-.098.6858,1.7635-.049.8818.6858.98H242.15l-.2449.4409,1.3226,1.4206.3429,1.1267-1.1757,1.8125.8818,2.7922.98,1.1267.098.7348v.5878l-1.7145-.5878Zm1.0287-13.2753v0Z" fill="#a1d8d8"/>
              <path id="CG" d="M241.0229,138.0133l-.3429-.2939-.8328.7838-.1959-.5389-.7348-.7838.7838-.2939-.2939-1.6655h.9307v-.5388l1.7635.7348.4409-2.3024-.6858-.49.6368-1.3716-.1959-.49-1.0777.147.049-1.1757,1.3716-.049,1.7145.5878v-.5878l.3919-1.5186.98-.2939,1.2247.2939-.5878,1.5676-.3429,3.2821-1.6166,1.9595v1.4206l-1.5186,1.8615-.49-.6858-1.0287.7348Z" fill="#149e9d"/>
              <path id="EH" d="M208.9857,107.1518l-.049-.147.147-.6858h2.2534l.6858-1.0777.2449-1.3226,1.7145-1.7145.4409-1.47.6858-1.0287h1.7635l.98-.2939.098-.6858v.49l-.049,1.5676h-3.4291l-.098,3.0861-1.0777.5389v2.0574h-4.1639Z" fill="#149e9d"/>
              <path id="RS" d="M245.2847,78.0049V77.613l-.196-.98.5878-.2449.6368.049,1.3226,1.1267-.049.4409,1.3226.7348-.2449.5389.6858.6858-.5389,1.0287H248.42l-.3429.098.147-.49-1.0287-.6858-.3919.49-.7348-.3919-.4409-.4409V78.0049Z" fill="#149e9d"/>
              <path id="ME" d="M245.6276,79.5724l.4409.4409.7348.3919-.2939.147.049.1959-.3429-.147-.2939.3919v.049h-.2449l.2449.2449v.147l.049.147-.6368-.5389-.2939-.147-.049-.098v-.098l-.049-.49Z" fill="#149e9d"/>
              <path id="BJ" d="M229.854,124.64l-.8328.098-.2939.098-.049-3.478-.2939-1.1267-.5878-.4409.147-.7838.5878-.5878.98-.49.49-.6368.8328.8818.2449,1.3226-1.1267,1.8615Z" fill="#149e9d"/>
              <path id="TG" d="M228.7273,124.8359l-.1959.049-.2939.098-.6858-.9307-.1959-4.1149-.5389-1.0777.6858.147h.4409l-.147.7838.5878.4409.2939,1.1267Z" fill="#149e9d"/>
              <path id="LA" d="M332.53,107.6907l.49-1.2247.3919-.2939.6368.49-.3919-1.3226.5878-.1959,1.0777,1.0287.2939.8328.98-.098,1.0777,1.0777-1.0287.9307,1.0287.6368,2.2534,2.1554,1.47,2.1064-.049.6858-.6858.49-1.7635-.049.2449-1.6655-1.0287-.98-.049-1.0287-1.0777-1.1757-1.0287.3919-.98-.2449-.8818.9307-.196-2.5473h-.8327Z" fill="#72c5c4"/>
              <path id="AF" d="M302.109,87.0674l-.49.147.1959.098-1.91.2449-1.1757.98.7348,1.0777-.2449,1.3716h-1.0777l.49.8818-.6858.2939v1.4206l-1.1267.098-1.6165,1.1267.049,1.3226-2.0574.5389-1.6655-.049-1.7635-.5389.7838-1.2247-.2449-.6368-.9307-.147-.5878-1.8615.049-3.1351,1.1757.5878,1.91-1.4206.2939-1.1757,1.4206-.147.7838.1959h.5389l1.5186.098.7348-.5389.1959-.98,1.1757.5389.6368,1.47,1.1757-.9307Z" fill="#149e9d"/>
              <path id="UA" d="M247.832,73.6941l.147-.2939.147-.49.049-.5389,1.1757-1.1757-.5878-1.1757,1.91-.4409,3.38.6368,2.0574-.8328,1.8125-.2939.6368,1.2736.8328.049.7838,1.0287,1.6165-.098,2.6453,1.0777.147,1.9595h-.8818l-.3919.8818-2.1064.5389-.9308.5878.98,1.2247-1.47.98-1.2736-1.5676.7838-.3919-2.0084-.3429-.5878-.4409-1.2247,1.6655-.8328-.049-.5878-.2449.5389-1.1757,1.0777.098-1.0287-1.8125-1.5186-.6858-1.0287.2449-1.2247.4409-2.2534-.049-.2939-.1959Z" fill="#149e9d"/>
              <path id="SK" d="M248.1259,72.91l-.147.49-.147.2939-1.5676-.147-.49.49-1.91.4409-.6858-.2939-.3429-.4409.098-.2449,1.0287-.5878.6368-.49,2.7922.147Z" fill="#149e9d"/>
              <path id="JK" d="M305.5871,89.2228l-.6368.49-.4409-.6858.6858.1959Z" fill="#149e9d"/>
              <path id="PK" d="M304.5094,89.0268l.4409.6858-1.0777.7348-1.5676-.3429-.4409.49.5878,1.47,1.6166,1.2247-.7348.5389.1959.7348-.8818,1.4206L302.354,97.11l-.8328,1.2736-1.0287.2939-.4409-.3919-.7838,1.5186.7838.3429,1.2247,2.2044-1.0287.6368-1.2247-.049-.6368.4409-.8818-.2449-.2939-.7838-1.0777-.9307-2.8412.3429H291.332l.098-1.2737,1.2247-.49-.6368-1.9595-.9307-.3429-1.3226-1.6166,1.7635.5389,1.6655.049,2.0574-.5389-.049-1.3226,1.6165-1.1267,1.1267-.098V92.162l.6858-.2939-.49-.8818h1.0777l.2449-1.3716-.7348-1.0777,1.1757-.98,1.91-.2449,1.6165.6858Z" fill="#149e9d"/>
              <path id="BG" d="M254.69,79.3275l-.7348,1.5186.49.5878-.98-.147-.6368.4409-1.0287.5389-.7348-.3429-1.5676.2449.049-.49-.7348-.6858.5389-1.0287-.6858-.6858.2449-.5389.6858.4409,2.0084.2449,1.5186-.5878Z" fill="#149e9d"/>
              <path id="LI" d="M236.0263,75.0657l.098.1959-.049.049h-.098Z" fill="#149e9d"/>
              <path id="AT" d="M236.0753,75.3106l.049-.049-.098-.1959.098-.147-.098-.147h.147v-.049l1.2247.1959,1.6655-.3429-.049-.5389.9307-.7348,1.0777-.2449,1.91.4409-.098.2449.3429.4409-.5389.2939-.3429,1.0777-1.4206.5878-.8328-.1959-1.5676-.6368-1.5676.2449h-.2939Z" fill="#149e9d"/>
              <path id="SZ" d="M260.2746,163.9271l.098.3919v.6858l-.1959.5878-.8328-.147-.2939-.98.7348-.7838Z" fill="#149e9d"/>
              <path id="HU" d="M245.0888,76.6332H243.57l-.8328-.6368-.2939-.4409h-.147l.3429-1.0777.5389-.2939.6858.2939,1.91-.4409.49-.49,1.5676.147.49.3919.2939.1959-.7838.5389-.6368,1.4206-.8818.1959-.6368-.049Z" fill="#149e9d"/>
              <path id="NE" d="M230.8337,118.1738l-.8328-.8818-.49.6368-.1959-.8818-1.2737-.49-.8818-1.8615.049-.4409,1.1757-.4409,2.3024-.098.7348-1.2737v-3.3311l1.6655-.3919,1.7635-1.7145,4.6537-3.2331,1.6166.4409.7838.6858.7838-.49.2449,1.8615.8818,1.3716-.2449.5388-.196,3.625-1.1267,1.4206-.98,1.6655.1959.8328-1.1757.7838-1.1267-.3919-1.4206.147-.49.5389-1.9595-.6368-.9307.4409-1.5186-1.0777-1.47.49Z" fill="#149e9d"/>
              <path id="LU" d="M232.8911,72.4694h-.3429l-.147-.098-.098-.3919.3919-.2939.3429.3919Z" fill="#149e9d"/>
              <path id="AD" d="M228.3844,80.6991l.2939-.049-.049.147-.147.098Z" fill="#149e9d"/>
              <path id="CI" d="M223.6327,126.2076l-.147-.049h.147Zm-4.7517.8818.098-1.8125-1.2247-.7838.147-1.3226.2939-1.1267.5878.147-.4409-1.2737.098-.8818h1.0777l.7838-.6858.7838.3429.8818.9307,1.5676-.2939.5878.5389.1959,1.5186-.7838,1.6655.3919,2.0574-3.2331.147Z" fill="#149e9d"/>
              <path id="LR" d="M217.9013,123.17l-.147,1.3226,1.2247.7838-.098,1.8125-1.8615-.98-2.3513-2.1554.9307-1.0287.3919-.8818.8328.1959.3919,1.4206Z" fill="#149e9d"/>
              <path id="SL" d="M215.9908,122.0437l-.3919.8818-.9307,1.0287-1.5676-.7838-.3429-1.7635.8328-.98,1.3716-.1959Z" fill="#149e9d"/>
              <path id="BN" d="M350.3607,126.5015h.098l.049-.098.2449.7348Zm-1.0777.2939.5388-.098.49-.2449-.3919,1.0287Z" fill="#149e9d"/>
              <path id="BE" d="M232.6952,71.6856l-.3919.2939.098.3919-1.5676-.5389-1.5186-1.2736.5389-.2939.1959-.049.4409.1959.3919-.1959.049.049v-.049l.6858-.147.9308.8818.3429.49Z" fill="#149e9d"/>
              <path id="IQ" d="M277.028,95.9339l-.4409-.098-.147.098h-.8818l-.49,1.0777-1.91-.147-2.9392-2.2534-1.8125-1.0287-1.3716-.2449-.147-.4409-.3919-1.0777,2.2534-1.7145-.147-2.1554.8818-.7348.2939-.2939,2.1064.2449.7838,1.4206,1.0777.2449-.6368,2.2534,1.0777,1.2247,1.2736.6858.5389.7838-.049.9307Z" fill="#72c5c4"/>
              <path id="GE" d="M271.2476,82.2177l-.8328.098-.6858.147-.7348-.5878-1.2247.098-.2939-1.3226-1.6655-.8818,2.8412.2449,1.2247.7348.8328-.2449,1.7635,1.0287.2939.98Z" fill="#149e9d"/>
              <path id="GM" d="M209.1327,116.5082l-.098-.3429.2939-.2939,1.8125-.2449-1.0287.7838Z" fill="#149e9d"/>
              <path id="CH" d="M235.6834,74.5758h0v.049h0l.2939.1959.049-.049.098.147-.098.147-.049.2449h.098l.5389.2449h.2939l-.4409.5878-1.7635.147-1.0287.3919-.2449-.2449.049-.3429-.1959-.147-.2449.1959-.098.098-.147-.3429,1.3716-1.2247h.8328Z" fill="#149e9d"/>
              <path id="TD" d="M242.4435,116.6062l.2939-.098-.4409-.049h0l-.098-.049.049.049h-.2939l-.49-.7348-.1959-.8328.98-1.6655,1.1267-1.4206.196-3.625.2449-.5388-.8818-1.3716-.2449-1.8615,1.0287-.5389L252.29,108.67l.147,4.6047h-.9307l-.5389,1.91-.49.4409.196,1.2737.7348,2.2044-.4409-.098-2.1064,2.2534-1.47.147-.49,1.1757-1.9595.6368-.2449-.3919-1.1267.3919-.3429-1.1267-1.3226-1.4206.2449-.4409h1.6166l-.6858-.98.049-.8818Z" fill="#149e9d"/>
              <path id="KV" d="M247.1462,81.5319l-.098-.3919-.49-.3919-.049-.1959.2939-.147.3919-.49,1.0287.6858-.147.49-.4409.049Z" fill="#149e9d"/>
              <path id="LB" d="M262.7729,92.162l.3919-.98.2939-.9307.6858.5389-.6858.98-.2939.3919Z" fill="#149e9d"/>
              <path id="SX" d="M278.3506,122.6805h-1.0777l-3.1841-1.2247-.6858-.5389-.8328-1.47.2449-.4409.3429-.5878,1.1267,1.2736,1.5676-.5388.7348.2449,1.0287-.6368,1.6165-.049.098,2.1554Z" fill="#149e9d"/>
              <path id="SO" d="M278.3506,122.6805l.98-1.8125-.098-2.1554,2.4983-.7348-.3919,2.89-1.47,2.9882-.3429,1.0777L278.4,126.9424l-2.0084,2.4983-1.5676,1.0287-2.1064,2.2534-1.1267,1.7145-.5878-.98-.049-4.5068.98-1.4206,2.2044-1.1757,1.0287.049Z" fill="#149e9d"/>
              <path id="DJ" d="M272.8151,119.0065l-1.0287.049-.1959-.147.098-.147-.098-.098-.049-.2939.6368-1.1267.3429.098.4409-.3919.2939.8818-.098.5878Z" fill="#149e9d"/>
              <path id="ER" d="M272.9621,116.9491l-.4409.3919-.3429-.098-1.7145-2.0084-3.1841-.9307-1.4206.7348-.147-1.0777.49-2.3514,1.2737-.5388.3429-.5878,1.3716,3.527,1.5676.5878Z" fill="#149e9d"/>
              <path id="BI" d="M258.805,137.8174l-.2939-.6858-.196-.6858.049-.3429-.2449-.3919.98-.098.6858-.2939.2449,1.0287Z" fill="#149e9d"/>
              <path id="SR" d="M165.5837,125.7177l.3429-.6368,3.1351.196-.196.5878-.3429.5388.49,1.7635-.6858,1.3716-1.4206-.2449-.5878.7348-1.6655-2.6943Z" fill="#149e9d"/>
              <path id="IL" d="M262.0871,94.3174l.5389-1.1757.147-.98h.3919l.2939-.3919.147.5878-.098.2449-.1959.098.098,1.0777-.098.2939.049.2449-.049.049v.098l.049.098-.1959.8328-.098,1.0287-.049.098h0l-.098-.2939Z" fill="#149e9d"/>
              <path id="SN" d="M212.3168,116.9981l-1.5186-.049-1.6655.4409-.049-.5878.049-.2939.98-.098,1.0287-.7838-1.8125.2449-.6858-1.3716.7838-1.3226.1959-.7838,2.1554-.2449,2.1554,2.2534.147,1.3226.7348,1.5676-1.0287.147Z" fill="#149e9d"/>
              <path id="GN" d="M212.3168,116.9981l1.47.4409,1.0287-.147.7348.6368,1.6165-.7348.8818,1.3716.3919,1.47-.098.8818.4409,1.2737-.5878-.147-.2939,1.1267-.6858.49-.3919-1.4206-.8328-.1959-1.0287-1.8125-1.3716.1959-.8328.98-.2939-.8818-1.5186-1.47.3429-.6368,1.0287-.2939Z" fill="#149e9d"/>
              <path id="PL" d="M244.6479,66.64l-.1959.1959.3429-.1959,2.6453.147.049-.049.6858.2449.049.2449.5878,1.47-.5878.4409.5388.8818.5878,1.1757-1.1757,1.1757-.049.5389-.7348-.3429-2.7922-.147-.2939-.49-2.1064-.7838-1.5186-.3429-.2939-2.0084-.49-1.2736.3429-.1959-.3919-.049h-.049l.049-.049,3.576-1.0287Z" fill="#a1d8d8"/>
              <path id="MK" d="M247.6361,82.7566Zm1.1757-1.7635.7348.6858-.049.49-.98.2939-.7348.2939-.147-.1959v.147l-.049-.049h-.1959l.098-.2449-.196.049-.1959-.2939.049-.6368.49-.3919.4409-.049.3429-.098Z" fill="#149e9d"/>
              <path id="PY" d="M170.1395,161.6248v.3429l-.196,1.3226.049.147v.049l-.049,1.2737-.8818.98-2.9882-.147.8328-2.2534-2.7922-1.7635-1.0287-.2449-1.9595-1.91.2449-2.0574.4409-1.0777,2.7432-.4409,1.0777,1.0777.4409.9307-.049,1.3716H167.69l.8818.6858.3429,1.6166Z" fill="#149e9d"/>
              <path id="BY" d="M248.2239,67.2278l1.7145-.3919.7348-1.5676.8818-.147.4409-.4409,2.5473.6368,1.1757,2.0574.98.4409-1.2247.49.6368,1.0777-2.0574.8328-3.38-.6368-1.91.4409-.5388-.8818.5878-.4409Z" fill="#149e9d"/>
              <path id="LV" d="M251.9959,64.6805l-.4409.4409-.8818.147-.8818-.5878-3.2331-.2939-.8818.3919.3429-1.7145.7348-.1959,1.1267.8818.3429-1.0287.8328-.1959,1.91.5878.3919.7838Z" fill="#149e9d"/>
              <path id="BF" d="M227.9435,119.0065h-.4409l-.6858-.147-2.7922.147.098,1.8615-.5878-.5389-1.5676.2939-.8818-.9307.3919-1.8125.6368-.2449.49-1.5186.9307.098.4409-.8818.7348-.147,1.5186-1.1267.98.196-.049.4409.8818,1.8615,1.2737.49.1959.8818-.98.49Z" fill="#149e9d"/>
              <path id="SS" d="M263.41,127.2363l-.49.5878-1.4206.2939-.3919-.3919-1.0287.3919-1.1267-1.2736-1.5676.3429-.98-.98-1.0777-1.2247-.098-.6858-1.0777-.8328-1.3226-1.6655.4409-.2449.49-1.6655.8328-.196.7838,1.1267,1.4206-.098,1.0287.3429,1.2247-1.1757,1.3226.5878,1.2247-1.5186-.3919-1.1757,1.2247-.2449v1.6655l.7838.8328.196.8328-.098,1.2736h-.8328l-.098.7838.6858.147,1.1267,1.2247,1.3226,2.4493-.5389-.49Z" fill="#149e9d"/>
              <path id="CF" d="M252.8286,121.7988l1.3226,1.6655,1.0777.8328.098.6858,1.0777,1.2247-2.0084-.3429-2.2534.8328-.5878-.1959-.4409.7838-2.0574-.2939-.9307-.8328-1.2737.98.098,1.0287-1.2247-.2939-.98.2939-.3919,1.5186-.098-.7348-.98-1.1267-.8818-2.7922,1.1757-1.8125,1.1267-.3919.2449.3919,1.9595-.6368.49-1.1757,1.47-.147,2.1064-2.2534.4409.098.8328,1.2737-.147,1.3226Z" fill="#149e9d"/>
              <path id="NA" d="M251.7509,153.8359l.8818-.1959,1.0777.3919-1.8125.7838-.2449-.5388-2.4983.3919-.098,4.4088-1.0777.049-.098,3.3311-.1959,4.5068-.9307.6368-1.7635-.2939-.49-.7838-.4409.5878-1.1757-1.5186-.6368-3.3311-.147-2.7922-2.5963-5.0456-.049-1.0777,1.47-.3429.8328.5389h4.7517l.3429.4409,2.1554.3429Z" fill="#149e9d"/>
              <path id="RO" d="M254.0533,77.2211l.5878.2449.8328.049-.7348.6858-.049,1.1267-1.5676-.49-1.5186.5878-2.0084-.2449L248.91,78.74l-1.3226-.7348.049-.4409-1.3226-1.1267.8818-.1959.6368-1.4206.7838-.5389,2.2534.049,1.2247-.4409.3429.098,1.47,1.8615Z" fill="#149e9d"/>
              <path id="ZW" d="M253.71,154.0319l1.5186.3429.3429-.147,1.2247-1.3716h0l.6858-.3919.147-.5878,1.6166-.49L261.94,152.66v2.0574l-.3429,1.3226.1959.6858-.6858,1.5676-1.2737,1.3226-1.0287-.098-.98-.147-1.3716-.7348-.2939-1.3226-1.6165-1.2247Z" fill="#149e9d"/>
              <path id="KH" d="M338.604,119.6924l-1.47-.5878-.2939-.8818-.8327-2.3514.6858-.8818,2.2044-.049,1.7635.049.6858-.49.3429,2.89-1.7635,1.6166Z" fill="#149e9d"/>
              <path id="SD" d="M265.7611,105.6332l.49,1.4206-.049.98.4409,1.6166,1.1757.8328-.3429.5878-1.2737.5388-.49,2.3514.147,1.0777-.3919,1.91-.49.147-.7838,2.2534-.2939-.1959-.49,1.7145-.196-.8328-.7838-.8328V117.537l-1.2247.2449.3919,1.1757-1.2247,1.5186-1.3226-.5878-1.2247,1.1757-1.0287-.3429-1.4206.098-.7838-1.1267-.8328.196-.49,1.6655-.4409.2449-.7348-.098.147-1.3226-.8328-1.2737-.7348-2.2044-.196-1.2737.49-.4409.5389-1.91h.9307l-.147-4.6047v-.5878h1.0287l-.098-2.4493h12.5405Z" fill="#a1d8d8"/>
              <path id="TN" d="M238.7205,92.064l.098.8328-1.47,1.2736.1959.6368-.7348.8328-.5878-2.2534-.7348-.5389-.8818-1.6655.7348-.9307.2939-2.8412,1.1267-.49,1.5186,2.5963-1.0777,1.6166,1.0287.147Z" fill="#149e9d"/>
              <path id="LY" d="M236.81,95.64l.7348-.8328-.1959-.6368,1.47-1.2736-.098-.8328,1.91.3429,1.8615.5878.98,1.3716,1.3716.2449,1.7635.98.6858-.2939.098-1.5186.5878-.98,1.0777-.4409,1.5186.3429v.3919l2.0084.4409.1959.3429-.3429,1.8125.3429,1.2247.4409,8.72.098,2.4493H252.29v.5878l-8.5726-4.8007-1.0287.5389-.7838.49-.7838-.6858-1.6166-.4409-.4409-.9307-1.6165-.6858-.6858-1.5186.4409-.49-.049-3.1841Z" fill="#72c5c4"/>
              <path id="ML" d="M221.0854,119.6924l-.7838-.3429-.7838.6858H218.44l-.3919-1.47-.8818-1.3716-1.6165.7348-.7348-.6368-.7348-1.5676-.147-1.3226.5878-.9307,1.0777.147,5.5355-.098-1.0287-11.5118h1.8125l6.27,4.7027.7838,1.0777,1.4206.5389-.147.7838h1.1757v3.3311l-.7348,1.2737-2.3024.098-1.1757.4409-.98-.196-1.5186,1.1267-.7348.147-.4409.8818-.9307-.098-.49,1.5186-.6368.2449Z" fill="#72c5c4"/>
              <path id="BT" d="M319.3523,99.167l1.1267-1.2737,1.6165.7348.6858.98-2.3024.2939Z" fill="#149e9d"/>
              <path id="BW" d="M253.71,154.0319l.8328,2.0574,1.6165,1.2247.2939,1.3226,1.3716.7348-1.2247.5878-1.3226,1.1757-.1959.7348-1.0777.5878-.3429,1.0777-.7838.2449-1.8615-.6368-.3429.8328-1.1757,1.0777-.98.049.196-.9307-.8328-1.7145.098-3.3311,1.0777-.049.098-4.4088,2.4983-.3919.2449.5388Z" fill="#a1d8d8"/>
              <path id="MD" d="M254.0533,77.2211l-.147-1.3716-1.47-1.8615-.3429-.098,1.0287-.2449,1.5186.6858,1.0287,1.8125-1.0777-.098Z" fill="#149e9d"/>
              <path id="JP" d="M363.2442,90.3984l-1.9595.3429-.9308.3919.6858-1.8615,1.7635-.2939,1.3226.2449.2449-1.47,1.2737-.6368-.196-.8818.7838-.2939-.2939-1.6655-.6368-.5389-.3429-1.47.3919-.3429,2.2044,1.8125.5389,1.0287-.3429,1.1267.5878.98.1959,1.3716.6858.6858-.49,1.0287-.3429-.5389-1.4206.8328-1.2736-.098L365.4,91.5251l-1.0777-.3429-.049-.98-.98.1959.4409.2939.049,1.2736-.5878-.3429-.7838.98-.6368-.8818Zm-3.3311,2.1064-.98-.4409-.6858-1.1267,1.0777.9307.3919-.6368,1.2737.2449.7348.8328.049,1.9595-1.0777.147-.5878-.7348Zm7.3969-11.022-2.0084-.8328-1.1267.4409L365.4,81.63l-.98.2939-.9308-1.3226v-.8328h.9308l-.7838-1.6166-.7838-.5878.3429-.4409,2.4,1.5186,2.0574.6368.6858.7348-.9308.1959Z" fill="#149e9d"/>
              <path id="AU" d="M369.9063,181.8562l1.2737.5389,2.0084-.7348-.8328,1.47-1.1267,1.1267-1.7635,1.0777-.6368-.3919.3919-2.2534ZM381.32,152.2684l.4409,1.5676-.049,1.7635,2.4,1.47.098,2.3514,1.1267.5388-.1959.5878.7838,1.0287.5389,1.5186.7838-.2939-.5878.9307-.147,2.0084-.5878,1.7635-2.9882,4.3108-.98.5389-3.527,3.674-1.1757,2.0084-1.91.3919-2.4983,1.1757-1.3226-.3429.4409-.7348-2.1064,1.1757-.7838-.5878-1.5186-.3919-.3919-1.0777.4409-.6858-.196-1.3226-1.8615.6368-.7348-.3919H366.33l1.0777-1.2737-.147-.7348-.98,1.2737-.8818.147,2.3513-2.6453h-.5878L364.3219,174.9l-.196-3.0861-1.7145-.49-.8818-.6858-2.3024.2449-2.0084.7348-1.1267-.049-2.5473,1.1267-.98.9307h-3.576l-2.0574,1.1757-2.0085.147-1.1267-1.1267,1.0777-.98.7348-2.0084-.147-1.7145.2449-.8818-.2449-2.6453-.6368-1.8615.6368-.3429.3429,1.1757.2449-.8328-.3919-1.5186.6858-2.4,3.0372-2.0574,1.6655-.2449,3.625-1.2736,1.7635-1.7635v-1.0777l.98-.8328.4409,1.1267.3919-1.47h.7348l.2449-1.3226.8328-.7348,1.0287-.147,1.1267-.9307,1.1267,1.1757,1.47.4409-.196-.7838,1.0777-1.8125,1.0287-1.2247-.9307-.147.4409-.7838,1.1757.2939-.2449,1.0777,1.3716-.196.049-1.3226.5388.8328,1.9595.6368,1.47-.7838.49.98-1.3716,1.47-.5389,1.7145,2.5473,2.1064.98-.049.5878,1.2247.9308-.3429,1.4206-2.9392.3919-3.0372.7838-1.47.147-1.3716.4409.6858.2449,1.91.3429.3429.196,2.3024.6368-.3919.7348.9307Z" fill="#72c5c4"/>
              <path id="NZ" d="M391.6073,187.0977l-2.89,1.7635h-.7348l-1.6165.6858.8818-1.1267-.7838-.4409,1.4206-1.0777,2.1064-1.1267,1.7635-.5389,2.4983-1.3226,2.3024-1.8615.98-.4409-.3919.9307,1.0777-.4409-.49,1.1267-3.527,2.2044-1.5676.6368Zm12.2466-7.103-3.625,2.3514-1.2736.5878-.2939-.3919,1.6165-1.4206-.7348-.7838,1.2737-.6858,1.1267-1.2737.3919-1.4206-.147-2.6453,1.1267,1.3716-.6858,1.5186.49.4409.2939-1.2247.2939.6368-.3429,1.1267.98.4409,1.3226-.3429Z" fill="#149e9d"/>
              <path id="CU" d="M148.6344,107.9846l-3.674.2939.7838-.7838-1.4206-.147-.196-1.2737-1.7145-.5388-1.1757.049-1.1757-.7838-1.9595,1.0777.196-.6858,1.3226-.7838,2.9882-.1959,2.3024.9307,1.0777,1.1267,2.2044,1.0287Z" fill="#149e9d"/>
              <path id="FI" d="M250.7222,59.7329l-3.3311.6368-2.2044-.5878-.4409-2.9392.7838-.147,1.6655-1.6655.3429-.6858-1.0287-.3429-.8328-2.2044L243.08,50.67l.7348-.2449.7348.5389,1.9595.1959.6368-1.1757,1.3716-.3429,1.0287.3919.049.6368-.049.8328,1.2247.5389-.5389.8818.8818.7838v1.1757l1.0287,1.0777-.3919.2939,1.5676.8818-.1959.4409Z" fill="#149e9d"/>
              <path id="SE" d="M246.5094,54.0015l-1.47.049-.9308,2.0574-2.2044,1.5186-.3429,1.6166,1.8125,1.2247-.3919.8818-1.3226.5389-.2939.8328.5388.6368,1.2247-.5389.049.7348-1.1757-.098-.3919,1.1267-1.5186.098-.4409.8818h-1.0777l-.1959-1.4206-1.6166-1.9595.098-.6858.8328-1.2736-.7348-3.478.49-.7348,1.0287-.049-.2939-.6368.5878-.7838-.049-.8328,1.3716-.98-.2939-.3919,1.4206-1.1757,1.47.1959.3919-.6858,2.5963,1.1267Z" fill="#149e9d"/>
              <path id="MG" d="M279.8692,152.5133,276.832,161.38l-.6368,1.3716-2.1064.7348-1.0777-.6858-.147-1.91-.49-1.47.3919-1.1267,1.1267-1.6166-.3429-3.0861.5878-1.5186,1.9595-.5878,1.3716-.7838.8818-2.0084h.5388l.6368-1.7635.6858,1.3226.3919,2.89-.2939.6368-.5878-.49Z" fill="#149e9d"/>
              <path id="VU" d="M405.2745,154.0319l.196-1.7635-.7838.2939-.0979-1.2247-.5389-.2449,1.0777-1.3226.5878.7838-.049,2.3514-.2449,1.1267.5389,1.3226-.098.9307Z" fill="#149e9d"/>
              <path id="IS" d="M209.9655,54.4914l.8328-.7838,1.9595.147,1.2247-.5878,1.1757.49.7838.9307-.9307.8328-3.625,1.0777-1.4206-.3429-1.7635-.098.9307-.6368-.4409-1.2247-1.6165.049,1.7635-1.0287.9308.5389Z" fill="#149e9d"/>
              <path id="LK" d="M312.3962,122.5826l.2939-2.1064.6368.5388,1.2737,2.1064v1.2247l-1.2247.8328-.5389-.2449Z" fill="#149e9d"/>
              <path id="EG" d="M263.0178,96.5218l-.49,2.1554-1.1267-1.0287-.8818-1.7145.196,1.2247,1.0287,1.6166,2.4493,4.4578.2449,1.2736,1.3226,1.1267H253.2205l-.4409-8.72-.3429-1.2247.3429-1.8125,2.2534.3919,1.8125.6368,1.2737-.8328,1.2247.098.6368.4409,2.1064-.2939.8328,1.91Z" fill="#149e9d"/>
              <path id="NP" d="M318.4215,98.4812l.3429,1.4206-.8328.4409-1.5676-.2449-1.5186-.9307-1.91-.1959L309.8,97.3055l.098-1.1267.5389-.49,1.0777-.1959,1.8125,1.4206.5389-.098,2.3024,1.6655.5389-.2939Z" fill="#149e9d"/>
            </g>
          </g>
        </g>
      </g>
    </g>
  </g>
</svg>
