<svg id="logo-wedodata" xmlns="http://www.w3.org/2000/svg" viewBox="0 0 100 25">
  <title>logo-wedodata</title>
  <g>
    <g>
      <path d="M41.2905,1.8691A2.7224,2.7224,0,0,1,42.3911,2.93a3.0193,3.0193,0,0,1,.39,1.5293,3.7957,3.7957,0,0,1-.57,2.0352,4.0908,4.0908,0,0,1-1.54,1.46,4.28,4.28,0,0,1-2.1.5352H35.5913l1.39-7h2.68A3.4034,3.4034,0,0,1,41.2905,1.8691Zm.2207,1.57a2.0693,2.0693,0,0,0-.8105-.7852,2.41,2.41,0,0,0-1.18-.2852h-1.75l-1.04,5.24h2.02a2.9762,2.9762,0,0,0,1.5-.4,3.0991,3.0991,0,0,0,1.125-1.0947,2.8853,2.8853,0,0,0,.4258-1.5352A2.2277,2.2277,0,0,0,41.5112,3.4395Z" fill="#8c8c8c"/>
      <path d="M48.0151,3.7891a2.2546,2.2546,0,0,1,.6152,1.66,4.0585,4.0585,0,0,1-.08.76h-4.27A1.5872,1.5872,0,0,0,44.7554,7.35a1.6741,1.6741,0,0,0,1.1953.42,2.5144,2.5144,0,0,0,.84-.1406,2.2525,2.2525,0,0,0,.71-.3994l.43.6094a2.9647,2.9647,0,0,1-2.01.7,2.8912,2.8912,0,0,1-1.35-.3,2.1433,2.1433,0,0,1-.8955-.85,2.5122,2.5122,0,0,1-.3145-1.2705,2.9573,2.9573,0,0,1,.39-1.5049,2.8026,2.8026,0,0,1,1.07-1.06,3.0074,3.0074,0,0,1,1.51-.3857A2.2674,2.2674,0,0,1,48.0151,3.7891Zm-.5947.5557a1.4191,1.4191,0,0,0-1.09-.4053,1.9387,1.9387,0,0,0-1.24.43,2.103,2.103,0,0,0-.7295,1.12h3.43A1.576,1.576,0,0,0,47.42,4.3447Z" fill="#8c8c8c"/>
      <path d="M49.8511,8.2744a2.4091,2.4091,0,0,1-.98-.7148l.4307-.63a2.3418,2.3418,0,0,0,.83.6094,2.4169,2.4169,0,0,0,1.02.24,1.253,1.253,0,0,0,.74-.2051.6364.6364,0,0,0,.29-.5449.5738.5738,0,0,0-.25-.49,3.596,3.596,0,0,0-.7705-.38,6.4111,6.4111,0,0,1-.75-.35,1.5176,1.5176,0,0,1-.4795-.4355,1.1278,1.1278,0,0,1-.2-.6846,1.37,1.37,0,0,1,.52-1.1152,2.0848,2.0848,0,0,1,1.3608-.4248,3.228,3.228,0,0,1,1.11.1953,2.72,2.72,0,0,1,.8994.5146l-.46.6494a3.0988,3.0988,0,0,0-.77-.4248,2.2607,2.2607,0,0,0-.8-.165,1.1334,1.1334,0,0,0-.6763.19.587.587,0,0,0-.2646.5.5207.5207,0,0,0,.25.45,4.1834,4.1834,0,0,0,.75.37,7.4363,7.4363,0,0,1,.76.3545,1.572,1.572,0,0,1,.5107.45,1.1567,1.1567,0,0,1,.21.7051,1.4462,1.4462,0,0,1-.25.835,1.6667,1.6667,0,0,1-.6953.57,2.3986,2.3986,0,0,1-1.0146.2041A3.3062,3.3062,0,0,1,49.8511,8.2744Z" fill="#8c8c8c"/>
      <path d="M56.0713,3.1992l-1.0508,5.29h-.93l1.05-5.29Zm.3-1.9746a.4921.4921,0,0,1,.13.3545.6735.6735,0,0,1-.2148.5.6864.6864,0,0,1-.4951.21.4337.4337,0,0,1-.34-.1445.5115.5115,0,0,1-.13-.3555.6644.6644,0,0,1,.21-.4951.6774.6774,0,0,1,.4893-.2051A.4612.4612,0,0,1,56.3711,1.2246Z" fill="#8c8c8c"/>
      <path d="M57.4609,10.2646a3.6272,3.6272,0,0,1-1.0293-.5752l.4492-.63a2.5494,2.5494,0,0,0,1.7.6094A2.3551,2.3551,0,0,0,59.9365,9.31a1.6763,1.6763,0,0,0,.6846-1.0508l.2-.88a2.3242,2.3242,0,0,1-.83.625,2.4662,2.4662,0,0,1-1.0205.2158,2.1161,2.1161,0,0,1-1.0947-.28,1.9337,1.9337,0,0,1-.74-.7852,2.4693,2.4693,0,0,1-.2646-1.165,2.9006,2.9006,0,0,1,.36-1.43,2.7017,2.7017,0,0,1,.9795-1.0254,2.5964,2.5964,0,0,1,1.37-.375,2.1082,2.1082,0,0,1,1.17.3047,1.62,1.62,0,0,1,.66.8857l.24-1.15h.93l-1.04,5.12a2.5142,2.5142,0,0,1-.97,1.585,3.257,3.257,0,0,1-1.96.5449A3.4742,3.4742,0,0,1,57.4609,10.2646Zm2.7705-3.08a1.9273,1.9273,0,0,0,.68-.7148,2.0054,2.0054,0,0,0,.25-.99,1.4839,1.4839,0,0,0-.4053-1.085,1.4211,1.4211,0,0,0-1.0645-.415,1.76,1.76,0,0,0-.94.2646,1.9874,1.9874,0,0,0-.9395,1.7051,1.4763,1.4763,0,0,0,.4092,1.085,1.4406,1.4406,0,0,0,1.07.415A1.76,1.76,0,0,0,60.2314,7.1846Z" fill="#8c8c8c"/>
      <path d="M68.3652,3.5889a1.564,1.564,0,0,1,.5049,1.23,2.7082,2.7082,0,0,1-.06.55l-.63,3.12h-.94l.6006-3.01a1.6288,1.6288,0,0,0,.04-.37,1.0616,1.0616,0,0,0-.3252-.82,1.2981,1.2981,0,0,0-.915-.3,1.7864,1.7864,0,0,0-1.2148.45,2.1319,2.1319,0,0,0-.6748,1.21l-.57,2.84h-.94l1.04-5.29h.95l-.18.89a2.2434,2.2434,0,0,1,1.91-.9492A2.0368,2.0368,0,0,1,68.3652,3.5889Z" fill="#8c8c8c"/>
      <path d="M74.5156,3.7891a2.2546,2.2546,0,0,1,.6152,1.66,4.0585,4.0585,0,0,1-.08.76h-4.27A1.5872,1.5872,0,0,0,71.2559,7.35a1.6741,1.6741,0,0,0,1.1953.42,2.5144,2.5144,0,0,0,.84-.1406,2.2525,2.2525,0,0,0,.71-.3994l.43.6094a2.9647,2.9647,0,0,1-2.01.7,2.8912,2.8912,0,0,1-1.35-.3,2.1433,2.1433,0,0,1-.8955-.85,2.5122,2.5122,0,0,1-.3145-1.2705,2.9573,2.9573,0,0,1,.39-1.5049,2.8026,2.8026,0,0,1,1.07-1.06,3.0074,3.0074,0,0,1,1.51-.3857A2.2674,2.2674,0,0,1,74.5156,3.7891Zm-.5947.5557a1.4191,1.4191,0,0,0-1.09-.4053,1.9387,1.9387,0,0,0-1.24.43,2.103,2.103,0,0,0-.7295,1.12h3.43A1.576,1.576,0,0,0,73.9209,4.3447Z" fill="#8c8c8c"/>
      <path d="M76.9355,8.2393a2.0621,2.0621,0,0,1-.7852-.835,2.6273,2.6273,0,0,1-.28-1.2354,3.15,3.15,0,0,1,.375-1.5293,2.8013,2.8013,0,0,1,2.4951-1.48,2.181,2.181,0,0,1,1.2451.34,1.7759,1.7759,0,0,1,.7051.96l.69-3.39h.93l-1.48,7.42H79.9l.18-.86a2.6,2.6,0,0,1-.88.67,2.5458,2.5458,0,0,1-1.1.24A2.2351,2.2351,0,0,1,76.9355,8.2393Zm2.4854-.7646a2.0719,2.0719,0,0,0,.7295-.7754,2.2026,2.2026,0,0,0,.2705-1.08A1.6385,1.6385,0,0,0,79.9854,4.43a1.5042,1.5042,0,0,0-1.1348-.45,1.9,1.9,0,0,0-1.0254.29,2.1716,2.1716,0,0,0-1.0146,1.85,1.6229,1.6229,0,0,0,.4453,1.1855,1.544,1.544,0,0,0,1.1543.4541A1.8883,1.8883,0,0,0,79.4209,7.4746Z" fill="#8c8c8c"/>
      <path d="M90.3057,3.47a2.05,2.05,0,0,1,.7852.835,2.6233,2.6233,0,0,1,.28,1.2344,3.1509,3.1509,0,0,1-.375,1.53A2.7979,2.7979,0,0,1,88.501,8.5488a2.1767,2.1767,0,0,1-1.2451-.34,1.7676,1.7676,0,0,1-.7051-.96l-.26,1.24H85.36l1.48-7.42h.93l-.6094,3.01a2.616,2.616,0,0,1,.88-.67,2.5458,2.5458,0,0,1,1.1-.24A2.2356,2.2356,0,0,1,90.3057,3.47ZM87.82,4.2344a2.0615,2.0615,0,0,0-.7295.7744,2.208,2.208,0,0,0-.2705,1.08,1.6393,1.6393,0,0,0,.4355,1.19,1.5078,1.5078,0,0,0,1.1348.45,1.902,1.902,0,0,0,1.0254-.29,2.1749,2.1749,0,0,0,1.0146-1.8506,1.6222,1.6222,0,0,0-.4453-1.1846,1.5425,1.5425,0,0,0-1.1543-.4551A1.8782,1.8782,0,0,0,87.82,4.2344Z" fill="#8c8c8c"/>
      <path d="M97.3008,3.1992l-3.63,6.08a2.1038,2.1038,0,0,1-1.84,1.19,1.532,1.532,0,0,1-1.12-.4307l.49-.6895a.9926.9926,0,0,0,.6494.2295,1.3569,1.3569,0,0,0,1.09-.71l.29-.4395-1.13-5.23h.96l.82,4.28,2.46-4.28Z" fill="#8c8c8c"/>
    </g>
    <g>
      <path d="M12.54,17.6755l-2.58-5.5986c-.0339-.0852-.1022-.0852-.1355,0L7.3611,17.6755l-2.14-5.38H2l4.8051,11.6c.0528.1168.1521.1168.2043,0l2.8317-6.1544,2.8674,6.1544c.0682.1392.1515.1392.2037,0l4.7391-11.6H14.58Z" fill="#8C8C8C"/>
      <polygon points="20.91 19.383 24.947 19.383 24.947 17.144 20.91 17.144 20.91 14.873 25.773 14.873 25.773 12.295 17.841 12.295 17.841 23.763 26.01 23.763 26.01 21.182 20.91 21.182 20.91 19.383" fill="#8C8C8C"/>
      <path d="M44.1358,12.1589a6.0152,6.0152,0,0,0-6.009,4.5677,5.4412,5.4412,0,0,0-5.6805-4.4314H28.0124V23.7631h4.4338a5.4431,5.4431,0,0,0,5.68-4.4307,6.0219,6.0219,0,0,0,6.0093,4.5825,5.8843,5.8843,0,1,0,0-11.756ZM32.1083,21.1663H31.0812V14.8951h1.0271a2.8587,2.8587,0,0,1,3.0028,3.1342A2.8629,2.8629,0,0,1,32.1083,21.1663Zm12.0275.085a2.9572,2.9572,0,0,1-3.0165-3.222,3.0239,3.0239,0,1,1,6.0371,0A2.9578,2.9578,0,0,1,44.1358,21.2513Z" fill="#2F2F2F"/>
      <path d="M56.1553,12.2952H51.7215V23.7631h4.4339a5.4789,5.4789,0,0,0,5.8018-5.7338A5.4774,5.4774,0,0,0,56.1553,12.2952Zm-.3369,8.8711H54.79V14.8951h1.0283A2.8586,2.8586,0,0,1,58.82,18.0293,2.8629,2.8629,0,0,1,55.8185,21.1663Z" fill="#8C8C8C"/>
      <polygon points="81.234 12.219 70.936 12.219 70.936 14.906 74.518 14.906 74.518 23.861 77.652 23.861 77.652 14.906 81.234 14.906 81.234 12.219" fill="#8C8C8C"/>
      <path d="M67.0514,12.0895l-5.58,11.6736h2.8656l.5376-1.2455H69.23l.5546,1.2455H72.817L67.2545,12.0895C67.2028,11.97,67.1013,11.97,67.0514,12.0895Zm-1.2107,8.1893,1.1774-2.7278,1.2147,2.7278Z" fill="#8C8C8C"/>
      <path d="M87.6338,23.7631h3.0326L85.1038,12.0895c-.0516-.1193-.1532-.1193-.2031,0L79.32,23.7631H82.186l.5376-1.2455h4.3555ZM83.69,20.2788l1.1774-2.7278,1.2147,2.7278Z" fill="#8C8C8C"/>
    </g>
  </g>
</svg>
