<svg id="icon-key_indicator" xmlns="http://www.w3.org/2000/svg" viewBox="0 0 9 9">
  <title>icon-key_indicator</title>
  <path d="M8.5869,4.6494A3.0786,3.0786,0,0,1,5.9063,6.1875a3.1415,3.1415,0,0,1-.58-.0527l-.4219.4746a.4013.4013,0,0,1-.3164.1406h-.65v.7031a.42.42,0,0,1-.4219.4219H2.8125v.7031A.42.42,0,0,1,2.3906,9H.4219A.4068.4068,0,0,1,.123,8.877.4068.4068,0,0,1,0,8.5781V7.207a.4068.4068,0,0,1,.123-.2988L2.9707,4.0605a3.0967,3.0967,0,0,1,.2549-2.5225A3.0786,3.0786,0,0,1,5.9063,0,3.0786,3.0786,0,0,1,9,3.0938,3.045,3.045,0,0,1,8.5869,4.6494ZM6.1523,2.8477A.8438.8438,0,0,0,7.5938,2.25a.8438.8438,0,1,0-1.6875,0A.8137.8137,0,0,0,6.1523,2.8477Z" fill="#149e9d"/>
</svg>
