<svg id="icon-btn_reset" xmlns="http://www.w3.org/2000/svg" viewBox="0 0 24 24">
  <title>icon-btn_reset</title>
  <path d="M14.18,6.2578a5.6986,5.6986,0,0,1,1.8281,1.1953l.8438-.8437a.5625.5625,0,0,1,.9609.3984v3.1406a.56.56,0,0,1-.5625.5625H14.1094a.5635.5635,0,0,1-.3984-.9609l.9844-.9844a4.1,4.1,0,0,0-1.23-.7734,3.79,3.79,0,0,0-1.4414-.2812,3.8739,3.8739,0,0,0-1.9687.5273A3.956,3.956,0,0,0,8.6016,9.68,3.923,3.923,0,0,0,8.59,13.6289a3.9205,3.9205,0,0,0,1.43,1.43,3.8544,3.8544,0,0,0,1.98.5273,4.0018,4.0018,0,0,0,1.3945-.2461,3.6456,3.6456,0,0,0,1.207-.7383.22.22,0,0,1,.1875-.0586.2974.2974,0,0,1,.1875.082l.9375.9375a.2694.2694,0,0,1,.07.1992.2344.2344,0,0,1-.0937.1992,5.7823,5.7823,0,0,1-1.7812,1.1016,5.7761,5.7761,0,0,1-5.0156-.3867,5.8733,5.8733,0,0,1-2.1211-2.1211,5.7713,5.7713,0,0,1,0-5.8125A5.8733,5.8733,0,0,1,9.0938,6.6211,5.6344,5.6344,0,0,1,12,5.8359,5.7008,5.7008,0,0,1,14.18,6.2578Z" fill="#fff" />
</svg>
