<svg id="icon-btn_download_image" xmlns="http://www.w3.org/2000/svg" viewBox="0 0 24 24">
  <title>icon-btn_download_image</title>
  <path d="M5.9063,17.6855A1.4,1.4,0,0,1,4.5,16.2793V7.8418A1.4,1.4,0,0,1,5.9063,6.4355H18.0938A1.4,1.4,0,0,1,19.5,7.8418v8.4375a1.4,1.4,0,0,1-1.4062,1.4063ZM6.624,8.56a1.6406,1.6406,0,0,0,1.1572,2.7979A1.6366,1.6366,0,0,0,8.9385,8.56a1.6269,1.6269,0,0,0-2.3145,0Zm11.001,7.251V12.5293L15.0469,9.9512a.3564.3564,0,0,0-.4687,0l-3.9844,3.9844L8.9531,12.2949a.3564.3564,0,0,0-.4687,0L6.375,14.4043v1.4063Z"/>
</svg>
