<svg id="logo-paris21" xmlns="http://www.w3.org/2000/svg" viewBox="0 0 80 52">
  <title>logo-paris21</title>
  <g>
    <g>
      <g>
        <path d="M57.2041,1.287a1.7554,1.7554,0,0,0,0,2.4967,1.7557,1.7557,0,0,0,2.5.0005,1.7545,1.7545,0,0,0-.0013-2.4993,1.7794,1.7794,0,0,0-2.4983.0021" fill="#ea6651"/>
        <path d="M58.4527,7.0228h-.0045a1.5438,1.5438,0,0,0-1.0928.4337,1.5162,1.5162,0,0,0-.4417,1.0984v13.8a1.54,1.54,0,1,0,3.0807,0v-13.8a1.5186,1.5186,0,0,0-.4417-1.0984,1.5555,1.5555,0,0,0-1.1-.4337" fill="#149e9d"/>
      </g>
      <path d="M65.9457,20.86a1.47,1.47,0,0,0-1.5094,1.51,1.47,1.47,0,0,0,1.5094,1.51h7.415a6.2817,6.2817,0,0,0,6.3-6.3,6.0955,6.0955,0,0,0-1.32-3.8514,6.3385,6.3385,0,0,0-3.4-2.2357L74.924,11.49l-5.41-1.2941a3.1112,3.1112,0,0,1-1.7879-1.1407,3.1542,3.1542,0,0,1-.6842-2.0206,3.0086,3.0086,0,0,1,.2624-1.2629,3.5042,3.5042,0,0,1,.7122-1.0421,3.14,3.14,0,0,1,1.0251-.6824,3.2461,3.2461,0,0,1,1.28-.2462h6.54a1.47,1.47,0,0,0,1.51-1.51,1.4693,1.4693,0,0,0-1.51-1.51h-6.54a6.3377,6.3377,0,0,0-4.465,1.8336,6.3385,6.3385,0,0,0-1.3412,1.9847,6.1016,6.1016,0,0,0-.4933,2.4351,6.1969,6.1969,0,0,0,1.3168,3.8715A6.0632,6.0632,0,0,0,68.8254,13.13l5.3065,1.2809a3.353,3.353,0,0,1,1.8244,1.1936,3.0981,3.0981,0,0,1,.685,1.9765,3.2952,3.2952,0,0,1-.2457,1.2777,2.9688,2.9688,0,0,1-.6972,1.0167,3.7894,3.7894,0,0,1-1.0735.722,3.013,3.013,0,0,1-1.2639.2626H65.9457Z" fill="#149e9d"/>
      <path d="M8.2938.7617H2.3744a1.4889,1.4889,0,0,0-1.1288.49,1.54,1.54,0,0,0-.4118,1.05V22.4171a1.5083,1.5083,0,0,0,1.5406,1.54,1.509,1.509,0,0,0,1.5406-1.54V15.7123H8.2938a7.4753,7.4753,0,0,0,0-14.9506Zm0,11.9323H3.915L3.9018,3.816h4.392a4.439,4.439,0,0,1,0,8.8781Z" fill="#149e9d"/>
      <path d="M48.9066,14.9628A7.4786,7.4786,0,0,0,45.6508.7617H39.7314a1.4885,1.4885,0,0,0-1.1288.49,1.5411,1.5411,0,0,0-.4118,1.0505V22.4174a1.5407,1.5407,0,1,0,3.0812,0V15.712h4.3788c.0425,0,.0848-.0024.1272-.0032l4.3028,7.3367a1.5406,1.5406,0,1,0,2.7422-1.4044Zm-3.2557-2.269H41.272l-.0132-8.8781h4.392a4.4391,4.4391,0,0,1,0,8.8781Z" fill="#149e9d"/>
      <path d="M35.1456,21.753,25.7423,1.629l-.01-.0214A1.4617,1.4617,0,0,0,24.3882.7739a1.4834,1.4834,0,0,0-1.3991.909L14.13,21.7673a1.4361,1.4361,0,0,0,.0751,1.3917,1.451,1.451,0,0,0,1.28.7292,1.486,1.486,0,0,0,1.4-.91l1.6974-3.8614H30.5831l1.8051,3.8776.0317.0613a1.605,1.605,0,0,0,.8191.7209,1.4806,1.4806,0,0,0,1.1325-.0312,1.4462,1.4462,0,0,0,.8116-.8606A1.5283,1.5283,0,0,0,35.1456,21.753ZM19.915,16.1019,24.41,5.9077l4.7593,10.1942Z" fill="#149e9d"/>
    </g>
    <g>
      <path d="M48.1964,30.38l-.0005-.0008a6.9251,6.9251,0,0,0-2.0606-1.3814,6.5858,6.5858,0,0,0-5.1341.0005,6.5581,6.5581,0,0,0-3.4393,3.44,6.3448,6.3448,0,0,0-.5234,2.5665,1.5114,1.5114,0,0,0,.4385,1.0965,1.6044,1.6044,0,0,0,2.2007.0029,1.52,1.52,0,0,0,.4414-1.0994,3.337,3.337,0,0,1,.2677-1.3327,3.4919,3.4919,0,0,1,1.85-1.849,3.5065,3.5065,0,0,1,3.8051.7453,3.5506,3.5506,0,0,1,.744,1.1026,3.35,3.35,0,0,1,.2679,1.334,3.4663,3.4663,0,0,1-.9892,2.4575c-.036.0452-.2264.2632-1.2124,1.3129l-2.9955,3.2111q-1.2449,1.3289-2.4935,2.6543-1.6477,1.7521-3.2825,3.5163a1.45,1.45,0,0,0-.29,1.6853,1.4841,1.4841,0,0,0,1.3883.9193H47.2892a1.5407,1.5407,0,1,0,0-3.0812H40.7444l7.6281-8.1753a7.598,7.598,0,0,0,1.28-2.055,6.493,6.493,0,0,0-.0418-5.0119A6.5259,6.5259,0,0,0,48.1964,30.38" fill="#ea6651"/>
      <g>
        <path d="M57.2041,47.7417a1.772,1.772,0,1,0,2.498-.0019,1.7788,1.7788,0,0,0-2.498.0019" fill="#149e9d"/>
        <path d="M58.4543,44.5124a1.52,1.52,0,0,1-1.5208-1.52V32.6494l-2.2259,1.3166a1.5208,1.5208,0,1,1-1.5794-2.5993l.0308-.0182L57.68,28.674a1.5208,1.5208,0,0,1,2.2952,1.3086V42.9919a1.5208,1.5208,0,0,1-1.5208,1.52" fill="#ea6651"/>
        <path d="M59.7045,50.2479a1.7719,1.7719,0,1,0-2.498.0021,1.779,1.779,0,0,0,2.498-.0021" fill="#149e9d"/>
      </g>
    </g>
  </g>
</svg>
