<svg id="icon-dissemination" xmlns="http://www.w3.org/2000/svg" viewBox="0 0 40 40">
  <title>icon-dissemination</title>
  <path d="M26.8719,12.0961a.7717.7717,0,0,1,1.125.7813l-2.25,13.5a.7474.7474,0,0,1-.3906.5313.6421.6421,0,0,1-.6406.0313l-3.9062-1.625-1.9687,2.4063a.668.668,0,0,1-.5469.2813.8284.8284,0,0,1-.5625-.2031.7242.7242,0,0,1-.2344-.5781v-2.5l7.5313-9.1875a.1553.1553,0,0,0-.0312-.2344.18.18,0,0,0-.25-.0156L15.7782,23.19l-3.3125-1.375a.719.719,0,0,1-.4687-.6562.6655.6655,0,0,1,.4063-.6875Z" fill="#fff"/>
</svg>
