<svg id="icon-planning" xmlns="http://www.w3.org/2000/svg" viewBox="0 0 40 40">
  <title>icon-planning</title>
  <path d="M13.375,17A.3734.3734,0,0,1,13,16.625V15.5A1.4938,1.4938,0,0,1,14.5,14H16V12.375A.3734.3734,0,0,1,16.375,12h1.25a.3734.3734,0,0,1,.375.375V14h4V12.375A.3734.3734,0,0,1,22.375,12h1.25a.3734.3734,0,0,1,.375.375V14h1.5A1.4938,1.4938,0,0,1,27,15.5v1.125a.3734.3734,0,0,1-.375.375Zm13.25,1a.3734.3734,0,0,1,.375.375V26.5A1.4938,1.4938,0,0,1,25.5,28h-11A1.4938,1.4938,0,0,1,13,26.5V18.375A.3734.3734,0,0,1,13.375,18Zm-3.7187,2.125a.2986.2986,0,0,0-.25-.125.4557.4557,0,0,0-.2812.0938l-3.3125,3.3125L17.625,21.9375a.3389.3389,0,0,0-.25-.0937.4557.4557,0,0,0-.2812.0938l-.875.875a.385.385,0,0,0-.125.2813.2949.2949,0,0,0,.125.25l2.5625,2.625a.4557.4557,0,0,0,.2813.0938.3389.3389,0,0,0,.25-.0937l4.4688-4.4375a.3888.3888,0,0,0,.125-.2812.2974.2974,0,0,0-.125-.25Z" fill="#2F2F2F"/>
</svg>
