<svg id="icon-valuation" xmlns="http://www.w3.org/2000/svg" viewBox="0 0 40 40">
  <title>icon-valuation</title>
  <path d="M19.0938,12.5624a.9476.9476,0,0,1,.5469-.5,1.0684,1.0684,0,0,1,.7188,0,.95.95,0,0,1,.5469.5l2.0313,4.125,4.5625.6563a.9513.9513,0,0,1,.6406.375,1.047,1.047,0,0,1,.2188.6875.9605.9605,0,0,1-.2969.6563L24.75,22.2811l.7813,4.5625a.9936.9936,0,0,1-.1406.7031.9183.9183,0,0,1-.5781.4219.9634.9634,0,0,1-.7187-.0937L20,25.75l-4.0938,2.125a.964.964,0,0,1-.7187.0938.9158.9158,0,0,1-.5781-.4219.9838.9838,0,0,1-.1406-.7031l.7813-4.5625-3.3125-3.2187a.9563.9563,0,0,1-.2969-.6562,1.0416,1.0416,0,0,1,.2188-.6875.9492.9492,0,0,1,.6406-.375l4.5625-.6562Z" fill="#2F2F2F"/>
</svg>
