<svg id="icon-external_link" xmlns="http://www.w3.org/2000/svg" width="20" height="20" viewBox="0 0 20 20">
  <title>icon-external_link</title>
  <g>
    <path d="M14.375,10.868v4.819A1.312,1.312,0,0,1,13.063,17H3.438a1.312,1.312,0,0,1-1.312-1.312V6.063A1.312,1.312,0,0,1,3.438,4.75h8.094A.656.656,0,0,1,12,5.87l-.437.438a.749.749,0,0,1-.464.192H3.875v8.75h8.75V11.306a.752.752,0,0,1,.192-.464l.438-.437A.656.656,0,0,1,14.375,10.868Z"/>
    <path d="M17.875,7.155a.657.657,0,0,1-1.12.465l-.977-.977L9.119,13.3a.655.655,0,0,1-.928,0l-.619-.618a.658.658,0,0,1,0-.929L14.231,5.1l-.977-.977A.657.657,0,0,1,13.72,3h3.5a.656.656,0,0,1,.656.656Z"/>
  </g>
</svg>
