<svg id="icon-soundcloud" xmlns="http://www.w3.org/2000/svg" viewBox="0 0 30 30">
  <title>icon-soundcloud</title>
  <path d="M6.52,17.6653l.2982-1.2723L6.52,15.0774c-.0081-.0394-.0827-.0694-.1745-.0694s-.1673.03-.1745.0694L5.9092,16.393l.2627,1.2723c.0072.04.0818.0693.1745.0693C6.4374,17.7346,6.512,17.7053,6.52,17.6653Zm1.8635.7063.2527-1.967-.2527-3.0429c-.0072-.0782-.1018-.1387-.2161-.1387s-.21.06-.2156.1382l-.2244,3.0434.2244,1.967c.0056.0777.1.1376.2156.1376S8.3763,18.4493,8.3836,18.3716Zm1.86-.0316.2109-1.9342-.2109-4.0522c-.0056-.0943-.1182-.17-.2555-.17s-.2508.0744-.2555.17l-.1873,4.0522.1873,1.9353c.0047.0943.1173.1687.2555.1687S10.2382,18.4354,10.2437,18.34ZM12.1,18.3112l.1728-1.9049L12.1,12.3247c-.0044-.1126-.1318-.2019-.291-.2019s-.2872.0893-.2916.2019l-.1537,4.0816.1545,1.9049c.0028.1115.1309.2009.2907.2009S12.0956,18.4243,12.1,18.3112Zm1.8546-.0239.1362-1.88-.1362-4.68c-.0028-.1287-.1493-.2336-.3255-.2336s-.3218.1048-.3246.2336l-.1229,4.6786.1229,1.88c.0028.1276.1482.2319.3246.2319S13.9519,18.4155,13.9547,18.2873Zm1.2981.2325,6.4955.0039a2.2676,2.2676,0,1,0,0-4.5326,2.3939,2.3939,0,0,0-.9064.1764,4.0839,4.0839,0,0,0-4.1182-3.6438,4.2931,4.2931,0,0,0-1.4981.2708c-.1765.0666-.2247.1337-.2256.2658v7.1915A.277.277,0,0,0,15.2527,18.52Z" fill="#fff"/>
</svg>
