<svg id="illu-arbor" xmlns="http://www.w3.org/2000/svg" viewBox="0 0 200 200">
  <title>illu-arbor</title>
  <g>
    <g>
      <line x1="121.9721" y1="42.156" x2="100" y2="64.1281" fill="none" stroke="#da5d0c" stroke-miterlimit="10"/>
      <line x1="78.9972" y1="41.1867" x2="100" y2="64.1281" fill="none" stroke="#da5d0c" stroke-miterlimit="10"/>
      <line x1="100" y1="32.735" x2="100" y2="104.0642" fill="none" stroke="#da5d0c" stroke-miterlimit="10"/>
      <circle cx="100" cy="64.1721" r="12.5" fill="#e2751f"/>
      <g>
        <g>
          <line x1="100" y1="33.0548" x2="91.0417" y2="17.4145" fill="none" stroke="#da5d0c" stroke-miterlimit="10"/>
          <circle cx="89.0417" cy="13.9504" r="3" transform="translate(4.9541 46.3898) rotate(-30)" fill="#da5d0c"/>
          <path d="M89.0379,9.95a4.0011,4.0011,0,1,1-1.9963.5366A4.0011,4.0011,0,0,1,89.0379,9.95m0-1h0a5.0008,5.0008,0,1,0,4.3339,2.5,5.0008,5.0008,0,0,0-4.3339-2.5Z" fill="#da5d0c"/>
        </g>
        <g>
          <line x1="100" y1="33.0548" x2="106.2917" y2="22.1645" fill="none" stroke="#da5d0c" stroke-miterlimit="10"/>
          <circle cx="108.2917" cy="18.7004" r="3" transform="translate(37.9508 103.1336) rotate(-60)" fill="#da5d0c"/>
          <path d="M108.2954,14.7a4,4,0,1,1-3.4678,2,4,4,0,0,1,3.4678-2m0-1h0a5.0011,5.0011,0,1,0,2.4933.6691,5.0178,5.0178,0,0,0-2.4933-.6691Z" fill="#da5d0c"/>
        </g>
        <g>
          <line x1="100" y1="33.0548" x2="100" y2="9.9497" fill="none" stroke="#da5d0c" stroke-miterlimit="10"/>
          <circle cx="100" cy="5.9497" r="3" fill="#da5d0c"/>
          <path d="M100,1.95a4,4,0,1,1-4,4h0a4,4,0,0,1,4-4m0-1a5,5,0,1,0,5,5A5,5,0,0,0,100,.95Z" fill="#da5d0c"/>
        </g>
        <circle cx="100" cy="33.0548" r="6" fill="#e2751f"/>
      </g>
      <g>
        <g>
          <line x1="121.9721" y1="42.156" x2="126.697" y2="24.7621" fill="none" stroke="#da5d0c" stroke-miterlimit="10"/>
          <circle cx="127.7293" cy="20.9013" r="2.9999" transform="translate(74.4828 138.8693) rotate(-75.0007)" fill="#da5d0c"/>
          <path d="M127.73,16.8974a4.0006,4.0006,0,1,1-3.8612,2.9657,4.0006,4.0006,0,0,1,3.8612-2.9657m0-1h0a5.0034,5.0034,0,1,0,1.2964.1714A5.0034,5.0034,0,0,0,127.73,15.8974Z" fill="#da5d0c"/>
        </g>
        <g>
          <line x1="121.9721" y1="42.156" x2="134.1216" y2="38.9043" fill="none" stroke="#da5d0c" stroke-miterlimit="10"/>
          <circle cx="137.9853" cy="37.869" r="3" transform="translate(-5.0995 37.0036) rotate(-15)" fill="#da5d0c"/>
          <path d="M137.9878,33.868a4.0034,4.0034,0,1,1-1.0378.1373,4.0034,4.0034,0,0,1,1.0378-.1373m0-1h0a5.0006,5.0006,0,1,0,4.827,3.7069A5.0006,5.0006,0,0,0,137.9878,32.868Z" fill="#da5d0c"/>
        </g>
        <g>
          <line x1="121.9721" y1="42.156" x2="138.3099" y2="25.8182" fill="none" stroke="#da5d0c" stroke-miterlimit="10"/>
          <circle cx="141.1383" cy="22.9898" r="3" transform="translate(25.0822 106.5334) rotate(-45)" fill="#da5d0c"/>
          <path d="M141.1383,18.99a4,4,0,1,1-2.8284,1.1716,4,4,0,0,1,2.8284-1.1716m0-1a5,5,0,1,0,3.5355,1.4645A5,5,0,0,0,141.1383,17.99Z" fill="#da5d0c"/>
        </g>
        <circle cx="121.9721" cy="42.156" r="6" transform="translate(5.916 98.5945) rotate(-45)" fill="#e2751f"/>
      </g>
      <g>
        <g>
          <line x1="78.9972" y1="41.1867" x2="61.6033" y2="36.4618" fill="none" stroke="#da5d0c" stroke-miterlimit="10"/>
          <circle cx="57.7397" cy="35.4265" r="3" transform="translate(8.5762 82.0297) rotate(-75)" fill="#da5d0c"/>
          <path d="M57.7371,31.4255a4.0006,4.0006,0,1,1-3.8612,2.9657,4.0006,4.0006,0,0,1,3.8612-2.9657m0-1h0a5.0034,5.0034,0,1,0,1.2964.1714A5.0034,5.0034,0,0,0,57.7371,30.4255Z" fill="#da5d0c"/>
        </g>
        <g>
          <line x1="78.9972" y1="41.1867" x2="75.7455" y2="29.0372" fill="none" stroke="#da5d0c" stroke-miterlimit="10"/>
          <circle cx="74.7078" cy="25.1743" r="2.9999" transform="translate(-3.9699 20.1927) rotate(-14.9993)" fill="#da5d0c"/>
          <path d="M74.7127,21.1725a4.0034,4.0034,0,1,1-1.0378.1373,4.0034,4.0034,0,0,1,1.0378-.1373m0-1h0a5.0009,5.0009,0,1,0,4.827,3.7069A5.0009,5.0009,0,0,0,74.7127,20.1725Z" fill="#da5d0c"/>
        </g>
        <g>
          <line x1="78.9972" y1="41.1867" x2="62.6594" y2="24.8489" fill="none" stroke="#da5d0c" stroke-miterlimit="10"/>
          <circle cx="59.831" cy="22.0205" r="3" transform="translate(1.9533 48.7565) rotate(-45)" fill="#da5d0c"/>
          <path d="M59.831,18.02a4,4,0,1,1-2.8284,1.1716A4,4,0,0,1,59.831,18.02m0-1a5,5,0,1,0,3.5355,1.4645A5,5,0,0,0,59.831,17.02Z" fill="#da5d0c"/>
        </g>
        <circle cx="78.9972" cy="41.1867" r="6" transform="translate(-5.9857 67.9228) rotate(-45)" fill="#e2751f"/>
      </g>
    </g>
    <g>
      <line x1="165.6679" y1="105.8302" x2="137.9815" y2="91.7233" fill="none" stroke="#da5d0c" stroke-miterlimit="10"/>
      <line x1="153.3099" y1="64.6591" x2="137.9815" y2="91.7233" fill="none" stroke="#da5d0c" stroke-miterlimit="10"/>
      <line x1="167.8381" y1="82.0223" x2="100" y2="104.0642" fill="none" stroke="#da5d0c" stroke-miterlimit="10"/>
      <circle cx="137.9396" cy="91.7369" r="12.5" transform="translate(-21.597 47.1156) rotate(-18)" fill="#e2751f"/>
      <g>
        <g>
          <line x1="167.5339" y1="82.1211" x2="179.6405" y2="68.7681" fill="none" stroke="#da5d0c" stroke-miterlimit="10"/>
          <circle cx="182.317" cy="65.7955" r="3" transform="translate(11.4276 157.2576) rotate(-48)" fill="#da5d0c"/>
          <path d="M182.3183,61.7955a4,4,0,1,1-2.9739,1.3235,4,4,0,0,1,2.9739-1.3235m0-1h0a5,5,0,1,0,3.3443,1.2843A5,5,0,0,0,182.3183,60.7955Z" fill="#da5d0c"/>
        </g>
        <g>
          <line x1="167.5339" y1="82.1211" x2="179.8354" y2="84.7395" fill="none" stroke="#da5d0c" stroke-miterlimit="10"/>
          <circle cx="183.748" cy="85.5712" r="3" transform="translate(61.8434 247.5126) rotate(-78)" fill="#da5d0c"/>
          <path d="M183.744,81.57a4,4,0,1,1-3.9086,3.1692A4,4,0,0,1,183.744,81.57m0-1h0a5,5,0,1,0,4.8925,6.0484l.0018-.0083a5.0032,5.0032,0,0,0-4.8946-6.04Z" fill="#da5d0c"/>
        </g>
        <g>
          <line x1="167.5339" y1="82.1211" x2="189.5082" y2="74.9812" fill="none" stroke="#da5d0c" stroke-miterlimit="10"/>
          <circle cx="193.3124" cy="73.7451" r="3" transform="translate(-13.3271 63.3462) rotate(-18)" fill="#da5d0c"/>
          <path d="M193.3132,69.7441a4.003,4.003,0,1,1-1.2369.1969,4.003,4.003,0,0,1,1.2369-.1969m0-1h0a5.0007,5.0007,0,1,0,4.7543,3.456A5.0007,5.0007,0,0,0,193.3132,68.7441Z" fill="#da5d0c"/>
        </g>
        <circle cx="167.5339" cy="82.1211" r="6" transform="translate(-17.1771 55.7901) rotate(-18)" fill="#e2751f"/>
      </g>
      <g>
        <g>
          <line x1="165.6679" y1="105.8302" x2="183.6706" y2="104.9489" fill="none" stroke="#da5d0c" stroke-miterlimit="10"/>
          <circle cx="187.665" cy="104.7395" r="3" transform="translate(-5.2245 9.9652) rotate(-3)" fill="#da5d0c"/>
          <path d="M187.6685,100.7394a4,4,0,0,1,.2059,7.9946q-.1068.0056-.2128.0056a4,4,0,0,1-.2059-7.9946q.1068-.0056.2128-.0056m0-1q-.132,0-.2652.007a5,5,0,0,0,.2582,9.9932q.1318,0,.2651-.007a5,5,0,0,0-.2581-9.9932Z" fill="#da5d0c"/>
        </g>
        <g>
          <line x1="165.6679" y1="105.8302" x2="172.5149" y2="116.3802" fill="none" stroke="#da5d0c" stroke-miterlimit="10"/>
          <circle cx="174.6935" cy="119.7348" r="3" transform="translate(-37.0291 114.4617) rotate(-33)" fill="#da5d0c"/>
          <path d="M174.69,115.7344a4.0007,4.0007,0,1,1-2.1748.6458,4.0007,4.0007,0,0,1,2.1748-.6458m0-1h0a5,5,0,1,0,4.197,2.2773A5,5,0,0,0,174.69,114.7344Z" fill="#da5d0c"/>
        </g>
        <g>
          <line x1="165.6679" y1="105.8302" x2="186.2547" y2="116.3197" fill="none" stroke="#da5d0c" stroke-miterlimit="10"/>
          <circle cx="189.8188" cy="118.1357" r="3" transform="translate(-1.6168 233.633) rotate(-63)" fill="#da5d0c"/>
          <path d="M189.822,114.1348a4.0006,4.0006,0,1,1-3.5672,2.1849,4.0006,4.0006,0,0,1,3.5672-2.1849m0-1h0a5.0029,5.0029,0,1,0,2.2666.5458A5.0029,5.0029,0,0,0,189.822,113.1348Z" fill="#da5d0c"/>
        </g>
        <circle cx="165.6679" cy="105.8302" r="6" transform="translate(-3.8391 205.3955) rotate(-63)" fill="#e2751f"/>
      </g>
      <g>
        <g>
          <line x1="153.3099" y1="64.6591" x2="152.4285" y2="46.6565" fill="none" stroke="#da5d0c" stroke-miterlimit="10"/>
          <circle cx="152.2192" cy="42.662" r="3" transform="translate(-2.0241 8.025) rotate(-3)" fill="#da5d0c"/>
          <path d="M152.2226,38.6619a4,4,0,0,1,.2059,7.9946q-.1068.0056-.2128.0056a4,4,0,0,1-.2059-7.9946q.1068-.0056.2128-.0056m0-1q-.132,0-.2652.007a5,5,0,0,0,.2582,9.9932q.1318,0,.265-.007a5,5,0,0,0-.2581-9.9932Z" fill="#da5d0c"/>
        </g>
        <g>
          <line x1="153.3099" y1="64.6591" x2="163.8599" y2="57.8121" fill="none" stroke="#da5d0c" stroke-miterlimit="10"/>
          <circle cx="167.2146" cy="55.6336" r="3" transform="translate(-3.3236 100.0469) rotate(-33)" fill="#da5d0c"/>
          <path d="M167.2108,51.6331a4.0007,4.0007,0,1,1-2.1748.6458,4.0007,4.0007,0,0,1,2.1748-.6458m0-1h0a5,5,0,1,0,4.197,2.2773A5,5,0,0,0,167.2108,50.6331Z" fill="#da5d0c"/>
        </g>
        <g>
          <line x1="153.3099" y1="64.6591" x2="163.7994" y2="44.0723" fill="none" stroke="#da5d0c" stroke-miterlimit="10"/>
          <circle cx="165.6153" cy="40.5083" r="3" transform="translate(54.3344 169.6822) rotate(-63)" fill="#da5d0c"/>
          <path d="M165.6185,36.5074a4.0006,4.0006,0,1,1-3.5672,2.1849,4.0006,4.0006,0,0,1,3.5672-2.1849m0-1h0a5.0029,5.0029,0,1,0,2.2666.5458A5.0029,5.0029,0,0,0,165.6185,35.5074Z" fill="#da5d0c"/>
        </g>
        <circle cx="153.3098" cy="64.6591" r="6" transform="translate(26.0969 171.9045) rotate(-63)" fill="#e2751f"/>
      </g>
    </g>
    <g>
      <line x1="118.6129" y1="167.0638" x2="123.4738" y2="136.3731" fill="none" stroke="#da5d0c" stroke-miterlimit="10"/>
      <line x1="153.9501" y1="142.588" x2="123.4738" y2="136.3731" fill="none" stroke="#da5d0c" stroke-miterlimit="10"/>
      <line x1="141.9262" y1="161.7707" x2="100" y2="104.0642" fill="none" stroke="#da5d0c" stroke-miterlimit="10"/>
      <circle cx="123.4479" cy="136.3375" r="12.5" transform="translate(-56.5607 98.599) rotate(-36)" fill="#e2751f"/>
      <g>
        <g>
          <line x1="141.7382" y1="161.5119" x2="158.1788" y2="168.8997" fill="none" stroke="#da5d0c" stroke-miterlimit="10"/>
          <circle cx="161.833" cy="170.5266" r="3" transform="translate(-59.7742 249.009) rotate(-66)" fill="#da5d0c"/>
          <path d="M161.8353,166.5256a4.0007,4.0007,0,1,1-3.6564,2.3741,4.0007,4.0007,0,0,1,3.6564-2.3741m0-1h0a5.002,5.002,0,1,0,2.0314.4333A5.002,5.002,0,0,0,161.8353,165.5256Z" fill="#da5d0c"/>
        </g>
        <g>
          <line x1="141.7382" y1="161.5119" x2="143.0493" y2="174.0205" fill="none" stroke="#da5d0c" stroke-miterlimit="10"/>
          <circle cx="143.4674" cy="177.9986" r="3" transform="translate(-17.82 15.9715) rotate(-6)" fill="#da5d0c"/>
          <path d="M143.4723,173.9983a4,4,0,0,1,.4133,7.9784,4.0505,4.0505,0,0,1-.423.0222,4,4,0,0,1-.4133-7.9784,4.0505,4.0505,0,0,1,.423-.0222m0-1a5.0521,5.0521,0,0,0-.5278.0277,4.9959,4.9959,0,1,0,.5278-.0278Z" fill="#da5d0c"/>
        </g>
        <g>
          <line x1="141.7382" y1="161.5119" x2="155.3191" y2="180.2044" fill="none" stroke="#da5d0c" stroke-miterlimit="10"/>
          <circle cx="157.6702" cy="183.4404" r="3" transform="translate(-77.7112 127.7102) rotate(-36)" fill="#da5d0c"/>
          <path d="M157.6669,179.44a4,4,0,1,1-2.3479.7642,4,4,0,0,1,2.3479-.7642m0-1h0a5.0009,5.0009,0,1,0,4.0483,2.0614,5,5,0,0,0-4.0483-2.0614Z" fill="#da5d0c"/>
        </g>
        <circle cx="141.7382" cy="161.5119" r="6" transform="translate(-67.8647 114.1577) rotate(-36)" fill="#e2751f"/>
      </g>
      <g>
        <g>
          <line x1="118.6129" y1="167.0638" x2="125.0143" y2="183.913" fill="none" stroke="#da5d0c" stroke-miterlimit="10"/>
          <circle cx="126.4477" cy="187.6473" r="3" transform="translate(-58.8482 57.7782) rotate(-21)" fill="#da5d0c"/>
          <path d="M126.4469,183.6463a4.0025,4.0025,0,1,1-1.4326.2668,4.0025,4.0025,0,0,1,1.4326-.2668m0-1h0a5.001,5.001,0,1,0,4.6686,3.2092A5.0025,5.0025,0,0,0,126.4469,182.6463Z" fill="#da5d0c"/>
        </g>
        <g>
          <line x1="118.6129" y1="167.0638" x2="110.6951" y2="176.8358" fill="none" stroke="#da5d0c" stroke-miterlimit="10"/>
          <circle cx="108.1778" cy="179.9444" r="3" transform="translate(-99.7438 150.7716) rotate(-51)" fill="#da5d0c"/>
          <path d="M108.18,175.9443a4,4,0,1,1-3.111,1.4828,4,4,0,0,1,3.111-1.4828m0-1h0a5,5,0,1,0,3.144,1.1144A5,5,0,0,0,108.18,174.9443Z" fill="#da5d0c"/>
        </g>
        <g>
          <line x1="118.6129" y1="167.0638" x2="114.9985" y2="189.8845" fill="none" stroke="#da5d0c" stroke-miterlimit="10"/>
          <circle cx="114.3727" cy="193.8352" r="3" transform="translate(-94.9679 276.4773) rotate(-81)" fill="#da5d0c"/>
          <path d="M114.3678,189.8347a4,4,0,1,1-3.9458,3.3748,4,4,0,0,1,3.9458-3.3748m0-1h0a5.0075,5.0075,0,1,0,.787.0621,5,5,0,0,0-.787-.0621Z" fill="#da5d0c"/>
        </g>
        <circle cx="118.6129" cy="167.0639" r="6" transform="translate(-64.9493 258.0819) rotate(-81)" fill="#e2751f"/>
      </g>
      <g>
        <g>
          <line x1="153.9501" y1="142.588" x2="170.7993" y2="136.1867" fill="none" stroke="#da5d0c" stroke-miterlimit="10"/>
          <circle cx="174.5336" cy="134.7532" r="3" transform="translate(-36.6988 71.4975) rotate(-21)" fill="#da5d0c"/>
          <path d="M174.5328,130.7521a4.0025,4.0025,0,1,1-1.4326.2668,4.0025,4.0025,0,0,1,1.4326-.2668m0-1h0a5.0007,5.0007,0,1,0,4.6686,3.2092A5.0007,5.0007,0,0,0,174.5328,129.7521Z" fill="#da5d0c"/>
        </g>
        <g>
          <line x1="153.9501" y1="142.588" x2="163.7221" y2="150.5059" fill="none" stroke="#da5d0c" stroke-miterlimit="10"/>
          <circle cx="166.8307" cy="153.023" r="3" transform="translate(-57.0805 186.3743) rotate(-51)" fill="#da5d0c"/>
          <path d="M166.8331,149.023a4,4,0,1,1-3.111,1.4828,4,4,0,0,1,3.111-1.4828m0-1h0a5,5,0,1,0,3.144,1.1144A5,5,0,0,0,166.8331,148.023Z" fill="#da5d0c"/>
        </g>
        <g>
          <line x1="153.9501" y1="142.588" x2="176.7707" y2="146.2025" fill="none" stroke="#da5d0c" stroke-miterlimit="10"/>
          <circle cx="180.7215" cy="146.8282" r="3" transform="translate(7.4299 302.3557) rotate(-81)" fill="#da5d0c"/>
          <path d="M180.7166,142.8276a4,4,0,1,1-3.9458,3.3748,4,4,0,0,1,3.9458-3.3748m0-1h0a5.0075,5.0075,0,1,0,.787.0621,5,5,0,0,0-.787-.0621Z" fill="#da5d0c"/>
        </g>
        <circle cx="153.95" cy="142.588" r="6" transform="translate(-10.9656 272.337) rotate(-81)" fill="#e2751f"/>
      </g>
    </g>
    <g>
      <line x1="45.8355" y1="141.2341" x2="76.5262" y2="136.3731" fill="none" stroke="#da5d0c" stroke-miterlimit="10"/>
      <line x1="80.0331" y1="167.2783" x2="76.5262" y2="136.3731" fill="none" stroke="#da5d0c" stroke-miterlimit="10"/>
      <line x1="58.0738" y1="161.7707" x2="100" y2="104.0642" fill="none" stroke="#da5d0c" stroke-miterlimit="10"/>
      <circle cx="76.552" cy="136.3374" r="12.5" transform="translate(-78.7434 118.1322) rotate(-54)" fill="#e2751f"/>
      <g>
        <g>
          <line x1="58.2618" y1="161.5119" x2="56.316" y2="179.4308" fill="none" stroke="#da5d0c" stroke-miterlimit="10"/>
          <circle cx="55.8979" cy="183.409" r="3" transform="translate(-132.3492 219.8292) rotate(-84)" fill="#da5d0c"/>
          <path d="M55.893,179.4086a4.0421,4.0421,0,0,1,.423.0222,4,4,0,0,1-.4132,7.9784,4.0421,4.0421,0,0,1-.423-.0222,4,4,0,0,1,.4132-7.9784m0-1h0a5.006,5.006,0,1,0,.5276.0277,5,5,0,0,0-.5276-.0277Z" fill="#da5d0c"/>
        </g>
        <g>
          <line x1="58.2618" y1="161.5119" x2="46.7705" y2="166.6242" fill="none" stroke="#da5d0c" stroke-miterlimit="10"/>
          <circle cx="43.1164" cy="168.2512" r="3" transform="translate(-64.7063 32.0831) rotate(-24)" fill="#da5d0c"/>
          <path d="M43.1141,164.25a4.002,4.002,0,1,1-1.6247.3468,4.002,4.002,0,0,1,1.6247-.3468m0-1h0a5.001,5.001,0,1,0,4.57,2.9673A5.001,5.001,0,0,0,43.1141,163.25Z" fill="#da5d0c"/>
        </g>
        <g>
          <line x1="58.2618" y1="161.5119" x2="44.6809" y2="180.2044" fill="none" stroke="#da5d0c" stroke-miterlimit="10"/>
          <circle cx="42.3297" cy="183.4404" r="3" transform="translate(-130.9575 109.8623) rotate(-54)" fill="#da5d0c"/>
          <path d="M42.3331,179.44a4,4,0,1,1-3.2394,1.6491,4,4,0,0,1,3.2394-1.6491m0-1h0a5.0012,5.0012,0,1,0,2.9355.9552,4.9638,4.9638,0,0,0-2.9354-.9552Z" fill="#da5d0c"/>
        </g>
        <circle cx="58.2618" cy="161.5119" r="6" transform="translate(-106.6495 113.7124) rotate(-54)" fill="#e2751f"/>
      </g>
      <g>
        <g>
          <line x1="45.8355" y1="141.2341" x2="31.7891" y2="152.5288" fill="none" stroke="#da5d0c" stroke-miterlimit="10"/>
          <circle cx="28.6805" cy="155.0461" r="3" transform="translate(-91.1821 52.6019) rotate(-39)" fill="#da5d0c"/>
          <path d="M28.6781,151.0459a4,4,0,1,1-2.5149.8916,4,4,0,0,1,2.5149-.8916m0-1h0a5,5,0,1,0,3.888,1.8535A5,5,0,0,0,28.6781,150.0459Z" fill="#da5d0c"/>
        </g>
        <g>
          <line x1="45.8355" y1="141.2341" x2="34.095" y2="136.7235" fill="none" stroke="#da5d0c" stroke-miterlimit="10"/>
          <circle cx="30.3607" cy="135.2899" r="3" transform="translate(-106.8236 115.1505) rotate(-69)" fill="#da5d0c"/>
          <path d="M30.3615,131.2889a4.0007,4.0007,0,1,1-3.7352,2.5676,4.0007,4.0007,0,0,1,3.7352-2.5676m0-1h0a5.0033,5.0033,0,1,0,1.7909.3332,4.9791,4.9791,0,0,0-1.7907-.3332Z" fill="#da5d0c"/>
        </g>
        <g>
          <line x1="45.8355" y1="141.2341" x2="23.0148" y2="144.8485" fill="none" stroke="#da5d0c" stroke-miterlimit="10"/>
          <circle cx="19.0641" cy="145.4742" r="3" transform="translate(-22.5225 4.7733) rotate(-9)" fill="#da5d0c"/>
          <path d="M19.069,141.4736a4.0035,4.0035,0,1,1-.6306.05,4.0035,4.0035,0,0,1,.6306-.05m0-1h0a5,5,0,1,0,4.9375,4.2213,5.05,5.05,0,0,0-4.9375-4.2213Z" fill="#da5d0c"/>
        </g>
        <circle cx="45.8355" cy="141.2341" r="6" transform="translate(-21.5296 8.9091) rotate(-9)" fill="#e2751f"/>
      </g>
      <g>
        <g>
          <line x1="80.0331" y1="167.2783" x2="91.3279" y2="181.3247" fill="none" stroke="#da5d0c" stroke-miterlimit="10"/>
          <circle cx="93.8452" cy="184.4334" r="3" transform="translate(-95.1539 100.1604) rotate(-39)" fill="#da5d0c"/>
          <path d="M93.8427,180.4331a4,4,0,1,1-2.5148.8915,4,4,0,0,1,2.5148-.8915m0-1h0a5,5,0,1,0,3.888,1.8535A5,5,0,0,0,93.8427,179.4331Z" fill="#da5d0c"/>
        </g>
        <g>
          <line x1="80.0331" y1="167.2783" x2="75.5225" y2="179.0187" fill="none" stroke="#da5d0c" stroke-miterlimit="10"/>
          <circle cx="74.0891" cy="182.753" r="3" transform="translate(-123.0767 186.4283) rotate(-69)" fill="#da5d0c"/>
          <path d="M74.09,178.752a4.0007,4.0007,0,1,1-3.7352,2.5676A4.0007,4.0007,0,0,1,74.09,178.752m0-1h0a5.0029,5.0029,0,1,0,1.7909.3331,4.9791,4.9791,0,0,0-1.7907-.3332Z" fill="#da5d0c"/>
        </g>
        <g>
          <line x1="80.0331" y1="167.2783" x2="83.6476" y2="190.0989" fill="none" stroke="#da5d0c" stroke-miterlimit="10"/>
          <circle cx="84.2733" cy="194.0497" r="3" transform="translate(-29.3185 15.5723) rotate(-9)" fill="#da5d0c"/>
          <path d="M84.2782,190.0491a4.0035,4.0035,0,1,1-.6307.05,4.0035,4.0035,0,0,1,.6307-.05m0-1h0a5,5,0,1,0,4.9374,4.2213,5.05,5.05,0,0,0-4.9374-4.2213Z" fill="#da5d0c"/>
        </g>
        <circle cx="80.0332" cy="167.2783" r="6" transform="translate(-25.1827 14.5794) rotate(-9)" fill="#e2751f"/>
      </g>
    </g>
    <g>
      <line x1="47.9116" y1="64.0368" x2="62.0185" y2="91.7233" fill="none" stroke="#da5d0c" stroke-miterlimit="10"/>
      <line x1="33.7097" y1="104.6088" x2="62.0185" y2="91.7233" fill="none" stroke="#da5d0c" stroke-miterlimit="10"/>
      <line x1="32.1619" y1="82.0223" x2="100" y2="104.0642" fill="none" stroke="#da5d0c" stroke-miterlimit="10"/>
      <circle cx="62.0605" cy="91.7369" r="12.5" transform="translate(-44.3642 122.4117) rotate(-72)" fill="#e2751f"/>
      <g>
        <g>
          <line x1="32.4661" y1="82.1211" x2="14.823" y2="85.8078" fill="none" stroke="#da5d0c" stroke-miterlimit="10"/>
          <circle cx="10.9104" cy="86.6395" r="3" transform="translate(-17.7749 4.1617) rotate(-12)" fill="#da5d0c"/>
          <path d="M10.9144,82.6387a4.0035,4.0035,0,1,1-.8356.0882,4.0035,4.0035,0,0,1,.8356-.0882m0-1h0a5,5,0,1,0,1.0275,9.893L11.95,91.53a5,5,0,0,0-1.0353-9.8913Z" fill="#da5d0c"/>
        </g>
        <g>
          <line x1="32.4661" y1="82.1211" x2="24.053" y2="72.7721" fill="none" stroke="#da5d0c" stroke-miterlimit="10"/>
          <circle cx="21.3765" cy="69.7995" r="3" transform="translate(-41.2143 32.232) rotate(-42)" fill="#da5d0c"/>
          <path d="M21.3752,65.7995A4,4,0,1,1,18.7,66.8269a4,4,0,0,1,2.6752-1.0274m0-1h0a5,5,0,1,0,3.7167,1.6544A5,5,0,0,0,21.3752,64.7994Z" fill="#da5d0c"/>
        </g>
        <g>
          <line x1="32.4661" y1="82.1211" x2="10.4918" y2="74.9812" fill="none" stroke="#da5d0c" stroke-miterlimit="10"/>
          <circle cx="6.6875" cy="73.7451" r="3" transform="translate(-65.5148 57.3168) rotate(-72)" fill="#da5d0c"/>
          <path d="M6.6868,69.7441a4.0007,4.0007,0,1,1-3.8034,2.765,4.0007,4.0007,0,0,1,3.8034-2.765m0-1h0a5.0061,5.0061,0,1,0,1.5457.2458A5.0061,5.0061,0,0,0,6.6868,68.7441Z" fill="#da5d0c"/>
        </g>
        <circle cx="32.4691" cy="82.1183" r="6.0002" transform="translate(-55.6634 87.6249) rotate(-72.0017)" fill="#e2751f"/>
      </g>
      <g>
        <g>
          <line x1="47.9116" y1="64.0368" x2="32.8291" y2="54.1681" fill="none" stroke="#da5d0c" stroke-miterlimit="10"/>
          <circle cx="29.4745" cy="51.9896" r="3" transform="translate(-30.1806 48.3934) rotate(-57)" fill="#da5d0c"/>
          <path d="M29.4781,47.9891A4,4,0,1,1,26.12,49.811a4,4,0,0,1,3.3581-1.8219m0-1h0a5.0012,5.0012,0,1,0,2.7193.8071A5.0012,5.0012,0,0,0,29.4784,46.9891Z" fill="#da5d0c"/>
        </g>
        <g>
          <line x1="47.9116" y1="64.0368" x2="48.5734" y2="51.4771" fill="none" stroke="#da5d0c" stroke-miterlimit="10"/>
          <circle cx="48.7828" cy="47.4826" r="3" transform="translate(-1.1878 93.7135) rotate(-87)" fill="#da5d0c"/>
          <path d="M48.7793,43.4825q.1059,0,.2127.0056a4,4,0,0,1-.2059,7.9946q-.1059,0-.2127-.0056a4,4,0,0,1,.2059-7.9946m.0006-1h0a5,5,0,0,0-.2588,9.9932c.0889.0047.1771.007.2651.007a5,5,0,0,0,.2583-9.9932c-.0887-.0047-.1767-.007-.2645-.007Z" fill="#da5d0c"/>
        </g>
        <g>
          <line x1="47.9116" y1="64.0368" x2="37.4221" y2="43.45" fill="none" stroke="#da5d0c" stroke-miterlimit="10"/>
          <circle cx="35.6061" cy="39.8859" r="3" transform="translate(-14.227 20.5121) rotate(-27)" fill="#da5d0c"/>
          <path d="M35.6029,35.8851a4.0015,4.0015,0,1,1-1.8127.4368,4.0015,4.0015,0,0,1,1.8127-.4368m0-1h0a4.9975,4.9975,0,1,0,4.4558,2.7265,5.0178,5.0178,0,0,0-4.4558-2.7265Z" fill="#da5d0c"/>
        </g>
        <circle cx="47.9116" cy="64.0368" r="6" transform="translate(-23.85 28.731) rotate(-27)" fill="#e2751f"/>
      </g>
      <g>
        <g>
          <line x1="33.7097" y1="104.6088" x2="23.8411" y2="119.6913" fill="none" stroke="#da5d0c" stroke-miterlimit="10"/>
          <circle cx="21.6625" cy="123.046" r="3" transform="translate(-93.3308 74.198) rotate(-57)" fill="#da5d0c"/>
          <path d="M21.6663,119.0455a4,4,0,1,1-3.3584,1.8219,4,4,0,0,1,3.3584-1.8219m0-1h0a5.0007,5.0007,0,1,0,2.7192.8071A5.0007,5.0007,0,0,0,21.6663,118.0455Z" fill="#da5d0c"/>
        </g>
        <g>
          <line x1="33.7097" y1="104.6088" x2="21.15" y2="103.947" fill="none" stroke="#da5d0c" stroke-miterlimit="10"/>
          <circle cx="17.1555" cy="103.7376" r="3" transform="translate(-87.3378 115.4404) rotate(-87)" fill="#da5d0c"/>
          <path d="M17.1521,99.7375c.0706,0,.1414.0018.2128.0056a4,4,0,0,1-.2059,7.9946c-.0706,0-.1414-.0018-.2128-.0056a4,4,0,0,1,.2059-7.9946m.0006-1h0a5,5,0,0,0-.2587,9.9932c.0889.0047.1771.007.2651.007a5,5,0,0,0,.2582-9.9932c-.0887-.0047-.1767-.007-.2645-.007Z" fill="#da5d0c"/>
        </g>
        <g>
          <line x1="33.7097" y1="104.6088" x2="13.1229" y2="115.0983" fill="none" stroke="#da5d0c" stroke-miterlimit="10"/>
          <circle cx="9.5589" cy="116.9142" r="3" transform="translate(-52.0361 17.0825) rotate(-27)" fill="#da5d0c"/>
          <path d="M9.5557,112.9134a4.0015,4.0015,0,1,1-1.8127.4368,4.0015,4.0015,0,0,1,1.8127-.4368m0-1h0a5.0006,5.0006,0,1,0,4.4581,2.7309A5.0006,5.0006,0,0,0,9.5557,111.9134Z" fill="#da5d0c"/>
        </g>
        <circle cx="33.7097" cy="104.6088" r="6" transform="translate(-43.8173 26.7055) rotate(-27)" fill="#e2751f"/>
      </g>
    </g>
    <circle cx="100" cy="104.1588" r="20" fill="#da5d0c"/>
  </g>
</svg>
