<svg xmlns="http://www.w3.org/2000/svg" xmlns:xlink="http://www.w3.org/1999/xlink" viewBox="0 0 190 190">
  <defs>
    <clipPath id="clip-path">
      <circle cx="95" cy="95" r="95" fill="none"/>
    </clipPath>
  </defs>
  <title>illu-countries</title>
  <g style="isolation: isolate">
    <g id="illu-countries">
      <g>
        <circle cx="95" cy="95" r="95" fill="#109290"/>
        <g style="mix-blend-mode: multiply">
          <g clip-path="url(#clip-path)">
            <g id="admin0">
              <path id="FO" d="M75.9168,34.24h.2449l-.147.2449-.4409-.2449Z" fill="#149e9d"/>
              <path id="US" d="M-37.34,41.49l.5389-.7348.4409.49-.6858,1.3716-.6858-.049Zm-31.0574,1.8125-1.1757.6858-.7838.098.6858-.49ZM-52.33,38.7958l1.3226-.4409-1.1267,1.1267-2.3514.6368.098-.4409Zm30.7145,37.5726.098-.49-.2449-.147-.49-1.47-.4409-1.4206-.098-.098-.147-.098-.9307-.3429-1.1757,1.1267-1.1757-.8818-.098-1.0287-1.2247-1.47L-29.2571,70l-.1959.5878-2.89-.049-3.38-1.3716.1959-.2939-2.5473.2449.049-.6858-.7348-.9307L-40.72,66.62l-.3919-3.1351.1959-.8818-.5389-1.3716.2449-1.7145.98-1.1757.4409-1.6655.8328-.8328,2.5963-3.87.2939-1.7145,1.8615.098.6368-1.0777H-7.6541l2.1064.5389.8328.5878L-3,50.4545l-3.0372,1.4206,1.5676-.147-.098.4409L-2.07,51.14l.4409,1.0777,2.4-.2939.2939.3919.3919-.098-.098.1959.3429.49-1.8615-.1959-.147.9307.9307-.5878.8328.5389-.3429,1.3226.4409.49-.147,1.0287-.2449.4409-.1959.147-.098-.147-.3919.3919-.049.049h0l-.6368.6858,1.6655.1959L4.3966,56.97l.3919-.3919-.098-.098v-.147l.049-.049.049-.147,2.3024-.049L8.0216,55.01l.3429-.147.147-.147.6368-.4409.5878-.147h0l3.0861-.098L14.39,52.9529l1.6166-1.8615,1.2247.49-.5389,1.5676.098.147h.196l-.147.4409.2449.098.049.49-1.8615.8818-.2449-.2939L13.0672,56.137l-.8818,1.1267.8328.7838-3.723.8328,1.2736-.049L8.56,59.566l-2.4983,2.89-.2939-1.5676L4.8375,63.73h.49L5.18,65.2974,4.0537,66.5711l-.5878-.049-1.1267.98-3.527,2.2044-.9307,1.5676-.049,1.1757.5389,3.625-.6368,1.91-.7838.098-1.2247-2.89.4409-1.6655-1.1267-1.47-1.0777.5878-1.0287-1.0777-1.5676.2939-1.1757-.1959-2.3513,1.6655-.7348-.8328-.7838.2449-1.8125-.147-3.674,1.91-.4409,2.5963-1.1267-.147Zm-12.1976-27.09-.098.049.049-.049Zm-2.4-10.4341-1.0287.5878-.8818.5878.3919-1.0777,1.5186-.098.098-.2449h-1.4206l-.4409-.9307-2.6943-1.1757-1.1267.147-1.2736-.5389.4409-.3919h-1.8125l-.98,1.1757L-46.5,36.64l-1.47.6368-1.5676.098,2.4983-1.8615-4.7517,2.2044.6368.098-1.9595.98-2.0574.5389-3.1351,1.4206-2.3514.5389L-66.8787,42.96l4.5068-1.7145,1.3226.098.4409-.5389,3.87-1.47,2.2534-1.47-2.3024.5389-.2939-.7348-1.8615.5878,1.2247-1.0777.2939-.6858-1.5186.3429-.4409-.5878-1.7145.5878-.5878-.4409,1.6166-.098,1.7145-.6368-.4409-.7348,4.1149-1.91.5878.2449,2.8412-.7348,1.2736-1.2736-2.3024.5389-2.2534-.1959,1.0287-.7348-1.0777-.3919,4.0659-.98.147.5389,2.4-.1959.4409-.8328L-48.95,28.9l.3919-.49-.8818-.7838,1.0777-.5389,1.5676-.049,2.4-.9307,4.0169-.98,1.47-.049,1.4206-.4409,1.0287.49,1.7635-.049-.3429.3919,2.4493-.049,2.6453.5389,1.1757-.147,1.1267.49-2.7432,2.2534-5.8294,5.1436-2.6943,2.5963,1.2737.2449.1959,1.3226,2.6943-1.0287.2939,1.5676-.2939,2.0574.6858.7838-.5878.6858-.6368.2939-.6858.2939-.3919-.2449.4409-1.1267-.8328-1.0777,1.2736-.5389.049-.8818-1.1267.98Z" fill="#72c5c4"/>
              <path id="FR" d="M90.9067,56.8718l.098.6368-.2939.8818-.6858-1.0287ZM257.02,133.8785l.9308-.049-1.6165,1.7635-1.47-1.6655-.049-.8818,1.47,1.5676ZM14.88,86.7045l.098-.098v.098ZM88.9473,55.5491l-.049.049h-.049l-.049.049-1.1757.7348-2.1064-.5389-.8818.6858.147.6368-.6858.098-.49-.147h-.049l-.2449-.049.049-.147-.2939.049-1.4206-.147-1.7145-.7838.2939-.2449.4409-2.9882L79.003,51.0424l-1.7635-.6368v-.6368l1.47-.3429.4409.4409,1.0287-.2939-.3429-1.1757,1.6165.5389,1.6655-1.0777v-.7838L84,46.83l1.5186,1.2736,1.5676.5389.147.098h.3429l1.7635.5878-.49,1.6166-1.3716,1.2247.147.3429.049-.098h.049l.4409-.049-.049.3429.2449.2449-.3429.9307ZM23.55,102.1353l.2939-.49,1.0287.3919,1.3226,1.2736v.4409l-1.4206,2.2534-1.7635-.1959.6858-1.3716-.49-1.7635Z" fill="#a1d8d8"/>
              <path id="CN" d="M198.432,85.5778l-.8328.98-1.0287-.4409-.147-.8818.98-.9307,1.2737.049ZM154.883,60.0069h0l.147-.098,1.1267-.6368.2939.3919.8328-.7838,1.2247-.098,1.6165-1.3716.147-1.1267-1.5676-2.3024,1.91-.5878-.098-1.9595,1.8125.4409.5878-.2939-.4409-1.6166,1.1267-.7838.147-.049.2449-.049.49.7348,2.7432,1.0777,1.2247,1.2737.5878,1.6166,2.3024.2449,2.4983.9307,1.8125,1.8615,5.2905.2449,2.4493.8818h1.47l1.2247-.6368,2.5473-.1959,1.6165-1.47-.98-.8818v-.7348l1.91.3919.49-.8328,1.0287-.098.2939-1.0287,2.7433-.6858L193.68,50.5035h-.7838l-.049.2449-1.5186.049-.6368-.49-.147-2.0084,1.2737.3919.6368-1.0287.049-2.0574L191.28,44.87l.2939-.5878,1.91-.3429,2.7922.6858,1.47.9307,1.3226,1.2736L201.42,48.642l1.3226.147,2.3024,1.3226.6858.7348,1.3716-.049,1.2247-.7838.8818.7838.3429,1.7145-.049,1.4206-.4409-.2449-.5389.049-.6858.5878.8818.9307.3919,1.7635-2.0574.6368.5389.7348-1.7145-.3429-.049.9307-1.1267.9307-1.2247.49-1.1267,1.0777-.2449-.7838.2939-1.2736-1.3716-.49-.98,1.1267-.098.8818-1.2247.098.8818,1.1757h.7348l1.1757,1.2736.9308-.8818,2.1554.49-1.4206,1.2247-.6858,1.0777v1.0287l1.2736.5389,1.3716,1.9595,1.3226.8818.5878,1.2736-.8818.4409,1.0777.6858.49,2.0084-.49-.049-.2939,1.4206-.7348,1.47.5389.5388-2.4983,2.4493-.3429.7348-1.7635.147-.4409.7348-.8328-1.0287.098,1.1267-1.5186.3919-1.6655,1.0287-.2449.8328-.3919-1.47-1.47-.49-.3919.49-1.4206-.6368-.4409-1.1267-1.3226-.5388-1.2736,1.0287-1.6165-.2939-.2939.4409-.5878.1959.3919,1.3226-.6368-.49-.98.147-.3919-.7348-.8818-.147.196-1.0777-.6858-.147-.4409-1.1267-.98.2939-.1959-1.47.8328-1.0287-.4409-2.0084-1.4206-1.1757-.147.3919-1.5676-1.4206-.7838.3919-.7838-.3429L177.76,74.7028l-.98.1959-1.6165-.7348-1.1267,1.2737-.2449-.8328-.6858.147-1.7145-.2939-.5389.2939L168.55,73.0863l-.5389.098-1.8125-1.4206-1.0777.1959-2.6453-1.4206-.6858-1.4206,1.0777-.2449-.9307-.9307-.147-1.0777-.7348-.2939-.7838-1.0777H159.88l-.6858-.1959-1.0777-1.0287L156.5,63.5829l-.1959-.098.49-.147-.5878-1.6166-.98-.049-.49-1.0777.2449-.147Zm49.8682-.049h0v0Zm-49.8682,0h0v.049h0Z" fill="#a1d8d8"/>
              <path id="PT" d="M74.2023,63.387l-1.5676.1959.2449-1.4206-.6858-.6368.8818-2.4493V57.7045H75.231l.3429.4409-.7348.6858v1.1757h0l-.6858.3429.5878.7838Zm.6368-3.38Zm0,0Z" fill="#149e9d"/>
              <path id="EC" d="M-15.9328,108.9934l1.7145.5878-.2939.2449-1.1267-.7348Zm11.3649,3.772.5878-.8818-1.2247-.3919-.049-1.5186.9307-1.3716-.049-.8328L-3,106.887l1.47.98,1.2247.2449,1.1267.6858L.5267,110.512-.649,111.7856l-1.8125,1.0287-.6858,1.91-1.5676-1.1267Z" fill="#149e9d"/>
              <path id="MV" d="M160.5655,102.2332l-.2449-.098.098-.2449.1959.1959Z" fill="#149e9d"/>
              <path id="GB" d="M26.6364,171.5l-.5389.3429L26,170.7163l2.2044.098-.1959.8818ZM115.9878,66.13l-.049.049-.049-.049h-.098v-.049l-.049-.049.098.049.147-.049h-.098Zm-.147-.049ZM76.26,64.71Zm38.8953,1.8615-.098-.049h-.1959l.098-.049ZM75.1821,42.1758l.98-.2449.5389.7348-.6858.6368L74.3,42.9106Zm5.0456-.5878.3429,1.1267,1.0287.5878.3429,1.1757,1.3226.6858-.98,1.1757.6368.4409-2.4493.6368-2.0084-.049-.3429.49H76.6027l1.2247-1.1757H78.856l-2.0574-.7838,1.0287-.49.049-1.0777.8818-.1959.3429-.9307-.49-.7838H77.0435l.49-.6858-1.0287.1959.147-1.2736L75.476,38.6488l.7348-.3429L76.26,39.58l1.0777-1.4206,1.3716-.049,1.8125-1.4206-2.4,2.2534,2.0084.5389L78.856,41.0491Z" fill="#149e9d"/>
              <path id="GR" d="M107.6111,62.1623l.4409.5878-.9308.3429.6368-.2449Zm1.2247,3.478-.6858.4409-1.4206.098-1.2737-.4409.049-.3919Zm-6.4172-6.4172.098-.098-.147.098-.049-.098v-.049l.049-.049h.098l.7348-.2939.98-.2939,1.5676-.2449.7348.3429,1.0287-.5389.3429.3429-.49.8328-.8818.98.3429-1.1757-1.7635.2449.7348.5878-1.8125.049.8818,1.0777-.5389.49,1.2247.5878.4409.9307-1.1267-.5389-.4409.5389.5878,1.3716-1.5676-.3919-.6368-1.3226-.2449-1.47-1.0777-.8328.5878-.3919Z" fill="#149e9d"/>
              <path id="DK" d="M92.5233,42.3718l-.98-.8328.98-.5389.4409.5878Zm-2.4.147-.5389-.147-.147.049-.5878-1.91,2.0574-1.3716-.049,1.3716.6368,1.6166-.49.3429-.5389-.6368Z" fill="#149e9d"/>
              <path id="GL" d="M39.4709,25.5694l1.1757.147.6368.7348-1.3226.2939-.8818-.49ZM57.253,13.96l4.0169-.147,4.2128.2449,2.5473.4409-.7838.2449-4.8007.147,3.3311.098L64.454,15.38l3.4291-.49-.049.4409-1.3716.4409,2.7922-.5389,2.2044-.147,2.7922.2939-3.0372.8328-2.4983.098-.2939,1.3226-1.0287-.049-.4409.6858.4409.5389,1.47.147-1.6166.2449-.98.6368H67.54l.1959.8328,1.3716.3429-1.6166.7348-1.4206.147.3919.6368-1.3226.1959-1.1757-.3429-1.6656.3429,1.6656.1959,1.2247,2.4493-1.47.147-1.3716-.98-.098.98,2.1554.2939-3.3311,1.47-2.5473.49-2.1064.147L53.775,29.6843l-2.7432.8818-.5878-.147-1.91.9307-.3919,1.1757L46.378,33.7991l-.98,1.8125-1.6166,1.2247-.98-.4409-.2939-.8818-1.8615.147-.7838-2.2534-1.0777-1.3226.4409-.8818-.8328-1.2247,1.47-.8818-1.2737-.147,1.9595-1.6166.98.098.7348-1.1267-1.9595-.7348.4409-1.0777-1.0287.049.196-1.3716.7838-1.5186-1.0287-.6858.1959-.6368L36.7277,19.74l-3.772.2939-1.3226-.8818,1.8125-.6368-1.9595-.3919.5389-.3429,3.527-.4409,1.4206-.049,1.3226-.7838-1.3716-.2449,4.8986-1.0777,4.8986-.49,2.9882.2939-.7348-.3919,3.674.3429L51.3746,14.4l2.0084-.2939,3.8209.049Z" fill="#149e9d"/>
              <path id="PR" d="M12.4794,86.5576l-1.8615.2939v-.6858l1.6166.147Z" fill="#149e9d"/>
              <path id="VI" d="M13.1162,87.0474h.196l-.3919.098.049-.098Z" fill="#149e9d"/>
              <path id="CA" d="M9.7361,54.1285l-.5878.147-.6368.4409-.5878.2449.098.049-3.0372.49-.196.6368-.049.147-.049.049v.147l.098.098L2.29,56.8718l-1.5186.7348-.3429-.2939h0l.049-.049h.5878l-.098-.2449.1959-.147.2449-.4409.7838-.3429,1.2736-1.7145H4.8375l-.49-1.4206-.7348-.2449-.4409.6858-1.4206-.4409,1.7635-.2449L1.3594,52.414l.098-.1959-.3919.098.3429-1.8125-1.0777.2939.098-1.2736-1.8615.098L-3,50.4545l-1.7145-.049-.8328-.5878-2.1064-.5389H-33.5679l-.049-.098-.1959.098h-.049l-.6368-.4409.1959.2449-.1959.8818-1.1757-.1959-.9307-.8328-.8328-1.5676.6858-.3919.7838.3429-.4409-.6858.8328-1.9595-.7348.7838.2939-1.2736-.7348-.049.98-.8818.049-.6858.4409-.3429,1.2247-.98-.6858-.7838.2939-2.0574-.2939-1.5676-2.6943,1.0287-.1959-1.3226-1.2737-.2449,2.6943-2.5963,5.8294-5.1436,2.7432-2.2534,1.6166.049v.49l1.47.1959,2.2044-.7838.4409.2939,3.8209-.8818-1.2247.5878,3.1351-.5878.2449.98,2.4983-.5389,4.36,1.0287,1.2736.147-1.6655.9307,2.7432.049,2.0084-.5389.3919,1.0287,1.0777-1.4206,1.8125-.2449.5878.8818,2.0084.3429,2.6453-.098.196-.5878,2.1554.049-1.1267.8818.5878.147.6858-.7838,1.91-.49-.6858-.1959L8.4135,26.5l-1.1267-.4409,1.0777-1.4206,2.1064-.6858.5878.6368-.49.49.3919,2.0084-.3919.6368,1.8125-.98L11.8425,28.9l1.0287-.2449.147-.7348h.8328l1.4206-.6858.1959-1.0777,2.1554.098.2939,1.0777-1.0287.2939.2449.9307-.5389.49-2.0084.6858-.3429-.6858-.147,1.47-1.0287-1.0287L10.6179,30.811l-1.4206-.6368.196.6368,1.4206.098L9.2463,32.0356l-1.6655.049L6.2091,33.26l-2.1554.6368-.49.5878-1.3716.5389-1.91,1.6655L-.3061,38.061l1.1267-.049-.3429,1.47-.5389.5878,1.6655-.3919,1.6166.49.5878.9307,2.1064.8818,1.9595.1959-.8818,2.0574.9307.6858L6.601,44.6252l.8328,1.91.49.2449,1.8125-1.47-.049-.7348.5878-1.3716-.3429-.5389,1.7145-.5389L10.9608,41l.3919-.49.9307,1.2736,1.2247-.6858.8328-1.5676-.049-.6368-1.0287-.98L15.4186,36.64l-.3919-.8818.98-1.0287.3429-.98,2.4983.49.9307-.3429,1.3716.8818-.2939.2449L22.62,35.71l-1.0777,1.47,1.3226,1.3716,2.3514-1.1267,1.0777-1.3226,1.3226,3.772-.6368.3429,1.0777,1.91,1.91.5389L28.6449,43.4l-1.4206.2939-.3919.5878,2.89-1.0777,1.1267.7348-.147,1.2736-1.6166,1.2247-1.8125.3919-1.5676,1.0287-5.8784-.098L18.5537,48.887l-1.8125.6368-1.2737,1.2247L13.704,51.9731l-1.8125.6368-.147.147L14.5858,51.63l1.91-1.4206,3.0861-1.1757,1.7145.2939-.2449.6368-1.2247.49.2449,2.0084.5388-.5389,1.5186.49.9307,1.2247-2.9392,1.1267-.049-.2939L17.9169,55.99l-.8328-2.1554-.2449-.098.147-.4409-.196-.049-.098-.098.5389-1.5676-1.2247-.49L14.39,52.9529l-1.5676,1.0777-3.0861.098Zm-45.41-6.6622.2939.147.7348.98.098-.8328Zm57.51.6858,1.8615.6858-.4409.3429L22.13,48.838Zm.3429-20.4763-.098.7838-1.7145.3429.8818-1.0777Zm-8.23-7.397.3919.49-.6858.5878-1.4206.147-.4409-.4409ZM4.8865,18.0255l-.8328-.147,2.4-.2939-.3429.6368-1.1267.49-1.5186.147-.3919-.4409Zm18.125,33.36.49-.49.7348.98-.3429.6858.6368.2939-1.4206.6368-.2939-.6858.8818-.9307ZM-38.5645,44.38l-.49-.098.6368-1.0777,1.1757.049ZM6.699,26.4512l-.098.7838-.7838.2939L3.1719,26.941l1.9595-.2939.8328-.5878Zm15.3818-3.527.098-.6858,1.91.049.6858.8328-2.1554.098Zm-6.9561-6.1723.1959.7838,1.2247.3429-1.6655.8328-.5389-.7348Zm-4.0659,1.2736.6368-.9307,1.9595.6368-.4409.6368Zm19.4476,9.9932L32.5148,29.39l-1.2247.4409.049.5878-2.3024.6368-.1959-.9307-1.2737-.5878-.49,1.5186,1.1757.49.2939,1.1267-.7838.7348H26l-.4409-.7838-.3919.5878,1.1267.98-.196.3429-1.9595-.3919-2.1064-1.0287-.6858-1.6166-1.8125.049-1.8125.6858.147-1.0287.9307-.5389,1.6655.2449,1.5186-.2449-.3429-.7348,2.4493-1.2247.049-.9307-2.5473-.49.2449-1.5186L20.0233,27.039l.6858-.98-1.1267.2939-4.0659-.49-1.1757.049-.7348-.4409.098-1.47,1.8125-1.2247,1.5186-.5389h2.2044l-2.1554.8818-.49.8328,2.3514-1.3716,2.6943-.2939.1959,1.2247.5878.1959,1.3716-.49,1.5676.2449,1.0287.9307,1.0287.049.3919.5878,1.47.3429.2939,1.47-1.5676.5389ZM.7716,18.6623l-.7838.7838-2.4.1959-.5388.5389-.98.2939-1.6655-.5389,4.4088-1.1267ZM31.731,50.6995l-.49,1.2247-.6368.1959.049-.98L28.4,51.7282l.4409-.7838L25.51,50.6015l.8818-.8328,2.89-3.2331,1.3226-.2939-.3919.8818-.8328.7838-.049.7838,1.3716-.1959.8818.49-.6858.7838H31.78l-1.0777,1.0287ZM13.1652,33.6522l-1.8125.5878.5878-.7348-.3429-.6368-1.0777.2939.147-1.0287L12.0875,30.37h.6858l.3429.49,2.3024,1.5676-.8818.3919-1.6655-.7348-.8328.5878.3429.8328ZM4.7395,25.4714l-1.6655.98-.3919-.3919-1.2737.2939,1.0777.49L.7226,27.186l-1.9595-.3919-2.4983.4409-3.4291.2449.2449-.7348-1.6655-.098.098-.8328,3.478-.098-.5388-.49-2.6943.147-.3429-.4409,1.0287-.3919-.8818-.2449,2.7432-1.2736,2.5963-.4409,1.7635.6368,1.1757-.2449.7838.8328,1.6655-1.47.8328.5878.049-.6368,1.3716.098L2.927,23.267l-.7838,1.91,1.2737.6368ZM7.4827,22.14l2.0574-.049.2449.5389-.98,1.47-2.2044.5878-.5389-.9307-1.0287-.49Zm4.2128,1.3226-1.7145.49.3429-.7838,1.1267-.98,1.9595-.3919,2.0084.2939L13.2142,23.12l-1.7635.049Zm-24.8851.49,3.772-1.7145V21.65l2.5963-.1959,2.89.4409.3919.5878-2.6943.5878-2.3513.6368-1.1757.7348-2.3513.3919v-.5878ZM9.0993,21.0137l1.0777-.5878-2.1554.147-.5878-.5389L8.12,18.9562l.7348,1.2247,1.9595-.7838,1.8125.2449-1.8125,1.3716Zm-2.7922-.9307-1.2247.8818h-1.91l-3.9679.6368-.6858-.2449,3.2331-.5389-3.772.2449-1.0287-.2449,3.87-1.4206,1.0287,1.1267,1.5676.049V19.789l1.8125-.49-.7838.7348Zm10.924-.6368,1.1267,1.0777,3.478-.2939,2.6453.3429-.2939.5878-2.1064.3919-1.1757-.098-4.7027.049-1.2736-.2449.98-1.0777-.196-.4409-1.7635.147-.196-.7348Zm7.054-2.3024-3.87.9307-2.3024-.098-.4409-.5878,1.6166-.3919-1.91.147-.196-.6858,1.0287-.4409,3.38-.3919L23.1584,16.85Zm.6368,3.1351-.4409-.5878-3.2331.147-3.2821-.2449.6368-.098-.2449-.8818,1.1267.5389,1.5186-.2449-.2939-.49h2.0084l-1.3226-.2939,1.3226-.5878,1.7145-.098-.1959-1.1267H26l4.1149-.2449-.8328-.1959-2.0574.1959h-2.89l-1.6166-.3429.049-.6368L28.4,14.7434l2.3513-.4409,3.9189.049.98-.1959,4.8986.147,1.6655.5389-5.5355,1.0777-2.6453.7838-2.9882.3429-.1959.5389-3.772,1.2247-1.7635.049,1.6655.3429Z" fill="#a1d8d8"/>
              <path id="CL" d="M9.6871,160.0863l.3429,1.2247-.7348-.1959-.196-1.5186Zm.147,2.3024.3919-.4409.3919.7838.147,1.3716ZM10.52,166.65l.3429-.049,1.3716,2.5473-.5389.98V169.1l-.6858-.2939-.5878-1.2737Zm8.4257,5.6334,1.0287,2.4983h0l.049.098-.2449.049,1.91.098-.147.6368-2.2534-.147-.2939-.4409v-.098l-.5388.049-2.0084-1.0287h1.2247l-.1959-1.2737.6368-.6368ZM7.1888,130.9393l.4409-.098.3919-.8818.7348,1.7145.6368.5878-.2449,1.2247.7348,1.0287.5388,1.8615.6858.049.049,1.4206-1.1757.9307.6368,2.5963-.49.2449-.8328,2.7432-.049,2.6453.9307,1.6166.5878,1.6655-.3429,1.1267.2939,1.0777-.5389.5389.2449,1.5186.6368,1.2247-.4409.2939.098,2.0574.7348,1.6165-.049,1.0777.8328,1.0777-.049.98.98.7348-.2939.5389.49,1.1267-.2939,1.47.4409.49-.6858,1.4206.98,1.4206.7838-.098.2939,1.0777.7348.49H17.427l1.5186.3919-.6858-.147-1.1757.6368.2449,1.2247-2.3514-.8328-2.8412-3.38.2449-.147-.5878-1.91-.8818-.8818.4409-.8328-1.2247-.5878.49-.8818.6858.6368-.2939-1.6655.49-.5878-.7348-.3919-.049-2.4493-.6858-.6858-.6858.2939-.49-.9307.147-1.6656L7.9236,154.6l.3429-2.6943.2939-.5389.049-3.38-.7348-2.5473-.1959-1.6166.3429-1.5676.049-2.7432L7.63,136.7687l.2939-2.0574Z" fill="#149e9d"/>
              <path id="CV" d="M56.42,90.0356l.2449.2449v.2449l-.2939-.147Z" fill="#149e9d"/>
              <path id="DM" d="M16.4473,89.6927l.147.2449-.1959.2449-.049-.3429Z" fill="#149e9d"/>
              <path id="SC" d="M131.37,120.0153v.098l-.2449.049.196-.098Z" fill="#149e9d"/>
              <path id="JM" d="M-.2571,86.2147l1.2736.6368-1.6655.098-.3919-.7348Z" fill="#149e9d"/>
              <path id="OM" d="M140.432,77.9849h-.049v-.098h.147Zm-.2939-1.0287.2449-.3919v.9307l-.147-.049Zm-3.527,8.6216,3.0372-1.2247.49-2.4-.5389-.8818.3919-2.6943.5878-.098.9307,1.2736,1.7635.49,1.2247,1.5676-1.9595,3.0372.2449.8818-1.2247.5389-.2449.7838-.9307.098-.3919,1.0287-2.0084.4409-.4409-.7838Z" fill="#149e9d"/>
              <path id="VC" d="M16.4473,92.7789l-.098-.1959.147-.196v.2449Z" fill="#149e9d"/>
              <path id="BD" d="M178.8374,83.0306l-1.1757-2.1064-1.0287.9307-1.3226.147v-.098l-.049-.147-.7838-1.8615.049-.7838-.7838-.4409.8328-.6368-1.0777-.8818.2939-.6858,1.5676.6368.6858.98,1.7635-.049.5389.2939-1.1757,1.6166.5878.8328.4409-.98.7838,2.1554.1959.7838Z" fill="#149e9d"/>
              <path id="LC" d="M16.7412,91.9951l-.098-.196.147-.2939.049.1959Z" fill="#149e9d"/>
              <path id="NO" d="M96.1483,18.0745h.9307l1.47.3429-2.3513.3429Zm9.3564,8.0828-.5389.4409-.6858.3429-.049-.6368-1.0287-.3919-1.3716.3429-.6368,1.1757-1.9595-.1959L98.5,26.6961l-.7348.2449-.3919.6858-1.47-.1959-1.4206,1.1757.2939.3919-1.3716.98.049.8328-.5878.7838.2939.6368-1.0287.049-.49.7348.7348,3.478-.8328,1.2736-.7348-.49-1.7145,1.2736-1.7145.1959-.98-.7348-.49-1.7145.3429-1.4206-.5389-.2939,1.8615-1.2247,1.6655-.5878,1.0777-.98,1.0287-.3919.2449-1.3226,2.2534-2.2044.5878-.2939-2.4493.2939,1.7635-.7838.8818-.098-.049.49.7348-.3919.7838-1.2736,2.8412-.147-.147-.4409,1.3716.147,1.1267-.5878-.2449,1.0777.98-.8818h1.4206l2.1064.6858Zm-16.6554-8.72v-.6858l2.1554.147.3919-.1959,1.47.7348-.3429-.9307,2.7432.8328,1.0287.147-1.6166.3429L93.552,19.5441l-1.8125-.5389-.7348-.7838Zm10.2872-.49-4.1639.147-.7348-.3429.9307-.7348,1.4206.5389,2.89-.147.2939,1.1267Z" fill="#a1d8d8"/>
              <path id="KN" d="M15.3206,87.7332l-.2449-.1959.049-.049.098.098Z" fill="#149e9d"/>
              <path id="BH" d="M134.26,76.76l.147.049v.49l-.147-.2449Z" fill="#149e9d"/>
              <path id="ID" d="M210.0418,120.0153l.7838.9307-.3919.2449-1.1757-1.1267Zm20.1824-1.4206L229,118.8886l.49-.9307.8328-.3429Zm-17.1453-3.3311-.147-.8328.7348-.4409-.3429,1.5676Zm1.2737-4.8007,2.9882.3919-.5388.3429-2.1554-.049ZM197.06,112.08l-1.0777.3429-.5389-.3429-.6368-1.4206.7348-.098.5389,1.6166Zm27.3344,3.38,1.3226.147.4409.4409-.7348,1.0287.049-1.1267Zm-16.9,3.38,1.5676-.098-.6368.6858-1.5675.2939-1.2247-.3429.6368-.7348Zm7.299.98h.147l.3919-.2449v.2939l.098.3429-.7348.7838-1.1267.2449.7838-1.2247.1959.1959ZM208.18,103.6049l-.3429.098.0979-.098Zm24.8361,8.23-.2449,4.5068-.2939,3.38-.98-1.2247-1.1267.2449.2449-.8818-1.1757-2.8412-1.91-.8818-.7838-.049-1.6656-1.1757-.7838.7348-.147-1.5676.49-.49-1.1757-.3919-.2449-.5878-1.47-.8818,2.4493-.6368,1.3716.4409.098,1.7145.8818,1.47,1.0287-.4409.5388-.8818.8328-.1959.7348-.7348,2.1554,1.0777Zm-37.4747.7838-.3919,2.89-1.2247.3429-3.1841-3.2821-.8328-1.2737L189.37,109.63l-1.0287-1.2737-.98.2939.8818,2.1554-.3919-.098-.5878-2.0574.8818-.2939-.6858-2.0574-1.2736-.098.6858,1.2736-.2939.49-.6858-1.0287.5389-1.7635-2.4-2.4-.049-.98,1.0777.5388,1.1757-.049.8818,1.2736,1.6166,1.2247,1.3226,1.5676,1.4206.8328,1.9595.2449-.7348.5878.4409.6368-.4409.8818,1.0777.3919.49,1.5186.8328.147Zm18.9088,6.4172-4.4578.3919.3429-.6858,2.2044.3919.7348-.49,2.3024-.049.98-.6368,1.6655-.147,1.1267-.49-.49,1.2736-.7838-.6368-1.4206.2939Zm-11.4628-.2939-1.7635.098-2.4493-.7838-1.1267.098-1.8615-.49-1.0777-.7348.6368-1.1267,2.4493.4409.2449.6368,2.0084.196.2939-.5878,1.8125.5388.2449-1.2736.147,1.6165.49.7348.7348-.1959.4409.5878,1.2736.2939-.147.5878-1.0287-.049Zm16.9983-6.1723-1.0287.6368-.7348-.147-.5388.2939-.7348-.8328,1.5676.147.5388-.4409,1.6656-.1959,1.1267.4409.2449.6858Zm-7.9848,1.7635.147-.6858-.7348-.6858.2449-.9307-.7348.5878-.147,2.5473-1.1267.049.3429-1.3226-.7838-2.0574.5878-.7838.7838-3.2821.9308-.7838.7838.3919,2.4983.2449,1.2247-1.1267.196.4409-1.0287,1.2247-4.2129-.098-.4409.8818.7348,1.4206h.4409l.6368-1.1267.5878.3429,1.2737-.147-2.0085,1.5676.9308,1.47.3429,1.5676Zm7.4949-6.5152,1.1267.9307-1.5186-.6858-.4409,2.0084.147-1.1267-.3429-1.7635,1.2247-1.7145-.7348,2.2044.6368-.8818Zm-11.7078-4.2128-.147,1.0287.8328,1.2737-.2449.4409,1.2247,1.0287-1.3226.3919-.3429,1.5186-.98,1.1757-.1959,2.3514-1.9595.9307-.3429-1.0287-1.3226-.1959-1.3226.4409-.098-.9307-1.5186.2939-.3429-2.3024-1.0287.6368.6858-.9307-.49-.4409-.2939-1.6165.8328-1.5676v.5878l.98.9307,1.6655-.3429.9308-.5389.6858.4409.9307-.2939.98-1.91.3429-1.6655Z" fill="#72c5c4"/>
              <path id="MU" d="M142.5385,133.0947l-.098.4409-.2939.049.196-.5878Z" fill="#149e9d"/>
              <path id="RU" d="M226.06,51.8262l-.8818,1.47-1.6165.6368,1.4206-.9307ZM119.27,15.1843l-.2939.4409,1.5186.2449-3.2331.5389.1959-.7838Zm65.5929,6.9071,2.6453.3429.3429.3429-2.4-.2939Zm-62.7517-6.8091-.2939.5878,2.8412-.098-4.1149.6368Zm30.8125,2.2044.6368.49-3.478.2449.049-1.0287Zm-39.5321-1.47,2.4-.049-1.91.49-1.2737-.147Zm95.72,41.0017-.3919-1.7635-.8818-.9307.6858-.5878.8818.9307.098-.7348.049-1.4206-.3429-1.7145-.8818-.7838-1.2247.7838-1.3716.049-.6858-.7348-2.3024-1.3226-1.3226-.147L199.0688,46.83l-1.3226-1.2736-1.47-.9307-2.7922-.6858-1.91.3429-.2939.5878,1.2247.7348-.049,2.0574-.6368,1.0287-1.2737-.3919-2.5473-.5389-.6368.8328-1.8615.5389-2.2044-.2449-.98-.7348-2.7922-.6368-1.3226.4409-1.6165-.5878-.5389-.8328-3.625-.9307-.2449,1.3226.7838.5389-.3919.9307-2.7432-.3429-.6368-.6368-1.9595-.3429-3.2331,2.0084-.2449.049-.147.049-.98-.6368-1.2247.049L158.9,46.9275l-1.7145.2939-1.0287-.6368-.3919.5389-3.2821-2.8412-1.6165-.7838-.098-.5878-1.7635.98-.8818-.3919-2.1554-.1959-.9307-1.3716-2.2534.147.049.2449-2.3514.7348-3.625.49,1.3226.8818-1.0777.5389-.147.9307,1.4206.5389.1959.7348-1.4206.2939-1.2737-.5878-1.9595-.049-.5878.6368L130.8307,46.34l-2.5963-.147-1.3716,1.2247v.8818l-1.0287-.7348-.3919.7348v1.6655l.7838.7348.8818.049,1.5676,1.7145-1.3716.7348-.5878,1.3226,1.0777,1.0777.098.8328,1.3716,1.4206-.6368.7348-1.47-.7838-1.7635-1.0287-.8328.2449-1.2247-.7348-2.8412-.2449-1.1267-.9307-2.5473-1.3226.8818-.1959.049-1.3226,1.2737-.6368-1.0287-.098.3919-.8818h.8818l-.147-1.9595-2.6453-1.0777-1.6165.098-.7838-1.0287-.8328-.049-.6368-1.2736-1.8125.2939-.6368-1.0777,1.2247-.49-.98-.4409-1.1757-2.0574-2.5473-.6368-.6368-.7838-.3919-.7838.098-.2939.049-.2449.49.1959-.6368-1.2736.098-.1959.049-.147.098-.049h0l.098-.049-.098-.098-.098-.049,1.4206-.7348-1.8125-.4409,2.4-2.1554.1959-.4409-1.5676-.8818.3919-.2939-1.0287-1.0777V29.9782l-.8818-.7838.5389-.8818-1.2247-.5389.049-.8328.6858-.3429.5389-.4409,4.1639.6368,4.5068,1.5186.4409.9307-1.8615.7838-5.1436-.8818,1.91.8328.7838,1.47,1.5186-.49,2.2534.6858.6368-.2939-.7838-.8328,1.5676-.98,1.8615.6858-.049-.8328-.7348-.5389-.049-1.1267-.8818-.3429,2.1064.147.8818.6368-1.1757.5389.8328.4409,1.47-.098.5389-.7838L119.27,26.6961h1.47l.49,1.1267,2.89-.8818-.5389.7838,1.1757.098.7838-.49,1.1267.098.98-.49.98.6858.5388-.7838-2.3513-.98.147-.3919,1.3716.5389,3.0861.3919,2.6453.6858,1.4206.7348.2449-.8328-2.0084-.4409-.5389-1.3716-.6858-.5389.8328-.5389.049-1.5186.9307-.098,1.7145.7348.049,1.1757.8818.3919,1.4206,2.2534,1.1267.4409-.4409,1.91-1.9595.049,2.5963.3919,1.1757-1.5186-.8818-1.0287,1.3226-.2939,1.8615.7348-.8328-.6858-1.91-.3429-1.0777.1959-.7838-.6858.098-.7838-1.6166-.9307.98-.6368-.7348-.7838,1.0777-.5878,1.9595-2.2534,1.6165,1.6166,1.3226.098v-.4409l2.4-.8818,2.7922-.3919.7838-1.2247.7838,1.1267,2.8412-.5389-.3429-.5389,1.7635-.5389,3.38.8818,4.0659.2939,1.7145,1.0777-2.9392,2.0084,2.8412-.49-.147-.8328.98.049,1.0777,1.0287,1.3716-.2449,2.4.098.8818.4409,3.4291.1959-.3919-.98,1.0287.3429,2.2534.098,1.6166.4409.8328.9307,2.2534,1.1267,1.0777.1959-.3919-1.1267,1.4206.4409,1.5186-.1959,3.2821.147-1.7635-.98,1.1267-.2939,3.1841.2449,1.6165.6858.049-.49,6.5152,1.47,1.8615-.2449,4.1149.2939.49.8818,1.7145.4409,1.7635-.1959,2.7433.1959.2449-.5389,1.1757.7838,1.7635.49.6368-.2939-1.8125-.6858-.098-.3919,2.6453.2939,1.9595-.049.2449-1.6655.2449,1.8125,3.9679.7838,6.1723,4.1149-.7838.4409-1.8125-.2449,2.3024.6858,3.576,1.6655-.049.3429-1.6656-.2449-1.7145,1.1267L227.383,36.15l-2.2044-.1959-.7838.8818-.6368-.7348-.4409.7348-1.3716-.2449.98,1.0777.8818-.1959.049,1.4206.8818.2939.7348,1.0777,1.2247.6858L225.6685,41l1.5676,1.4206-1.0287.7838.6858,1.0777-.49.4409.6858,1.0777-.3919,2.0574-.6368-.098.6858-.8328-5.3885-4.5068-1.8615-2.1554V39.09l.5878-.6858-.049-2.2534.5389-1.0287-1.3716-1.47-.8818.1959.7348.7838-.7838,1.3716L216.655,34.485l-2.2534.147-.2939,1.5676.3429.98-1.5676.7348-1.0777-.6858-1.5186-.3429-1.0287.4409-3.478-.049-1.0777.3429-.098,1.4206-.6858.98.0979.98-.98,1.4206,1.8125.3429,1.9595,1.1267v-.8328l.98.049,2.4493,1.1267,1.8615,3.2331.6368.5389.98,1.91-.2939.7838.196,1.8615-.6368,3.0372L211.56,56.8228l-1.7635-.7348-.3429,1.2247-.098-.147ZM99.4793,42.9106l.5388-.2939-.6858.2939h0l.1959-.49.8328-.4409h.098l.147.3919.098-.3919,1.4206.4409.049.5878-.049.049Zm45.41-26.4037-.5878.098-1.7145.049-.98-1.0287.98.1959,1.6165-.2939,2.0574.4409V16.36l-.98.098,3.0372.147.5389.5878-.6368.3429-2.1064-.1959-1.47-.4409Zm-21.0642,3.576,3.2821-.2939,1.5186-.5878,1.7145.3429-.9308.4409-3.87.9307-2.3513,2.7432,1.1267,1.0287,1.47.5389-1.8125.147L122.356,25.08l-.5389-.49-1.3226-.4409.2449-.9307,1.0777-.5389-.6858-.4409,1.5186-.7348-.6368-.147Zm91.1638,29.4409-1.8125-2.7922-1.1267-.6858-1.5186-1.91.5878-.3429.98.6368,1.2247,1.47,3.527,3.0861-1.0777-.147.9308,2.0574,1.7145,1.3226-1.5676-.098-.8328-1.6166ZM-65.1152,31.1049l6.1723-4.1149,1.5186,1.6166-1.3226,1.1757,1.3716-.6858h1.8125l.1959.98-2.6943.5878-1.1267.6858-1.6655.5878-.98-.7838.5389-.49-1.91-.049.4409-.5878ZM186.92,20.8177l-.5389-1.3226h.5389l.098,1.1267,3.527.2449-1.4206.3429Zm-1.2737.2939-2.7922.1959-3.4781-.6858.8818-.7348,2.1554.4409-.3919-.3919,3.9679.5878Z" fill="#149e9d"/>
              <path id="TT" d="M16.5942,95.4731l-.147.8328-.49-.147-.1959-.5389Z" fill="#149e9d"/>
              <path id="BR" d="M26.9794,109.5322l.5878-.7348,2.1554.196-.49,1.4206-1.8615.4409Zm.147,39.924.2939-.9307-.098-.1959-2.8412-2.1554-.3919.2449L23.06,145.2434l-.7838.098,1.5676-2.3513,1.8615-1.3226-.2939-1.8615-.7348-.049v-.049l-.049-.147.2939-.8818-.098-.7838-1.2247-.098-.3429-1.6166-.8818-.6858H20.7091l.049-1.3716-.4409-.9307.4409-2.4493-.98-1.0777-.147-1.1757-1.8125-.049-.5389-2.9882-1.47-.3429L14.39,124.0322l-1.4206-.2449L11.7935,122.22l-.147-1.8125-1.2247.2939-1.7145,1.3226-1.3716-.049-1.1267.049v-1.91l-.6858.6368-1.0287.049-2.1064-2.9882.8818-1.3716.1959-1.5676,2.2534-1.1757.8818.098.5388-3.723-.7348-1.2247v-.9307l.98-.049-.7348-.49v-.7838l1.8125-.049.8818-.4409.49,1.0777,1.4206.6858,1.5186-1.1267.8328-1.0287-.6858-.049-.147-1.3716-.49-.49,3.3311-.3429.8818-1.1267.8328.147-.147.6858.5878.6858-.5388,1.5186.2939,1.0287.98.8328,1.8615-1.0287.6368.098.5878-.7348,1.4206.2449,1.7635.1959,1.4206-2.2534.6368.1959.4409,2.1064.7838.5878.098,2.0084-1.4206.1959-.147,1.3226.6858.6858,1.5186.147,1.5186-1.6655,1.7635.4409.9307.98.3429-.4409,1.0287,1.7145.3919-.6368,2.2044.7838,1.7635-.049,1.6166,1.0287,1.4206,1.47,1.7145.2449L44.37,117.37l-.49,2.4493-1.6655,1.91-1.4206,2.6453-.6368.3919-.049,1.7145.2939,1.47-.196,2.2044-.49.6368v1.4206l-1.2736,2.5963.147.5389-1.0777,1.2247-2.3514-.049-2.6453,1.6655-.9307.8818-.5878,1.2247.3919,1.91-.1959,1.1267-.98,1.1267-.3429,1.2247-.98-.3429-.098,1.0777-.6368.8328-.147,1.6166-.6858.7838-.147-.098Z" fill="#a1d8d8"/>
              <path id="BS" d="M1.7513,77.789.38,78.6218.1838,79.65l-.3919-.98,1.0777-.49.2939-1.0287ZM2.829,79.3076l.049.8818h0l-.2449-.8818Zm.196,1.2247H2.927l-.049-.3429h0l.147.3429Zm0,0,2.2044.9307-2.1064-.5878-.098-.2939h0Zm-.196-1.2247h0l.7838.049-.7838-.049Z" fill="#149e9d"/>
              <path id="NG" d="M90.8577,102.8211l-2.5473.6368-.6368-.4409-.7838-1.6655-.49-.4409H84.5385l.098-3.2821,1.1267-1.8615-.2449-1.3226.5388-2.1554,1.47-.49,1.5186,1.0777.9307-.4409,1.9595.6368.49-.5389,1.4206-.147,1.1267.3919,1.1757-.7838.49.7348.6858,1.1267-.098.8328-.6368.2449L94.7277,98.51l-.3429,1.47-.5878.8328-.7838-.8328-1.8615,1.5676Z" fill="#149e9d"/>
              <path id="GD" d="M15.9084,94.0035h-.147l.049-.147.147-.049Z" fill="#149e9d"/>
              <path id="AG" d="M16.2023,87.8312l.049.098-.147.049-.049-.098Z" fill="#149e9d"/>
              <path id="BB" d="M18.2108,92.7789l-.098-.049.049-.2939.147.2939Z" fill="#149e9d"/>
              <path id="IT" d="M90.76,60.9376H89.829l.2939-.8328L89.78,58.9782l1.1267-.4409.4409.8818-.1959,1.5676Zm6.0743,2.9392h-.6368l-2.1064-1.2247.2939-.49,1.0777.2449,1.8125-.3429Zm-7.8868-8.3277-.9308-1.6655.3429-.9307,1.0287-.3919,1.7635-.147.4409-.5878,1.5676-.2449,1.5676.6368-.2939.2939.3919.8328-1.4206.2939.2449,1.4206,1.2247.7838.5389,1.1267,1.91,1.3226,2.1064.98.5389.6368-1.47-.49-.49.7348.6858.49-.9307,1.8125.049-1.0287-.5878-1.47-2.0574-1.4206-.6858.049-2.5473-2.3024L91.5925,55.5l-1.47-.6858Zm4.8986,2.2044Zm-.098-2.3513v-.098l-.049.049-.049.049Z" fill="#a1d8d8"/>
              <path id="MT" d="M96.05,64.8566l.2449.098.049.147-.147-.049Z" fill="#149e9d"/>
              <path id="CY" d="M115.8408,66.0812Zm.2449-.049.098.098h-.1959l-.098-.098h.1959Zm-.2449.098Zm-.049,0-.098.1959-.5388.2449-.196-.098-.098.049-.5389-.49.2939-.147h.8818Z" fill="#149e9d"/>
              <path id="KM" d="M128.0385,123.15l-.2449-.1959.049-.3919.098-.098Z" fill="#149e9d"/>
              <path id="SM" d="M93.7479,55.4022H93.65l.049-.049.049-.049Z" fill="#149e9d"/>
              <path id="AM" d="M126.52,59.3211v-.049h.098l-.049.049Zm-.3429-.4409h0l-.049-.049h.049Zm-.147,1.4206-1.1757-.3919-.4409-1.1757.6858-.147.8328-.098.49.7838.5388.7348h-.147l-.049-.049.049.049h.147l.7348.6858.2449.5878-.147-.049-.1959.098-.49-.8328Zm-.049-1.5186v-.049h-.049v.049Z" fill="#149e9d"/>
              <path id="AZ" d="M125.981,58.7822h-.049v-.049h.049Zm.98,1.2247h.098l-.6368-.7348-.49-.7838,1.5186.2939-.2939-.98,1.47.7838.6368-.7348,1.3226,1.4206-.196,2.5963-.9307-.49-.2449-1.0777-1.2737.98-.2449-.5878Zm-.4409-.6858h.049l.049-.049h-.098Zm-.3429-.4409v-.049h-.049Zm-.098,1.5186-.049-.098,1.0777.1959.49.8328-.7348-.1959Zm.7348-.3919h0l-.049-.049Zm0,0Z" fill="#149e9d"/>
              <path id="TJ" d="M151.258,58.88h-.049l-.098-.049h.049Zm-.2449-.049.7838.9307-.098.098-.147.098h0l-.049.049h-.049v-.049h-1.1757l.147.5878,2.1064-.147.9307.5389,1.2737-.3429.49,1.0777.98.049.5878,1.6166-1.7145-.2939-1.1757.9307-.6368-1.47-1.1757-.5389-.1959.98-.7348.5389-1.5186-.098.2939-1.2736-.5389-.9307-.7838-.2939,1.1267-.9307h0l.098.147h0l-.049-.147h.147l.098-.8818Z" fill="#149e9d"/>
              <path id="GA" d="M93.601,113.4511l-2.0084-2.5473-.5878-1.5186.5878-.2449.098-1.2247.49-.49h1.6656l-.049-1.4206.049-.147,2.1064.147-.049,1.1757,1.0777-.147.1959.49-.6368,1.3716.6858.49-.4409,2.3024-1.7635-.7348v.5388h-.9307l.2939,1.6655Z" fill="#149e9d"/>
              <path id="UZ" d="M152.7276,60.0559h-.049l-.049-.049.098-.049Zm-.5878-.098.049.098-.1959.049-.147-.2449ZM138.0807,57.46l-.2939-.1959-.1959.49.147.7838-1.0287-.098-1.1757-4.3108,2.3514-.7348-.147.8328.2939-.7348.7838.3919-.098.5389.8818.6368-.098-.7348,2.4,1.5676,2.7432-.2449,1.1267.98,1.47,1.9595h1.2736l.8328.7348.147-.9307,1.5676-1.0287-.5389.7838,1.4206.5389.196-.3919,1.6165.7838-1.2247.7838-.7348-.098-.7838-.9307-1.47,1.6655-.9307.3919.7838.2939.5389.9307-.2939,1.2736h-.5389l-.7838-.1959-.147-.8328-1.0287-.2449-3.674-2.1064-.7838-1.1757-1.9595-.4409-.5389-1.0777-1.4206-.5878ZM151.258,58.88l-.098-.049h-.049l.098.049Zm-1.4206,1.2247Z" fill="#149e9d"/>
              <path id="LS" d="M109.5705,144.6555l1.7635-1.2737.7348.9307-1.5186,1.6166Z" fill="#149e9d"/>
              <path id="IN" d="M174.4776,79.8954l.8328,2.0574v.049h0l-1.91.4409-.049,1.0777-.5389.8328-.98.098L170.6077,86.46l-1.5186,1.2736-.098.7838-2.0574,1.0287-.147.8328.49,2.0574-.3919,1.6166.147,2.1064-.49-.049-.3919,1.2737-.7838.3919-.7348,1.0777-1.0777-1.0287-1.2737-3.38-.8328-1.4206-.6858-2.0574-1.1267-1.8615L158.3121,84.5l.196-.8328-.8328-2.2044-.098,1.4206-1.1267.5878-1.0287-.5388-1.3226-1.3716,1.2736-.3429-1.7145-.7348-.5878-.8328.6368-.4409,1.2247.049,1.0287-.6368-1.2247-2.2044-.7838-.3429.7838-1.5186.4409.3919,1.0287-.2939.8328-1.2736.2939-1.1267.8818-1.4206-.1959-.7348.7348-.5389-1.6166-1.2247-.5878-1.47.4409-.49,1.5676.3429,1.0777-.7348.6368-.49.7838,1.0777.7348.2939.147,1.0777.9307.9307-1.0777.2449.6858,1.4206,2.6453,1.4206-.5389.49-.098,1.1267,3.1351,1.6655,1.91.1959,1.5186.9307,1.5676.2449.8328-.4409-.3429-1.4206.6858-.147.2449.8328,1.1267.7348,2.3024-.2939-.6858-.98.98-.1959,1.6655-1.7145.7838.3429.7838-.3919L182.56,74.36l-.3919,1.0287L180.65,76.4664l.147.8818L180.258,79.65l-.8818-.1959.147,1.9595-.5389.5389-.7838-2.1554-.4409.98-.5878-.8328,1.1757-1.6166-.5389-.2939-1.7635.049-.6858-.98-1.5676-.6368-.2939.6858,1.0777.8818-.8328.6368.7838.4409Z" fill="#149e9d"/>
              <path id="KG" d="M154.883,59.9579v.049h0l.098.4409-.2449.147-1.2737.3429-.9307-.5389-2.1064.147-.147-.5878,1.5186-.1959.7348.098,1.2247-.7838-1.6165-.7838-.196.3919-1.4206-.5389.5389-.7838.6368-.6858,1.8125.49.2939-.98,1.1267.49,3.1841-.049,2.0084.7838-1.6165,1.3716-1.2247.098-.8328.7838-.2939-.3919-1.2737.7348h0Zm-2.1554.098v-.098l-.098.049.049.049Zm-.5878-.098-.2939-.098.147.2449.1959-.049Z" fill="#149e9d"/>
              <path id="ES" d="M74.8391,60.0069h0V58.8312l.7348-.6858-.3429-.4409H73.0756l-.3919-1.4206,1.3226-.6858.5878.1959,5.34.2449,1.7145.7838,1.4206.147.098.1959.147-.098.2449.049h0l.049-.049v.049h0l.49.147.6858-.098.049.5389-1.1267.7838-1.0777.2939-1.2736,1.7635.5388.8818-.7348.5389-.1959.8818-.98.3429-.3919.7348-2.4.049L76.26,64.71h0l-.7838-.2449-.3429-.7838-.9307-.2939.5389-2.2534-.5878-.7838.6858-.3429Zm1.3716,4.9476.098.049-.049.049v-.049Zm2.4983.8328-.049-.098h0l.049.049Zm-12.1,8.72.7838-1.1757-.196.98-.5878.1959Zm-.049,0h0Zm0,0-.8328.2939L63.67,74.5069l1.3226-.5878.7348.6858Z" fill="#a1d8d8"/>
              <path id="MA" d="M78.7091,65.7873v-.049l.049.1959.6368.049.49.4409.049,1.8125.6368.8818-.1959.5389-1.2737-.049-1.1757.5878v1.1267l-2.2044,1.3226-1.91.2939-1.1267.8328-.049,1.2247-.098.6858-.98.2939H69.7935l-.6858,1.0287-.4409,1.47-1.7145,1.7145-.2449,1.3226L66.0216,82.59H63.7682l1.5186-3.1351.7838-.8328.49-1.7635.9307-.6368.7348-1.5186,1.5186-.49.98-.8328,1.0287-1.7145L71.5571,70.49l.6368-1.4206.7838-.8328,1.7635-.98.9307-2.1064.5389-.1959.049.049v.049l.98.8818,1.4206-.2449h0Z" fill="#149e9d"/>
              <path id="CO" d="M-3,106.887l.147-.8818.8818-.5388.7838-1.3716-.2449-2.2534.196-1.1757-.5389-.8328L-.9429,99l-.1959-.8818.4409.147,1.47-1.1267.196-1.3716,1.5676-.9307.8818.098,1.9595-1.4206.147.7348-.6858.2449-1.1267,1.47-.147,1.3716.5878,1.2247.2449,1.47,2.1064.147.7348,1.0287,2.0574-.098-.4409,2.0574.5878,1.3226-.5878.6368.6858.6368.2939,1.4206-.49-1.0777-.8818.4409-1.8125.049v.7838l.7348.49-.98.049v.9307l.7348,1.2247-.5388,3.723-.8328-.5389.6858-1.3226-.9307-.5878-1.5676.2939-.8818-.2939-.49-1.1757L.8206,108.7974l-1.1267-.6858-1.2247-.2449Z" fill="#149e9d"/>
              <path id="TZ" d="M118.976,122.71v-.098l-.049-.098h0l-.147-.049v-.098h0l-.049-.049-.1959-1.5676-.1959-.2939-.098-.098h0l-.049-.049-.049-.098h-.049l-.147.049v.1959l-.5389-.147-.5388-.1959-.98-.4409-.8818-.5878-1.2247-3.2331-.2939-1.7635,1.2247-1.47-.2449-1.0287.2939-.98-.3919-.6368.3919-.098h1.0287v.049l.049-.049h0l-.1959,1.6655,1.6655.147.6858-.3429-.2939-.6368.5389-.7838,3.8209,2.4493.147.7348,1.47,1.2247.7348.6858-.5878.5878.2449.8328-.2939,2.7922.4409,1.3716.6368.7838-3.1841,1.5186Z" fill="#149e9d"/>
              <path id="AR" d="M19.9743,174.7822l.147.098h-.098Zm0,0-1.0287-2.4983,1.5676,1.47,3.0861,1.1757-1.5676.147Zm2.3024-29.4409-.2449,2.1064.098.6368.049,2.2534,1.7635,1.4206-.1959.5389.98,1.2247-.5878,1.5676-1.3226.6858-3.0861.6368.2939.147.1959,1.7635-1.3716.3429-1.1757-.5389.2449,1.47.6368.5389.6368-.3919.4409.7838L18.26,161.6049l.196,1.7635-.5389-.1959-.8818,1.47,1.1267,1.0287.7838.049.3919,1.1757L18.26,168.0711l.098,1.1267-.7348.3919v.7838l1.3226,1.5676-1.5186-.3919H15.6145l-.7348-.49-.2939-1.0777-.7838.098-.98-1.4206.6858-1.4206-.4409-.49.2939-1.47-.49-1.1267.2939-.5389-.98-.7348.049-.98-.8328-1.0777.049-1.0777-.7348-1.6165-.098-2.0574.4409-.2939-.6368-1.2247-.2449-1.5186.5389-.5389-.2939-1.0777.3429-1.1267-.5878-1.6655-.9307-1.6166.049-2.6453.8328-2.7432.49-.2449-.6368-2.5963,1.1757-.9307-.049-1.4206.8818-1.2737,1.8125.49.3429.8328.2939-1.0777,1.3716.2939,1.9595,1.91,1.0287.2449,2.7922,1.7635-.8328,2.2534,2.9882.147.8818-.98.049-1.2737.7348.049.2939,1.8615L23.8442,142.99ZM10.7158,157.294Z" fill="#72c5c4"/>
              <path id="SA" d="M131.81,73.9681l.6368,1.1267,1.4206,1.1267.098,1.1267.8328,1.2247.196.196.2449-.049.098.147.049-.147h.049l-.098.3919.2939.049,1.1757,1.6166,2.7922.2939.5389.8818-.49,2.4-3.0372,1.2247-2.9882.4409-.98.5878-.6858,1.2736-2.4493-.4409-2.1064.147-.3429,1.1757-.5878-1.3226-1.2247-1.5186-.3429-.98-1.47-1.1757-.6368-1.0287-.098-1.5186-.7348-1.47-1.0287-.5878-.3919-1.1267-2.5473-3.576h-.49l.2449-1.5186,1.1757.1959,1.8125-1.5676-1.1757-1.1757,2.1554-.7838,1.3716.2449,1.8125,1.0287,2.9392,2.2534,1.91.147.98.098Z" fill="#149e9d"/>
              <path id="QA" d="M135.3864,78.72l-.049-.049-.098.049-.2449.049-.196-.196-.147-.9307.7838-.4409V78.72Z" fill="#149e9d"/>
              <path id="NL" d="M14.9777,86.7045h0ZM84.7344,46.4866h.8328l-.3919.1959Zm.8818,0-.3919-.2939.8818-1.8615.6858-.2939,1.4206.2449-.098,1.1757-.5878.49-.2939,1.2736L86.302,46.34Z" fill="#149e9d"/>
              <path id="YE" d="M136.6111,85.5778l.9307,2.0574.4409.7838-.5878.2449-.2449.98-2.7432,1.0777-.8818.8328H132.79l-1.3716.7838-.9307.049-1.9595.9307-.7838-.7348-.6858-2.8412v-.98l.3429-1.1757,2.1064-.147,2.4493.4409.6858-1.2736.98-.5878Z" fill="#149e9d"/>
              <path id="AE" d="M140.3831,77.4951l.098.098.098.6858-.5878.098-.3919,2.6943-2.7922-.2939-1.1757-1.6166,2.6943.147,1.8125-2.3514.098.49Zm.049.49.098-.098h-.147v.098Z" fill="#149e9d"/>
              <path id="KE" d="M123.6787,114.3329l-1.47-1.2247-.147-.7348-3.8209-2.4493.1959-.98-.2449-.5878,1.0287-1.7145-.049-.98-1.0777-2.1554,1.5676-.98.5389.49.98.2449,1.3716.98,1.5676.2939,1.2737-1.0777,1.2247.3429-.98,1.4206.049,4.5068.5878.98-1.47,1.3226Z" fill="#149e9d"/>
              <path id="TR" d="M107.3662,59.1741l.49-.8328-.3429-.3429.6368-.4409.98.147,1.1757.8328-1.5186.2939-.7838.6368,2.4493.049-.049-.98,2.0084.1959,1.8615-1.1267,2.6453.3429,1.6656.8328,2.6453.147,1.2247-.6858,1.2247-.098.7348.5878.4409,1.1757,1.1757.3919.049.098-.7348.2939.5389,1.7145.6858,1.0287-2.1064-.2449-.2939.2939-.1959-.2449-2.3514.6858-3.1351-.098-.5878,1.1267L117.8,63.73l-1.4206.1959-1.6656.8818-.8328-.6368-1.3716-.3919-.2449.7838-.6858.147L110.06,63.5829l-1.1267-.3919-.049-.7838-1.0287-.3429.7348-.7838-1.47-1.47,1.0287-.49Z" fill="#149e9d"/>
              <path id="MY" d="M208.18,103.6049h-.2449l.049-.049-.196.049-1.8615-.2939-.3429,1.6655-.98,1.91-.9307.2939-.6858-.4409-.9308.5389-1.6655.3429-.98-.9307v-.5878l1.47.6368.2939-1.47,1.8125-.4409.98-1.7635.6368.6858.3919-1.0287.049-.049v.098l.3919.6368-.2449-.7348,1.9595-2.7432.196.6368,2.2044,1.7635-1.1757.3919.49.6368-.7838.147Zm-19.2027-2.7922,1.0287.2449.098.7348.98-.7348,1.5676,1.7635.049,2.2534.9308,1.91-.98-.1959-1.6166-1.0287-1.3226-1.8125Z" fill="#149e9d"/>
              <path id="VN" d="M188.9286,81.414l.2939-.4409,1.6165.2939,1.2736-1.0287,1.3226.5388.4409,1.1267,1.4206.6368-1.7635,1.8125-.2449,1.2247,1.3226,1.8125,2.6453,2.5473,1.1267,3.0372-.2939,1.8615-1.7635,1.1757-.49-.2449-.2939,1.2736-1.7145.7348-.147-1.5186-.3919-.2939,1.3226-.6858,1.7635-1.6166-.3429-2.89.049-.6858-1.47-2.1064-2.2534-2.1554-1.0287-.6368,1.0287-.9307L191.28,83.1775l-.98.098-.2939-.8328Z" fill="#149e9d"/>
              <path id="IR" d="M130.39,61.8684l.3429.8328,3.1351,1.4206,2.0574-.2939-.1959-.6368,1.3226-.9307,1.7145-.1959,1.7635.6858,1.8125,1.3226.8818.098.2939,1.1757-.049,3.1351.5878,1.8615.9307.147.2449.6368-.7838,1.2247,1.3226,1.6166.9307.3429.6368,1.9595-1.2247.49-.098,1.2737-1.8125-.196-2.7432-.5388-.7348-1.6655-2.0084.7838-1.1267-.2449-1.47-1.1267-1.1267-.3429L133.28,71.96l-1.2247-.2449-.3429.49L130.6347,70.98l.049-.9307-.5389-.7838-1.2736-.6858-1.0777-1.2247.6368-2.2534-1.0777-.2449-.7838-1.4206-.6858-1.0287-.5389-1.7145.7348-.2939.7838.7348.7348.1959.1959-.098.147.049,1.2737-.98.2449,1.0777Z" fill="#149e9d"/>
              <path id="HT" d="M5.6213,86.1657h-.049v-.049h0Zm-.098-.147v.147h.098l.1959.2449-.147.2939L5.4253,86.46l-2.0574.098L3.27,85.97l1.47.2449.098-1.1757-.6858-.4409,1.7635.098-.049,1.1267Z" fill="#149e9d"/>
              <path id="DO" d="M5.5723,86.1167l-.049-.098.3429-.1959.049-1.1267.8328-.2939,1.0777.3429.2939.6858,1.2737.5389-.6368.2939H6.8949l-.8818.98L5.67,86.7045l.147-.2939-.1959-.2449h0Z" fill="#149e9d"/>
              <path id="GW" d="M65.63,95.3262l-.98-.7838-.8328-.8818,1.6655-.4409,1.5186.049v1.1267l-1.0287.2939Z" fill="#149e9d"/>
              <path id="HR" d="M99.7243,57.1657l-.6858-.49-.1959-.049.2449.049.5878.2939v.098Zm-4.9966-3.723,1.6655.049.1959-.8818.8328-.3429.8328.6368h1.5186l.196.98v.3919l-.3429-.3429-2.7922-.147-.049.5878,2.0084,2.1554-.9307-.1959-1.5676-1.2737-.8818-1.47.1959.98Z" fill="#149e9d"/>
              <path id="TH" d="M191.0841,101.0576l-.98.7348-.098-.7348-1.0287-.2449-1.4206-1.9595-.7838-.5878.4409-2.2044.7838-1.7635-.6858-1.5186-.049-.7838-1.1267-1.3226.4409-1.6655-1.8615-2.8412.3919-1.5676.5388.147,1.5676-.7838.5389.9307h.8327l.196,2.5473.8818-.9307.98.2449,1.0287-.3919,1.0777,1.1757.049,1.0287,1.0287.98-.2449,1.6655-2.2044.049-.6858.8818.8327,2.3514-1.2736-1.2247-.8818.049-.147-1.0287-1.0287.2449.196,1.2737-.6858,2.9882.8328.6368.6858,2.1064Z" fill="#149e9d"/>
              <path id="EE" d="M105.7986,37.1792l.098.049.098.098-.049.049h-.147l-.049.1959-.098.1959-.6368.1959.7838.8818-.049.2449-.098.2939-1.91-.5878-.8328.1959L100.753,37.816l2.9882-.8328Z" fill="#149e9d"/>
              <path id="CD" d="M113,112.7164l-.147,2.1064.4409,1.9595,1.0777,1.8615-1.7635.3429-.6368.7348.1959.3429.1959.49-.4409,2.0084.7348,1.1267.7838-.2449-.049,1.5186-.6368.049-.8818-1.2247-.7348-.1959-.4409-.8818-.5389.5388-1.4206-.4409-.049-.5389-1.0777.2449-.3429-.6368-1.8615.4409-.049-1.5676-.3919-.6368.049-2.5963-2.4493-.3429-.1959,1.2247-1.8615.098-.6368-.98-.3919-1.6655-3.674-.098-.8328.2449-.1959-.3429.2449-.8328.6858-.5388.3429.2939,1.0287-.7348.49.6858,1.5186-1.8615v-1.4206l1.6166-1.9595.3429-3.2821.5878-1.5676-.098-1.0287,1.2737-.98.9307.8328,2.0574.2939.4409-.7838.5878.1959,2.2534-.8328,2.0084.3429.98.98,1.5676-.3429,1.1267,1.2736-.147,1.2737.6368.3429-.8328.8328-.049.2939-.5389.5389-.2939,1.0777-.3919.6368.3429-.147-.098.5388.049.5878-.2449.147-.147.196-.3429.3429-.049.6368v.1959l.147.098.2449.3919Z" fill="#149e9d"/>
              <path id="KW" d="M131.81,73.9681l-1.0777-.5878-.98-.098.49-1.0777h.8818l.2449.7838Z" fill="#149e9d"/>
              <path id="DE" d="M89.4371,42.4208l.147-.049.5389.147,1.91,1.0287,1.5186-.8818.98.8328-.049.049h.049l-.3429.049.3919.1959.49,1.2736.2939,2.0084-2.0574.5389-.098.7838L94.63,49.5728l-.9307.7348.049.5389-1.6655.3429-1.2247-.1959-.6368-.2939.147.147-.6858.098h-.8328l.49-1.6166L87.5756,48.74l.147-.3919-.3429-.3919.1959-.2449-.3429-.49.2939-1.2736.5878-.49.098-1.1757.098-.5389,1.47-.1959Zm.9307,8.4257v.049h0Z" fill="#149e9d"/>
              <path id="CZ" d="M94.63,49.5728l-1.4206-1.1757.098-.7838,2.0574-.5389,1.5186.3429,2.1064.7838.2939.49-.6368.49-1.0287.5878-1.91-.4409Z" fill="#149e9d"/>
              <path id="IE" d="M75.1821,42.1758l-.8818.7348,1.7145.3919.196,1.3226-.3919.9307-.98.049-2.2534.7838-.49-.49,1.3716-1.6166-.6368.049-.1959-1.2736,1.2247.098.3919-1.0777Z" fill="#a1d8d8"/>
              <path id="MM" d="M178.8374,83.0306l.3429-.2939-.1959-.7838.5389-.5389-.147-1.9595.8818.1959.5389-2.3024-.147-.8818,1.5186-1.0777L182.56,74.36l.147-.3919,1.4206,1.1757.4409,2.0084-.8328,1.0287.1959,1.47.98-.2939.4409,1.1267.6858.147-.196,1.0777.8818.147.3919.7348.98-.147-.3919.2939-.49,1.2247-1.5676.7838-.5388-.147-.3919,1.5676,1.8615,2.8412-.4409,1.6655,1.1267,1.3226.049.7838.6858,1.5186-.7838,1.7635-.49-3.4291-.7838-.8328-.6368-2.9392-.5878-.8818-1.7145,1.5676-1.3226-.3919.196-1.8125-.6858-1.5676-.7838-.6368Z" fill="#149e9d"/>
              <path id="GQ" d="M92.18,107.4258l-.49-.196.49-1.4206.196.1959h1.4206l.049,1.4206Z" fill="#149e9d"/>
              <path id="UG" d="M115.8408,109.8751v0Zm-.049,0h-1.0287l-.3919.098-.5389.49-.3919-.098-.049-.5878.098-.5388.2939-.3919-.2449-.098.2939-1.0777.5389-.5389,1.0287-.7838-.147-.3429-.6368-.3429.147-1.2737,1.0287-.3919.3919.3919,1.4206-.2939.49-.5878,1.0777,2.1554.049.98-1.0287,1.7145-.8328-.049-1.4206.49Z" fill="#a1d8d8"/>
              <path id="KZ" d="M137.8847,53.3937l-2.3514.7348,1.1757,4.3108-.4409.098-1.6165-1.2737-1.5676.6858V56.7738l-.7838-.098L130.1939,54.52l.8328-.8818,1.0777-.098.3429-.6858-.2939-1.0777-1.8125-.2449-1.6656.9307-1.5676-1.7145-.8818-.049-.7838-.7348V48.2991l.3919-.7348,1.0287.7348v-.8818l1.3716-1.2247,2.5963.147,2.4983,1.1267.5878-.6368,1.9595.049,1.2737.5878,1.4206-.2939-.1959-.7348-1.4206-.5389.147-.9307,1.0777-.5389-1.3226-.8818,3.625-.49,2.3514-.7348-.049-.2449,2.2534-.147.9307,1.3716,2.1554.1959.8818.3919,1.7635-.98.098.5878,1.6165.7838,3.2821,2.8412.3919-.5389,1.0287.6368,1.7145-.2939,2.4983,1.6655,1.2247-.049.98.6368-1.1267.7838.4409,1.6166-.5878.2939-1.8125-.4409.098,1.9595-1.91.5878,1.5676,2.3024-.147,1.1267-2.0084-.7838-3.1841.049-1.1267-.49-.2939.98-1.8125-.49-.6368.6858L149.4945,58.39l-.147.9307-.8328-.7348h-1.2736l-1.47-1.9595-1.1267-.98-2.7432.2449-2.4-1.5676-.5389-1.3716-.5878.2449-.098-.147-.098.1959Z" fill="#72c5c4"/>
              <path id="MR" d="M72.6347,75.4866,75.9168,77.74l.6858.5389H74.79l1.0287,11.5118-5.5355.098-1.0777-.147-.5878.9307-2.1554-2.2534-2.1554.2449-.1959.7838.5878-2.6453-.49-1.7145.3919-1.0287-.7348-1.1267-.1959.49.147-.6858H67.981V80.6792l1.0777-.5389.098-3.0861h3.4291Z" fill="#149e9d"/>
              <path id="DZ" d="M76.6027,78.2789l-.6858-.5389-3.2821-2.2534v-.49l.049-1.2247,1.1267-.8328,1.91-.2939,2.2044-1.3226V70.1961l1.1757-.5878,1.2737.049.1959-.5389-.6368-.8818-.049-1.8125-.49-.4409,3.3311-1.7145,1.8615-.3919,1.8615-.147.49.3429,2.1554-.5389,1.2247.147-.2939,2.8412-.7348.9307.8818,1.6655.7348.5389.5878,2.2534.3429,1.3226.049,3.1841-.4409.49.6858,1.5186,1.6165.6858.4409.9307-4.6537,3.2331L87.7716,84.99l-1.6655.3919H84.93l.147-.7838-1.4206-.5389-.7838-1.0777Z" fill="#149e9d"/>
              <path id="PE" d="M7.9726,127.51l-.6858.4409,1.0287.4409.049-.049.098.049-.098.2939.049.098-.5878.8818.1959.2939-.3919.8818-.4409.098-1.2737-1.2737-4.1639-2.3514L.4287,125.7957v-.8818l-1.6655-2.5473-1.6655-3.723-1.1267-1.7145-1.2247-.8818-.2449-2.2534.9307-1.0287-.147.8328,1.5676,1.1267.6858-1.91,1.8125-1.0287L.5267,110.512l.2939-1.7145,1.7635,1.3716.49,1.1757.8818.2939,1.5676-.2939.9307.5878-.6858,1.3226.8328.5389-.8818-.098-2.2534,1.1757L3.27,116.4393l-.8818,1.3716,2.1064,2.9882,1.0287-.049.6858-.6368v1.91l1.1267-.049,1.0777,1.8615-.3429,1.4206.2939.6368Z" fill="#72c5c4"/>
              <path id="AO" d="M94.7766,115.6555v-.3429l-.2449-.5388.8328-.7838.3429.2939-.6858.5388ZM94.14,129.6167v-1.7635l.5878-1.2737.2449-1.6166,1.2247-1.4206.1959-1.91-.8328-1.91.4409-.9307-1.1757-2.6943.98-.3429,3.674.098.3919,1.6655.6368.98,1.8615-.098.1959-1.2247,2.4493.3429-.049,2.5963.3919.6368.049,1.5676,1.8615-.4409v2.5963h-2.1554l-.098,3.8209,1.4206,1.8125-2.7432.49-2.1554-.3429-.3429-.4409H96.4422l-.8328-.5389Z" fill="#a1d8d8"/>
              <path id="MZ" d="M118.78,125.0609l-.098-1.5676.2939-.7838,2.6943.1959,3.1841-1.5186.2449,5.2416-1.0777,1.9595L120.9354,130.4l-2.4493,2.4-.2939.6858.7838,2.0574-.5878,3.0372-2.4,1.1267-.4409.49.3429,1.0777-.5878.049-.2449-.049V140.59l-.098-.3919.196-1.8615-.6368-2.4493,1.2737-1.3226.6858-1.5676-.1959-.6858.3429-1.3226v-2.0574l-2.6943-1.2737-.147-.7838,3.2331-1.1757.4409.7348.7348-.2939.1959,1.1267-.3919.6858,1.0777,1.5186-.147-.6858.7348-.6368.147-1.6655Z" fill="#149e9d"/>
              <path id="VE" d="M17.427,98.2653l-1.5676,3.1841.6368.8818-.8818,1.1267-3.3311.3429.49.49.147,1.3716.6858.049-.8328,1.0287-1.5186,1.1267-1.4206-.6858L9.54,105.76l-.6858-.6368.5878-.6368-.5878-1.3226.4409-2.0574-2.0574.098-.7348-1.0287-2.1064-.147-.2449-1.47-.5878-1.2247.147-1.3716,1.1267-1.47.6858-.2449-.6368.2939L5.18,95.62l-.6368,1.0777.5878.9307.5878-.8328L5.18,95.5221,6.9929,94.64l1.1267.098L9.05,95.914l2.0574-.098.7838-.49.5878.8818.7348-.49,1.47-.147.3429,1.2737.7348-.2449.8818.7348-.3429.6368Z" fill="#149e9d"/>
              <path id="GY" d="M16.4963,102.3312l-.6368-.8818,1.5676-3.1841.9307.6368,2.0084,2.3514-.098.7348-.9307,1.6166,1.6655,2.6943-.6368-.098L18.5047,107.23l-.98-.8328-.2939-1.0287L17.77,103.85l-.5878-.6858.147-.6858Z" fill="#149e9d"/>
              <path id="MW" d="M118.927,122.5136Zm-.147-.147-.049-.049h0Zm-.4409-1.91-.098-.098h0Zm-.196-.2449h0Zm-1.2736-.098.5388.1959.5389.147.3429,2.4-.2939.8328.2449,1.2247.9307,1.2736-.3919-1.1267,1.0287,1.4206-.147,1.6655-.7348.6368.147.6858-1.0777-1.5186.3919-.6858-.1959-1.1267-.7348.2939-.4409-.7348-.3919-.3919.5878-1.4206-.049-2.0084.49-.3429Z" fill="#149e9d"/>
              <path id="TM" d="M137.5908,57.7535l.8328.2939-.3429-.5878.6858-.7348,1.4206.5878.5389,1.0777,1.9595.4409.7838,1.1757,3.674,2.1064,1.0287.2449.147.8328-1.4206.147-.2939,1.1757-1.91,1.4206-1.1757-.5878-.2939-1.1757-.8818-.098L140.53,62.75l-1.7635-.6858-1.7145.1959-1.3226.9307-.3429-1.91-.9307-.7838.2449-.5389-.9307-.2449V58.88l.8818.3919.8818-.5878-1.0777-1.1267-1.3716.3919,1.5676-.6858,1.6165,1.2737.4409-.098,1.0287.098Z" fill="#149e9d"/>
              <path id="ZM" d="M112.1668,120.0643l.6858-.8818-.2449-.196,1.7635-.3429.49.6858.147-.2449.8818.5878.98.4409.7838,1.4206-.49.3429.049,2.0084-.5878,1.4206.3919.3919-3.2331,1.1757.147.7838-1.6166.49-.147.5878-.6858.3919-.6368.3429-.5878,1.0287-.3429.147-1.5186-.3429-1.0777-.3919-.8818.1959-1.4206-1.8125.098-3.8209h2.1554v-2.5963l.3429.6368,1.0777-.2449.049.5389,1.4206.4409.5389-.5388.4409.8818.7348.1959.8818,1.2247.6368-.049.049-1.5186-.7838.2449-.7348-1.1267.4409-2.0084Z" fill="#149e9d"/>
              <path id="NC" d="M115.9878,66.0322l-.147.049-.098-.049-.2939-.1959-.6858.049h0l1.8125-.6368-.49.7838h-.098Zm-1.3226-.147Z" fill="#149e9d"/>
              <path id="ZA" d="M115.057,141.2755l.2449.049.5878-.049-.6858,2.1064-1.3226,1.2247-.98,1.5676-1.7145,1.7145-1.91,1.5186-2.3514.7838-2.3024-.1959-.7348.3919-2.3024.5389-1.1267-1.1267-.5878-1.2247.4409-.2449v-1.1267l-.8328-1.6655-.7348-2.1554.4409-.5878.49.7838,1.7635.2939.9307-.6368.1959-4.5068.8328,1.7145-.196.9307.98-.049,1.1757-1.0777.3429-.8328,1.8615.6368.7838-.2449.3429-1.0777,1.0777-.5878.1959-.7348,1.3226-1.1757,1.2247-.5878.98.147,1.0287.098.6368,2.4493-.196,1.8615-.49-.2449-.7348.7838.2939.98.8328.147Zm-5.4865,3.38.98,1.2737,1.5186-1.6166-.7348-.9307Z" fill="#a1d8d8"/>
              <path id="LT" d="M100.704,41.98l-.196-.49-.147-.4409.8818-.3919,3.2331.2939.8818.5878-.7348,1.5676-1.7145.3919-.049-.2449-.6858-.2449-.049-.5878Zm-.3429,0,.147-.2939-.049.2939Z" fill="#149e9d"/>
              <path id="ET" d="M126.2749,94.9343l-.098.098.098.147.1959.147,1.0287-.049-.2449.4409.8328,1.47.6858.5389,3.1841,1.2247h1.0777l-3.1841,3.723-1.0287-.049-2.2044,1.1757-1.2247-.3429-1.2737,1.0777-1.5676-.2939-1.3716-.98-.98-.2449-1.3226-2.4493-1.1267-1.2247-.6858-.147.098-.7838h.8328l.098-1.2736.49-1.7145.2939.1959.7838-2.2534.49-.147.3919-1.91,1.4206-.7348,3.1841.9307,1.7145,2.0084-.6368,1.1267Z" fill="#149e9d"/>
              <path id="GH" d="M82.9219,101.2535l-3.527,1.6166-1.0777-.3919v-.049l.147.049.147-.098-.3919-2.0574.7838-1.6655-.1959-1.5186-.098-1.8615,2.7922-.147.5389,1.0777.1959,4.1149Z" fill="#149e9d"/>
              <path id="SI" d="M94.7277,53.4427l-.049-.049.147-.049-.3919-.8328.2939-.2939.8328.1959,1.4206-.5878h.147l.2939.4409-.8328.3429-.1959.8818Z" fill="#149e9d"/>
              <path id="BA" d="M98.8425,56.6268l-.098-.098h.049l-2.0084-2.1554.049-.5878,2.7922.147.3429.3429h.3429v1.5676l-.6858.6368.049.49-.5878-.2939Z" fill="#149e9d"/>
              <path id="JO" d="M118.0452,70.8329l.098-.098-.147-.049v-.049l.049-.049h.098l-.049-.5389-.098-1.0777.1959-.098,1.1267.49L121.18,68.09l.3919,1.0777.147.4409-2.1554.7838,1.1757,1.1757-1.8125,1.5676-1.1757-.1959.049-.1959-.049-.049.098-1.0287Z" fill="#149e9d"/>
              <path id="SY" d="M121.18,68.09l-1.8615,1.2736-1.1267-.49.098-.2449-.147-.5878.6858-.98-.6858-.5389-.1959-.9307-.049-.6368.5878-1.1267,3.1351.098,2.3514-.6858.1959.2449-.8818.7348.147,2.1554Z" fill="#149e9d"/>
              <path id="MC" d="M88.8983,55.5981l-.049.049H88.8l.049-.049Z" fill="#149e9d"/>
              <path id="AL" d="M102.3206,58.9782h0l-.049-.049Zm-1.7145-1.4206v-.2939l.2939-.3919.3429.147.49.3919.098.3919-.049.6368.1959.2939.049.1959h.2449v.049l.049.049h0l-.049.098.049-.049v.049l.049.098h.049l-.3429.6858-.5878.3919-.7838-1.0287-.049-1.4206-.049-.147Zm0-.2449Z" fill="#149e9d"/>
              <path id="UY" d="M27.3223,148.33l-.3919.5878.1959.5389.049.098.147.098-.2449.8328-1.0287.6368H24.775l-1.8125-.5388-.6858-.6858-.147-1.8125-.098-.6368.2449-2.1064.7838-.098,1.0287,1.1757.3919-.2449Z" fill="#149e9d"/>
              <path id="CNM" d="M116.0858,66.0322Zm-1.47-.147h0Zm.147,0h0Zm.98.147.049.049v.049l-.2939-.2449h-.7348l.6858-.049Z" fill="#149e9d"/>
              <path id="MN" d="M192.8476,50.7485l.2939-.147-.196-.098h.7348l2.0574,1.2736-2.7433.6858-.2939,1.0287-1.0287.098-.49.8328-1.91-.3919v.7348l.98.8818-1.6165,1.47-2.5473.1959-1.2247.6368h-1.47l-2.4493-.8818-5.2905-.2449-1.8125-1.8615-2.4983-.9307-2.3024-.2449-.5878-1.6166-1.2247-1.2737-2.7432-1.0777-.49-.7348,3.2331-2.0084,1.9595.3429.6368.6368,2.7432.3429.3919-.9307-.7838-.5389.2449-1.3226,3.625.9307.5389.8328,1.6165.5878,1.3226-.4409,2.7922.6368.98.7348,2.2044.2449,1.8615-.5389.6368-.8328,2.5473.5389.147,2.0084.6368.49Z" fill="#149e9d"/>
              <path id="RW" d="M112.8037,111.9816l-.147-.098v-.1959l.5389-.5389-.147-.4409.147-.196.2449-.147.3919.098.5389-.49.3919.6368-.2939.98-.6858.2939Z" fill="#149e9d"/>
              <path id="BO" d="M8.3155,128.392l-.049-.1959.1959.1959-.098-.049ZM8.0216,129.96l-.1959-.2939.5878-.8818.4409-.2939-.8818-.98.3919-1.6166-.2939-.6368.3429-1.4206-1.0777-1.8615,1.3716.049,1.7145-1.3226,1.2247-.2939.147,1.8125,1.1757,1.5676,1.4206.2449L15.81,125.11l1.47.3429.5389,2.9882,1.8125.049.147,1.1757.98,1.0777-.4409,2.4493-1.0777-1.0777-2.7432.4409-.4409,1.0777L15.81,135.691l-1.3716-.2939-.2939,1.0777-.3429-.8328-1.8125-.49-.8818,1.2737-.6858-.049-.5388-1.8615-.7348-1.0287.2449-1.2247-.6368-.5878Z" fill="#149e9d"/>
              <path id="CM" d="M95.9523,106.0052l-2.1064-.147-.049.147H92.3763l-.196-.1959-.1959-1.8615-1.1267-1.1267.2939-1.2736L93.0131,99.98l.7838.8328.5878-.8328.3429-1.47,1.8615-3.576.6368-.2449.098-.8328L96.6381,92.73h.2939l-.049.2449.2449-.098.6858,1.7635-.049.8818.6858.98H96.8341l-.2449.4409,1.3226,1.4206.3429,1.1267-1.1757,1.8125.8818,2.7922.98,1.1267.098.7348v.5878l-1.7145-.5878ZM96.981,92.73v0Z" fill="#a1d8d8"/>
              <path id="CG" d="M95.7074,114.2839l-.3429-.2939-.8328.7838-.1959-.5389-.7348-.7838.7838-.2939-.2939-1.6655h.9307v-.5388l1.7635.7348.4409-2.3024-.6858-.49.6368-1.3716-.1959-.49-1.0777.147.049-1.1757,1.3716-.049,1.7145.5878v-.5878l.3919-1.5186.98-.2939,1.2247.2939-.5878,1.5676-.3429,3.2821-1.6166,1.9595v1.4206l-1.5186,1.8615-.49-.6858-1.0287.7348Z" fill="#149e9d"/>
              <path id="EH" d="M63.67,83.4224l-.049-.147.147-.6858h2.2534l.6858-1.0777.2449-1.3226,1.7145-1.7145.4409-1.47.6858-1.0287h1.7635l.98-.2939.098-.6858v.49l-.049,1.5676H69.1567l-.098,3.0861-1.0777.5389v2.0574H63.8172Z" fill="#149e9d"/>
              <path id="RS" d="M99.9692,54.2755v-.3919l-.196-.98.5878-.2449.6368.049,1.3226,1.1267-.049.4409,1.3226.7348-.2449.5389.6858.6858-.5389,1.0287h-.3919l-.3429.098.147-.49L101.88,56.186l-.3919.49-.7348-.3919-.4409-.4409V54.2755Z" fill="#149e9d"/>
              <path id="ME" d="M100.3121,55.8431l.4409.4409.7348.3919-.2939.147.049.1959-.3429-.147-.2939.3919v.049h-.2449l.2449.2449v.147l.049.147-.6368-.5389-.2939-.147-.049-.098V56.97l-.049-.49Z" fill="#149e9d"/>
              <path id="BJ" d="M84.5385,100.9106l-.8328.098-.2939.098-.049-3.478-.2939-1.1267-.5878-.4409.147-.7838.5878-.5878.98-.49.49-.6368.8328.8818.2449,1.3226-1.1267,1.8615Z" fill="#149e9d"/>
              <path id="TG" d="M83.4118,101.1066l-.1959.049-.2939.098-.6858-.9307L82.04,96.2079,81.5013,95.13l.6858.147h.4409l-.147.7838.5878.4409.2939,1.1267Z" fill="#149e9d"/>
              <path id="LA" d="M187.2141,83.9613l.49-1.2247.3919-.2939.6368.49-.3919-1.3226.5878-.1959,1.0777,1.0287.2939.8328.98-.098,1.0777,1.0777-1.0287.9307,1.0287.6368,2.2534,2.1554,1.47,2.1064-.049.6858-.6858.49-1.7635-.049.2449-1.6655-1.0287-.98-.049-1.0287-1.0777-1.1757-1.0287.3919-.98-.2449-.8818.9307-.196-2.5473h-.8327Z" fill="#72c5c4"/>
              <path id="AF" d="M156.7935,63.338l-.49.147.1959.098-1.91.2449-1.1757.98.7348,1.0777-.2449,1.3716h-1.0777l.49.8818-.6858.2939v1.4206l-1.1267.098-1.6165,1.1267.049,1.3226-2.0574.5389-1.6655-.049-1.7635-.5389.7838-1.2247-.2449-.6368-.9307-.147-.5878-1.8615.049-3.1351,1.1757.5878,1.91-1.4206.2939-1.1757,1.4206-.147.7838.1959h.5389l1.5186.098.7348-.5389.1959-.98,1.1757.5389.6368,1.47,1.1757-.9307Z" fill="#149e9d"/>
              <path id="UA" d="M102.5165,49.9647l.147-.2939.147-.49.049-.5389,1.1757-1.1757-.5878-1.1757,1.91-.4409,3.38.6368,2.0574-.8328,1.8125-.2939.6368,1.2736.8328.049.7838,1.0287,1.6165-.098,2.6453,1.0777.147,1.9595h-.8818l-.3919.8818-2.1064.5389-.9308.5878.98,1.2247-1.47.98-1.2736-1.5676.7838-.3919-2.0084-.3429-.5878-.4409-1.2247,1.6655-.8328-.049-.5878-.2449.5389-1.1757,1.0777.098-1.0287-1.8125-1.5186-.6858-1.0287.2449-1.2247.4409-2.2534-.049-.2939-.1959Z" fill="#149e9d"/>
              <path id="SK" d="M102.81,49.1809l-.147.49-.147.2939-1.5676-.147-.49.49-1.91.4409-.6858-.2939-.3429-.4409.098-.2449,1.0287-.5878.6368-.49,2.7922.147Z" fill="#149e9d"/>
              <path id="JK" d="M160.2715,65.4934l-.6368.49-.4409-.6858.6858.1959Z" fill="#149e9d"/>
              <path id="PK" d="M159.1939,65.2974l.4409.6858-1.0777.7348-1.5676-.3429-.4409.49.5878,1.47,1.6166,1.2247-.7348.5389.1959.7348-.8818,1.4206-.2939,1.1267-.8328,1.2736-1.0287.2939-.4409-.3919-.7838,1.5186.7838.3429,1.2247,2.2044-1.0287.6368-1.2247-.049-.6368.4409-.8818-.2449-.2939-.7838-1.0777-.9307-2.8412.3429h-1.9595l.098-1.2737,1.2247-.49-.6368-1.9595-.9307-.3429-1.3226-1.6166,1.7635.5389,1.6655.049,2.0574-.5389-.049-1.3226,1.6165-1.1267,1.1267-.098V68.4326l.6858-.2939-.49-.8818h1.0777l.2449-1.3716-.7348-1.0777,1.1757-.98,1.91-.2449,1.6165.6858Z" fill="#149e9d"/>
              <path id="BG" d="M109.3746,55.5981l-.7348,1.5186.49.5878-.98-.147-.6368.4409-1.0287.5389-.7348-.3429-1.5676.2449.049-.49-.7348-.6858.5389-1.0287-.6858-.6858.2449-.5389.6858.4409,2.0084.2449,1.5186-.5878Z" fill="#149e9d"/>
              <path id="LI" d="M90.7108,51.3363l.098.1959-.049.049h-.098Z" fill="#149e9d"/>
              <path id="AT" d="M90.76,51.5812l.049-.049-.098-.1959.098-.147-.098-.147h.147v-.049l1.2247.1959,1.6655-.3429-.049-.5389.9307-.7348,1.0777-.2449,1.91.4409-.098.2449.3429.4409-.5389.2939-.3429,1.0777L95.56,52.414l-.8328-.1959L93.16,51.5812l-1.5676.2449h-.2939Z" fill="#149e9d"/>
              <path id="SZ" d="M114.9591,140.1978l.098.3919v.6858l-.1959.5878-.8328-.147-.2939-.98.7348-.7838Z" fill="#149e9d"/>
              <path id="HU" d="M99.7733,52.9039H98.2547l-.8328-.6368-.2939-.4409h-.147l.3429-1.0777.5389-.2939.6858.2939,1.91-.4409.49-.49,1.5676.147.49.3919.2939.1959-.7838.5389L101.88,52.512l-.8818.1959-.6368-.049Z" fill="#149e9d"/>
              <path id="NE" d="M85.5182,94.4444l-.8328-.8818-.49.6368L84,93.3177l-1.2737-.49-.8818-1.8615.049-.4409,1.1757-.4409,2.3024-.098.7348-1.2737V85.3819l1.6655-.3919,1.7635-1.7145,4.6537-3.2331,1.6166.4409.7838.6858.7838-.49.2449,1.8615L98.5,83.9123l-.2449.5388-.196,3.625L96.932,89.4968l-.98,1.6655.1959.8328-1.1757.7838-1.1267-.3919-1.4206.147-.49.5389L89.976,92.436l-.9307.4409-1.5186-1.0777-1.47.49Z" fill="#149e9d"/>
              <path id="LU" d="M87.5756,48.74h-.3429l-.147-.098-.098-.3919.3919-.2939.3429.3919Z" fill="#149e9d"/>
              <path id="AD" d="M83.0689,56.97l.2939-.049-.049.147-.147.098Z" fill="#149e9d"/>
              <path id="CI" d="M78.3172,102.4782l-.147-.049h.147Zm-4.7517.8818.098-1.8125-1.2247-.7838.147-1.3226.2939-1.1267.5878.147-.4409-1.2737.098-.8818h1.0777l.7838-.6858.7838.3429.8818.9307L78.2192,96.6l.5878.5389.1959,1.5186-.7838,1.6655.3919,2.0574-3.2331.147Z" fill="#149e9d"/>
              <path id="LR" d="M72.5858,99.441l-.147,1.3226,1.2247.7838-.098,1.8125-1.8615-.98-2.3513-2.1554.9307-1.0287.3919-.8818.8328.1959L71.9,99.9309Z" fill="#149e9d"/>
              <path id="SL" d="M70.6753,98.3143l-.3919.8818-.9307,1.0287-1.5676-.7838-.3429-1.7635.8328-.98,1.3716-.1959Z" fill="#149e9d"/>
              <path id="BE" d="M87.38,47.9562l-.3919.2939.098.3919-1.5676-.5389L84,46.83l.5389-.2939.1959-.049.4409.1959.3919-.1959.049.049v-.049l.6858-.147.9308.8818.3429.49Z" fill="#149e9d"/>
              <path id="IQ" d="M131.7124,72.2045l-.4409-.098-.147.098h-.8818l-.49,1.0777-1.91-.147-2.9392-2.2534-1.8125-1.0287-1.3716-.2449-.147-.4409L121.18,68.09l2.2534-1.7145-.147-2.1554.8818-.7348.2939-.2939,2.1064.2449.7838,1.4206,1.0777.2449-.6368,2.2534,1.0777,1.2247,1.2736.6858.5389.7838-.049.9307Z" fill="#72c5c4"/>
              <path id="GE" d="M125.932,58.4883l-.8328.098-.6858.147-.7348-.5878-1.2247.098-.2939-1.3226-1.6655-.8818,2.8412.2449,1.2247.7348.8328-.2449,1.7635,1.0287.2939.98Z" fill="#149e9d"/>
              <path id="GM" d="M63.8172,92.7789l-.098-.3429.2939-.2939,1.8125-.2449-1.0287.7838Z" fill="#149e9d"/>
              <path id="CH" d="M90.3679,50.8464h0v.049h0l.2939.1959.049-.049.098.147-.098.147-.049.2449h.098l.5389.2449h.2939l-.4409.5878-1.7635.147-1.0287.3919-.2449-.2449.049-.3429-.1959-.147-.2449.1959-.098.098-.147-.3429,1.3716-1.2247h.8328Z" fill="#149e9d"/>
              <path id="TD" d="M97.128,92.8768l.2939-.098-.4409-.049h0l-.098-.049.049.049h-.2939l-.49-.7348-.1959-.8328.98-1.6655,1.1267-1.4206.196-3.625.2449-.5388-.8818-1.3716-.2449-1.8615,1.0287-.5389,8.5726,4.8007.147,4.6047H106.19l-.5389,1.91-.49.4409.196,1.2737.7348,2.2044-.4409-.098-2.1064,2.2534-1.47.147-.49,1.1757-1.9595.6368-.2449-.3919-1.1267.3919-.3429-1.1267-1.3226-1.4206.2449-.4409h1.6166l-.6858-.98.049-.8818Z" fill="#149e9d"/>
              <path id="KV" d="M101.8307,57.8025l-.098-.3919-.49-.3919-.049-.1959.2939-.147.3919-.49,1.0287.6858-.147.49-.4409.049Z" fill="#149e9d"/>
              <path id="LB" d="M117.4574,68.4326l.3919-.98.2939-.9307.6858.5389-.6858.98-.2939.3919Z" fill="#149e9d"/>
              <path id="SX" d="M133.0351,98.9512h-1.0777l-3.1841-1.2247-.6858-.5389-.8328-1.47.2449-.4409.3429-.5878,1.1267,1.2736,1.5676-.5388.7348.2449,1.0287-.6368,1.6165-.049.098,2.1554Z" fill="#149e9d"/>
              <path id="SO" d="M133.0351,98.9512l.98-1.8125-.098-2.1554,2.4983-.7348-.3919,2.89-1.47,2.9882-.3429,1.0777-1.1267,2.0084-2.0084,2.4983L129.508,106.74l-2.1064,2.2534-1.1267,1.7145-.5878-.98-.049-4.5068.98-1.4206,2.2044-1.1757,1.0287.049Z" fill="#149e9d"/>
              <path id="DJ" d="M127.5,95.2772l-1.0287.049-.1959-.147.098-.147-.098-.098-.049-.2939.6368-1.1267.3429.098.4409-.3919.2939.8818-.098.5878Z" fill="#149e9d"/>
              <path id="ER" d="M127.6466,93.22l-.4409.3919-.3429-.098-1.7145-2.0084-3.1841-.9307-1.4206.7348-.147-1.0777.49-2.3514,1.2737-.5388.3429-.5878,1.3716,3.527,1.5676.5878Z" fill="#149e9d"/>
              <path id="BI" d="M113.4895,114.088l-.2939-.6858-.196-.6858.049-.3429-.2449-.3919.98-.098.6858-.2939.2449,1.0287Z" fill="#149e9d"/>
              <path id="SR" d="M20.2682,101.9883l.3429-.6368,3.1351.196-.196.5878-.3429.5388.49,1.7635-.6858,1.3716-1.4206-.2449-.5878.7348-1.6655-2.6943Z" fill="#149e9d"/>
              <path id="IL" d="M116.7716,70.588l.5389-1.1757.147-.98h.3919l.2939-.3919.147.5878-.098.2449-.1959.098.098,1.0777-.098.2939.049.2449-.049.049v.098l.049.098-.1959.8328-.098,1.0287-.049.098h0l-.098-.2939Z" fill="#149e9d"/>
              <path id="SN" d="M67.0013,93.2687l-1.5186-.049-1.6655.4409-.049-.5878.049-.2939.98-.098,1.0287-.7838-1.8125.2449L63.3273,90.77l.7838-1.3226.1959-.7838,2.1554-.2449,2.1554,2.2534.147,1.3226L69.5,93.5626l-1.0287.147Z" fill="#149e9d"/>
              <path id="GN" d="M67.0013,93.2687l1.47.4409,1.0287-.147.7348.6368,1.6165-.7348.8818,1.3716.3919,1.47-.098.8818.4409,1.2737-.5878-.147-.2939,1.1267-.6858.49L71.5081,98.51l-.8328-.1959-1.0287-1.8125-1.3716.1959-.8328.98-.2939-.8818-1.5186-1.47.3429-.6368,1.0287-.2939Z" fill="#149e9d"/>
              <path id="PL" d="M99.3324,42.9106l-.1959.1959.3429-.1959,2.6453.147.049-.049.6858.2449.049.2449.5878,1.47-.5878.4409.5388.8818.5878,1.1757-1.1757,1.1757-.049.5389-.7348-.3429-2.7922-.147-.2939-.49-2.1064-.7838-1.5186-.3429-.2939-2.0084-.49-1.2736.3429-.1959-.3919-.049h-.049l.049-.049,3.576-1.0287Z" fill="#a1d8d8"/>
              <path id="MK" d="M102.3206,59.0272Zm1.1757-1.7635.7348.6858-.049.49-.98.2939-.7348.2939-.147-.1959v.147l-.049-.049h-.1959l.098-.2449-.196.049-.1959-.2939.049-.6368.49-.3919.4409-.049.3429-.098Z" fill="#149e9d"/>
              <path id="PY" d="M24.824,137.8954v.3429l-.196,1.3226.049.147v.049l-.049,1.2737-.8818.98-2.9882-.147.8328-2.2534-2.7922-1.7635-1.0287-.2449-1.9595-1.91.2449-2.0574.4409-1.0777,2.7432-.4409,1.0777,1.0777.4409.9307-.049,1.3716h1.6655l.8818.6858.3429,1.6166Z" fill="#149e9d"/>
              <path id="BY" d="M102.9084,43.4985l1.7145-.3919.7348-1.5676.8818-.147.4409-.4409,2.5473.6368,1.1757,2.0574.98.4409-1.2247.49.6368,1.0777-2.0574.8328-3.38-.6368-1.91.4409-.5388-.8818.5878-.4409Z" fill="#149e9d"/>
              <path id="LV" d="M106.68,40.9512l-.4409.4409-.8818.147-.8818-.5878-3.2331-.2939-.8818.3919.3429-1.7145.7348-.1959,1.1267.8818.3429-1.0287.8328-.1959,1.91.5878.3919.7838Z" fill="#149e9d"/>
              <path id="BF" d="M82.628,95.2772h-.4409l-.6858-.147-2.7922.147.098,1.8615L78.2192,96.6l-1.5676.2939L75.77,95.963l.3919-1.8125.6368-.2449.49-1.5186.9307.098.4409-.8818.7348-.147L80.9135,90.33l.98.196-.049.4409.8818,1.8615,1.2737.49.1959.8818-.98.49Z" fill="#149e9d"/>
              <path id="SS" d="M118.0942,103.5069l-.49.5878-1.4206.2939-.3919-.3919-1.0287.3919-1.1267-1.2736-1.5676.3429-.98-.98-1.0777-1.2247-.098-.6858-1.0777-.8328-1.3226-1.6655.4409-.2449.49-1.6655.8328-.196L110.06,97.09l1.4206-.098,1.0287.3429,1.2247-1.1757,1.3226.5878,1.2247-1.5186-.3919-1.1757,1.2247-.2449v1.6655l.7838.8328.196.8328-.098,1.2736h-.8328l-.098.7838.6858.147,1.1267,1.2247,1.3226,2.4493-.5389-.49Z" fill="#149e9d"/>
              <path id="CF" d="M107.5131,98.0694l1.3226,1.6655,1.0777.8328.098.6858,1.0777,1.2247-2.0084-.3429-2.2534.8328-.5878-.1959-.4409.7838-2.0574-.2939-.9307-.8328-1.2737.98.098,1.0287-1.2247-.2939-.98.2939-.3919,1.5186-.098-.7348-.98-1.1267-.8818-2.7922L98.2547,99.49l1.1267-.3919.2449.3919,1.9595-.6368.49-1.1757,1.47-.147,2.1064-2.2534.4409.098.8328,1.2737-.147,1.3226Z" fill="#149e9d"/>
              <path id="NA" d="M106.4354,130.1065l.8818-.1959,1.0777.3919-1.8125.7838-.2449-.5388-2.4983.3919-.098,4.4088-1.0777.049-.098,3.3311-.1959,4.5068-.9307.6368-1.7635-.2939-.49-.7838-.4409.5878-1.1757-1.5186-.6368-3.3311-.147-2.7922-2.5963-5.0456-.049-1.0777,1.47-.3429.8328.5389h4.7517l.3429.4409,2.1554.3429Z" fill="#149e9d"/>
              <path id="RO" d="M108.7378,53.4917l.5878.2449.8328.049-.7348.6858-.049,1.1267-1.5676-.49-1.5186.5878-2.0084-.2449-.6858-.4409-1.3226-.7348.049-.4409-1.3226-1.1267.8818-.1959.6368-1.4206.7838-.5389,2.2534.049,1.2247-.4409.3429.098,1.47,1.8615Z" fill="#149e9d"/>
              <path id="ZW" d="M108.3949,130.3025l1.5186.3429.3429-.147,1.2247-1.3716h0l.6858-.3919.147-.5878,1.6166-.49,2.6943,1.2737v2.0574l-.3429,1.3226.1959.6858-.6858,1.5676-1.2737,1.3226-1.0287-.098-.98-.147-1.3716-.7348-.2939-1.3226-1.6165-1.2247Z" fill="#149e9d"/>
              <path id="SD" d="M120.4456,81.9039l.49,1.4206-.049.98.4409,1.6166,1.1757.8328-.3429.5878-1.2737.5388-.49,2.3514.147,1.0777-.3919,1.91-.49.147L118.878,95.62l-.2939-.1959-.49,1.7145-.196-.8328-.7838-.8328V93.8076l-1.2247.2449.3919,1.1757-1.2247,1.5186-1.3226-.5878L112.51,97.3346l-1.0287-.3429-1.4206.098-.7838-1.1267-.8328.196-.49,1.6655-.4409.2449-.7348-.098.147-1.3226-.8328-1.2737-.7348-2.2044-.196-1.2737.49-.4409.5389-1.91h.9307l-.147-4.6047v-.5878h1.0287l-.098-2.4493h12.5405Z" fill="#a1d8d8"/>
              <path id="TN" d="M93.405,68.3346l.098.8328-1.47,1.2736.1959.6368-.7348.8328-.5878-2.2534-.7348-.5389L89.29,67.4528l.7348-.9307.2939-2.8412,1.1267-.49,1.5186,2.5963-1.0777,1.6166,1.0287.147Z" fill="#149e9d"/>
              <path id="LY" d="M91.4945,71.9106l.7348-.8328-.1959-.6368,1.47-1.2736-.098-.8328,1.91.3429,1.8615.5878.98,1.3716,1.3716.2449,1.7635.98.6858-.2939.098-1.5186.5878-.98,1.0777-.4409,1.5186.3429v.3919l2.0084.4409.1959.3429-.3429,1.8125.3429,1.2247.4409,8.72.098,2.4493h-1.0287v.5878L98.4016,80.14l-1.0287.5389-.7838.49-.7838-.6858-1.6166-.4409-.4409-.9307-1.6165-.6858-.6858-1.5186.4409-.49-.049-3.1841Z" fill="#72c5c4"/>
              <path id="ML" d="M75.77,95.963l-.7838-.3429-.7838.6858H73.1246l-.3919-1.47-.8818-1.3716-1.6165.7348L69.5,93.5626l-.7348-1.5676-.147-1.3226.5878-.9307,1.0777.147,5.5355-.098L74.79,78.2789h1.8125l6.27,4.7027.7838,1.0777,1.4206.5389-.147.7838H86.106V88.713l-.7348,1.2737-2.3024.098-1.1757.4409-.98-.196-1.5186,1.1267-.7348.147-.4409.8818-.9307-.098-.49,1.5186-.6368.2449Z" fill="#72c5c4"/>
              <path id="BT" d="M174.0368,75.4376l1.1267-1.2737,1.6165.7348.6858.98-2.3024.2939Z" fill="#149e9d"/>
              <path id="BW" d="M108.3949,130.3025l.8328,2.0574,1.6165,1.2247.2939,1.3226,1.3716.7348-1.2247.5878-1.3226,1.1757-.1959.7348-1.0777.5878-.3429,1.0777-.7838.2449-1.8615-.6368-.3429.8328-1.1757,1.0777-.98.049.196-.9307-.8328-1.7145.098-3.3311,1.0777-.049.098-4.4088,2.4983-.3919.2449.5388Z" fill="#a1d8d8"/>
              <path id="MD" d="M108.7378,53.4917l-.147-1.3716-1.47-1.8615-.3429-.098,1.0287-.2449,1.5186.6858,1.0287,1.8125-1.0777-.098Z" fill="#149e9d"/>
              <path id="CU" d="M3.3189,84.2552l-3.674.2939.7838-.7838-1.4206-.147-.196-1.2737-1.7145-.5388-1.1757.049-1.1757-.7838-1.9595,1.0777.196-.6858,1.3226-.7838,2.9882-.1959,2.3024.9307L.6736,82.5407,2.878,83.5694Z" fill="#149e9d"/>
              <path id="FI" d="M105.4067,36.0035l-3.3311.6368-2.2044-.5878L99.43,33.1133l.7838-.147,1.6655-1.6655.3429-.6858-1.0287-.3429-.8328-2.2044L97.7648,26.941l.7348-.2449.7348.5389,1.9595.1959.6368-1.1757,1.3716-.3429,1.0287.3919.049.6368-.049.8328,1.2247.5389-.5389.8818.8818.7838v1.1757l1.0287,1.0777-.3919.2939,1.5676.8818-.1959.4409Z" fill="#149e9d"/>
              <path id="SE" d="M101.1939,30.2721l-1.47.049-.9308,2.0574-2.2044,1.5186-.3429,1.6166,1.8125,1.2247-.3919.8818-1.3226.5389-.2939.8328.5388.6368,1.2247-.5389.049.7348-1.1757-.098-.3919,1.1267-1.5186.098-.4409.8818H93.2581l-.1959-1.4206-1.6166-1.9595.098-.6858.8328-1.2736-.7348-3.478.49-.7348,1.0287-.049-.2939-.6368.5878-.7838-.049-.8328,1.3716-.98-.2939-.3919,1.4206-1.1757,1.47.1959.3919-.6858,2.5963,1.1267Z" fill="#149e9d"/>
              <path id="MG" d="M134.5536,128.7839l-3.0372,8.8666-.6368,1.3716-2.1064.7348-1.0777-.6858-.147-1.91-.49-1.47.3919-1.1267,1.1267-1.6166-.3429-3.0861.5878-1.5186,1.9595-.5878,1.3716-.7838.8818-2.0084h.5388l.6368-1.7635.6858,1.3226.3919,2.89-.2939.6368-.5878-.49Z" fill="#149e9d"/>
              <path id="IS" d="M64.65,30.762l.8328-.7838,1.9595.147,1.2247-.5878,1.1757.49.7838.9307-.9307.8328-3.625,1.0777L64.65,32.5255l-1.7635-.098.9307-.6368-.4409-1.2247-1.6165.049,1.7635-1.0287.9308.5389Z" fill="#149e9d"/>
              <path id="LK" d="M167.0807,98.8532l.2939-2.1064.6368.5388,1.2737,2.1064v1.2247l-1.2247.8328-.5389-.2449Z" fill="#149e9d"/>
              <path id="EG" d="M117.7023,72.7924l-.49,2.1554-1.1267-1.0287-.8818-1.7145.196,1.2247,1.0287,1.6166,2.4493,4.4578.2449,1.2736,1.3226,1.1267H107.905l-.4409-8.72-.3429-1.2247.3429-1.8125,2.2534.3919,1.8125.6368,1.2737-.8328,1.2247.098.6368.4409,2.1064-.2939.8328,1.91Z" fill="#149e9d"/>
              <path id="NP" d="M173.106,74.7518l.3429,1.4206-.8328.4409-1.5676-.2449-1.5186-.9307-1.91-.1959-3.1351-1.6655.098-1.1267.5389-.49,1.0777-.1959,1.8125,1.4206.5389-.098,2.3024,1.6655.5389-.2939Z" fill="#149e9d"/>
            </g>
          </g>
        </g>
      </g>
    </g>
  </g>
</svg>
