<svg xmlns="http://www.w3.org/2000/svg" width="481" height="238" viewBox="0 0 481 238">
  <defs>
    <filter id="blurbloc" x="-50%" y="-50%" width="200%" height="200%">
      <feGaussianBlur in="SourceGraphic" stdDeviation="1.4" />
    </filter>
  </defs>
  <title>illu-arbor-blur</title>
  <g style="isolation: isolate">
    <g id="illu-arbor-blur">
      <g id="illu-blur" filter="url(#blurbloc)">
        <g>
          <line x1="260.1871" y1="56.487" x2="238.215" y2="78.4591" fill="#ec9a3a" stroke="#ec9a3a" stroke-miterlimit="10"/>
          <line x1="217.2123" y1="55.5177" x2="238.215" y2="78.4591" fill="#ec9a3a" stroke="#ec9a3a" stroke-miterlimit="10"/>
          <line x1="238.215" y1="47.066" x2="238.215" y2="118.3952" fill="#ec9a3a" stroke="#ec9a3a" stroke-miterlimit="10"/>
          <circle cx="238.215" cy="78.5032" r="12.5" fill="#ec9a3a"/>
          <line x1="238.215" y1="47.3859" x2="229.2567" y2="31.7455" fill="#ec9a3a" stroke="#ec9a3a" stroke-miterlimit="10"/>
          <circle cx="227.2567" cy="28.2814" r="3" transform="translate(16.3059 117.4173) rotate(-30)" fill="#ec9a3a"/>
          <g>
            <path d="M227.26,32.7822a4.501,4.501,0,1,1,2.2466-.6035A4.5164,4.5164,0,0,1,227.26,32.7822Z" fill="#ec9a3a"/>
            <path d="M227.253,24.2808a4.0011,4.0011,0,1,1-1.9963.5366,3.9981,3.9981,0,0,1,1.9963-.5366m0-1h0a5,5,0,1,0,4.3337,2.5007,5.0009,5.0009,0,0,0-4.3337-2.5007Z" fill="#ec9a3a"/>
          </g>
          <line x1="238.215" y1="47.3859" x2="244.5067" y2="36.4956" fill="#ec9a3a" stroke="#ec9a3a" stroke-miterlimit="10"/>
          <circle cx="246.5067" cy="33.0315" r="3" transform="translate(94.6473 229.9968) rotate(-60)" fill="#ec9a3a"/>
          <g>
            <path d="M246.5029,37.5322a4.5008,4.5008,0,1,1,3.9-2.251A4.5024,4.5024,0,0,1,246.5029,37.5322Z" fill="#ec9a3a"/>
            <path d="M246.51,29.0308a4,4,0,1,1-3.4678,2.0007,3.981,3.981,0,0,1,3.4678-2.0007m0-1h0a5.0178,5.0178,0,0,0-4.3339,2.5007,5.0011,5.0011,0,0,0,4.3264,7.5007,5.0007,5.0007,0,0,0,.0076-10.0013Z" fill="#ec9a3a"/>
          </g>
          <line x1="238.215" y1="47.3859" x2="238.215" y2="24.2807" fill="#ec9a3a" stroke="#ec9a3a" stroke-miterlimit="10"/>
          <circle cx="238.215" cy="20.2807" r="3" fill="#ec9a3a"/>
          <g>
            <circle cx="238.2148" cy="20.2808" r="4.5" fill="#ec9a3a"/>
            <path d="M238.215,16.2807a4,4,0,1,1-4,4,4,4,0,0,1,4-4m0-1a5,5,0,1,0,5,5,5.0057,5.0057,0,0,0-5-5Z" fill="#ec9a3a"/>
          </g>
          <circle cx="238.215" cy="47.3859" r="6" fill="#ec9a3a"/>
          <line x1="260.1871" y1="56.487" x2="264.912" y2="39.0931" fill="#ec9a3a" stroke="#ec9a3a" stroke-miterlimit="10"/>
          <circle cx="265.9473" cy="35.2294" r="3" transform="matrix(0.2588, -0.9659, 0.9659, 0.2588, 163.0861, 282.9968)" fill="#ec9a3a"/>
          <g>
            <path d="M265.95,39.73a4.5012,4.5012,0,1,1,4.3438-3.3364A4.5139,4.5139,0,0,1,265.95,39.73Z" fill="#ec9a3a"/>
            <path d="M265.9448,31.2284a4.0006,4.0006,0,1,1-3.8612,2.9657,4.004,4.004,0,0,1,3.8612-2.9657m0-1h0a5.0034,5.0034,0,1,0,1.2964.1714,5.0064,5.0064,0,0,0-1.2964-.1714Z" fill="#ec9a3a"/>
          </g>
          <line x1="260.1871" y1="56.487" x2="272.3366" y2="53.2353" fill="#ec9a3a" stroke="#ec9a3a" stroke-miterlimit="10"/>
          <circle cx="276.2003" cy="52.2" r="3" transform="translate(-4.0991 73.2646) rotate(-15)" fill="#ec9a3a"/>
          <g>
            <path d="M276.1973,56.7007a4.5046,4.5046,0,1,1,1.167-.1543A4.5047,4.5047,0,0,1,276.1973,56.7007Z" fill="#ec9a3a"/>
            <path d="M276.2029,48.199a4.0034,4.0034,0,1,1-1.0378.1373,4.0015,4.0015,0,0,1,1.0378-.1373m0-1h0a5.0009,5.0009,0,1,0,4.827,3.7069,5.0133,5.0133,0,0,0-4.827-3.7069Z" fill="#ec9a3a"/>
          </g>
          <line x1="260.1871" y1="56.487" x2="276.5249" y2="40.1492" fill="#ec9a3a" stroke="#ec9a3a" stroke-miterlimit="10"/>
          <circle cx="279.3534" cy="37.3208" r="3" transform="translate(55.4309 208.4637) rotate(-45)" fill="#ec9a3a"/>
          <g>
            <path d="M279.3535,41.8208a4.5,4.5,0,1,1,3.1816-1.3179A4.4681,4.4681,0,0,1,279.3535,41.8208Z" fill="#ec9a3a"/>
            <path d="M279.3534,33.3208a4,4,0,1,1-2.8284,1.1716,3.9875,3.9875,0,0,1,2.8284-1.1716m0-1a5,5,0,1,0,3.5356,1.4645,4.9674,4.9674,0,0,0-3.5356-1.4645Z" fill="#ec9a3a"/>
          </g>
          <circle cx="260.1871" cy="56.487" r="6" transform="translate(36.2647 200.5248) rotate(-45)" fill="#ec9a3a"/>
          <line x1="217.2123" y1="55.5177" x2="199.8184" y2="50.7928" fill="#ec9a3a" stroke="#ec9a3a" stroke-miterlimit="10"/>
          <circle cx="195.9547" cy="49.7575" r="3" transform="translate(97.1758 226.157) rotate(-75)" fill="#ec9a3a"/>
          <g>
            <path d="M195.9575,54.2583a4.5011,4.5011,0,1,1,4.3438-3.3359A4.5074,4.5074,0,0,1,195.9575,54.2583Z" fill="#ec9a3a"/>
            <path d="M195.9521,45.7565a4.0006,4.0006,0,1,1-3.8612,2.9657,4.004,4.004,0,0,1,3.8612-2.9657m0-1h0a5.0034,5.0034,0,1,0,1.2964.1714,5.0063,5.0063,0,0,0-1.2964-.1714Z" fill="#ec9a3a"/>
          </g>
          <line x1="217.2123" y1="55.5177" x2="213.9605" y2="43.3682" fill="#ec9a3a" stroke="#ec9a3a" stroke-miterlimit="10"/>
          <circle cx="212.9252" cy="39.5045" r="3" transform="matrix(0.9659, -0.2588, 0.2588, 0.9659, -2.9693, 56.4552)" fill="#ec9a3a"/>
          <g>
            <path d="M212.9224,44.0054a4.5034,4.5034,0,1,1,1.1675-.1543A4.5051,4.5051,0,0,1,212.9224,44.0054Z" fill="#ec9a3a"/>
            <path d="M212.9278,35.5035a4.0034,4.0034,0,1,1-1.0378.1373,4.0015,4.0015,0,0,1,1.0378-.1373m0-1h0a5.0006,5.0006,0,1,0,4.827,3.7069,5.0134,5.0134,0,0,0-4.827-3.7069Z" fill="#ec9a3a"/>
          </g>
          <line x1="217.2123" y1="55.5177" x2="200.8745" y2="39.1799" fill="#ec9a3a" stroke="#ec9a3a" stroke-miterlimit="10"/>
          <circle cx="198.046" cy="36.3515" r="3" transform="translate(32.302 150.6868) rotate(-45)" fill="#ec9a3a"/>
          <g>
            <path d="M198.0464,40.8516a4.5,4.5,0,1,1,3.1816-1.3184A4.47,4.47,0,0,1,198.0464,40.8516Z" fill="#ec9a3a"/>
            <path d="M198.046,32.3515a4,4,0,1,1-2.8284,1.1716,3.9875,3.9875,0,0,1,2.8284-1.1716m0-1a5,5,0,1,0,3.5355,1.4645,4.9673,4.9673,0,0,0-3.5355-1.4645Z" fill="#ec9a3a"/>
          </g>
          <circle cx="217.2123" cy="55.5177" r="6" transform="translate(24.3631 169.853) rotate(-45)" fill="#ec9a3a"/>
          <line x1="303.883" y1="120.1612" x2="276.1965" y2="106.0543" fill="#ec9a3a" stroke="#ec9a3a" stroke-miterlimit="10"/>
          <line x1="291.5249" y1="78.9901" x2="276.1965" y2="106.0543" fill="#ec9a3a" stroke="#ec9a3a" stroke-miterlimit="10"/>
          <line x1="306.0531" y1="96.3533" x2="238.215" y2="118.3952" fill="#ec9a3a" stroke="#ec9a3a" stroke-miterlimit="10"/>
          <circle cx="276.1546" cy="106.0679" r="12.5" transform="translate(-19.2608 90.5278) rotate(-18)" fill="#ec9a3a"/>
          <line x1="305.7489" y1="96.4521" x2="317.8555" y2="83.0991" fill="#ec9a3a" stroke="#ec9a3a" stroke-miterlimit="10"/>
          <circle cx="320.532" cy="80.1265" r="3" transform="translate(46.5086 264.7131) rotate(-48)" fill="#ec9a3a"/>
          <g>
            <path d="M320.5313,84.6265a4.5,4.5,0,1,1,3.3457-1.4888A4.4949,4.4949,0,0,1,320.5313,84.6265Z" fill="#ec9a3a"/>
            <path d="M320.5333,76.1265a4,4,0,1,1-2.9738,1.3235,3.9851,3.9851,0,0,1,2.9738-1.3235m0-1h0a5,5,0,1,0,3.3443,1.2843,5.0088,5.0088,0,0,0-3.3443-1.2843Z" fill="#ec9a3a"/>
          </g>
          <line x1="305.7489" y1="96.4521" x2="318.0504" y2="99.0705" fill="#ec9a3a" stroke="#ec9a3a" stroke-miterlimit="10"/>
          <circle cx="321.963" cy="99.9022" r="3" transform="translate(157.3041 394.0587) rotate(-78)" fill="#ec9a3a"/>
          <g>
            <path d="M321.9668,104.4028a4.5383,4.5383,0,0,1-.9385-.0986,4.501,4.501,0,0,1-3.4668-5.3379,4.5,4.5,0,1,1,4.4053,5.4365Z" fill="#ec9a3a"/>
            <path d="M321.959,95.9014a4,4,0,1,1-3.9086,3.1692,4.0146,4.0146,0,0,1,3.9086-3.1692m0-1h0a5.0036,5.0036,0,1,0,1.0435.11,5.0225,5.0225,0,0,0-1.0435-.11Z" fill="#ec9a3a"/>
          </g>
          <line x1="305.7489" y1="96.4521" x2="327.7232" y2="89.3122" fill="#ec9a3a" stroke="#ec9a3a" stroke-miterlimit="10"/>
          <circle cx="331.5274" cy="88.0762" r="3" transform="translate(-10.9909 106.7584) rotate(-18)" fill="#ec9a3a"/>
          <g>
            <path d="M331.5264,92.5771a4.5029,4.5029,0,1,1,1.3916-.2212A4.4885,4.4885,0,0,1,331.5264,92.5771Z" fill="#ec9a3a"/>
            <path d="M331.5282,84.0751a4.003,4.003,0,1,1-1.2369.1969,4.0016,4.0016,0,0,1,1.2369-.1969m0-1h0a5.001,5.001,0,1,0,4.7543,3.456,4.996,4.996,0,0,0-4.7543-3.456Z" fill="#ec9a3a"/>
          </g>
          <circle cx="305.7489" cy="96.4521" r="6" transform="translate(-14.8409 99.2023) rotate(-18)" fill="#ec9a3a"/>
          <line x1="303.883" y1="120.1612" x2="321.8856" y2="119.2799" fill="#ec9a3a" stroke="#ec9a3a" stroke-miterlimit="10"/>
          <circle cx="325.8801" cy="119.0705" r="3" transform="translate(-5.7851 17.2184) rotate(-3)" fill="#ec9a3a"/>
          <g>
            <path d="M325.877,123.57a4.5,4.5,0,0,1-.2324-8.9937c.08-.0039.16-.0059.2393-.0059a4.5,4.5,0,0,1,.2324,8.9937C326.0361,123.5684,325.9561,123.57,325.877,123.57Z" fill="#ec9a3a"/>
            <path d="M325.8836,115.07a4,4,0,0,1,.2059,7.9946c-.0712.0037-.1423.0056-.2128.0056a4,4,0,0,1-.2059-7.9946q.1068-.0056.2128-.0056m0-1q-.132,0-.2652.007a5,5,0,0,0,.2582,9.9932c.0878,0,.1763-.0023.265-.007a5,5,0,0,0-.2581-9.9932Z" fill="#ec9a3a"/>
          </g>
          <line x1="303.883" y1="120.1612" x2="310.7299" y2="130.7113" fill="#ec9a3a" stroke="#ec9a3a" stroke-miterlimit="10"/>
          <circle cx="312.9085" cy="134.0659" r="3" transform="translate(-22.5362 192.051) rotate(-33)" fill="#ec9a3a"/>
          <g>
            <path d="M312.9121,138.5664a4.501,4.501,0,1,1,2.4473-.7266A4.4866,4.4866,0,0,1,312.9121,138.5664Z" fill="#ec9a3a"/>
            <path d="M312.9048,130.0655a4.0007,4.0007,0,1,1-2.1748.6458,3.9965,3.9965,0,0,1,2.1748-.6458m0-1h0a5,5,0,1,0,4.197,2.2773,4.9829,4.9829,0,0,0-4.197-2.2773Z" fill="#ec9a3a"/>
          </g>
          <line x1="303.883" y1="120.1612" x2="324.4698" y2="130.6507" fill="#ec9a3a" stroke="#ec9a3a" stroke-miterlimit="10"/>
          <circle cx="328.0338" cy="132.4667" r="3" transform="translate(61.0809 364.6083) rotate(-63)" fill="#ec9a3a"/>
          <g>
            <path d="M328.03,136.9678a4.5015,4.5015,0,1,1,4.0127-2.458A4.45,4.45,0,0,1,328.03,136.9678Z" fill="#ec9a3a"/>
            <path d="M328.037,128.4659a4.0006,4.0006,0,1,1-3.5672,2.1849,3.9825,3.9825,0,0,1,3.5672-2.1849m0-1h0a5.0015,5.0015,0,1,0,2.2666.5458,4.9813,4.9813,0,0,0-2.2666-.5458Z" fill="#ec9a3a"/>
          </g>
          <circle cx="303.883" cy="120.1612" r="6" transform="translate(58.8585 336.3709) rotate(-63)" fill="#ec9a3a"/>
          <line x1="291.5249" y1="78.9901" x2="290.6435" y2="60.9875" fill="#ec9a3a" stroke="#ec9a3a" stroke-miterlimit="10"/>
          <circle cx="290.4342" cy="56.993" r="3" transform="translate(-2.5848 15.2783) rotate(-3)" fill="#ec9a3a"/>
          <g>
            <path d="M290.4307,61.4927a4.5,4.5,0,0,1-.2324-8.9937c.08-.0039.16-.0059.2393-.0059a4.5,4.5,0,0,1,.2324,8.9937C290.59,61.4907,290.51,61.4927,290.4307,61.4927Z" fill="#ec9a3a"/>
            <path d="M290.4376,52.9929a4,4,0,0,1,.2059,7.9946q-.1068.0056-.2127.0056a4,4,0,0,1-.2059-7.9946q.1068-.0056.2128-.0056m0-1q-.132,0-.2652.007a5,5,0,0,0,.2582,9.9932q.1317,0,.265-.007a5,5,0,0,0-.2581-9.9932Z" fill="#ec9a3a"/>
          </g>
          <line x1="291.5249" y1="78.9901" x2="302.0749" y2="72.1432" fill="#ec9a3a" stroke="#ec9a3a" stroke-miterlimit="10"/>
          <circle cx="305.4296" cy="69.9646" r="3" transform="translate(11.1693 177.6362) rotate(-33)" fill="#ec9a3a"/>
          <g>
            <path d="M305.4336,74.4653a4.5,4.5,0,1,1,2.4473-.7266A4.487,4.487,0,0,1,305.4336,74.4653Z" fill="#ec9a3a"/>
            <path d="M305.4258,65.9641a4.0007,4.0007,0,1,1-2.1748.6458,3.9965,3.9965,0,0,1,2.1748-.6458m0-1h0a5,5,0,1,0,4.197,2.2773,4.983,4.983,0,0,0-4.197-2.2773Z" fill="#ec9a3a"/>
          </g>
          <line x1="291.5249" y1="78.9901" x2="302.0144" y2="58.4033" fill="#ec9a3a" stroke="#ec9a3a" stroke-miterlimit="10"/>
          <circle cx="303.8304" cy="54.8393" r="3" transform="translate(117.0321 300.6576) rotate(-63)" fill="#ec9a3a"/>
          <g>
            <path d="M303.8271,59.34a4.501,4.501,0,1,1,2.0459-8.51,4.5,4.5,0,0,1-2.0459,8.51Z" fill="#ec9a3a"/>
            <path d="M303.8336,50.8385a4.0006,4.0006,0,1,1-3.5673,2.1849,3.9826,3.9826,0,0,1,3.5673-2.1849m0-1h0a5.0015,5.0015,0,1,0,2.2666.5458,4.9813,4.9813,0,0,0-2.2666-.5458Z" fill="#ec9a3a"/>
          </g>
          <circle cx="291.5249" cy="78.9901" r="6" transform="translate(88.7946 302.88) rotate(-63)" fill="#ec9a3a"/>
          <line x1="256.8279" y1="181.3949" x2="261.6889" y2="150.7042" fill="#ec9a3a" stroke="#ec9a3a" stroke-miterlimit="10"/>
          <line x1="292.1651" y1="156.9191" x2="261.6889" y2="150.7042" fill="#ec9a3a" stroke="#ec9a3a" stroke-miterlimit="10"/>
          <line x1="280.1413" y1="176.1017" x2="238.215" y2="118.3952" fill="#ec9a3a" stroke="#ec9a3a" stroke-miterlimit="10"/>
          <circle cx="261.663" cy="150.6685" r="12.5" transform="translate(-38.5876 182.5768) rotate(-36)" fill="#ec9a3a"/>
          <line x1="279.9533" y1="175.843" x2="296.3939" y2="183.2307" fill="#ec9a3a" stroke="#ec9a3a" stroke-miterlimit="10"/>
          <circle cx="300.0481" cy="184.8576" r="3" transform="translate(9.1317 383.7768) rotate(-66)" fill="#ec9a3a"/>
          <g>
            <path d="M300.0459,189.3584a4.5006,4.5006,0,1,1,4.1133-2.6709A4.4661,4.4661,0,0,1,300.0459,189.3584Z" fill="#ec9a3a"/>
            <path d="M300.05,180.8566a4.0007,4.0007,0,1,1-3.6564,2.3741,3.986,3.986,0,0,1,3.6564-2.3741m0-1h0a5.002,5.002,0,1,0,2.0314.4333,5.0071,5.0071,0,0,0-2.0314-.4333Z" fill="#ec9a3a"/>
          </g>
          <line x1="279.9533" y1="175.843" x2="281.2644" y2="188.3515" fill="#ec9a3a" stroke="#ec9a3a" stroke-miterlimit="10"/>
          <circle cx="281.6825" cy="192.3296" r="3" transform="translate(-18.5608 30.4974) rotate(-6)" fill="#ec9a3a"/>
          <g>
            <path d="M281.6768,196.83a4.5,4.5,0,0,1-.4639-8.9756,4.57,4.57,0,0,1,.4736-.0254,4.5,4.5,0,0,1,.4658,8.9756A4.5926,4.5926,0,0,1,281.6768,196.83Z" fill="#ec9a3a"/>
            <path d="M281.6873,188.3293a4,4,0,0,1,.4132,7.9784,4.0485,4.0485,0,0,1-.423.0222,4,4,0,0,1-.4132-7.9784,4.0485,4.0485,0,0,1,.423-.0222m0-1a5.0029,5.0029,0,0,0-4.9777,5.5229,4.9867,4.9867,0,0,0,4.9677,4.4777,5.0482,5.0482,0,0,0,.5275-.0277,5,5,0,0,0-.5175-9.9729Z" fill="#ec9a3a"/>
          </g>
          <line x1="279.9533" y1="175.843" x2="293.5341" y2="194.5354" fill="#ec9a3a" stroke="#ec9a3a" stroke-miterlimit="10"/>
          <circle cx="295.8853" cy="197.7715" r="3" transform="translate(-59.7381 211.688) rotate(-36)" fill="#ec9a3a"/>
          <g>
            <path d="M295.8887,202.2715a4.5,4.5,0,0,1-2.6484-8.1406,4.4667,4.4667,0,0,1,2.6416-.8594,4.5,4.5,0,0,1,2.6484,8.1406A4.4667,4.4667,0,0,1,295.8887,202.2715Z" fill="#ec9a3a"/>
            <path d="M295.882,193.7712a4,4,0,1,1-2.3478.7642,3.9943,3.9943,0,0,1,2.3478-.7642m0-1h0A5,5,0,0,0,291.84,200.71a5.0181,5.0181,0,0,0,4.0483,2.0614,5,5,0,0,0,4.0418-7.9392,5.0181,5.0181,0,0,0-4.0482-2.0614Z" fill="#ec9a3a"/>
          </g>
          <circle cx="279.9533" cy="175.843" r="6" transform="translate(-49.8916 198.1354) rotate(-36)" fill="#ec9a3a"/>
          <line x1="256.8279" y1="181.3949" x2="263.2293" y2="198.244" fill="#ec9a3a" stroke="#ec9a3a" stroke-miterlimit="10"/>
          <circle cx="264.6628" cy="201.9784" r="3" transform="translate(-54.8038 108.262) rotate(-21)" fill="#ec9a3a"/>
          <g>
            <path d="M264.6641,206.4795a4.5019,4.5019,0,1,1,1.6123-.3A4.5267,4.5267,0,0,1,264.6641,206.4795Z" fill="#ec9a3a"/>
            <path d="M264.6619,197.9773a4.0025,4.0025,0,1,1-1.4326.2668,4.0013,4.0013,0,0,1,1.4326-.2668m0-1h0a5.0007,5.0007,0,1,0,4.6686,3.2093,4.98,4.98,0,0,0-4.6686-3.2093Z" fill="#ec9a3a"/>
          </g>
          <line x1="256.8279" y1="181.3949" x2="248.9101" y2="191.1669" fill="#ec9a3a" stroke="#ec9a3a" stroke-miterlimit="10"/>
          <circle cx="246.3928" cy="194.2754" r="3" transform="translate(-59.6476 263.4971) rotate(-51)" fill="#ec9a3a"/>
          <g>
            <path d="M246.3906,198.7754a4.5125,4.5125,0,0,1-2.8291-1.0029,4.5,4.5,0,0,1,2.834-7.9971,4.5005,4.5005,0,0,1,4.4727,4.0293,4.5,4.5,0,0,1-4.4775,4.9707Z" fill="#ec9a3a"/>
            <path d="M246.3953,190.2753a4,4,0,1,1-3.111,1.4828,3.9829,3.9829,0,0,1,3.111-1.4828m0-1h0a5,5,0,1,0,3.144,1.1144,4.9819,4.9819,0,0,0-3.144-1.1144Z" fill="#ec9a3a"/>
          </g>
          <line x1="256.8279" y1="181.3949" x2="253.2135" y2="204.2155" fill="#ec9a3a" stroke="#ec9a3a" stroke-miterlimit="10"/>
          <circle cx="252.5878" cy="208.1663" r="3" transform="translate(7.4709 425.0799) rotate(-81)" fill="#ec9a3a"/>
          <g>
            <path d="M252.5928,212.667a4.6015,4.6015,0,0,1-.709-.0557,4.5,4.5,0,0,1,.6992-8.9453,4.611,4.611,0,0,1,.709.0557,4.5,4.5,0,0,1-.6992,8.9453Z" fill="#ec9a3a"/>
            <path d="M252.5828,204.1657a4,4,0,1,1-3.9458,3.3748,4.03,4.03,0,0,1,3.9458-3.3748m0-1h0a5,5,0,0,0-.7774,9.939,5.0478,5.0478,0,0,0,.7871.0621,5,5,0,0,0,.7773-9.939,5.0466,5.0466,0,0,0-.7869-.0621Z" fill="#ec9a3a"/>
          </g>
          <circle cx="256.8279" cy="181.3949" r="6" transform="translate(37.4896 406.6844) rotate(-81)" fill="#ec9a3a"/>
          <line x1="292.1651" y1="156.9191" x2="309.0143" y2="150.5177" fill="#ec9a3a" stroke="#ec9a3a" stroke-miterlimit="10"/>
          <circle cx="312.7486" cy="149.0842" r="3" transform="translate(-32.6544 121.9812) rotate(-21)" fill="#ec9a3a"/>
          <g>
            <path d="M312.749,153.585a4.501,4.501,0,1,1,4.2012-6.1143,4.5035,4.5035,0,0,1-4.2012,6.1143Z" fill="#ec9a3a"/>
            <path d="M312.7478,145.0832a4.0026,4.0026,0,1,1-1.4326.2668,4.0012,4.0012,0,0,1,1.4326-.2668m0-1h0a5.0011,5.0011,0,1,0,4.6686,3.2092,4.9808,4.9808,0,0,0-4.6686-3.2092Z" fill="#ec9a3a"/>
          </g>
          <line x1="292.1651" y1="156.9191" x2="301.9371" y2="164.8369" fill="#ec9a3a" stroke="#ec9a3a" stroke-miterlimit="10"/>
          <circle cx="305.0457" cy="167.3542" r="3" transform="translate(-16.9844 299.0998) rotate(-51)" fill="#ec9a3a"/>
          <g>
            <path d="M305.043,171.8535a4.5,4.5,0,1,1,3.5-1.668A4.51,4.51,0,0,1,305.043,171.8535Z" fill="#ec9a3a"/>
            <path d="M305.0481,163.354a4,4,0,1,1-3.111,1.4828,3.9828,3.9828,0,0,1,3.111-1.4828m0-1h0a5,5,0,1,0,3.144,1.1144,4.9819,4.9819,0,0,0-3.144-1.1144Z" fill="#ec9a3a"/>
          </g>
          <line x1="292.1651" y1="156.9191" x2="314.9858" y2="160.5335" fill="#ec9a3a" stroke="#ec9a3a" stroke-miterlimit="10"/>
          <circle cx="318.9365" cy="161.1592" r="3" transform="translate(109.8688 450.9583) rotate(-81)" fill="#ec9a3a"/>
          <g>
            <path d="M318.9414,165.66a4.6015,4.6015,0,0,1-.709-.0557,4.5009,4.5009,0,0,1,.7-8.9463,4.5985,4.5985,0,0,1,.708.0557,4.5009,4.5009,0,0,1-.6992,8.9463Z" fill="#ec9a3a"/>
            <path d="M318.9316,157.1586a4,4,0,1,1-3.9458,3.3748,4.0276,4.0276,0,0,1,3.9458-3.3748m0-1h0a5,5,0,0,0-.7774,9.939,5.0479,5.0479,0,0,0,.7871.0621,5,5,0,0,0,.7772-9.939,5.0467,5.0467,0,0,0-.7869-.0621Z" fill="#ec9a3a"/>
          </g>
          <circle cx="292.1651" cy="156.9191" r="6" transform="translate(91.4733 420.9396) rotate(-81)" fill="#ec9a3a"/>
          <line x1="184.0505" y1="155.5651" x2="214.7412" y2="150.7042" fill="#ec9a3a" stroke="#ec9a3a" stroke-miterlimit="10"/>
          <line x1="218.2482" y1="181.6093" x2="214.7412" y2="150.7042" fill="#ec9a3a" stroke="#ec9a3a" stroke-miterlimit="10"/>
          <line x1="196.2888" y1="176.1017" x2="238.215" y2="118.3952" fill="#ec9a3a" stroke="#ec9a3a" stroke-miterlimit="10"/>
          <circle cx="214.7671" cy="150.6685" r="12.5" transform="translate(-33.3632 235.858) rotate(-54)" fill="#ec9a3a"/>
          <line x1="196.4768" y1="175.843" x2="194.5311" y2="193.7618" fill="#ec9a3a" stroke="#ec9a3a" stroke-miterlimit="10"/>
          <circle cx="194.113" cy="197.7399" r="3" transform="translate(-22.8341 370.1201) rotate(-84)" fill="#ec9a3a"/>
          <g>
            <path d="M194.1187,202.24a4.6092,4.6092,0,0,1-.4761-.0254,4.5,4.5,0,0,1,.4663-8.9756,4.5884,4.5884,0,0,1,.4746.0254,4.5,4.5,0,0,1-.4648,8.9756Z" fill="#ec9a3a"/>
            <path d="M194.1081,193.74a4.0407,4.0407,0,0,1,.423.0222,4,4,0,0,1-.4133,7.9784,4.0443,4.0443,0,0,1-.423-.0222,4,4,0,0,1,.4132-7.9784m0-1h0a5,5,0,0,0-.5177,9.9729,5.0439,5.0439,0,0,0,.5275.0277,5,5,0,0,0,.5178-9.9729,5.0438,5.0438,0,0,0-.5275-.0277Z" fill="#ec9a3a"/>
          </g>
          <line x1="196.4768" y1="175.843" x2="184.9856" y2="180.9553" fill="#ec9a3a" stroke="#ec9a3a" stroke-miterlimit="10"/>
          <circle cx="181.3314" cy="182.5822" r="3" transform="translate(-58.5859 89.5392) rotate(-24)" fill="#ec9a3a"/>
          <g>
            <path d="M181.3335,187.083a4.5032,4.5032,0,1,1,1.8281-.39A4.5056,4.5056,0,0,1,181.3335,187.083Z" fill="#ec9a3a"/>
            <path d="M181.3291,178.5812a4.002,4.002,0,1,1-1.6247.3468,4,4,0,0,1,1.6247-.3468m0-1h0a5.001,5.001,0,1,0,4.57,2.9673,4.9656,4.9656,0,0,0-4.57-2.9673Z" fill="#ec9a3a"/>
          </g>
          <line x1="196.4768" y1="175.843" x2="182.8959" y2="194.5354" fill="#ec9a3a" stroke="#ec9a3a" stroke-miterlimit="10"/>
          <circle cx="180.5448" cy="197.7715" r="3" transform="translate(-85.5772 227.5881) rotate(-54)" fill="#ec9a3a"/>
          <g>
            <path d="M180.542,202.2715a4.5005,4.5005,0,0,1-3.6382-7.1455,4.5183,4.5183,0,0,1,3.644-1.8545,4.5,4.5,0,0,1,3.6372,7.1455A4.5158,4.5158,0,0,1,180.542,202.2715Z" fill="#ec9a3a"/>
            <path d="M180.5481,193.7712a4,4,0,1,1-3.2394,1.6491,3.9813,3.9813,0,0,1,3.2394-1.6491m0-1h0a5,5,0,0,0-2.9424,9.0454,4.9641,4.9641,0,0,0,2.9356.9552A5.0181,5.0181,0,0,0,184.59,200.71a5,5,0,0,0-4.0416-7.9392Z" fill="#ec9a3a"/>
          </g>
          <circle cx="196.4768" cy="175.843" r="6" transform="translate(-61.2693 231.4381) rotate(-54)" fill="#ec9a3a"/>
          <line x1="184.0505" y1="155.5651" x2="170.0041" y2="166.8598" fill="#ec9a3a" stroke="#ec9a3a" stroke-miterlimit="10"/>
          <circle cx="166.8955" cy="169.3771" r="3" transform="matrix(0.7771, -0.6293, 0.6293, 0.7771, -69.3991, 142.7771)" fill="#ec9a3a"/>
          <g>
            <path d="M166.8975,173.877a4.5005,4.5005,0,1,1,2.83-1.0029A4.4813,4.4813,0,0,1,166.8975,173.877Z" fill="#ec9a3a"/>
            <path d="M166.8931,165.377a4,4,0,1,1-2.5149.8916,3.9919,3.9919,0,0,1,2.5149-.8916m0-1h0a5,5,0,1,0,3.888,1.8535,5.0128,5.0128,0,0,0-3.888-1.8535Z" fill="#ec9a3a"/>
          </g>
          <line x1="184.0505" y1="155.5651" x2="172.31" y2="151.0545" fill="#ec9a3a" stroke="#ec9a3a" stroke-miterlimit="10"/>
          <circle cx="168.5757" cy="149.621" r="3" transform="translate(-31.5197 253.3806) rotate(-69)" fill="#ec9a3a"/>
          <g>
            <path d="M168.5752,154.1221a4.502,4.502,0,0,1-4.2007-6.1133,4.5271,4.5271,0,0,1,4.2017-2.8887,4.502,4.502,0,0,1,4.2007,6.1133A4.5261,4.5261,0,0,1,168.5752,154.1221Z" fill="#ec9a3a"/>
            <path d="M168.5766,145.62a4.0007,4.0007,0,1,1-3.7352,2.5676,3.9891,3.9891,0,0,1,3.7352-2.5676m0-1h0a5.0308,5.0308,0,0,0-4.6688,3.2093,5.0025,5.0025,0,0,0,4.6671,6.7929,5.0007,5.0007,0,0,0,1.7927-9.669,4.9791,4.9791,0,0,0-1.7908-.3332Z" fill="#ec9a3a"/>
          </g>
          <line x1="184.0505" y1="155.5651" x2="161.2298" y2="159.1795" fill="#ec9a3a" stroke="#ec9a3a" stroke-miterlimit="10"/>
          <circle cx="157.2791" cy="159.8053" r="3" transform="translate(-23.0627 26.5713) rotate(-9)" fill="#ec9a3a"/>
          <g>
            <path d="M157.2739,164.3057a4.5,4.5,0,0,1-.6987-8.9453,4.6063,4.6063,0,0,1,.709-.0557,4.5,4.5,0,0,1,.6987,8.9453A4.6063,4.6063,0,0,1,157.2739,164.3057Z" fill="#ec9a3a"/>
            <path d="M157.284,155.8047a4.0035,4.0035,0,1,1-.6306.05,4.0008,4.0008,0,0,1,.6306-.05m0-1h0a5.0487,5.0487,0,0,0-.7872.0621,5,5,0,0,0,.7773,9.939,5.0035,5.0035,0,0,0,4.9434-5.7828,4.9743,4.9743,0,0,0-4.9333-4.2184Z" fill="#ec9a3a"/>
          </g>
          <circle cx="184.0505" cy="155.5651" r="6" transform="translate(-22.0698 30.7071) rotate(-9)" fill="#ec9a3a"/>
          <line x1="218.2482" y1="181.6093" x2="229.5429" y2="195.6557" fill="#ec9a3a" stroke="#ec9a3a" stroke-miterlimit="10"/>
          <circle cx="232.0602" cy="198.7643" r="3" transform="translate(-73.3709 190.3356) rotate(-39)" fill="#ec9a3a"/>
          <g>
            <path d="M232.063,203.2637a4.4989,4.4989,0,1,1,2.83-1.002A4.4825,4.4825,0,0,1,232.063,203.2637Z" fill="#ec9a3a"/>
            <path d="M232.0577,194.7642a4,4,0,1,1-2.5148.8915,3.9919,3.9919,0,0,1,2.5148-.8915m0-1h0a5,5,0,1,0,3.888,1.8535,5.0127,5.0127,0,0,0-3.888-1.8535Z" fill="#ec9a3a"/>
          </g>
          <line x1="218.2482" y1="181.6093" x2="213.7376" y2="193.3498" fill="#ec9a3a" stroke="#ec9a3a" stroke-miterlimit="10"/>
          <circle cx="212.3041" cy="197.0841" r="3" transform="translate(-47.7727 324.6584) rotate(-69)" fill="#ec9a3a"/>
          <g>
            <path d="M212.3037,201.585a4.502,4.502,0,0,1-4.2007-6.1133,4.5261,4.5261,0,0,1,4.2017-2.8887,4.502,4.502,0,0,1,4.2007,6.1133A4.5271,4.5271,0,0,1,212.3037,201.585Z" fill="#ec9a3a"/>
            <path d="M212.3049,193.083a4.0007,4.0007,0,1,1-3.7352,2.5676,3.9894,3.9894,0,0,1,3.7352-2.5676m0-1h0a5.0309,5.0309,0,0,0-4.6689,3.2092,5.0025,5.0025,0,0,0,4.6671,6.7929,5.0007,5.0007,0,0,0,1.7927-9.669,4.979,4.979,0,0,0-1.7907-.3332Z" fill="#ec9a3a"/>
          </g>
          <line x1="218.2482" y1="181.6093" x2="221.8626" y2="204.43" fill="#ec9a3a" stroke="#ec9a3a" stroke-miterlimit="10"/>
          <circle cx="222.4883" cy="208.3807" r="3" transform="translate(-29.8587 37.3704) rotate(-9)" fill="#ec9a3a"/>
          <g>
            <path d="M222.4834,212.8809a4.5,4.5,0,0,1-.6987-8.9453,4.6,4.6,0,0,1,.7085-.0557,4.5,4.5,0,0,1,.6992,8.9453A4.6063,4.6063,0,0,1,222.4834,212.8809Z" fill="#ec9a3a"/>
            <path d="M222.4933,204.38a4.0035,4.0035,0,1,1-.6307.05,4.0008,4.0008,0,0,1,.6307-.05m0-1h0a5.0491,5.0491,0,0,0-.7873.0621,5,5,0,0,0,.7773,9.939,5.0035,5.0035,0,0,0,4.9433-5.7828,4.9743,4.9743,0,0,0-4.9333-4.2184Z" fill="#ec9a3a"/>
          </g>
          <circle cx="218.2482" cy="181.6093" r="6" transform="translate(-25.723 36.3774) rotate(-9)" fill="#ec9a3a"/>
          <line x1="186.1266" y1="78.3678" x2="200.2336" y2="106.0543" fill="#ec9a3a" stroke="#ec9a3a" stroke-miterlimit="10"/>
          <line x1="171.9247" y1="118.9398" x2="200.2336" y2="106.0543" fill="#ec9a3a" stroke="#ec9a3a" stroke-miterlimit="10"/>
          <line x1="170.377" y1="96.3533" x2="238.215" y2="118.3952" fill="#ec9a3a" stroke="#ec9a3a" stroke-miterlimit="10"/>
          <circle cx="200.2755" cy="106.0679" r="12.5" transform="translate(37.5104 263.7644) rotate(-72)" fill="#ec9a3a"/>
          <line x1="170.6811" y1="96.4521" x2="153.038" y2="100.1389" fill="#ec9a3a" stroke="#ec9a3a" stroke-miterlimit="10"/>
          <circle cx="149.1254" cy="100.9705" r="3" transform="translate(-17.7342 33.2114) rotate(-12)" fill="#ec9a3a"/>
          <g>
            <path d="M149.1221,105.4712a4.52,4.52,0,0,1-4.3984-3.5649,4.5,4.5,0,0,1,3.4663-5.3374,4.496,4.496,0,0,1,5.3374,3.4658,4.5012,4.5012,0,0,1-3.4663,5.3379A4.55,4.55,0,0,1,149.1221,105.4712Z" fill="#ec9a3a"/>
            <path d="M149.1294,96.97a4.0036,4.0036,0,1,1-.8356.0882,4.0012,4.0012,0,0,1,.8356-.0882m0-1h0a5.0317,5.0317,0,0,0-1.0437.11,5,5,0,0,0-3.8512,5.93,4.9956,4.9956,0,0,0,5.93,3.8512,5,5,0,0,0,3.8512-5.93A5.0221,5.0221,0,0,0,149.13,95.97Z" fill="#ec9a3a"/>
          </g>
          <line x1="170.6811" y1="96.4521" x2="162.2681" y2="87.1031" fill="#ec9a3a" stroke="#ec9a3a" stroke-miterlimit="10"/>
          <circle cx="159.5916" cy="84.1305" r="3" transform="translate(-15.3024 128.397) rotate(-42)" fill="#ec9a3a"/>
          <g>
            <path d="M159.5928,88.63a4.5,4.5,0,1,1,3.01-1.1558A4.5076,4.5076,0,0,1,159.5928,88.63Z" fill="#ec9a3a"/>
            <path d="M159.59,80.13a4,4,0,1,1-2.6752,1.0275A3.9892,3.9892,0,0,1,159.59,80.13m0-1h0a5,5,0,1,0,3.7167,1.6544,4.9914,4.9914,0,0,0-3.7167-1.6544Z" fill="#ec9a3a"/>
          </g>
          <line x1="170.6811" y1="96.4521" x2="148.7069" y2="89.3122" fill="#ec9a3a" stroke="#ec9a3a" stroke-miterlimit="10"/>
          <circle cx="144.9026" cy="88.0762" r="3" transform="translate(16.3599 198.6697) rotate(-72)" fill="#ec9a3a"/>
          <g>
            <path d="M144.9033,92.5771a4.5008,4.5008,0,1,1,4.2793-3.1108A4.49,4.49,0,0,1,144.9033,92.5771Z" fill="#ec9a3a"/>
            <path d="M144.9018,84.0751a4.0007,4.0007,0,1,1-3.8034,2.765,3.9951,3.9951,0,0,1,3.8034-2.765m0-1h0a5.0061,5.0061,0,1,0,1.5457.2458,4.988,4.988,0,0,0-1.5457-.2458Z" fill="#ec9a3a"/>
          </g>
          <circle cx="170.6811" cy="96.4521" r="6" transform="matrix(0.309, -0.9511, 0.9511, 0.309, 26.2064, 228.9742)" fill="#ec9a3a"/>
          <line x1="186.1266" y1="78.3678" x2="171.0441" y2="68.4991" fill="#ec9a3a" stroke="#ec9a3a" stroke-miterlimit="10"/>
          <circle cx="167.6894" cy="66.3206" r="3" transform="translate(20.7381 170.836) rotate(-57)" fill="#ec9a3a"/>
          <g>
            <path d="M167.6855,70.8213a4.5006,4.5006,0,1,1,3.7778-2.05A4.4869,4.4869,0,0,1,167.6855,70.8213Z" fill="#ec9a3a"/>
            <path d="M167.6932,62.32a4,4,0,1,1-3.3584,1.8219,3.9805,3.9805,0,0,1,3.3584-1.8219m0-1h0a5.0007,5.0007,0,1,0,2.7193.8071,4.9866,4.9866,0,0,0-2.7193-.8071Z" fill="#ec9a3a"/>
          </g>
          <line x1="186.1266" y1="78.3678" x2="186.7884" y2="65.8081" fill="#ec9a3a" stroke="#ec9a3a" stroke-miterlimit="10"/>
          <circle cx="186.9978" cy="61.8136" r="3" transform="matrix(0.0523, -0.9986, 0.9986, 0.0523, 115.4822, 245.32)" fill="#ec9a3a"/>
          <g>
            <path d="M186.7622,66.3076a4.5,4.5,0,0,1,.2329-8.9941c.0786,0,.1582.002.2378.0059a4.5,4.5,0,0,1-.2314,8.9941C186.9224,66.3135,186.8423,66.3115,186.7622,66.3076Z" fill="#ec9a3a"/>
            <path d="M186.9944,57.8135c.0706,0,.1414.0018.2127.0056a4,4,0,0,1-.2059,7.9946c-.0706,0-.1414-.0018-.2128-.0056a4,4,0,0,1,.2059-7.9946m.0006-1h0a5,5,0,0,0-.2588,9.9933c.0889.0047.1771.007.2651.007a5,5,0,0,0,.2583-9.9933c-.0887-.0047-.1767-.007-.2645-.007Z" fill="#ec9a3a"/>
          </g>
          <line x1="186.1266" y1="78.3678" x2="175.6371" y2="57.781" fill="#ec9a3a" stroke="#ec9a3a" stroke-miterlimit="10"/>
          <circle cx="173.8211" cy="54.217" r="3" transform="translate(-5.6686 84.8224) rotate(-27)" fill="#ec9a3a"/>
          <g>
            <path d="M173.8242,58.7178a4.5044,4.5044,0,1,1,2.04-.4917A4.482,4.482,0,0,1,173.8242,58.7178Z" fill="#ec9a3a"/>
            <path d="M173.8179,50.2161a4.0015,4.0015,0,1,1-1.8127.4368,3.9994,3.9994,0,0,1,1.8127-.4368m0-1h0a5.0178,5.0178,0,0,0-2.2669.5458,4.9975,4.9975,0,1,0,2.267-.5458Z" fill="#ec9a3a"/>
          </g>
          <circle cx="186.1266" cy="78.3678" r="6" transform="translate(-15.2916 93.0413) rotate(-27)" fill="#ec9a3a"/>
          <line x1="171.9247" y1="118.9398" x2="162.0561" y2="134.0223" fill="#ec9a3a" stroke="#ec9a3a" stroke-miterlimit="10"/>
          <circle cx="159.8775" cy="137.377" r="3" transform="translate(-42.4121 196.6407) rotate(-57)" fill="#ec9a3a"/>
          <g>
            <path d="M159.874,141.8774a4.5,4.5,0,1,1,3.7778-2.0493A4.4861,4.4861,0,0,1,159.874,141.8774Z" fill="#ec9a3a"/>
            <path d="M159.8813,133.3765a4,4,0,1,1-3.3584,1.8219,3.98,3.98,0,0,1,3.3584-1.8219m0-1h0a5.0007,5.0007,0,1,0,2.7193.8071,4.9867,4.9867,0,0,0-2.7193-.8071Z" fill="#ec9a3a"/>
          </g>
          <line x1="171.9247" y1="118.9398" x2="159.365" y2="118.278" fill="#ec9a3a" stroke="#ec9a3a" stroke-miterlimit="10"/>
          <circle cx="155.3705" cy="118.0686" r="3" transform="translate(29.3322 267.047) rotate(-87)" fill="#ec9a3a"/>
          <g>
            <path d="M155.1348,122.5625a4.5,4.5,0,0,1,.2324-8.9937c.0791,0,.1587.002.2393.0059a4.5,4.5,0,0,1-.2324,8.9937C155.2949,122.5684,155.2148,122.5664,155.1348,122.5625Z" fill="#ec9a3a"/>
            <path d="M155.3671,114.0685c.0706,0,.1414.0018.2128.0056a4,4,0,0,1-.2059,7.9946c-.0706,0-.1414-.0018-.2128-.0056a4,4,0,0,1,.2059-7.9946m.0006-1h0a5,5,0,0,0-.2588,9.9932c.0889.0047.1771.007.2651.007a5,5,0,0,0,.2583-9.9932c-.0887-.0047-.1767-.007-.2645-.007Z" fill="#ec9a3a"/>
          </g>
          <line x1="171.9247" y1="118.9398" x2="151.3379" y2="129.4293" fill="#ec9a3a" stroke="#ec9a3a" stroke-miterlimit="10"/>
          <circle cx="147.7739" cy="131.2453" r="3" transform="translate(-43.4777 81.3928) rotate(-27)" fill="#ec9a3a"/>
          <g>
            <path d="M147.7769,135.7461a4.5044,4.5044,0,1,1,2.04-.4917A4.482,4.482,0,0,1,147.7769,135.7461Z" fill="#ec9a3a"/>
            <path d="M147.7707,127.2444a4.0015,4.0015,0,1,1-1.8127.4368,3.9995,3.9995,0,0,1,1.8127-.4368m0-1h0a5.0009,5.0009,0,1,0,2.273,9.4559,5.0006,5.0006,0,0,0-2.2729-9.4559Z" fill="#ec9a3a"/>
          </g>
          <circle cx="171.9247" cy="118.9398" r="6" transform="translate(-35.2589 91.0159) rotate(-27)" fill="#ec9a3a"/>
          <circle cx="238.215" cy="118.4898" r="20" fill="#ec9a3a"/>
        </g>
        <g id="illu-blur-2" data-name="illu-blur" opacity="0.5" style="mix-blend-mode: multiply">
          <g>
            <line x1="260.1871" y1="56.487" x2="238.215" y2="78.4591" fill="none" stroke="#ec9a3a" stroke-miterlimit="10"/>
            <line x1="217.2123" y1="55.5177" x2="238.215" y2="78.4591" fill="none" stroke="#ec9a3a" stroke-miterlimit="10"/>
            <line x1="238.215" y1="47.066" x2="238.215" y2="118.3952" fill="none" stroke="#ec9a3a" stroke-miterlimit="10"/>
            <circle cx="238.215" cy="78.5032" r="12.5" fill="#f4c289"/>
            <line x1="238.215" y1="47.3859" x2="229.2567" y2="31.7455" fill="none" stroke="#ec9a3a" stroke-miterlimit="10"/>
            <circle cx="227.2567" cy="28.2814" r="3" transform="translate(16.3059 117.4173) rotate(-30)" fill="#ec9a3a"/>
            <path d="M227.253,24.2808a4.0011,4.0011,0,1,1-1.9963.5366,3.9981,3.9981,0,0,1,1.9963-.5366m0-1h0a5,5,0,1,0,4.3337,2.5007,5.0009,5.0009,0,0,0-4.3337-2.5007Z" fill="#ec9a3a"/>
            <line x1="238.215" y1="47.3859" x2="244.5067" y2="36.4956" fill="none" stroke="#ec9a3a" stroke-miterlimit="10"/>
            <circle cx="246.5067" cy="33.0315" r="3" transform="translate(94.6473 229.9968) rotate(-60)" fill="#ec9a3a"/>
            <path d="M246.51,29.0308a4,4,0,1,1-3.4678,2.0007,3.981,3.981,0,0,1,3.4678-2.0007m0-1h0a5.0178,5.0178,0,0,0-4.3339,2.5007,5.0011,5.0011,0,0,0,4.3264,7.5007,5.0007,5.0007,0,0,0,.0076-10.0013Z" fill="#ec9a3a"/>
            <line x1="238.215" y1="47.3859" x2="238.215" y2="24.2807" fill="none" stroke="#ec9a3a" stroke-miterlimit="10"/>
            <circle cx="238.215" cy="20.2807" r="3" fill="#ec9a3a"/>
            <path d="M238.215,16.2807a4,4,0,1,1-4,4,4,4,0,0,1,4-4m0-1a5,5,0,1,0,5,5,5.0057,5.0057,0,0,0-5-5Z" fill="#ec9a3a"/>
            <circle cx="238.215" cy="47.3859" r="6" fill="#f4c289"/>
            <line x1="260.1871" y1="56.487" x2="264.912" y2="39.0931" fill="none" stroke="#ec9a3a" stroke-miterlimit="10"/>
            <circle cx="265.9473" cy="35.2294" r="3" transform="matrix(0.2588, -0.9659, 0.9659, 0.2588, 163.0861, 282.9968)" fill="#ec9a3a"/>
            <path d="M265.9448,31.2284a4.0006,4.0006,0,1,1-3.8612,2.9657,4.004,4.004,0,0,1,3.8612-2.9657m0-1h0a5.0034,5.0034,0,1,0,1.2964.1714,5.0064,5.0064,0,0,0-1.2964-.1714Z" fill="#ec9a3a"/>
            <line x1="260.1871" y1="56.487" x2="272.3366" y2="53.2353" fill="none" stroke="#ec9a3a" stroke-miterlimit="10"/>
            <circle cx="276.2003" cy="52.2" r="3" transform="translate(-4.0991 73.2646) rotate(-15)" fill="#ec9a3a"/>
            <path d="M276.2029,48.199a4.0034,4.0034,0,1,1-1.0378.1373,4.0015,4.0015,0,0,1,1.0378-.1373m0-1h0a5.0009,5.0009,0,1,0,4.827,3.7069,5.0133,5.0133,0,0,0-4.827-3.7069Z" fill="#ec9a3a"/>
            <line x1="260.1871" y1="56.487" x2="276.5249" y2="40.1492" fill="none" stroke="#ec9a3a" stroke-miterlimit="10"/>
            <circle cx="279.3534" cy="37.3208" r="3" transform="translate(55.4309 208.4637) rotate(-45)" fill="#ec9a3a"/>
            <path d="M279.3534,33.3208a4,4,0,1,1-2.8284,1.1716,3.9875,3.9875,0,0,1,2.8284-1.1716m0-1a5,5,0,1,0,3.5356,1.4645,4.9674,4.9674,0,0,0-3.5356-1.4645Z" fill="#ec9a3a"/>
            <circle cx="260.1871" cy="56.487" r="6" transform="translate(36.2647 200.5248) rotate(-45)" fill="#f4c289"/>
            <line x1="217.2123" y1="55.5177" x2="199.8184" y2="50.7928" fill="none" stroke="#ec9a3a" stroke-miterlimit="10"/>
            <circle cx="195.9547" cy="49.7575" r="3" transform="translate(97.1758 226.157) rotate(-75)" fill="#ec9a3a"/>
            <path d="M195.9521,45.7565a4.0006,4.0006,0,1,1-3.8612,2.9657,4.004,4.004,0,0,1,3.8612-2.9657m0-1h0a5.0034,5.0034,0,1,0,1.2964.1714,5.0063,5.0063,0,0,0-1.2964-.1714Z" fill="#ec9a3a"/>
            <line x1="217.2123" y1="55.5177" x2="213.9605" y2="43.3682" fill="none" stroke="#ec9a3a" stroke-miterlimit="10"/>
            <circle cx="212.9252" cy="39.5045" r="3" transform="matrix(0.9659, -0.2588, 0.2588, 0.9659, -2.9693, 56.4552)" fill="#ec9a3a"/>
            <path d="M212.9278,35.5035a4.0034,4.0034,0,1,1-1.0378.1373,4.0015,4.0015,0,0,1,1.0378-.1373m0-1h0a5.0006,5.0006,0,1,0,4.827,3.7069,5.0134,5.0134,0,0,0-4.827-3.7069Z" fill="#ec9a3a"/>
            <line x1="217.2123" y1="55.5177" x2="200.8745" y2="39.1799" fill="none" stroke="#ec9a3a" stroke-miterlimit="10"/>
            <circle cx="198.046" cy="36.3515" r="3" transform="translate(32.302 150.6868) rotate(-45)" fill="#ec9a3a"/>
            <path d="M198.046,32.3515a4,4,0,1,1-2.8284,1.1716,3.9875,3.9875,0,0,1,2.8284-1.1716m0-1a5,5,0,1,0,3.5355,1.4645,4.9673,4.9673,0,0,0-3.5355-1.4645Z" fill="#ec9a3a"/>
            <circle cx="217.2123" cy="55.5177" r="6" transform="translate(24.3631 169.853) rotate(-45)" fill="#f4c289"/>
            <line x1="303.883" y1="120.1612" x2="276.1965" y2="106.0543" fill="none" stroke="#ec9a3a" stroke-miterlimit="10"/>
            <line x1="291.5249" y1="78.9901" x2="276.1965" y2="106.0543" fill="none" stroke="#ec9a3a" stroke-miterlimit="10"/>
            <line x1="306.0531" y1="96.3533" x2="238.215" y2="118.3952" fill="none" stroke="#ec9a3a" stroke-miterlimit="10"/>
            <circle cx="276.1546" cy="106.0679" r="12.5" transform="translate(-19.2608 90.5278) rotate(-18)" fill="#f4c289"/>
            <line x1="305.7489" y1="96.4521" x2="317.8555" y2="83.0991" fill="none" stroke="#ec9a3a" stroke-miterlimit="10"/>
            <circle cx="320.532" cy="80.1265" r="3" transform="translate(46.5086 264.7131) rotate(-48)" fill="#ec9a3a"/>
            <path d="M320.5333,76.1265a4,4,0,1,1-2.9738,1.3235,3.9851,3.9851,0,0,1,2.9738-1.3235m0-1h0a5,5,0,1,0,3.3443,1.2843,5.0088,5.0088,0,0,0-3.3443-1.2843Z" fill="#ec9a3a"/>
            <line x1="305.7489" y1="96.4521" x2="318.0504" y2="99.0705" fill="none" stroke="#ec9a3a" stroke-miterlimit="10"/>
            <circle cx="321.963" cy="99.9022" r="3" transform="translate(157.3041 394.0587) rotate(-78)" fill="#ec9a3a"/>
            <path d="M321.959,95.9014a4,4,0,1,1-3.9086,3.1692,4.0146,4.0146,0,0,1,3.9086-3.1692m0-1h0a5.0036,5.0036,0,1,0,1.0435.11,5.0225,5.0225,0,0,0-1.0435-.11Z" fill="#ec9a3a"/>
            <line x1="305.7489" y1="96.4521" x2="327.7232" y2="89.3122" fill="none" stroke="#ec9a3a" stroke-miterlimit="10"/>
            <circle cx="331.5274" cy="88.0762" r="3" transform="translate(-10.9909 106.7584) rotate(-18)" fill="#ec9a3a"/>
            <path d="M331.5282,84.0751a4.003,4.003,0,1,1-1.2369.1969,4.0016,4.0016,0,0,1,1.2369-.1969m0-1h0a5.001,5.001,0,1,0,4.7543,3.456,4.996,4.996,0,0,0-4.7543-3.456Z" fill="#ec9a3a"/>
            <circle cx="305.7489" cy="96.4521" r="6" transform="translate(-14.8409 99.2023) rotate(-18)" fill="#f4c289"/>
            <line x1="303.883" y1="120.1612" x2="321.8856" y2="119.2799" fill="none" stroke="#ec9a3a" stroke-miterlimit="10"/>
            <circle cx="325.8801" cy="119.0705" r="3" transform="translate(-5.7851 17.2184) rotate(-3)" fill="#ec9a3a"/>
            <path d="M325.8836,115.07a4,4,0,0,1,.2059,7.9946c-.0712.0037-.1423.0056-.2128.0056a4,4,0,0,1-.2059-7.9946q.1068-.0056.2128-.0056m0-1q-.132,0-.2652.007a5,5,0,0,0,.2582,9.9932c.0878,0,.1763-.0023.265-.007a5,5,0,0,0-.2581-9.9932Z" fill="#ec9a3a"/>
            <line x1="303.883" y1="120.1612" x2="310.7299" y2="130.7113" fill="none" stroke="#ec9a3a" stroke-miterlimit="10"/>
            <circle cx="312.9085" cy="134.0659" r="3" transform="translate(-22.5362 192.051) rotate(-33)" fill="#ec9a3a"/>
            <path d="M312.9048,130.0655a4.0007,4.0007,0,1,1-2.1748.6458,3.9965,3.9965,0,0,1,2.1748-.6458m0-1h0a5,5,0,1,0,4.197,2.2773,4.9829,4.9829,0,0,0-4.197-2.2773Z" fill="#ec9a3a"/>
            <line x1="303.883" y1="120.1612" x2="324.4698" y2="130.6507" fill="none" stroke="#ec9a3a" stroke-miterlimit="10"/>
            <circle cx="328.0338" cy="132.4667" r="3" transform="translate(61.0809 364.6083) rotate(-63)" fill="#ec9a3a"/>
            <path d="M328.037,128.4659a4.0006,4.0006,0,1,1-3.5672,2.1849,3.9825,3.9825,0,0,1,3.5672-2.1849m0-1h0a5.0015,5.0015,0,1,0,2.2666.5458,4.9813,4.9813,0,0,0-2.2666-.5458Z" fill="#ec9a3a"/>
            <circle cx="303.883" cy="120.1612" r="6" transform="translate(58.8585 336.3709) rotate(-63)" fill="#f4c289"/>
            <line x1="291.5249" y1="78.9901" x2="290.6435" y2="60.9875" fill="none" stroke="#ec9a3a" stroke-miterlimit="10"/>
            <circle cx="290.4342" cy="56.993" r="3" transform="translate(-2.5848 15.2783) rotate(-3)" fill="#ec9a3a"/>
            <path d="M290.4376,52.9929a4,4,0,0,1,.2059,7.9946q-.1068.0056-.2127.0056a4,4,0,0,1-.2059-7.9946q.1068-.0056.2128-.0056m0-1q-.132,0-.2652.007a5,5,0,0,0,.2582,9.9932q.1317,0,.265-.007a5,5,0,0,0-.2581-9.9932Z" fill="#ec9a3a"/>
            <line x1="291.5249" y1="78.9901" x2="302.0749" y2="72.1432" fill="none" stroke="#ec9a3a" stroke-miterlimit="10"/>
            <circle cx="305.4296" cy="69.9646" r="3" transform="translate(11.1693 177.6362) rotate(-33)" fill="#ec9a3a"/>
            <path d="M305.4258,65.9641a4.0007,4.0007,0,1,1-2.1748.6458,3.9965,3.9965,0,0,1,2.1748-.6458m0-1h0a5,5,0,1,0,4.197,2.2773,4.983,4.983,0,0,0-4.197-2.2773Z" fill="#ec9a3a"/>
            <line x1="291.5249" y1="78.9901" x2="302.0144" y2="58.4033" fill="none" stroke="#ec9a3a" stroke-miterlimit="10"/>
            <circle cx="303.8304" cy="54.8393" r="3" transform="translate(117.0321 300.6576) rotate(-63)" fill="#ec9a3a"/>
            <path d="M303.8336,50.8385a4.0006,4.0006,0,1,1-3.5673,2.1849,3.9826,3.9826,0,0,1,3.5673-2.1849m0-1h0a5.0015,5.0015,0,1,0,2.2666.5458,4.9813,4.9813,0,0,0-2.2666-.5458Z" fill="#ec9a3a"/>
            <circle cx="291.5249" cy="78.9901" r="6" transform="translate(88.7946 302.88) rotate(-63)" fill="#f4c289"/>
            <line x1="256.8279" y1="181.3949" x2="261.6889" y2="150.7042" fill="none" stroke="#ec9a3a" stroke-miterlimit="10"/>
            <line x1="292.1651" y1="156.9191" x2="261.6889" y2="150.7042" fill="none" stroke="#ec9a3a" stroke-miterlimit="10"/>
            <line x1="280.1413" y1="176.1017" x2="238.215" y2="118.3952" fill="none" stroke="#ec9a3a" stroke-miterlimit="10"/>
            <circle cx="261.663" cy="150.6685" r="12.5" transform="translate(-38.5876 182.5768) rotate(-36)" fill="#f4c289"/>
            <line x1="279.9533" y1="175.843" x2="296.3939" y2="183.2307" fill="none" stroke="#ec9a3a" stroke-miterlimit="10"/>
            <circle cx="300.0481" cy="184.8576" r="3" transform="translate(9.1317 383.7768) rotate(-66)" fill="#ec9a3a"/>
            <path d="M300.05,180.8566a4.0007,4.0007,0,1,1-3.6564,2.3741,3.986,3.986,0,0,1,3.6564-2.3741m0-1h0a5.002,5.002,0,1,0,2.0314.4333,5.0071,5.0071,0,0,0-2.0314-.4333Z" fill="#ec9a3a"/>
            <line x1="279.9533" y1="175.843" x2="281.2644" y2="188.3515" fill="none" stroke="#ec9a3a" stroke-miterlimit="10"/>
            <circle cx="281.6825" cy="192.3296" r="3" transform="translate(-18.5608 30.4974) rotate(-6)" fill="#ec9a3a"/>
            <path d="M281.6873,188.3293a4,4,0,0,1,.4132,7.9784,4.0485,4.0485,0,0,1-.423.0222,4,4,0,0,1-.4132-7.9784,4.0485,4.0485,0,0,1,.423-.0222m0-1a5.0029,5.0029,0,0,0-4.9777,5.5229,4.9867,4.9867,0,0,0,4.9677,4.4777,5.0482,5.0482,0,0,0,.5275-.0277,5,5,0,0,0-.5175-9.9729Z" fill="#ec9a3a"/>
            <line x1="279.9533" y1="175.843" x2="293.5341" y2="194.5354" fill="none" stroke="#ec9a3a" stroke-miterlimit="10"/>
            <circle cx="295.8853" cy="197.7715" r="3" transform="translate(-59.7381 211.688) rotate(-36)" fill="#ec9a3a"/>
            <path d="M295.882,193.7712a4,4,0,1,1-2.3478.7642,3.9943,3.9943,0,0,1,2.3478-.7642m0-1h0A5,5,0,0,0,291.84,200.71a5.0181,5.0181,0,0,0,4.0483,2.0614,5,5,0,0,0,4.0418-7.9392,5.0181,5.0181,0,0,0-4.0482-2.0614Z" fill="#ec9a3a"/>
            <circle cx="279.9533" cy="175.843" r="6" transform="translate(-49.8916 198.1354) rotate(-36)" fill="#f4c289"/>
            <line x1="256.8279" y1="181.3949" x2="263.2293" y2="198.244" fill="none" stroke="#ec9a3a" stroke-miterlimit="10"/>
            <circle cx="264.6628" cy="201.9784" r="3" transform="translate(-54.8038 108.262) rotate(-21)" fill="#ec9a3a"/>
            <path d="M264.6619,197.9773a4.0025,4.0025,0,1,1-1.4326.2668,4.0013,4.0013,0,0,1,1.4326-.2668m0-1h0a5.0007,5.0007,0,1,0,4.6686,3.2093,4.98,4.98,0,0,0-4.6686-3.2093Z" fill="#ec9a3a"/>
            <line x1="256.8279" y1="181.3949" x2="248.9101" y2="191.1669" fill="none" stroke="#ec9a3a" stroke-miterlimit="10"/>
            <circle cx="246.3928" cy="194.2754" r="3" transform="translate(-59.6476 263.4971) rotate(-51)" fill="#ec9a3a"/>
            <path d="M246.3953,190.2753a4,4,0,1,1-3.111,1.4828,3.9829,3.9829,0,0,1,3.111-1.4828m0-1h0a5,5,0,1,0,3.144,1.1144,4.9819,4.9819,0,0,0-3.144-1.1144Z" fill="#ec9a3a"/>
            <line x1="256.8279" y1="181.3949" x2="253.2135" y2="204.2155" fill="none" stroke="#ec9a3a" stroke-miterlimit="10"/>
            <circle cx="252.5878" cy="208.1663" r="3" transform="translate(7.4709 425.0799) rotate(-81)" fill="#ec9a3a"/>
            <path d="M252.5828,204.1657a4,4,0,1,1-3.9458,3.3748,4.03,4.03,0,0,1,3.9458-3.3748m0-1h0a5,5,0,0,0-.7774,9.939,5.0478,5.0478,0,0,0,.7871.0621,5,5,0,0,0,.7773-9.939,5.0466,5.0466,0,0,0-.7869-.0621Z" fill="#ec9a3a"/>
            <circle cx="256.8279" cy="181.3949" r="6" transform="translate(37.4896 406.6844) rotate(-81)" fill="#f4c289"/>
            <line x1="292.1651" y1="156.9191" x2="309.0143" y2="150.5177" fill="none" stroke="#ec9a3a" stroke-miterlimit="10"/>
            <circle cx="312.7486" cy="149.0842" r="3" transform="translate(-32.6544 121.9812) rotate(-21)" fill="#ec9a3a"/>
            <path d="M312.7478,145.0832a4.0026,4.0026,0,1,1-1.4326.2668,4.0012,4.0012,0,0,1,1.4326-.2668m0-1h0a5.0011,5.0011,0,1,0,4.6686,3.2092,4.9808,4.9808,0,0,0-4.6686-3.2092Z" fill="#ec9a3a"/>
            <line x1="292.1651" y1="156.9191" x2="301.9371" y2="164.8369" fill="none" stroke="#ec9a3a" stroke-miterlimit="10"/>
            <circle cx="305.0457" cy="167.3542" r="3" transform="translate(-16.9844 299.0998) rotate(-51)" fill="#ec9a3a"/>
            <path d="M305.0481,163.354a4,4,0,1,1-3.111,1.4828,3.9828,3.9828,0,0,1,3.111-1.4828m0-1h0a5,5,0,1,0,3.144,1.1144,4.9819,4.9819,0,0,0-3.144-1.1144Z" fill="#ec9a3a"/>
            <line x1="292.1651" y1="156.9191" x2="314.9858" y2="160.5335" fill="none" stroke="#ec9a3a" stroke-miterlimit="10"/>
            <circle cx="318.9365" cy="161.1592" r="3" transform="translate(109.8688 450.9583) rotate(-81)" fill="#ec9a3a"/>
            <path d="M318.9316,157.1586a4,4,0,1,1-3.9458,3.3748,4.0276,4.0276,0,0,1,3.9458-3.3748m0-1h0a5,5,0,0,0-.7774,9.939,5.0479,5.0479,0,0,0,.7871.0621,5,5,0,0,0,.7772-9.939,5.0467,5.0467,0,0,0-.7869-.0621Z" fill="#ec9a3a"/>
            <circle cx="292.1651" cy="156.9191" r="6" transform="translate(91.4733 420.9396) rotate(-81)" fill="#f4c289"/>
            <line x1="184.0505" y1="155.5651" x2="214.7412" y2="150.7042" fill="none" stroke="#ec9a3a" stroke-miterlimit="10"/>
            <line x1="218.2482" y1="181.6093" x2="214.7412" y2="150.7042" fill="none" stroke="#ec9a3a" stroke-miterlimit="10"/>
            <line x1="196.2888" y1="176.1017" x2="238.215" y2="118.3952" fill="none" stroke="#ec9a3a" stroke-miterlimit="10"/>
            <circle cx="214.7671" cy="150.6685" r="12.5" transform="translate(-33.3632 235.858) rotate(-54)" fill="#f4c289"/>
            <line x1="196.4768" y1="175.843" x2="194.5311" y2="193.7618" fill="none" stroke="#ec9a3a" stroke-miterlimit="10"/>
            <circle cx="194.113" cy="197.7399" r="3" transform="translate(-22.8341 370.1201) rotate(-84)" fill="#ec9a3a"/>
            <path d="M194.1081,193.74a4.0407,4.0407,0,0,1,.423.0222,4,4,0,0,1-.4133,7.9784,4.0443,4.0443,0,0,1-.423-.0222,4,4,0,0,1,.4132-7.9784m0-1h0a5,5,0,0,0-.5177,9.9729,5.0439,5.0439,0,0,0,.5275.0277,5,5,0,0,0,.5178-9.9729,5.0438,5.0438,0,0,0-.5275-.0277Z" fill="#ec9a3a"/>
            <line x1="196.4768" y1="175.843" x2="184.9856" y2="180.9553" fill="none" stroke="#ec9a3a" stroke-miterlimit="10"/>
            <circle cx="181.3314" cy="182.5822" r="3" transform="translate(-58.5859 89.5392) rotate(-24)" fill="#ec9a3a"/>
            <path d="M181.3291,178.5812a4.002,4.002,0,1,1-1.6247.3468,4,4,0,0,1,1.6247-.3468m0-1h0a5.001,5.001,0,1,0,4.57,2.9673,4.9656,4.9656,0,0,0-4.57-2.9673Z" fill="#ec9a3a"/>
            <line x1="196.4768" y1="175.843" x2="182.8959" y2="194.5354" fill="none" stroke="#ec9a3a" stroke-miterlimit="10"/>
            <circle cx="180.5448" cy="197.7715" r="3" transform="translate(-85.5772 227.5881) rotate(-54)" fill="#ec9a3a"/>
            <path d="M180.5481,193.7712a4,4,0,1,1-3.2394,1.6491,3.9813,3.9813,0,0,1,3.2394-1.6491m0-1h0a5,5,0,0,0-2.9424,9.0454,4.9641,4.9641,0,0,0,2.9356.9552A5.0181,5.0181,0,0,0,184.59,200.71a5,5,0,0,0-4.0416-7.9392Z" fill="#ec9a3a"/>
            <circle cx="196.4768" cy="175.843" r="6" transform="translate(-61.2693 231.4381) rotate(-54)" fill="#f4c289"/>
            <line x1="184.0505" y1="155.5651" x2="170.0041" y2="166.8598" fill="none" stroke="#ec9a3a" stroke-miterlimit="10"/>
            <circle cx="166.8955" cy="169.3771" r="3" transform="matrix(0.7771, -0.6293, 0.6293, 0.7771, -69.3991, 142.7771)" fill="#ec9a3a"/>
            <path d="M166.8931,165.377a4,4,0,1,1-2.5149.8916,3.9919,3.9919,0,0,1,2.5149-.8916m0-1h0a5,5,0,1,0,3.888,1.8535,5.0128,5.0128,0,0,0-3.888-1.8535Z" fill="#ec9a3a"/>
            <line x1="184.0505" y1="155.5651" x2="172.31" y2="151.0545" fill="none" stroke="#ec9a3a" stroke-miterlimit="10"/>
            <circle cx="168.5757" cy="149.621" r="3" transform="translate(-31.5197 253.3806) rotate(-69)" fill="#ec9a3a"/>
            <path d="M168.5766,145.62a4.0007,4.0007,0,1,1-3.7352,2.5676,3.9891,3.9891,0,0,1,3.7352-2.5676m0-1h0a5.0308,5.0308,0,0,0-4.6688,3.2093,5.0025,5.0025,0,0,0,4.6671,6.7929,5.0007,5.0007,0,0,0,1.7927-9.669,4.9791,4.9791,0,0,0-1.7908-.3332Z" fill="#ec9a3a"/>
            <line x1="184.0505" y1="155.5651" x2="161.2298" y2="159.1795" fill="none" stroke="#ec9a3a" stroke-miterlimit="10"/>
            <circle cx="157.2791" cy="159.8053" r="3" transform="translate(-23.0627 26.5713) rotate(-9)" fill="#ec9a3a"/>
            <path d="M157.284,155.8047a4.0035,4.0035,0,1,1-.6306.05,4.0008,4.0008,0,0,1,.6306-.05m0-1h0a5.0487,5.0487,0,0,0-.7872.0621,5,5,0,0,0,.7773,9.939,5.0035,5.0035,0,0,0,4.9434-5.7828,4.9743,4.9743,0,0,0-4.9333-4.2184Z" fill="#ec9a3a"/>
            <circle cx="184.0505" cy="155.5651" r="6" transform="translate(-22.0698 30.7071) rotate(-9)" fill="#f4c289"/>
            <line x1="218.2482" y1="181.6093" x2="229.5429" y2="195.6557" fill="none" stroke="#ec9a3a" stroke-miterlimit="10"/>
            <circle cx="232.0602" cy="198.7643" r="3" transform="translate(-73.3709 190.3356) rotate(-39)" fill="#ec9a3a"/>
            <path d="M232.0577,194.7642a4,4,0,1,1-2.5148.8915,3.9919,3.9919,0,0,1,2.5148-.8915m0-1h0a5,5,0,1,0,3.888,1.8535,5.0127,5.0127,0,0,0-3.888-1.8535Z" fill="#ec9a3a"/>
            <line x1="218.2482" y1="181.6093" x2="213.7376" y2="193.3498" fill="none" stroke="#ec9a3a" stroke-miterlimit="10"/>
            <circle cx="212.3041" cy="197.0841" r="3" transform="translate(-47.7727 324.6584) rotate(-69)" fill="#ec9a3a"/>
            <path d="M212.3049,193.083a4.0007,4.0007,0,1,1-3.7352,2.5676,3.9894,3.9894,0,0,1,3.7352-2.5676m0-1h0a5.0309,5.0309,0,0,0-4.6689,3.2092,5.0025,5.0025,0,0,0,4.6671,6.7929,5.0007,5.0007,0,0,0,1.7927-9.669,4.979,4.979,0,0,0-1.7907-.3332Z" fill="#ec9a3a"/>
            <line x1="218.2482" y1="181.6093" x2="221.8626" y2="204.43" fill="none" stroke="#ec9a3a" stroke-miterlimit="10"/>
            <circle cx="222.4883" cy="208.3807" r="3" transform="translate(-29.8587 37.3704) rotate(-9)" fill="#ec9a3a"/>
            <path d="M222.4933,204.38a4.0035,4.0035,0,1,1-.6307.05,4.0008,4.0008,0,0,1,.6307-.05m0-1h0a5.0491,5.0491,0,0,0-.7873.0621,5,5,0,0,0,.7773,9.939,5.0035,5.0035,0,0,0,4.9433-5.7828,4.9743,4.9743,0,0,0-4.9333-4.2184Z" fill="#ec9a3a"/>
            <circle cx="218.2482" cy="181.6093" r="6" transform="translate(-25.723 36.3774) rotate(-9)" fill="#f4c289"/>
            <line x1="186.1266" y1="78.3678" x2="200.2336" y2="106.0543" fill="none" stroke="#ec9a3a" stroke-miterlimit="10"/>
            <line x1="171.9247" y1="118.9398" x2="200.2336" y2="106.0543" fill="none" stroke="#ec9a3a" stroke-miterlimit="10"/>
            <line x1="170.377" y1="96.3533" x2="238.215" y2="118.3952" fill="none" stroke="#ec9a3a" stroke-miterlimit="10"/>
            <circle cx="200.2755" cy="106.0679" r="12.5" transform="translate(37.5104 263.7644) rotate(-72)" fill="#f4c289"/>
            <line x1="170.6811" y1="96.4521" x2="153.038" y2="100.1389" fill="none" stroke="#ec9a3a" stroke-miterlimit="10"/>
            <circle cx="149.1254" cy="100.9705" r="3" transform="translate(-17.7342 33.2114) rotate(-12)" fill="#ec9a3a"/>
            <path d="M149.1294,96.97a4.0036,4.0036,0,1,1-.8356.0882,4.0012,4.0012,0,0,1,.8356-.0882m0-1h0a5.0317,5.0317,0,0,0-1.0437.11,5,5,0,0,0-3.8512,5.93,4.9956,4.9956,0,0,0,5.93,3.8512,5,5,0,0,0,3.8512-5.93A5.0221,5.0221,0,0,0,149.13,95.97Z" fill="#ec9a3a"/>
            <line x1="170.6811" y1="96.4521" x2="162.2681" y2="87.1031" fill="none" stroke="#ec9a3a" stroke-miterlimit="10"/>
            <circle cx="159.5916" cy="84.1305" r="3" transform="translate(-15.3024 128.397) rotate(-42)" fill="#ec9a3a"/>
            <path d="M159.59,80.13a4,4,0,1,1-2.6752,1.0275A3.9892,3.9892,0,0,1,159.59,80.13m0-1h0a5,5,0,1,0,3.7167,1.6544,4.9914,4.9914,0,0,0-3.7167-1.6544Z" fill="#ec9a3a"/>
            <line x1="170.6811" y1="96.4521" x2="148.7069" y2="89.3122" fill="none" stroke="#ec9a3a" stroke-miterlimit="10"/>
            <circle cx="144.9026" cy="88.0762" r="3" transform="translate(16.3599 198.6697) rotate(-72)" fill="#ec9a3a"/>
            <path d="M144.9018,84.0751a4.0007,4.0007,0,1,1-3.8034,2.765,3.9951,3.9951,0,0,1,3.8034-2.765m0-1h0a5.0061,5.0061,0,1,0,1.5457.2458,4.988,4.988,0,0,0-1.5457-.2458Z" fill="#ec9a3a"/>
            <circle cx="170.6811" cy="96.4521" r="6" transform="matrix(0.309, -0.9511, 0.9511, 0.309, 26.2064, 228.9742)" fill="#f4c289"/>
            <line x1="186.1266" y1="78.3678" x2="171.0441" y2="68.4991" fill="none" stroke="#ec9a3a" stroke-miterlimit="10"/>
            <circle cx="167.6894" cy="66.3206" r="3" transform="translate(20.7381 170.836) rotate(-57)" fill="#ec9a3a"/>
            <path d="M167.6932,62.32a4,4,0,1,1-3.3584,1.8219,3.9805,3.9805,0,0,1,3.3584-1.8219m0-1h0a5.0007,5.0007,0,1,0,2.7193.8071,4.9866,4.9866,0,0,0-2.7193-.8071Z" fill="#ec9a3a"/>
            <line x1="186.1266" y1="78.3678" x2="186.7884" y2="65.8081" fill="none" stroke="#ec9a3a" stroke-miterlimit="10"/>
            <circle cx="186.9978" cy="61.8136" r="3" transform="matrix(0.0523, -0.9986, 0.9986, 0.0523, 115.4822, 245.32)" fill="#ec9a3a"/>
            <path d="M186.9944,57.8135c.0706,0,.1414.0018.2127.0056a4,4,0,0,1-.2059,7.9946c-.0706,0-.1414-.0018-.2128-.0056a4,4,0,0,1,.2059-7.9946m.0006-1h0a5,5,0,0,0-.2588,9.9933c.0889.0047.1771.007.2651.007a5,5,0,0,0,.2583-9.9933c-.0887-.0047-.1767-.007-.2645-.007Z" fill="#ec9a3a"/>
            <line x1="186.1266" y1="78.3678" x2="175.6371" y2="57.781" fill="none" stroke="#ec9a3a" stroke-miterlimit="10"/>
            <circle cx="173.8211" cy="54.217" r="3" transform="translate(-5.6686 84.8224) rotate(-27)" fill="#ec9a3a"/>
            <path d="M173.8179,50.2161a4.0015,4.0015,0,1,1-1.8127.4368,3.9994,3.9994,0,0,1,1.8127-.4368m0-1h0a5.0178,5.0178,0,0,0-2.2669.5458,4.9975,4.9975,0,1,0,2.267-.5458Z" fill="#ec9a3a"/>
            <circle cx="186.1266" cy="78.3678" r="6" transform="translate(-15.2916 93.0413) rotate(-27)" fill="#f4c289"/>
            <line x1="171.9247" y1="118.9398" x2="162.0561" y2="134.0223" fill="none" stroke="#ec9a3a" stroke-miterlimit="10"/>
            <circle cx="159.8775" cy="137.377" r="3" transform="translate(-42.4121 196.6407) rotate(-57)" fill="#ec9a3a"/>
            <path d="M159.8813,133.3765a4,4,0,1,1-3.3584,1.8219,3.98,3.98,0,0,1,3.3584-1.8219m0-1h0a5.0007,5.0007,0,1,0,2.7193.8071,4.9867,4.9867,0,0,0-2.7193-.8071Z" fill="#ec9a3a"/>
            <line x1="171.9247" y1="118.9398" x2="159.365" y2="118.278" fill="none" stroke="#ec9a3a" stroke-miterlimit="10"/>
            <circle cx="155.3705" cy="118.0686" r="3" transform="translate(29.3322 267.047) rotate(-87)" fill="#ec9a3a"/>
            <path d="M155.3671,114.0685c.0706,0,.1414.0018.2128.0056a4,4,0,0,1-.2059,7.9946c-.0706,0-.1414-.0018-.2128-.0056a4,4,0,0,1,.2059-7.9946m.0006-1h0a5,5,0,0,0-.2588,9.9932c.0889.0047.1771.007.2651.007a5,5,0,0,0,.2583-9.9932c-.0887-.0047-.1767-.007-.2645-.007Z" fill="#ec9a3a"/>
            <line x1="171.9247" y1="118.9398" x2="151.3379" y2="129.4293" fill="none" stroke="#ec9a3a" stroke-miterlimit="10"/>
            <circle cx="147.7739" cy="131.2453" r="3" transform="translate(-43.4777 81.3928) rotate(-27)" fill="#ec9a3a"/>
            <path d="M147.7707,127.2444a4.0015,4.0015,0,1,1-1.8127.4368,3.9995,3.9995,0,0,1,1.8127-.4368m0-1h0a5.0009,5.0009,0,1,0,2.273,9.4559,5.0006,5.0006,0,0,0-2.2729-9.4559Z" fill="#ec9a3a"/>
            <circle cx="171.9247" cy="118.9398" r="6" transform="translate(-35.2589 91.0159) rotate(-27)" fill="#f4c289"/>
            <circle cx="238.215" cy="118.4898" r="20" fill="#ec9a3a"/>
          </g>
        </g>
      </g>
    </g>
  </g>
</svg>
