<svg xmlns="http://www.w3.org/2000/svg" viewBox="0 0 200 200">
  <title>illu-arbor</title>
  <g style="isolation: isolate">
    <g id="illu-arbor">
      <g style="mix-blend-mode: multiply">
        <g>
          <line x1="121.9721" y1="42.156" x2="100" y2="64.1281" fill="none" stroke="#ec9a3a" stroke-miterlimit="10"/>
          <line x1="78.9972" y1="41.1867" x2="100" y2="64.1281" fill="none" stroke="#ec9a3a" stroke-miterlimit="10"/>
          <line x1="100" y1="32.735" x2="100" y2="104.0642" fill="none" stroke="#ec9a3a" stroke-miterlimit="10"/>
          <circle cx="100" cy="64.1721" r="12.5" fill="#f4c289"/>
          <g>
            <g>
              <line x1="100" y1="33.0548" x2="91.0417" y2="17.4145" fill="none" stroke="#ec9a3a" stroke-miterlimit="10"/>
              <circle cx="89.0417" cy="13.9504" r="3" transform="translate(4.9541 46.3898) rotate(-30)" fill="#ec9a3a"/>
              <path d="M89.0379,9.95a4.0011,4.0011,0,1,1-1.9963.5366A3.9981,3.9981,0,0,1,89.0379,9.95m0-1h0A5.0008,5.0008,0,1,0,93.3718,11.45,5.0009,5.0009,0,0,0,89.0381,8.95Z" fill="#ec9a3a"/>
            </g>
            <g>
              <line x1="100" y1="33.0548" x2="106.2917" y2="22.1645" fill="none" stroke="#ec9a3a" stroke-miterlimit="10"/>
              <circle cx="108.2917" cy="18.7004" r="3" transform="translate(37.9508 103.1336) rotate(-60)" fill="#ec9a3a"/>
              <path d="M108.2954,14.7A4,4,0,1,1,104.8276,16.7,3.981,3.981,0,0,1,108.2954,14.7m0-1h0A5.0178,5.0178,0,0,0,103.9615,16.2a5.0011,5.0011,0,0,0,4.3264,7.5007A5.0175,5.0175,0,0,0,112.6218,21.2,5.0011,5.0011,0,0,0,108.2955,13.7Z" fill="#ec9a3a"/>
            </g>
            <g>
              <line x1="100" y1="33.0548" x2="100" y2="9.9497" fill="none" stroke="#ec9a3a" stroke-miterlimit="10"/>
              <circle cx="100" cy="5.9497" r="3" fill="#ec9a3a"/>
              <path d="M100,1.95a4,4,0,1,1-4,4,4,4,0,0,1,4-4m0-1a5,5,0,1,0,5,5,5.0057,5.0057,0,0,0-5-5Z" fill="#ec9a3a"/>
            </g>
            <circle cx="100" cy="33.0548" r="6" fill="#f4c289"/>
          </g>
          <g>
            <g>
              <line x1="121.9721" y1="42.156" x2="126.697" y2="24.7621" fill="none" stroke="#ec9a3a" stroke-miterlimit="10"/>
              <circle cx="127.7323" cy="20.8984" r="3" transform="matrix(0.2588, -0.9659, 0.9659, 0.2588, 74.4864, 138.8694)" fill="#ec9a3a"/>
              <path d="M127.73,16.8974a4.0006,4.0006,0,1,1-3.8612,2.9657,4.004,4.004,0,0,1,3.8612-2.9657m0-1h0a5.0034,5.0034,0,1,0,1.2964.1714,5.0064,5.0064,0,0,0-1.2964-.1714Z" fill="#ec9a3a"/>
            </g>
            <g>
              <line x1="121.9721" y1="42.156" x2="134.1216" y2="38.9043" fill="none" stroke="#ec9a3a" stroke-miterlimit="10"/>
              <circle cx="137.9853" cy="37.869" r="3" transform="translate(-5.0995 37.0036) rotate(-15)" fill="#ec9a3a"/>
              <path d="M137.9878,33.868a4.0034,4.0034,0,1,1-1.0378.1373,4.0015,4.0015,0,0,1,1.0378-.1373m0-1h0a5.0006,5.0006,0,1,0,4.827,3.7069,5.0134,5.0134,0,0,0-4.827-3.7069Z" fill="#ec9a3a"/>
            </g>
            <g>
              <line x1="121.9721" y1="42.156" x2="138.3099" y2="25.8182" fill="none" stroke="#ec9a3a" stroke-miterlimit="10"/>
              <circle cx="141.1383" cy="22.9898" r="3" transform="translate(25.0822 106.5334) rotate(-45)" fill="#ec9a3a"/>
              <path d="M141.1383,18.99a4,4,0,1,1-2.8284,1.1716,3.9875,3.9875,0,0,1,2.8284-1.1716m0-1a5,5,0,1,0,3.5355,1.4645,4.9673,4.9673,0,0,0-3.5355-1.4645Z" fill="#ec9a3a"/>
            </g>
            <circle cx="121.9721" cy="42.156" r="6" transform="translate(5.916 98.5945) rotate(-45)" fill="#f4c289"/>
          </g>
          <g>
            <g>
              <line x1="78.9972" y1="41.1867" x2="61.6033" y2="36.4618" fill="none" stroke="#ec9a3a" stroke-miterlimit="10"/>
              <circle cx="57.7396" cy="35.4265" r="3" transform="translate(8.5762 82.0296) rotate(-75)" fill="#ec9a3a"/>
              <path d="M57.7371,31.4255a4.0006,4.0006,0,1,1-3.8612,2.9657,4.0039,4.0039,0,0,1,3.8612-2.9657m0-1h0a5.0034,5.0034,0,1,0,1.2964.1714,5.0064,5.0064,0,0,0-1.2964-.1714Z" fill="#ec9a3a"/>
            </g>
            <g>
              <line x1="78.9972" y1="41.1867" x2="75.7455" y2="29.0372" fill="none" stroke="#ec9a3a" stroke-miterlimit="10"/>
              <circle cx="74.7102" cy="25.1735" r="3" transform="matrix(0.9659, -0.2588, 0.2588, 0.9659, -3.9697, 20.1942)" fill="#ec9a3a"/>
              <path d="M74.7127,21.1725a4.0034,4.0034,0,1,1-1.0378.1373,4.0015,4.0015,0,0,1,1.0378-.1373m0-1h0a5.0009,5.0009,0,1,0,4.827,3.7069,5.0134,5.0134,0,0,0-4.827-3.7069Z" fill="#ec9a3a"/>
            </g>
            <g>
              <line x1="78.9972" y1="41.1867" x2="62.6594" y2="24.8489" fill="none" stroke="#ec9a3a" stroke-miterlimit="10"/>
              <circle cx="59.831" cy="22.0204" r="3" transform="translate(1.9533 48.7566) rotate(-45)" fill="#ec9a3a"/>
              <path d="M59.831,18.02a4,4,0,1,1-2.8284,1.1716A3.9875,3.9875,0,0,1,59.831,18.02m0-1a5,5,0,1,0,3.5355,1.4645A4.9673,4.9673,0,0,0,59.831,17.02Z" fill="#ec9a3a"/>
            </g>
            <circle cx="78.9972" cy="41.1867" r="6" transform="translate(-5.9856 67.9228) rotate(-45)" fill="#f4c289"/>
          </g>
        </g>
        <g>
          <line x1="165.6679" y1="105.8302" x2="137.9815" y2="91.7233" fill="none" stroke="#ec9a3a" stroke-miterlimit="10"/>
          <line x1="153.3099" y1="64.6591" x2="137.9815" y2="91.7233" fill="none" stroke="#ec9a3a" stroke-miterlimit="10"/>
          <line x1="167.8381" y1="82.0223" x2="100" y2="104.0642" fill="none" stroke="#ec9a3a" stroke-miterlimit="10"/>
          <circle cx="137.9396" cy="91.7369" r="12.5" transform="translate(-21.597 47.1156) rotate(-18)" fill="#f4c289"/>
          <g>
            <g>
              <line x1="167.5339" y1="82.1211" x2="179.6405" y2="68.7681" fill="none" stroke="#ec9a3a" stroke-miterlimit="10"/>
              <circle cx="182.317" cy="65.7955" r="3" transform="translate(11.4275 157.2576) rotate(-48)" fill="#ec9a3a"/>
              <path d="M182.3183,61.7955a4,4,0,1,1-2.9739,1.3235,3.9852,3.9852,0,0,1,2.9739-1.3235m0-1h0a5,5,0,1,0,3.3443,1.2843,5.0089,5.0089,0,0,0-3.3443-1.2843Z" fill="#ec9a3a"/>
            </g>
            <g>
              <line x1="167.5339" y1="82.1211" x2="179.8354" y2="84.7395" fill="none" stroke="#ec9a3a" stroke-miterlimit="10"/>
              <circle cx="183.748" cy="85.5712" r="3" transform="translate(61.8434 247.5126) rotate(-78)" fill="#ec9a3a"/>
              <path d="M183.744,81.57a4,4,0,1,1-3.9086,3.1692A4.0144,4.0144,0,0,1,183.744,81.57m0-1h0a5.0225,5.0225,0,0,0-4.8869,3.9613,5,5,0,0,0,3.8512,5.93,4.9956,4.9956,0,0,0,5.93-3.8512,5,5,0,0,0-3.8512-5.93,5.0282,5.0282,0,0,0-1.0434-.11Z" fill="#ec9a3a"/>
            </g>
            <g>
              <line x1="167.5339" y1="82.1211" x2="189.5082" y2="74.9812" fill="none" stroke="#ec9a3a" stroke-miterlimit="10"/>
              <circle cx="193.3124" cy="73.7451" r="3" transform="translate(-13.3271 63.3462) rotate(-18)" fill="#ec9a3a"/>
              <path d="M193.3132,69.7441a4.003,4.003,0,1,1-1.2369.1969,4.0016,4.0016,0,0,1,1.2369-.1969m0-1h0a5.0007,5.0007,0,1,0,4.7543,3.456,4.9961,4.9961,0,0,0-4.7543-3.456Z" fill="#ec9a3a"/>
            </g>
            <circle cx="167.5339" cy="82.1211" r="6" transform="translate(-17.1771 55.7901) rotate(-18)" fill="#f4c289"/>
          </g>
          <g>
            <g>
              <line x1="165.6679" y1="105.8302" x2="183.6706" y2="104.9489" fill="none" stroke="#ec9a3a" stroke-miterlimit="10"/>
              <circle cx="187.6651" cy="104.7395" r="3" transform="translate(-5.2245 9.9652) rotate(-3)" fill="#ec9a3a"/>
              <path d="M187.6685,100.7394a4,4,0,0,1,.2059,7.9946q-.1068.0056-.2128.0056a4,4,0,0,1-.2059-7.9946q.1068-.0056.2128-.0056m0-1q-.132,0-.2652.007a5,5,0,0,0,.2582,9.9932q.1318,0,.2651-.007a5,5,0,0,0-.2581-9.9932Z" fill="#ec9a3a"/>
            </g>
            <g>
              <line x1="165.6679" y1="105.8302" x2="172.5149" y2="116.3802" fill="none" stroke="#ec9a3a" stroke-miterlimit="10"/>
              <circle cx="174.6935" cy="119.7349" r="3" transform="translate(-37.0291 114.4616) rotate(-33)" fill="#ec9a3a"/>
              <path d="M174.69,115.7344a4.0007,4.0007,0,1,1-2.1748.6458,3.9965,3.9965,0,0,1,2.1748-.6458m0-1h0a5,5,0,1,0,4.197,2.2773,4.983,4.983,0,0,0-4.197-2.2773Z" fill="#ec9a3a"/>
            </g>
            <g>
              <line x1="165.6679" y1="105.8302" x2="186.2547" y2="116.3197" fill="none" stroke="#ec9a3a" stroke-miterlimit="10"/>
              <circle cx="189.8188" cy="118.1357" r="3" transform="translate(-1.6168 233.633) rotate(-63)" fill="#ec9a3a"/>
              <path d="M189.822,114.1348a4.0006,4.0006,0,1,1-3.5672,2.1849,3.9826,3.9826,0,0,1,3.5672-2.1849m0-1h0a5.0029,5.0029,0,1,0,2.2666.5458,4.9813,4.9813,0,0,0-2.2666-.5458Z" fill="#ec9a3a"/>
            </g>
            <circle cx="165.6679" cy="105.8302" r="6" transform="translate(-3.8391 205.3955) rotate(-63)" fill="#f4c289"/>
          </g>
          <g>
            <g>
              <line x1="153.3099" y1="64.6591" x2="152.4285" y2="46.6565" fill="none" stroke="#ec9a3a" stroke-miterlimit="10"/>
              <circle cx="152.2192" cy="42.662" r="3" transform="translate(-2.0241 8.025) rotate(-3)" fill="#ec9a3a"/>
              <path d="M152.2226,38.6619a4,4,0,0,1,.2059,7.9946q-.1068.0056-.2128.0056a4,4,0,0,1-.2059-7.9946q.1068-.0056.2128-.0056m0-1q-.132,0-.2652.007a5,5,0,0,0,.2582,9.9932q.1318,0,.265-.007a5,5,0,0,0-.2581-9.9932Z" fill="#ec9a3a"/>
            </g>
            <g>
              <line x1="153.3099" y1="64.6591" x2="163.8599" y2="57.8121" fill="none" stroke="#ec9a3a" stroke-miterlimit="10"/>
              <circle cx="167.2146" cy="55.6336" r="3" transform="translate(-3.3236 100.0469) rotate(-33)" fill="#ec9a3a"/>
              <path d="M167.2108,51.6331a4.0007,4.0007,0,1,1-2.1748.6458,3.9965,3.9965,0,0,1,2.1748-.6458m0-1h0a5,5,0,1,0,4.197,2.2773,4.983,4.983,0,0,0-4.197-2.2773Z" fill="#ec9a3a"/>
            </g>
            <g>
              <line x1="153.3099" y1="64.6591" x2="163.7994" y2="44.0723" fill="none" stroke="#ec9a3a" stroke-miterlimit="10"/>
              <circle cx="165.6153" cy="40.5083" r="3" transform="translate(54.3344 169.6822) rotate(-63)" fill="#ec9a3a"/>
              <path d="M165.6185,36.5074a4.0006,4.0006,0,1,1-3.5672,2.1849,3.9826,3.9826,0,0,1,3.5672-2.1849m0-1h0a5.0029,5.0029,0,1,0,2.2666.5458,4.9813,4.9813,0,0,0-2.2666-.5458Z" fill="#ec9a3a"/>
            </g>
            <circle cx="153.3099" cy="64.6591" r="6" transform="translate(26.0969 171.9046) rotate(-63)" fill="#f4c289"/>
          </g>
        </g>
        <g>
          <line x1="118.6129" y1="167.0638" x2="123.4738" y2="136.3731" fill="none" stroke="#ec9a3a" stroke-miterlimit="10"/>
          <line x1="153.9501" y1="142.588" x2="123.4738" y2="136.3731" fill="none" stroke="#ec9a3a" stroke-miterlimit="10"/>
          <line x1="141.9262" y1="161.7707" x2="100" y2="104.0642" fill="none" stroke="#ec9a3a" stroke-miterlimit="10"/>
          <circle cx="123.4479" cy="136.3375" r="12.5" transform="translate(-56.5607 98.599) rotate(-36)" fill="#f4c289"/>
          <g>
            <g>
              <line x1="141.7382" y1="161.5119" x2="158.1788" y2="168.8997" fill="none" stroke="#ec9a3a" stroke-miterlimit="10"/>
              <circle cx="161.833" cy="170.5266" r="3" transform="translate(-59.7742 249.009) rotate(-66)" fill="#ec9a3a"/>
              <path d="M161.8353,166.5256a4.0007,4.0007,0,1,1-3.6564,2.3741,3.9859,3.9859,0,0,1,3.6564-2.3741m0-1h0a5.002,5.002,0,1,0,2.0314.4333,5.0071,5.0071,0,0,0-2.0314-.4333Z" fill="#ec9a3a"/>
            </g>
            <g>
              <line x1="141.7382" y1="161.5119" x2="143.0493" y2="174.0205" fill="none" stroke="#ec9a3a" stroke-miterlimit="10"/>
              <circle cx="143.4674" cy="177.9986" r="3" transform="translate(-17.82 15.9715) rotate(-6)" fill="#ec9a3a"/>
              <path d="M143.4723,173.9983a4,4,0,0,1,.4133,7.9784,4.0487,4.0487,0,0,1-.423.0222,4,4,0,0,1-.4133-7.9784,4.0482,4.0482,0,0,1,.423-.0222m0-1a5.049,5.049,0,0,0-.5278.0277,5,5,0,0,0,.5178,9.9729,5.0029,5.0029,0,0,0,4.9775-5.523,4.9865,4.9865,0,0,0-4.9675-4.4777Z" fill="#ec9a3a"/>
            </g>
            <g>
              <line x1="141.7382" y1="161.5119" x2="155.3191" y2="180.2044" fill="none" stroke="#ec9a3a" stroke-miterlimit="10"/>
              <circle cx="157.6702" cy="183.4404" r="3" transform="translate(-77.7112 127.7102) rotate(-36)" fill="#ec9a3a"/>
              <path d="M157.6669,179.44a4,4,0,1,1-2.3479.7642,3.9943,3.9943,0,0,1,2.3479-.7642m0-1h0a5,5,0,0,0-4.0419,7.9392,5.0181,5.0181,0,0,0,4.0484,2.0614,5,5,0,0,0,4.0418-7.9392,5.018,5.018,0,0,0-4.0482-2.0614Z" fill="#ec9a3a"/>
            </g>
            <circle cx="141.7382" cy="161.5119" r="6" transform="translate(-67.8647 114.1577) rotate(-36)" fill="#f4c289"/>
          </g>
          <g>
            <g>
              <line x1="118.6129" y1="167.0638" x2="125.0143" y2="183.913" fill="none" stroke="#ec9a3a" stroke-miterlimit="10"/>
              <circle cx="126.4477" cy="187.6473" r="3" transform="translate(-58.8482 57.7783) rotate(-21)" fill="#ec9a3a"/>
              <path d="M126.4469,183.6463a4.0025,4.0025,0,1,1-1.4326.2668,4.0013,4.0013,0,0,1,1.4326-.2668m0-1h0a5.0025,5.0025,0,0,0-4.6672,6.7929,5.0305,5.0305,0,0,0,4.6687,3.2092,5.0011,5.0011,0,0,0,4.6671-6.7929,5.03,5.03,0,0,0-4.6686-3.2092Z" fill="#ec9a3a"/>
            </g>
            <g>
              <line x1="118.6129" y1="167.0638" x2="110.6951" y2="176.8358" fill="none" stroke="#ec9a3a" stroke-miterlimit="10"/>
              <circle cx="108.1778" cy="179.9444" r="3" transform="translate(-99.7438 150.7717) rotate(-51)" fill="#ec9a3a"/>
              <path d="M108.18,175.9443a4,4,0,1,1-3.111,1.4828,3.9829,3.9829,0,0,1,3.111-1.4828m0-1h0a5,5,0,1,0,3.144,1.1144,4.9819,4.9819,0,0,0-3.144-1.1144Z" fill="#ec9a3a"/>
            </g>
            <g>
              <line x1="118.6129" y1="167.0638" x2="114.9985" y2="189.8845" fill="none" stroke="#ec9a3a" stroke-miterlimit="10"/>
              <circle cx="114.3727" cy="193.8352" r="3" transform="translate(-94.9679 276.4773) rotate(-81)" fill="#ec9a3a"/>
              <path d="M114.3678,189.8347a4,4,0,1,1-3.9458,3.3748,4.03,4.03,0,0,1,3.9458-3.3748m0-1h0a5,5,0,0,0-.7774,9.939,5.0476,5.0476,0,0,0,.7871.0621,5,5,0,0,0,.7773-9.939,5.0465,5.0465,0,0,0-.7869-.0621Z" fill="#ec9a3a"/>
            </g>
            <circle cx="118.6129" cy="167.0638" r="6" transform="translate(-64.9492 258.0819) rotate(-81)" fill="#f4c289"/>
          </g>
          <g>
            <g>
              <line x1="153.9501" y1="142.588" x2="170.7993" y2="136.1867" fill="none" stroke="#ec9a3a" stroke-miterlimit="10"/>
              <circle cx="174.5336" cy="134.7532" r="3" transform="translate(-36.6988 71.4975) rotate(-21)" fill="#ec9a3a"/>
              <path d="M174.5328,130.7521a4.0025,4.0025,0,1,1-1.4326.2668,4.0012,4.0012,0,0,1,1.4326-.2668m0-1h0a5.0007,5.0007,0,1,0,4.6686,3.2092,4.9809,4.9809,0,0,0-4.6686-3.2092Z" fill="#ec9a3a"/>
            </g>
            <g>
              <line x1="153.9501" y1="142.588" x2="163.7221" y2="150.5059" fill="none" stroke="#ec9a3a" stroke-miterlimit="10"/>
              <circle cx="166.8307" cy="153.0231" r="3" transform="translate(-57.0806 186.3743) rotate(-51)" fill="#ec9a3a"/>
              <path d="M166.8331,149.023a4,4,0,1,1-3.111,1.4828,3.9828,3.9828,0,0,1,3.111-1.4828m0-1h0a5,5,0,1,0,3.144,1.1144,4.9818,4.9818,0,0,0-3.144-1.1144Z" fill="#ec9a3a"/>
            </g>
            <g>
              <line x1="153.9501" y1="142.588" x2="176.7707" y2="146.2025" fill="none" stroke="#ec9a3a" stroke-miterlimit="10"/>
              <circle cx="180.7215" cy="146.8282" r="3" transform="translate(7.4299 302.3557) rotate(-81)" fill="#ec9a3a"/>
              <path d="M180.7166,142.8276a4,4,0,1,1-3.9458,3.3748,4.0278,4.0278,0,0,1,3.9458-3.3748m0-1h0a5,5,0,0,0-.7774,9.939,5.048,5.048,0,0,0,.7871.0621,5,5,0,0,0,.7773-9.939,5.0465,5.0465,0,0,0-.7869-.0621Z" fill="#ec9a3a"/>
            </g>
            <circle cx="153.9501" cy="142.588" r="6" transform="translate(-10.9656 272.3371) rotate(-81)" fill="#f4c289"/>
          </g>
        </g>
        <g>
          <line x1="45.8355" y1="141.2341" x2="76.5262" y2="136.3731" fill="none" stroke="#ec9a3a" stroke-miterlimit="10"/>
          <line x1="80.0331" y1="167.2783" x2="76.5262" y2="136.3731" fill="none" stroke="#ec9a3a" stroke-miterlimit="10"/>
          <line x1="58.0738" y1="161.7707" x2="100" y2="104.0642" fill="none" stroke="#ec9a3a" stroke-miterlimit="10"/>
          <circle cx="76.5521" cy="136.3375" r="12.5" transform="translate(-78.7435 118.1322) rotate(-54)" fill="#f4c289"/>
          <g>
            <g>
              <line x1="58.2618" y1="161.5119" x2="56.316" y2="179.4308" fill="none" stroke="#ec9a3a" stroke-miterlimit="10"/>
              <circle cx="55.8979" cy="183.4089" r="3" transform="translate(-132.3492 219.8292) rotate(-84)" fill="#ec9a3a"/>
              <path d="M55.893,179.4086a4.04,4.04,0,0,1,.423.0222,4,4,0,0,1-.4132,7.9784,4.0443,4.0443,0,0,1-.423-.0222,4,4,0,0,1,.4132-7.9784m0-1h0a5,5,0,0,0-.5177,9.9729,5.0437,5.0437,0,0,0,.5275.0277,5,5,0,0,0,.5178-9.9729,5.0434,5.0434,0,0,0-.5275-.0277Z" fill="#ec9a3a"/>
            </g>
            <g>
              <line x1="58.2618" y1="161.5119" x2="46.7705" y2="166.6242" fill="none" stroke="#ec9a3a" stroke-miterlimit="10"/>
              <circle cx="43.1164" cy="168.2512" r="3" transform="translate(-64.7063 32.0831) rotate(-24)" fill="#ec9a3a"/>
              <path d="M43.1141,164.25a4.002,4.002,0,1,1-1.6247.3468,4,4,0,0,1,1.6247-.3468m0-1h0a5.001,5.001,0,1,0,4.57,2.9673,4.9656,4.9656,0,0,0-4.57-2.9673Z" fill="#ec9a3a"/>
            </g>
            <g>
              <line x1="58.2618" y1="161.5119" x2="44.6809" y2="180.2044" fill="none" stroke="#ec9a3a" stroke-miterlimit="10"/>
              <circle cx="42.3298" cy="183.4404" r="3" transform="translate(-130.9575 109.8624) rotate(-54)" fill="#ec9a3a"/>
              <path d="M42.3331,179.44a4,4,0,1,1-3.2394,1.6491,3.9813,3.9813,0,0,1,3.2394-1.6491m0-1h0a5.0185,5.0185,0,0,0-4.0485,2.0614,5,5,0,0,0,4.0418,7.9392,5,5,0,0,0,2.9422-9.0454,4.9638,4.9638,0,0,0-2.9354-.9552Z" fill="#ec9a3a"/>
            </g>
            <circle cx="58.2618" cy="161.5119" r="6" transform="translate(-106.6495 113.7124) rotate(-54)" fill="#f4c289"/>
          </g>
          <g>
            <g>
              <line x1="45.8355" y1="141.2341" x2="31.7891" y2="152.5288" fill="none" stroke="#ec9a3a" stroke-miterlimit="10"/>
              <circle cx="28.6805" cy="155.0461" r="3" transform="translate(-91.1821 52.6019) rotate(-39)" fill="#ec9a3a"/>
              <path d="M28.6781,151.0459a4,4,0,1,1-2.5149.8916,3.9919,3.9919,0,0,1,2.5149-.8916m0-1h0a5,5,0,1,0,3.888,1.8535,5.0128,5.0128,0,0,0-3.888-1.8535Z" fill="#ec9a3a"/>
            </g>
            <g>
              <line x1="45.8355" y1="141.2341" x2="34.095" y2="136.7235" fill="none" stroke="#ec9a3a" stroke-miterlimit="10"/>
              <circle cx="30.3607" cy="135.29" r="3" transform="translate(-106.8237 115.1505) rotate(-69)" fill="#ec9a3a"/>
              <path d="M30.3615,131.2889a4.0007,4.0007,0,1,1-3.7352,2.5676,3.9894,3.9894,0,0,1,3.7352-2.5676m0-1h0a5.0309,5.0309,0,0,0-4.6689,3.2093,5.0025,5.0025,0,0,0,4.6671,6.7929,5.0007,5.0007,0,0,0,1.7927-9.669,4.9791,4.9791,0,0,0-1.7907-.3332Z" fill="#ec9a3a"/>
            </g>
            <g>
              <line x1="45.8355" y1="141.2341" x2="23.0148" y2="144.8485" fill="none" stroke="#ec9a3a" stroke-miterlimit="10"/>
              <circle cx="19.0641" cy="145.4742" r="3" transform="translate(-22.5225 4.7733) rotate(-9)" fill="#ec9a3a"/>
              <path d="M19.069,141.4736a4.0035,4.0035,0,1,1-.6306.05,4.0008,4.0008,0,0,1,.6306-.05m0-1h0a5.0489,5.0489,0,0,0-.7872.0621,5,5,0,0,0,.7773,9.939,5.0469,5.0469,0,0,0,.7871-.0621,5,5,0,0,0-.7771-9.939Z" fill="#ec9a3a"/>
            </g>
            <circle cx="45.8355" cy="141.2341" r="6" transform="translate(-21.5296 8.9091) rotate(-9)" fill="#f4c289"/>
          </g>
          <g>
            <g>
              <line x1="80.0331" y1="167.2783" x2="91.3279" y2="181.3247" fill="none" stroke="#ec9a3a" stroke-miterlimit="10"/>
              <circle cx="93.8451" cy="184.4333" r="3" transform="translate(-95.1538 100.1604) rotate(-39)" fill="#ec9a3a"/>
              <path d="M93.8427,180.4331a4,4,0,1,1-2.5148.8915,3.9919,3.9919,0,0,1,2.5148-.8915m0-1h0a5,5,0,1,0,3.888,1.8535,5.0128,5.0128,0,0,0-3.888-1.8535Z" fill="#ec9a3a"/>
            </g>
            <g>
              <line x1="80.0331" y1="167.2783" x2="75.5225" y2="179.0187" fill="none" stroke="#ec9a3a" stroke-miterlimit="10"/>
              <circle cx="74.0891" cy="182.7531" r="3" transform="translate(-123.0768 186.4283) rotate(-69)" fill="#ec9a3a"/>
              <path d="M74.09,178.752a4.0007,4.0007,0,1,1-3.7352,2.5676A3.9894,3.9894,0,0,1,74.09,178.752m0-1h0a5.0309,5.0309,0,0,0-4.6689,3.2092,5.0025,5.0025,0,0,0,4.6671,6.7929,5.0007,5.0007,0,0,0,1.7927-9.669,4.9791,4.9791,0,0,0-1.7907-.3332Z" fill="#ec9a3a"/>
            </g>
            <g>
              <line x1="80.0331" y1="167.2783" x2="83.6476" y2="190.0989" fill="none" stroke="#ec9a3a" stroke-miterlimit="10"/>
              <circle cx="84.2733" cy="194.0497" r="3" transform="translate(-29.3185 15.5723) rotate(-9)" fill="#ec9a3a"/>
              <path d="M84.2782,190.0491a4.0035,4.0035,0,1,1-.6307.05,4.0008,4.0008,0,0,1,.6307-.05m0-1h0a5.0493,5.0493,0,0,0-.7873.0621,5,5,0,0,0,.7773,9.939,5.0478,5.0478,0,0,0,.7871-.0621,5,5,0,0,0-.777-9.939Z" fill="#ec9a3a"/>
            </g>
            <circle cx="80.0331" cy="167.2783" r="6" transform="translate(-25.1827 14.5794) rotate(-9)" fill="#f4c289"/>
          </g>
        </g>
        <g>
          <line x1="47.9116" y1="64.0368" x2="62.0185" y2="91.7233" fill="none" stroke="#ec9a3a" stroke-miterlimit="10"/>
          <line x1="33.7097" y1="104.6088" x2="62.0185" y2="91.7233" fill="none" stroke="#ec9a3a" stroke-miterlimit="10"/>
          <line x1="32.1619" y1="82.0223" x2="100" y2="104.0642" fill="none" stroke="#ec9a3a" stroke-miterlimit="10"/>
          <circle cx="62.0604" cy="91.7369" r="12.5" transform="translate(-44.3642 122.4116) rotate(-72)" fill="#f4c289"/>
          <g>
            <g>
              <line x1="32.4661" y1="82.1211" x2="14.823" y2="85.8078" fill="none" stroke="#ec9a3a" stroke-miterlimit="10"/>
              <circle cx="10.9104" cy="86.6395" r="3" transform="translate(-17.7749 4.1617) rotate(-12)" fill="#ec9a3a"/>
              <path d="M10.9144,82.6387a4.0035,4.0035,0,1,1-.8356.0882,4.0011,4.0011,0,0,1,.8356-.0882m0-1h0a5.0316,5.0316,0,0,0-1.0437.11A5,5,0,0,0,6.02,87.679,4.9956,4.9956,0,0,0,11.95,91.53a5,5,0,0,0,3.8512-5.93,5.0221,5.0221,0,0,0-4.8865-3.9613Z" fill="#ec9a3a"/>
            </g>
            <g>
              <line x1="32.4661" y1="82.1211" x2="24.053" y2="72.7721" fill="none" stroke="#ec9a3a" stroke-miterlimit="10"/>
              <circle cx="21.3765" cy="69.7995" r="3" transform="translate(-41.2143 32.232) rotate(-42)" fill="#ec9a3a"/>
              <path d="M21.3752,65.7995A4,4,0,1,1,18.7,66.8269a3.9892,3.9892,0,0,1,2.6752-1.0275m0-1h0a5,5,0,1,0,3.7167,1.6544,4.9914,4.9914,0,0,0-3.7167-1.6544Z" fill="#ec9a3a"/>
            </g>
            <g>
              <line x1="32.4661" y1="82.1211" x2="10.4918" y2="74.9812" fill="none" stroke="#ec9a3a" stroke-miterlimit="10"/>
              <circle cx="6.6876" cy="73.7451" r="3" transform="translate(-65.5148 57.3169) rotate(-72)" fill="#ec9a3a"/>
              <path d="M6.6868,69.7441a4.0007,4.0007,0,1,1-3.8034,2.765,3.9951,3.9951,0,0,1,3.8034-2.765m0-1h0a5.0061,5.0061,0,1,0,1.5457.2458,4.988,4.988,0,0,0-1.5457-.2458Z" fill="#ec9a3a"/>
            </g>
            <circle cx="32.4661" cy="82.1211" r="6" transform="matrix(0.309, -0.9511, 0.9511, 0.309, -55.6683, 87.6214)" fill="#f4c289"/>
          </g>
          <g>
            <g>
              <line x1="47.9116" y1="64.0368" x2="32.8291" y2="54.1681" fill="none" stroke="#ec9a3a" stroke-miterlimit="10"/>
              <circle cx="29.4744" cy="51.9896" r="3" transform="translate(-30.1806 48.3933) rotate(-57)" fill="#ec9a3a"/>
              <path d="M29.4781,47.9891A4,4,0,1,1,26.12,49.811a3.98,3.98,0,0,1,3.3584-1.8219m0-1h0a5.0012,5.0012,0,1,0,2.7193.8071,4.9866,4.9866,0,0,0-2.7193-.8071Z" fill="#ec9a3a"/>
            </g>
            <g>
              <line x1="47.9116" y1="64.0368" x2="48.5734" y2="51.4771" fill="none" stroke="#ec9a3a" stroke-miterlimit="10"/>
              <circle cx="48.7827" cy="47.4826" r="3" transform="translate(-1.1878 93.7134) rotate(-87)" fill="#ec9a3a"/>
              <path d="M48.7793,43.4825c.0706,0,.1414.0018.2127.0056a4,4,0,0,1-.2059,7.9946c-.0706,0-.1414-.0018-.2127-.0056a4,4,0,0,1,.2059-7.9946m.0006-1h0a5,5,0,0,0-.2588,9.9932c.0889.0047.1771.007.2651.007a5,5,0,0,0,.2583-9.9932c-.0887-.0047-.1767-.007-.2645-.007Z" fill="#ec9a3a"/>
            </g>
            <g>
              <line x1="47.9116" y1="64.0368" x2="37.4221" y2="43.45" fill="none" stroke="#ec9a3a" stroke-miterlimit="10"/>
              <circle cx="35.6061" cy="39.8859" r="3" transform="translate(-14.227 20.5121) rotate(-27)" fill="#ec9a3a"/>
              <path d="M35.6029,35.8851a4.0015,4.0015,0,1,1-1.8127.4368,3.9995,3.9995,0,0,1,1.8127-.4368m0-1h0a5.0178,5.0178,0,0,0-2.2669.5458,4.9975,4.9975,0,1,0,2.267-.5458Z" fill="#ec9a3a"/>
            </g>
            <circle cx="47.9116" cy="64.0368" r="6" transform="translate(-23.85 28.731) rotate(-27)" fill="#f4c289"/>
          </g>
          <g>
            <g>
              <line x1="33.7097" y1="104.6088" x2="23.8411" y2="119.6913" fill="none" stroke="#ec9a3a" stroke-miterlimit="10"/>
              <circle cx="21.6625" cy="123.046" r="3" transform="translate(-93.3308 74.198) rotate(-57)" fill="#ec9a3a"/>
              <path d="M21.6663,119.0455a4,4,0,1,1-3.3584,1.8219,3.98,3.98,0,0,1,3.3584-1.8219m0-1h0a5.0007,5.0007,0,1,0,2.7192.8071,4.9866,4.9866,0,0,0-2.7192-.8071Z" fill="#ec9a3a"/>
            </g>
            <g>
              <line x1="33.7097" y1="104.6088" x2="21.15" y2="103.947" fill="none" stroke="#ec9a3a" stroke-miterlimit="10"/>
              <circle cx="17.1555" cy="103.7376" r="3" transform="translate(-87.3378 115.4404) rotate(-87)" fill="#ec9a3a"/>
              <path d="M17.1521,99.7375c.0706,0,.1414.0018.2128.0056a4,4,0,0,1-.2059,7.9946c-.0706,0-.1414-.0018-.2128-.0056a4,4,0,0,1,.2059-7.9946m.0006-1h0a5,5,0,0,0-.2587,9.9932c.0889.0047.1771.007.2651.007a5,5,0,0,0,.2582-9.9932c-.0887-.0047-.1767-.007-.2645-.007Z" fill="#ec9a3a"/>
            </g>
            <g>
              <line x1="33.7097" y1="104.6088" x2="13.1229" y2="115.0983" fill="none" stroke="#ec9a3a" stroke-miterlimit="10"/>
              <circle cx="9.5589" cy="116.9142" r="3" transform="translate(-52.0361 17.0825) rotate(-27)" fill="#ec9a3a"/>
              <path d="M9.5557,112.9134a4.0015,4.0015,0,1,1-1.8127.4368,3.9995,3.9995,0,0,1,1.8127-.4368m0-1h0a5.0006,5.0006,0,1,0,4.4581,2.7309,5.0179,5.0179,0,0,0-4.4581-2.7309Z" fill="#ec9a3a"/>
            </g>
            <circle cx="33.7097" cy="104.6088" r="6" transform="translate(-43.8173 26.7056) rotate(-27)" fill="#f4c289"/>
          </g>
        </g>
        <circle cx="100" cy="104.1588" r="20" fill="#ec9a3a"/>
      </g>
    </g>
  </g>
</svg>
